{
  "midi": "/Users/urlocker/Downloads/Zudio/assets/midi/references/hallogallo-tab/hallogallo-tab-translation.mid",
  "ticks_per_beat": 480,
  "tracks": [
    {
      "index": 0,
      "name": "Tempo",
      "note_count": 0
    },
    {
      "index": 1,
      "name": "Bass (Hallogallo Tab)",
      "note_count": 416
    },
    {
      "index": 2,
      "name": "Guitar 1 Power Chords",
      "note_count": 832
    },
    {
      "index": 3,
      "name": "Guitar 2 Motif",
      "note_count": 32
    }
  ],
  "sections": {
    "all": {
      "bars": [
        1,
        33
      ],
      "tracks": {
        "rhythm": [
          {
            "step": 0,
            "len": 1,
            "note": 64,
            "vel": 84,
            "ch": 1
          },
          {
            "step": 0,
            "len": 1,
            "note": 71,
            "vel": 76,
            "ch": 1
          },
          {
            "step": 1,
            "len": 1,
            "note": 64,
            "vel": 84,
            "ch": 1
          },
          {
            "step": 1,
            "len": 1,
            "note": 71,
            "vel": 76,
            "ch": 1
          },
          {
            "step": 2,
            "len": 1,
            "note": 64,
            "vel": 84,
            "ch": 1
          },
          {
            "step": 2,
            "len": 1,
            "note": 71,
            "vel": 76,
            "ch": 1
          },
          {
            "step": 4,
            "len": 1,
            "note": 64,
            "vel": 84,
            "ch": 1
          },
          {
            "step": 4,
            "len": 1,
            "note": 71,
            "vel": 76,
            "ch": 1
          },
          {
            "step": 5,
            "len": 1,
            "note": 64,
            "vel": 84,
            "ch": 1
          },
          {
            "step": 5,
            "len": 1,
            "note": 71,
            "vel": 76,
            "ch": 1
          },
          {
            "step": 6,
            "len": 1,
            "note": 64,
            "vel": 84,
            "ch": 1
          },
          {
            "step": 6,
            "len": 1,
            "note": 71,
            "vel": 76,
            "ch": 1
          },
          {
            "step": 8,
            "len": 1,
            "note": 64,
            "vel": 84,
            "ch": 1
          },
          {
            "step": 8,
            "len": 1,
            "note": 71,
            "vel": 76,
            "ch": 1
          },
          {
            "step": 9,
            "len": 1,
            "note": 64,
            "vel": 84,
            "ch": 1
          },
          {
            "step": 9,
            "len": 1,
            "note": 71,
            "vel": 76,
            "ch": 1
          },
          {
            "step": 10,
            "len": 1,
            "note": 64,
            "vel": 84,
            "ch": 1
          },
          {
            "step": 10,
            "len": 1,
            "note": 71,
            "vel": 76,
            "ch": 1
          },
          {
            "step": 11,
            "len": 1,
            "note": 64,
            "vel": 84,
            "ch": 1
          },
          {
            "step": 11,
            "len": 1,
            "note": 71,
            "vel": 76,
            "ch": 1
          },
          {
            "step": 12,
            "len": 1,
            "note": 64,
            "vel": 84,
            "ch": 1
          },
          {
            "step": 12,
            "len": 1,
            "note": 71,
            "vel": 76,
            "ch": 1
          },
          {
            "step": 13,
            "len": 1,
            "note": 64,
            "vel": 84,
            "ch": 1
          },
          {
            "step": 13,
            "len": 1,
            "note": 71,
            "vel": 76,
            "ch": 1
          },
          {
            "step": 14,
            "len": 1,
            "note": 64,
            "vel": 84,
            "ch": 1
          },
          {
            "step": 14,
            "len": 1,
            "note": 71,
            "vel": 76,
            "ch": 1
          },
          {
            "step": 16,
            "len": 1,
            "note": 64,
            "vel": 84,
            "ch": 1
          },
          {
            "step": 16,
            "len": 1,
            "note": 71,
            "vel": 76,
            "ch": 1
          },
          {
            "step": 17,
            "len": 1,
            "note": 64,
            "vel": 84,
            "ch": 1
          },
          {
            "step": 17,
            "len": 1,
            "note": 71,
            "vel": 76,
            "ch": 1
          },
          {
            "step": 18,
            "len": 1,
            "note": 64,
            "vel": 84,
            "ch": 1
          },
          {
            "step": 18,
            "len": 1,
            "note": 71,
            "vel": 76,
            "ch": 1
          },
          {
            "step": 20,
            "len": 1,
            "note": 64,
            "vel": 84,
            "ch": 1
          },
          {
            "step": 20,
            "len": 1,
            "note": 71,
            "vel": 76,
            "ch": 1
          },
          {
            "step": 21,
            "len": 1,
            "note": 64,
            "vel": 84,
            "ch": 1
          },
          {
            "step": 21,
            "len": 1,
            "note": 71,
            "vel": 76,
            "ch": 1
          },
          {
            "step": 22,
            "len": 1,
            "note": 64,
            "vel": 84,
            "ch": 1
          },
          {
            "step": 22,
            "len": 1,
            "note": 71,
            "vel": 76,
            "ch": 1
          },
          {
            "step": 24,
            "len": 1,
            "note": 64,
            "vel": 84,
            "ch": 1
          },
          {
            "step": 24,
            "len": 1,
            "note": 71,
            "vel": 76,
            "ch": 1
          },
          {
            "step": 25,
            "len": 1,
            "note": 64,
            "vel": 84,
            "ch": 1
          },
          {
            "step": 25,
            "len": 1,
            "note": 71,
            "vel": 76,
            "ch": 1
          },
          {
            "step": 26,
            "len": 1,
            "note": 64,
            "vel": 84,
            "ch": 1
          },
          {
            "step": 26,
            "len": 1,
            "note": 71,
            "vel": 76,
            "ch": 1
          },
          {
            "step": 27,
            "len": 1,
            "note": 64,
            "vel": 84,
            "ch": 1
          },
          {
            "step": 27,
            "len": 1,
            "note": 71,
            "vel": 76,
            "ch": 1
          },
          {
            "step": 28,
            "len": 1,
            "note": 64,
            "vel": 84,
            "ch": 1
          },
          {
            "step": 28,
            "len": 1,
            "note": 71,
            "vel": 76,
            "ch": 1
          },
          {
            "step": 29,
            "len": 1,
            "note": 64,
            "vel": 84,
            "ch": 1
          },
          {
            "step": 29,
            "len": 1,
            "note": 71,
            "vel": 76,
            "ch": 1
          },
          {
            "step": 30,
            "len": 1,
            "note": 64,
            "vel": 84,
            "ch": 1
          },
          {
            "step": 30,
            "len": 1,
            "note": 71,
            "vel": 76,
            "ch": 1
          },
          {
            "step": 32,
            "len": 1,
            "note": 64,
            "vel": 84,
            "ch": 1
          },
          {
            "step": 32,
            "len": 1,
            "note": 71,
            "vel": 76,
            "ch": 1
          },
          {
            "step": 33,
            "len": 1,
            "note": 64,
            "vel": 84,
            "ch": 1
          },
          {
            "step": 33,
            "len": 1,
            "note": 71,
            "vel": 76,
            "ch": 1
          },
          {
            "step": 34,
            "len": 1,
            "note": 64,
            "vel": 84,
            "ch": 1
          },
          {
            "step": 34,
            "len": 1,
            "note": 71,
            "vel": 76,
            "ch": 1
          },
          {
            "step": 36,
            "len": 1,
            "note": 64,
            "vel": 84,
            "ch": 1
          },
          {
            "step": 36,
            "len": 1,
            "note": 71,
            "vel": 76,
            "ch": 1
          },
          {
            "step": 37,
            "len": 1,
            "note": 64,
            "vel": 84,
            "ch": 1
          },
          {
            "step": 37,
            "len": 1,
            "note": 71,
            "vel": 76,
            "ch": 1
          },
          {
            "step": 38,
            "len": 1,
            "note": 64,
            "vel": 84,
            "ch": 1
          },
          {
            "step": 38,
            "len": 1,
            "note": 71,
            "vel": 76,
            "ch": 1
          },
          {
            "step": 40,
            "len": 1,
            "note": 64,
            "vel": 84,
            "ch": 1
          },
          {
            "step": 40,
            "len": 1,
            "note": 71,
            "vel": 76,
            "ch": 1
          },
          {
            "step": 41,
            "len": 1,
            "note": 64,
            "vel": 84,
            "ch": 1
          },
          {
            "step": 41,
            "len": 1,
            "note": 71,
            "vel": 76,
            "ch": 1
          },
          {
            "step": 42,
            "len": 1,
            "note": 64,
            "vel": 84,
            "ch": 1
          },
          {
            "step": 42,
            "len": 1,
            "note": 71,
            "vel": 76,
            "ch": 1
          },
          {
            "step": 43,
            "len": 1,
            "note": 64,
            "vel": 84,
            "ch": 1
          },
          {
            "step": 43,
            "len": 1,
            "note": 71,
            "vel": 76,
            "ch": 1
          },
          {
            "step": 44,
            "len": 1,
            "note": 64,
            "vel": 84,
            "ch": 1
          },
          {
            "step": 44,
            "len": 1,
            "note": 71,
            "vel": 76,
            "ch": 1
          },
          {
            "step": 45,
            "len": 1,
            "note": 64,
            "vel": 84,
            "ch": 1
          },
          {
            "step": 45,
            "len": 1,
            "note": 71,
            "vel": 76,
            "ch": 1
          },
          {
            "step": 46,
            "len": 1,
            "note": 64,
            "vel": 84,
            "ch": 1
          },
          {
            "step": 46,
            "len": 1,
            "note": 71,
            "vel": 76,
            "ch": 1
          },
          {
            "step": 48,
            "len": 1,
            "note": 64,
            "vel": 84,
            "ch": 1
          },
          {
            "step": 48,
            "len": 1,
            "note": 71,
            "vel": 76,
            "ch": 1
          },
          {
            "step": 49,
            "len": 1,
            "note": 64,
            "vel": 84,
            "ch": 1
          },
          {
            "step": 49,
            "len": 1,
            "note": 71,
            "vel": 76,
            "ch": 1
          },
          {
            "step": 50,
            "len": 1,
            "note": 64,
            "vel": 84,
            "ch": 1
          },
          {
            "step": 50,
            "len": 1,
            "note": 71,
            "vel": 76,
            "ch": 1
          },
          {
            "step": 52,
            "len": 1,
            "note": 64,
            "vel": 84,
            "ch": 1
          },
          {
            "step": 52,
            "len": 1,
            "note": 71,
            "vel": 76,
            "ch": 1
          },
          {
            "step": 53,
            "len": 1,
            "note": 64,
            "vel": 84,
            "ch": 1
          },
          {
            "step": 53,
            "len": 1,
            "note": 71,
            "vel": 76,
            "ch": 1
          },
          {
            "step": 54,
            "len": 1,
            "note": 64,
            "vel": 84,
            "ch": 1
          },
          {
            "step": 54,
            "len": 1,
            "note": 71,
            "vel": 76,
            "ch": 1
          },
          {
            "step": 56,
            "len": 1,
            "note": 64,
            "vel": 84,
            "ch": 1
          },
          {
            "step": 56,
            "len": 1,
            "note": 71,
            "vel": 76,
            "ch": 1
          },
          {
            "step": 57,
            "len": 1,
            "note": 64,
            "vel": 84,
            "ch": 1
          },
          {
            "step": 57,
            "len": 1,
            "note": 71,
            "vel": 76,
            "ch": 1
          },
          {
            "step": 58,
            "len": 1,
            "note": 64,
            "vel": 84,
            "ch": 1
          },
          {
            "step": 58,
            "len": 1,
            "note": 71,
            "vel": 76,
            "ch": 1
          },
          {
            "step": 59,
            "len": 1,
            "note": 64,
            "vel": 84,
            "ch": 1
          },
          {
            "step": 59,
            "len": 1,
            "note": 71,
            "vel": 76,
            "ch": 1
          },
          {
            "step": 60,
            "len": 1,
            "note": 64,
            "vel": 84,
            "ch": 1
          },
          {
            "step": 60,
            "len": 1,
            "note": 71,
            "vel": 76,
            "ch": 1
          },
          {
            "step": 61,
            "len": 1,
            "note": 64,
            "vel": 84,
            "ch": 1
          },
          {
            "step": 61,
            "len": 1,
            "note": 71,
            "vel": 76,
            "ch": 1
          },
          {
            "step": 62,
            "len": 1,
            "note": 64,
            "vel": 84,
            "ch": 1
          },
          {
            "step": 62,
            "len": 1,
            "note": 71,
            "vel": 76,
            "ch": 1
          },
          {
            "step": 64,
            "len": 1,
            "note": 64,
            "vel": 84,
            "ch": 1
          },
          {
            "step": 64,
            "len": 1,
            "note": 71,
            "vel": 76,
            "ch": 1
          },
          {
            "step": 65,
            "len": 1,
            "note": 64,
            "vel": 84,
            "ch": 1
          },
          {
            "step": 65,
            "len": 1,
            "note": 71,
            "vel": 76,
            "ch": 1
          },
          {
            "step": 66,
            "len": 1,
            "note": 64,
            "vel": 84,
            "ch": 1
          },
          {
            "step": 66,
            "len": 1,
            "note": 71,
            "vel": 76,
            "ch": 1
          },
          {
            "step": 68,
            "len": 1,
            "note": 64,
            "vel": 84,
            "ch": 1
          },
          {
            "step": 68,
            "len": 1,
            "note": 71,
            "vel": 76,
            "ch": 1
          },
          {
            "step": 69,
            "len": 1,
            "note": 64,
            "vel": 84,
            "ch": 1
          },
          {
            "step": 69,
            "len": 1,
            "note": 71,
            "vel": 76,
            "ch": 1
          },
          {
            "step": 70,
            "len": 1,
            "note": 64,
            "vel": 84,
            "ch": 1
          },
          {
            "step": 70,
            "len": 1,
            "note": 71,
            "vel": 76,
            "ch": 1
          },
          {
            "step": 72,
            "len": 1,
            "note": 64,
            "vel": 84,
            "ch": 1
          },
          {
            "step": 72,
            "len": 1,
            "note": 71,
            "vel": 76,
            "ch": 1
          },
          {
            "step": 73,
            "len": 1,
            "note": 64,
            "vel": 84,
            "ch": 1
          },
          {
            "step": 73,
            "len": 1,
            "note": 71,
            "vel": 76,
            "ch": 1
          },
          {
            "step": 74,
            "len": 1,
            "note": 64,
            "vel": 84,
            "ch": 1
          },
          {
            "step": 74,
            "len": 1,
            "note": 71,
            "vel": 76,
            "ch": 1
          },
          {
            "step": 75,
            "len": 1,
            "note": 64,
            "vel": 84,
            "ch": 1
          },
          {
            "step": 75,
            "len": 1,
            "note": 71,
            "vel": 76,
            "ch": 1
          },
          {
            "step": 76,
            "len": 1,
            "note": 64,
            "vel": 84,
            "ch": 1
          },
          {
            "step": 76,
            "len": 1,
            "note": 71,
            "vel": 76,
            "ch": 1
          },
          {
            "step": 77,
            "len": 1,
            "note": 64,
            "vel": 84,
            "ch": 1
          },
          {
            "step": 77,
            "len": 1,
            "note": 71,
            "vel": 76,
            "ch": 1
          },
          {
            "step": 78,
            "len": 1,
            "note": 64,
            "vel": 84,
            "ch": 1
          },
          {
            "step": 78,
            "len": 1,
            "note": 71,
            "vel": 76,
            "ch": 1
          },
          {
            "step": 80,
            "len": 1,
            "note": 64,
            "vel": 84,
            "ch": 1
          },
          {
            "step": 80,
            "len": 1,
            "note": 71,
            "vel": 76,
            "ch": 1
          },
          {
            "step": 81,
            "len": 1,
            "note": 64,
            "vel": 84,
            "ch": 1
          },
          {
            "step": 81,
            "len": 1,
            "note": 71,
            "vel": 76,
            "ch": 1
          },
          {
            "step": 82,
            "len": 1,
            "note": 64,
            "vel": 84,
            "ch": 1
          },
          {
            "step": 82,
            "len": 1,
            "note": 71,
            "vel": 76,
            "ch": 1
          },
          {
            "step": 84,
            "len": 1,
            "note": 64,
            "vel": 84,
            "ch": 1
          },
          {
            "step": 84,
            "len": 1,
            "note": 71,
            "vel": 76,
            "ch": 1
          },
          {
            "step": 85,
            "len": 1,
            "note": 64,
            "vel": 84,
            "ch": 1
          },
          {
            "step": 85,
            "len": 1,
            "note": 71,
            "vel": 76,
            "ch": 1
          },
          {
            "step": 86,
            "len": 1,
            "note": 64,
            "vel": 84,
            "ch": 1
          },
          {
            "step": 86,
            "len": 1,
            "note": 71,
            "vel": 76,
            "ch": 1
          },
          {
            "step": 88,
            "len": 1,
            "note": 64,
            "vel": 84,
            "ch": 1
          },
          {
            "step": 88,
            "len": 1,
            "note": 71,
            "vel": 76,
            "ch": 1
          },
          {
            "step": 89,
            "len": 1,
            "note": 64,
            "vel": 84,
            "ch": 1
          },
          {
            "step": 89,
            "len": 1,
            "note": 71,
            "vel": 76,
            "ch": 1
          },
          {
            "step": 90,
            "len": 1,
            "note": 64,
            "vel": 84,
            "ch": 1
          },
          {
            "step": 90,
            "len": 1,
            "note": 71,
            "vel": 76,
            "ch": 1
          },
          {
            "step": 91,
            "len": 1,
            "note": 64,
            "vel": 84,
            "ch": 1
          },
          {
            "step": 91,
            "len": 1,
            "note": 71,
            "vel": 76,
            "ch": 1
          },
          {
            "step": 92,
            "len": 1,
            "note": 64,
            "vel": 84,
            "ch": 1
          },
          {
            "step": 92,
            "len": 1,
            "note": 71,
            "vel": 76,
            "ch": 1
          },
          {
            "step": 93,
            "len": 1,
            "note": 64,
            "vel": 84,
            "ch": 1
          },
          {
            "step": 93,
            "len": 1,
            "note": 71,
            "vel": 76,
            "ch": 1
          },
          {
            "step": 94,
            "len": 1,
            "note": 64,
            "vel": 84,
            "ch": 1
          },
          {
            "step": 94,
            "len": 1,
            "note": 71,
            "vel": 76,
            "ch": 1
          },
          {
            "step": 96,
            "len": 1,
            "note": 64,
            "vel": 84,
            "ch": 1
          },
          {
            "step": 96,
            "len": 1,
            "note": 71,
            "vel": 76,
            "ch": 1
          },
          {
            "step": 97,
            "len": 1,
            "note": 64,
            "vel": 84,
            "ch": 1
          },
          {
            "step": 97,
            "len": 1,
            "note": 71,
            "vel": 76,
            "ch": 1
          },
          {
            "step": 98,
            "len": 1,
            "note": 64,
            "vel": 84,
            "ch": 1
          },
          {
            "step": 98,
            "len": 1,
            "note": 71,
            "vel": 76,
            "ch": 1
          },
          {
            "step": 100,
            "len": 1,
            "note": 64,
            "vel": 84,
            "ch": 1
          },
          {
            "step": 100,
            "len": 1,
            "note": 71,
            "vel": 76,
            "ch": 1
          },
          {
            "step": 101,
            "len": 1,
            "note": 64,
            "vel": 84,
            "ch": 1
          },
          {
            "step": 101,
            "len": 1,
            "note": 71,
            "vel": 76,
            "ch": 1
          },
          {
            "step": 102,
            "len": 1,
            "note": 64,
            "vel": 84,
            "ch": 1
          },
          {
            "step": 102,
            "len": 1,
            "note": 71,
            "vel": 76,
            "ch": 1
          },
          {
            "step": 104,
            "len": 1,
            "note": 64,
            "vel": 84,
            "ch": 1
          },
          {
            "step": 104,
            "len": 1,
            "note": 71,
            "vel": 76,
            "ch": 1
          },
          {
            "step": 105,
            "len": 1,
            "note": 64,
            "vel": 84,
            "ch": 1
          },
          {
            "step": 105,
            "len": 1,
            "note": 71,
            "vel": 76,
            "ch": 1
          },
          {
            "step": 106,
            "len": 1,
            "note": 64,
            "vel": 84,
            "ch": 1
          },
          {
            "step": 106,
            "len": 1,
            "note": 71,
            "vel": 76,
            "ch": 1
          },
          {
            "step": 107,
            "len": 1,
            "note": 64,
            "vel": 84,
            "ch": 1
          },
          {
            "step": 107,
            "len": 1,
            "note": 71,
            "vel": 76,
            "ch": 1
          },
          {
            "step": 108,
            "len": 1,
            "note": 64,
            "vel": 84,
            "ch": 1
          },
          {
            "step": 108,
            "len": 1,
            "note": 71,
            "vel": 76,
            "ch": 1
          },
          {
            "step": 109,
            "len": 1,
            "note": 64,
            "vel": 84,
            "ch": 1
          },
          {
            "step": 109,
            "len": 1,
            "note": 71,
            "vel": 76,
            "ch": 1
          },
          {
            "step": 110,
            "len": 1,
            "note": 64,
            "vel": 84,
            "ch": 1
          },
          {
            "step": 110,
            "len": 1,
            "note": 71,
            "vel": 76,
            "ch": 1
          },
          {
            "step": 112,
            "len": 1,
            "note": 62,
            "vel": 84,
            "ch": 1
          },
          {
            "step": 112,
            "len": 1,
            "note": 69,
            "vel": 76,
            "ch": 1
          },
          {
            "step": 113,
            "len": 1,
            "note": 64,
            "vel": 84,
            "ch": 1
          },
          {
            "step": 113,
            "len": 1,
            "note": 71,
            "vel": 76,
            "ch": 1
          },
          {
            "step": 114,
            "len": 1,
            "note": 64,
            "vel": 84,
            "ch": 1
          },
          {
            "step": 114,
            "len": 1,
            "note": 71,
            "vel": 76,
            "ch": 1
          },
          {
            "step": 116,
            "len": 1,
            "note": 62,
            "vel": 84,
            "ch": 1
          },
          {
            "step": 116,
            "len": 1,
            "note": 69,
            "vel": 76,
            "ch": 1
          },
          {
            "step": 117,
            "len": 1,
            "note": 64,
            "vel": 84,
            "ch": 1
          },
          {
            "step": 117,
            "len": 1,
            "note": 71,
            "vel": 76,
            "ch": 1
          },
          {
            "step": 118,
            "len": 1,
            "note": 64,
            "vel": 84,
            "ch": 1
          },
          {
            "step": 118,
            "len": 1,
            "note": 71,
            "vel": 76,
            "ch": 1
          },
          {
            "step": 120,
            "len": 1,
            "note": 62,
            "vel": 84,
            "ch": 1
          },
          {
            "step": 120,
            "len": 1,
            "note": 69,
            "vel": 76,
            "ch": 1
          },
          {
            "step": 121,
            "len": 1,
            "note": 64,
            "vel": 84,
            "ch": 1
          },
          {
            "step": 121,
            "len": 1,
            "note": 71,
            "vel": 76,
            "ch": 1
          },
          {
            "step": 122,
            "len": 1,
            "note": 64,
            "vel": 84,
            "ch": 1
          },
          {
            "step": 122,
            "len": 1,
            "note": 71,
            "vel": 76,
            "ch": 1
          },
          {
            "step": 123,
            "len": 1,
            "note": 64,
            "vel": 84,
            "ch": 1
          },
          {
            "step": 123,
            "len": 1,
            "note": 71,
            "vel": 76,
            "ch": 1
          },
          {
            "step": 124,
            "len": 1,
            "note": 64,
            "vel": 84,
            "ch": 1
          },
          {
            "step": 124,
            "len": 1,
            "note": 71,
            "vel": 76,
            "ch": 1
          },
          {
            "step": 125,
            "len": 1,
            "note": 64,
            "vel": 84,
            "ch": 1
          },
          {
            "step": 125,
            "len": 1,
            "note": 71,
            "vel": 76,
            "ch": 1
          },
          {
            "step": 126,
            "len": 1,
            "note": 64,
            "vel": 84,
            "ch": 1
          },
          {
            "step": 126,
            "len": 1,
            "note": 71,
            "vel": 76,
            "ch": 1
          },
          {
            "step": 128,
            "len": 1,
            "note": 64,
            "vel": 84,
            "ch": 1
          },
          {
            "step": 128,
            "len": 1,
            "note": 71,
            "vel": 76,
            "ch": 1
          },
          {
            "step": 129,
            "len": 1,
            "note": 64,
            "vel": 84,
            "ch": 1
          },
          {
            "step": 129,
            "len": 1,
            "note": 71,
            "vel": 76,
            "ch": 1
          },
          {
            "step": 130,
            "len": 1,
            "note": 64,
            "vel": 84,
            "ch": 1
          },
          {
            "step": 130,
            "len": 1,
            "note": 71,
            "vel": 76,
            "ch": 1
          },
          {
            "step": 132,
            "len": 1,
            "note": 64,
            "vel": 84,
            "ch": 1
          },
          {
            "step": 132,
            "len": 1,
            "note": 71,
            "vel": 76,
            "ch": 1
          },
          {
            "step": 133,
            "len": 1,
            "note": 64,
            "vel": 84,
            "ch": 1
          },
          {
            "step": 133,
            "len": 1,
            "note": 71,
            "vel": 76,
            "ch": 1
          },
          {
            "step": 134,
            "len": 1,
            "note": 64,
            "vel": 84,
            "ch": 1
          },
          {
            "step": 134,
            "len": 1,
            "note": 71,
            "vel": 76,
            "ch": 1
          },
          {
            "step": 136,
            "len": 1,
            "note": 64,
            "vel": 84,
            "ch": 1
          },
          {
            "step": 136,
            "len": 1,
            "note": 71,
            "vel": 76,
            "ch": 1
          },
          {
            "step": 137,
            "len": 1,
            "note": 64,
            "vel": 84,
            "ch": 1
          },
          {
            "step": 137,
            "len": 1,
            "note": 71,
            "vel": 76,
            "ch": 1
          },
          {
            "step": 138,
            "len": 1,
            "note": 64,
            "vel": 84,
            "ch": 1
          },
          {
            "step": 138,
            "len": 1,
            "note": 71,
            "vel": 76,
            "ch": 1
          },
          {
            "step": 139,
            "len": 1,
            "note": 64,
            "vel": 84,
            "ch": 1
          },
          {
            "step": 139,
            "len": 1,
            "note": 71,
            "vel": 76,
            "ch": 1
          },
          {
            "step": 140,
            "len": 1,
            "note": 64,
            "vel": 84,
            "ch": 1
          },
          {
            "step": 140,
            "len": 1,
            "note": 71,
            "vel": 76,
            "ch": 1
          },
          {
            "step": 141,
            "len": 1,
            "note": 64,
            "vel": 84,
            "ch": 1
          },
          {
            "step": 141,
            "len": 1,
            "note": 71,
            "vel": 76,
            "ch": 1
          },
          {
            "step": 142,
            "len": 1,
            "note": 64,
            "vel": 84,
            "ch": 1
          },
          {
            "step": 142,
            "len": 1,
            "note": 71,
            "vel": 76,
            "ch": 1
          },
          {
            "step": 144,
            "len": 1,
            "note": 64,
            "vel": 84,
            "ch": 1
          },
          {
            "step": 144,
            "len": 1,
            "note": 71,
            "vel": 76,
            "ch": 1
          },
          {
            "step": 145,
            "len": 1,
            "note": 64,
            "vel": 84,
            "ch": 1
          },
          {
            "step": 145,
            "len": 1,
            "note": 71,
            "vel": 76,
            "ch": 1
          },
          {
            "step": 146,
            "len": 1,
            "note": 64,
            "vel": 84,
            "ch": 1
          },
          {
            "step": 146,
            "len": 1,
            "note": 71,
            "vel": 76,
            "ch": 1
          },
          {
            "step": 148,
            "len": 1,
            "note": 64,
            "vel": 84,
            "ch": 1
          },
          {
            "step": 148,
            "len": 1,
            "note": 71,
            "vel": 76,
            "ch": 1
          },
          {
            "step": 149,
            "len": 1,
            "note": 64,
            "vel": 84,
            "ch": 1
          },
          {
            "step": 149,
            "len": 1,
            "note": 71,
            "vel": 76,
            "ch": 1
          },
          {
            "step": 150,
            "len": 1,
            "note": 64,
            "vel": 84,
            "ch": 1
          },
          {
            "step": 150,
            "len": 1,
            "note": 71,
            "vel": 76,
            "ch": 1
          },
          {
            "step": 152,
            "len": 1,
            "note": 64,
            "vel": 84,
            "ch": 1
          },
          {
            "step": 152,
            "len": 1,
            "note": 71,
            "vel": 76,
            "ch": 1
          },
          {
            "step": 153,
            "len": 1,
            "note": 64,
            "vel": 84,
            "ch": 1
          },
          {
            "step": 153,
            "len": 1,
            "note": 71,
            "vel": 76,
            "ch": 1
          },
          {
            "step": 154,
            "len": 1,
            "note": 64,
            "vel": 84,
            "ch": 1
          },
          {
            "step": 154,
            "len": 1,
            "note": 71,
            "vel": 76,
            "ch": 1
          },
          {
            "step": 155,
            "len": 1,
            "note": 64,
            "vel": 84,
            "ch": 1
          },
          {
            "step": 155,
            "len": 1,
            "note": 71,
            "vel": 76,
            "ch": 1
          },
          {
            "step": 156,
            "len": 1,
            "note": 64,
            "vel": 84,
            "ch": 1
          },
          {
            "step": 156,
            "len": 1,
            "note": 71,
            "vel": 76,
            "ch": 1
          },
          {
            "step": 157,
            "len": 1,
            "note": 64,
            "vel": 84,
            "ch": 1
          },
          {
            "step": 157,
            "len": 1,
            "note": 71,
            "vel": 76,
            "ch": 1
          },
          {
            "step": 158,
            "len": 1,
            "note": 64,
            "vel": 84,
            "ch": 1
          },
          {
            "step": 158,
            "len": 1,
            "note": 71,
            "vel": 76,
            "ch": 1
          },
          {
            "step": 160,
            "len": 1,
            "note": 64,
            "vel": 84,
            "ch": 1
          },
          {
            "step": 160,
            "len": 1,
            "note": 71,
            "vel": 76,
            "ch": 1
          },
          {
            "step": 161,
            "len": 1,
            "note": 64,
            "vel": 84,
            "ch": 1
          },
          {
            "step": 161,
            "len": 1,
            "note": 71,
            "vel": 76,
            "ch": 1
          },
          {
            "step": 162,
            "len": 1,
            "note": 64,
            "vel": 84,
            "ch": 1
          },
          {
            "step": 162,
            "len": 1,
            "note": 71,
            "vel": 76,
            "ch": 1
          },
          {
            "step": 164,
            "len": 1,
            "note": 64,
            "vel": 84,
            "ch": 1
          },
          {
            "step": 164,
            "len": 1,
            "note": 71,
            "vel": 76,
            "ch": 1
          },
          {
            "step": 165,
            "len": 1,
            "note": 64,
            "vel": 84,
            "ch": 1
          },
          {
            "step": 165,
            "len": 1,
            "note": 71,
            "vel": 76,
            "ch": 1
          },
          {
            "step": 166,
            "len": 1,
            "note": 64,
            "vel": 84,
            "ch": 1
          },
          {
            "step": 166,
            "len": 1,
            "note": 71,
            "vel": 76,
            "ch": 1
          },
          {
            "step": 168,
            "len": 1,
            "note": 64,
            "vel": 84,
            "ch": 1
          },
          {
            "step": 168,
            "len": 1,
            "note": 71,
            "vel": 76,
            "ch": 1
          },
          {
            "step": 169,
            "len": 1,
            "note": 64,
            "vel": 84,
            "ch": 1
          },
          {
            "step": 169,
            "len": 1,
            "note": 71,
            "vel": 76,
            "ch": 1
          },
          {
            "step": 170,
            "len": 1,
            "note": 64,
            "vel": 84,
            "ch": 1
          },
          {
            "step": 170,
            "len": 1,
            "note": 71,
            "vel": 76,
            "ch": 1
          },
          {
            "step": 171,
            "len": 1,
            "note": 64,
            "vel": 84,
            "ch": 1
          },
          {
            "step": 171,
            "len": 1,
            "note": 71,
            "vel": 76,
            "ch": 1
          },
          {
            "step": 172,
            "len": 1,
            "note": 64,
            "vel": 84,
            "ch": 1
          },
          {
            "step": 172,
            "len": 1,
            "note": 71,
            "vel": 76,
            "ch": 1
          },
          {
            "step": 173,
            "len": 1,
            "note": 64,
            "vel": 84,
            "ch": 1
          },
          {
            "step": 173,
            "len": 1,
            "note": 71,
            "vel": 76,
            "ch": 1
          },
          {
            "step": 174,
            "len": 1,
            "note": 64,
            "vel": 84,
            "ch": 1
          },
          {
            "step": 174,
            "len": 1,
            "note": 71,
            "vel": 76,
            "ch": 1
          },
          {
            "step": 176,
            "len": 1,
            "note": 64,
            "vel": 84,
            "ch": 1
          },
          {
            "step": 176,
            "len": 1,
            "note": 71,
            "vel": 76,
            "ch": 1
          },
          {
            "step": 177,
            "len": 1,
            "note": 64,
            "vel": 84,
            "ch": 1
          },
          {
            "step": 177,
            "len": 1,
            "note": 71,
            "vel": 76,
            "ch": 1
          },
          {
            "step": 178,
            "len": 1,
            "note": 64,
            "vel": 84,
            "ch": 1
          },
          {
            "step": 178,
            "len": 1,
            "note": 71,
            "vel": 76,
            "ch": 1
          },
          {
            "step": 180,
            "len": 1,
            "note": 64,
            "vel": 84,
            "ch": 1
          },
          {
            "step": 180,
            "len": 1,
            "note": 71,
            "vel": 76,
            "ch": 1
          },
          {
            "step": 181,
            "len": 1,
            "note": 64,
            "vel": 84,
            "ch": 1
          },
          {
            "step": 181,
            "len": 1,
            "note": 71,
            "vel": 76,
            "ch": 1
          },
          {
            "step": 182,
            "len": 1,
            "note": 64,
            "vel": 84,
            "ch": 1
          },
          {
            "step": 182,
            "len": 1,
            "note": 71,
            "vel": 76,
            "ch": 1
          },
          {
            "step": 184,
            "len": 1,
            "note": 64,
            "vel": 84,
            "ch": 1
          },
          {
            "step": 184,
            "len": 1,
            "note": 71,
            "vel": 76,
            "ch": 1
          },
          {
            "step": 185,
            "len": 1,
            "note": 64,
            "vel": 84,
            "ch": 1
          },
          {
            "step": 185,
            "len": 1,
            "note": 71,
            "vel": 76,
            "ch": 1
          },
          {
            "step": 186,
            "len": 1,
            "note": 64,
            "vel": 84,
            "ch": 1
          },
          {
            "step": 186,
            "len": 1,
            "note": 71,
            "vel": 76,
            "ch": 1
          },
          {
            "step": 187,
            "len": 1,
            "note": 64,
            "vel": 84,
            "ch": 1
          },
          {
            "step": 187,
            "len": 1,
            "note": 71,
            "vel": 76,
            "ch": 1
          },
          {
            "step": 188,
            "len": 1,
            "note": 64,
            "vel": 84,
            "ch": 1
          },
          {
            "step": 188,
            "len": 1,
            "note": 71,
            "vel": 76,
            "ch": 1
          },
          {
            "step": 189,
            "len": 1,
            "note": 64,
            "vel": 84,
            "ch": 1
          },
          {
            "step": 189,
            "len": 1,
            "note": 71,
            "vel": 76,
            "ch": 1
          },
          {
            "step": 190,
            "len": 1,
            "note": 64,
            "vel": 84,
            "ch": 1
          },
          {
            "step": 190,
            "len": 1,
            "note": 71,
            "vel": 76,
            "ch": 1
          },
          {
            "step": 192,
            "len": 1,
            "note": 64,
            "vel": 84,
            "ch": 1
          },
          {
            "step": 192,
            "len": 1,
            "note": 71,
            "vel": 76,
            "ch": 1
          },
          {
            "step": 193,
            "len": 1,
            "note": 64,
            "vel": 84,
            "ch": 1
          },
          {
            "step": 193,
            "len": 1,
            "note": 71,
            "vel": 76,
            "ch": 1
          },
          {
            "step": 194,
            "len": 1,
            "note": 64,
            "vel": 84,
            "ch": 1
          },
          {
            "step": 194,
            "len": 1,
            "note": 71,
            "vel": 76,
            "ch": 1
          },
          {
            "step": 196,
            "len": 1,
            "note": 64,
            "vel": 84,
            "ch": 1
          },
          {
            "step": 196,
            "len": 1,
            "note": 71,
            "vel": 76,
            "ch": 1
          },
          {
            "step": 197,
            "len": 1,
            "note": 64,
            "vel": 84,
            "ch": 1
          },
          {
            "step": 197,
            "len": 1,
            "note": 71,
            "vel": 76,
            "ch": 1
          },
          {
            "step": 198,
            "len": 1,
            "note": 64,
            "vel": 84,
            "ch": 1
          },
          {
            "step": 198,
            "len": 1,
            "note": 71,
            "vel": 76,
            "ch": 1
          },
          {
            "step": 200,
            "len": 1,
            "note": 64,
            "vel": 84,
            "ch": 1
          },
          {
            "step": 200,
            "len": 1,
            "note": 71,
            "vel": 76,
            "ch": 1
          },
          {
            "step": 201,
            "len": 1,
            "note": 64,
            "vel": 84,
            "ch": 1
          },
          {
            "step": 201,
            "len": 1,
            "note": 71,
            "vel": 76,
            "ch": 1
          },
          {
            "step": 202,
            "len": 1,
            "note": 64,
            "vel": 84,
            "ch": 1
          },
          {
            "step": 202,
            "len": 1,
            "note": 71,
            "vel": 76,
            "ch": 1
          },
          {
            "step": 203,
            "len": 1,
            "note": 64,
            "vel": 84,
            "ch": 1
          },
          {
            "step": 203,
            "len": 1,
            "note": 71,
            "vel": 76,
            "ch": 1
          },
          {
            "step": 204,
            "len": 1,
            "note": 64,
            "vel": 84,
            "ch": 1
          },
          {
            "step": 204,
            "len": 1,
            "note": 71,
            "vel": 76,
            "ch": 1
          },
          {
            "step": 205,
            "len": 1,
            "note": 64,
            "vel": 84,
            "ch": 1
          },
          {
            "step": 205,
            "len": 1,
            "note": 71,
            "vel": 76,
            "ch": 1
          },
          {
            "step": 206,
            "len": 1,
            "note": 64,
            "vel": 84,
            "ch": 1
          },
          {
            "step": 206,
            "len": 1,
            "note": 71,
            "vel": 76,
            "ch": 1
          },
          {
            "step": 208,
            "len": 1,
            "note": 64,
            "vel": 84,
            "ch": 1
          },
          {
            "step": 208,
            "len": 1,
            "note": 71,
            "vel": 76,
            "ch": 1
          },
          {
            "step": 209,
            "len": 1,
            "note": 64,
            "vel": 84,
            "ch": 1
          },
          {
            "step": 209,
            "len": 1,
            "note": 71,
            "vel": 76,
            "ch": 1
          },
          {
            "step": 210,
            "len": 1,
            "note": 64,
            "vel": 84,
            "ch": 1
          },
          {
            "step": 210,
            "len": 1,
            "note": 71,
            "vel": 76,
            "ch": 1
          },
          {
            "step": 212,
            "len": 1,
            "note": 64,
            "vel": 84,
            "ch": 1
          },
          {
            "step": 212,
            "len": 1,
            "note": 71,
            "vel": 76,
            "ch": 1
          },
          {
            "step": 213,
            "len": 1,
            "note": 64,
            "vel": 84,
            "ch": 1
          },
          {
            "step": 213,
            "len": 1,
            "note": 71,
            "vel": 76,
            "ch": 1
          },
          {
            "step": 214,
            "len": 1,
            "note": 64,
            "vel": 84,
            "ch": 1
          },
          {
            "step": 214,
            "len": 1,
            "note": 71,
            "vel": 76,
            "ch": 1
          },
          {
            "step": 216,
            "len": 1,
            "note": 64,
            "vel": 84,
            "ch": 1
          },
          {
            "step": 216,
            "len": 1,
            "note": 71,
            "vel": 76,
            "ch": 1
          },
          {
            "step": 217,
            "len": 1,
            "note": 64,
            "vel": 84,
            "ch": 1
          },
          {
            "step": 217,
            "len": 1,
            "note": 71,
            "vel": 76,
            "ch": 1
          },
          {
            "step": 218,
            "len": 1,
            "note": 64,
            "vel": 84,
            "ch": 1
          },
          {
            "step": 218,
            "len": 1,
            "note": 71,
            "vel": 76,
            "ch": 1
          },
          {
            "step": 219,
            "len": 1,
            "note": 64,
            "vel": 84,
            "ch": 1
          },
          {
            "step": 219,
            "len": 1,
            "note": 71,
            "vel": 76,
            "ch": 1
          },
          {
            "step": 220,
            "len": 1,
            "note": 64,
            "vel": 84,
            "ch": 1
          },
          {
            "step": 220,
            "len": 1,
            "note": 71,
            "vel": 76,
            "ch": 1
          },
          {
            "step": 221,
            "len": 1,
            "note": 64,
            "vel": 84,
            "ch": 1
          },
          {
            "step": 221,
            "len": 1,
            "note": 71,
            "vel": 76,
            "ch": 1
          },
          {
            "step": 222,
            "len": 1,
            "note": 64,
            "vel": 84,
            "ch": 1
          },
          {
            "step": 222,
            "len": 1,
            "note": 71,
            "vel": 76,
            "ch": 1
          },
          {
            "step": 224,
            "len": 1,
            "note": 64,
            "vel": 84,
            "ch": 1
          },
          {
            "step": 224,
            "len": 1,
            "note": 71,
            "vel": 76,
            "ch": 1
          },
          {
            "step": 225,
            "len": 1,
            "note": 64,
            "vel": 84,
            "ch": 1
          },
          {
            "step": 225,
            "len": 1,
            "note": 71,
            "vel": 76,
            "ch": 1
          },
          {
            "step": 226,
            "len": 1,
            "note": 64,
            "vel": 84,
            "ch": 1
          },
          {
            "step": 226,
            "len": 1,
            "note": 71,
            "vel": 76,
            "ch": 1
          },
          {
            "step": 228,
            "len": 1,
            "note": 64,
            "vel": 84,
            "ch": 1
          },
          {
            "step": 228,
            "len": 1,
            "note": 71,
            "vel": 76,
            "ch": 1
          },
          {
            "step": 229,
            "len": 1,
            "note": 64,
            "vel": 84,
            "ch": 1
          },
          {
            "step": 229,
            "len": 1,
            "note": 71,
            "vel": 76,
            "ch": 1
          },
          {
            "step": 230,
            "len": 1,
            "note": 64,
            "vel": 84,
            "ch": 1
          },
          {
            "step": 230,
            "len": 1,
            "note": 71,
            "vel": 76,
            "ch": 1
          },
          {
            "step": 232,
            "len": 1,
            "note": 64,
            "vel": 84,
            "ch": 1
          },
          {
            "step": 232,
            "len": 1,
            "note": 71,
            "vel": 76,
            "ch": 1
          },
          {
            "step": 233,
            "len": 1,
            "note": 64,
            "vel": 84,
            "ch": 1
          },
          {
            "step": 233,
            "len": 1,
            "note": 71,
            "vel": 76,
            "ch": 1
          },
          {
            "step": 234,
            "len": 1,
            "note": 64,
            "vel": 84,
            "ch": 1
          },
          {
            "step": 234,
            "len": 1,
            "note": 71,
            "vel": 76,
            "ch": 1
          },
          {
            "step": 235,
            "len": 1,
            "note": 64,
            "vel": 84,
            "ch": 1
          },
          {
            "step": 235,
            "len": 1,
            "note": 71,
            "vel": 76,
            "ch": 1
          },
          {
            "step": 236,
            "len": 1,
            "note": 64,
            "vel": 84,
            "ch": 1
          },
          {
            "step": 236,
            "len": 1,
            "note": 71,
            "vel": 76,
            "ch": 1
          },
          {
            "step": 237,
            "len": 1,
            "note": 64,
            "vel": 84,
            "ch": 1
          },
          {
            "step": 237,
            "len": 1,
            "note": 71,
            "vel": 76,
            "ch": 1
          },
          {
            "step": 238,
            "len": 1,
            "note": 64,
            "vel": 84,
            "ch": 1
          },
          {
            "step": 238,
            "len": 1,
            "note": 71,
            "vel": 76,
            "ch": 1
          },
          {
            "step": 240,
            "len": 1,
            "note": 62,
            "vel": 84,
            "ch": 1
          },
          {
            "step": 240,
            "len": 1,
            "note": 69,
            "vel": 76,
            "ch": 1
          },
          {
            "step": 241,
            "len": 1,
            "note": 64,
            "vel": 84,
            "ch": 1
          },
          {
            "step": 241,
            "len": 1,
            "note": 71,
            "vel": 76,
            "ch": 1
          },
          {
            "step": 242,
            "len": 1,
            "note": 64,
            "vel": 84,
            "ch": 1
          },
          {
            "step": 242,
            "len": 1,
            "note": 71,
            "vel": 76,
            "ch": 1
          },
          {
            "step": 244,
            "len": 1,
            "note": 62,
            "vel": 84,
            "ch": 1
          },
          {
            "step": 244,
            "len": 1,
            "note": 69,
            "vel": 76,
            "ch": 1
          },
          {
            "step": 245,
            "len": 1,
            "note": 64,
            "vel": 84,
            "ch": 1
          },
          {
            "step": 245,
            "len": 1,
            "note": 71,
            "vel": 76,
            "ch": 1
          },
          {
            "step": 246,
            "len": 1,
            "note": 64,
            "vel": 84,
            "ch": 1
          },
          {
            "step": 246,
            "len": 1,
            "note": 71,
            "vel": 76,
            "ch": 1
          },
          {
            "step": 248,
            "len": 1,
            "note": 62,
            "vel": 84,
            "ch": 1
          },
          {
            "step": 248,
            "len": 1,
            "note": 69,
            "vel": 76,
            "ch": 1
          },
          {
            "step": 249,
            "len": 1,
            "note": 64,
            "vel": 84,
            "ch": 1
          },
          {
            "step": 249,
            "len": 1,
            "note": 71,
            "vel": 76,
            "ch": 1
          },
          {
            "step": 250,
            "len": 1,
            "note": 64,
            "vel": 84,
            "ch": 1
          },
          {
            "step": 250,
            "len": 1,
            "note": 71,
            "vel": 76,
            "ch": 1
          },
          {
            "step": 251,
            "len": 1,
            "note": 64,
            "vel": 84,
            "ch": 1
          },
          {
            "step": 251,
            "len": 1,
            "note": 71,
            "vel": 76,
            "ch": 1
          },
          {
            "step": 252,
            "len": 1,
            "note": 64,
            "vel": 84,
            "ch": 1
          },
          {
            "step": 252,
            "len": 1,
            "note": 71,
            "vel": 76,
            "ch": 1
          },
          {
            "step": 253,
            "len": 1,
            "note": 64,
            "vel": 84,
            "ch": 1
          },
          {
            "step": 253,
            "len": 1,
            "note": 71,
            "vel": 76,
            "ch": 1
          },
          {
            "step": 254,
            "len": 1,
            "note": 64,
            "vel": 84,
            "ch": 1
          },
          {
            "step": 254,
            "len": 1,
            "note": 71,
            "vel": 76,
            "ch": 1
          },
          {
            "step": 256,
            "len": 1,
            "note": 64,
            "vel": 84,
            "ch": 1
          },
          {
            "step": 256,
            "len": 1,
            "note": 71,
            "vel": 76,
            "ch": 1
          },
          {
            "step": 257,
            "len": 1,
            "note": 64,
            "vel": 84,
            "ch": 1
          },
          {
            "step": 257,
            "len": 1,
            "note": 71,
            "vel": 76,
            "ch": 1
          },
          {
            "step": 258,
            "len": 1,
            "note": 64,
            "vel": 84,
            "ch": 1
          },
          {
            "step": 258,
            "len": 1,
            "note": 71,
            "vel": 76,
            "ch": 1
          },
          {
            "step": 260,
            "len": 1,
            "note": 64,
            "vel": 84,
            "ch": 1
          },
          {
            "step": 260,
            "len": 1,
            "note": 71,
            "vel": 76,
            "ch": 1
          },
          {
            "step": 261,
            "len": 1,
            "note": 64,
            "vel": 84,
            "ch": 1
          },
          {
            "step": 261,
            "len": 1,
            "note": 71,
            "vel": 76,
            "ch": 1
          },
          {
            "step": 262,
            "len": 1,
            "note": 64,
            "vel": 84,
            "ch": 1
          },
          {
            "step": 262,
            "len": 1,
            "note": 71,
            "vel": 76,
            "ch": 1
          },
          {
            "step": 264,
            "len": 1,
            "note": 64,
            "vel": 84,
            "ch": 1
          },
          {
            "step": 264,
            "len": 1,
            "note": 71,
            "vel": 76,
            "ch": 1
          },
          {
            "step": 265,
            "len": 1,
            "note": 64,
            "vel": 84,
            "ch": 1
          },
          {
            "step": 265,
            "len": 1,
            "note": 71,
            "vel": 76,
            "ch": 1
          },
          {
            "step": 266,
            "len": 1,
            "note": 64,
            "vel": 84,
            "ch": 1
          },
          {
            "step": 266,
            "len": 1,
            "note": 71,
            "vel": 76,
            "ch": 1
          },
          {
            "step": 267,
            "len": 1,
            "note": 64,
            "vel": 84,
            "ch": 1
          },
          {
            "step": 267,
            "len": 1,
            "note": 71,
            "vel": 76,
            "ch": 1
          },
          {
            "step": 268,
            "len": 1,
            "note": 64,
            "vel": 84,
            "ch": 1
          },
          {
            "step": 268,
            "len": 1,
            "note": 71,
            "vel": 76,
            "ch": 1
          },
          {
            "step": 269,
            "len": 1,
            "note": 64,
            "vel": 84,
            "ch": 1
          },
          {
            "step": 269,
            "len": 1,
            "note": 71,
            "vel": 76,
            "ch": 1
          },
          {
            "step": 270,
            "len": 1,
            "note": 64,
            "vel": 84,
            "ch": 1
          },
          {
            "step": 270,
            "len": 1,
            "note": 71,
            "vel": 76,
            "ch": 1
          },
          {
            "step": 272,
            "len": 1,
            "note": 64,
            "vel": 84,
            "ch": 1
          },
          {
            "step": 272,
            "len": 1,
            "note": 71,
            "vel": 76,
            "ch": 1
          },
          {
            "step": 273,
            "len": 1,
            "note": 64,
            "vel": 84,
            "ch": 1
          },
          {
            "step": 273,
            "len": 1,
            "note": 71,
            "vel": 76,
            "ch": 1
          },
          {
            "step": 274,
            "len": 1,
            "note": 64,
            "vel": 84,
            "ch": 1
          },
          {
            "step": 274,
            "len": 1,
            "note": 71,
            "vel": 76,
            "ch": 1
          },
          {
            "step": 276,
            "len": 1,
            "note": 64,
            "vel": 84,
            "ch": 1
          },
          {
            "step": 276,
            "len": 1,
            "note": 71,
            "vel": 76,
            "ch": 1
          },
          {
            "step": 277,
            "len": 1,
            "note": 64,
            "vel": 84,
            "ch": 1
          },
          {
            "step": 277,
            "len": 1,
            "note": 71,
            "vel": 76,
            "ch": 1
          },
          {
            "step": 278,
            "len": 1,
            "note": 64,
            "vel": 84,
            "ch": 1
          },
          {
            "step": 278,
            "len": 1,
            "note": 71,
            "vel": 76,
            "ch": 1
          },
          {
            "step": 280,
            "len": 1,
            "note": 64,
            "vel": 84,
            "ch": 1
          },
          {
            "step": 280,
            "len": 1,
            "note": 71,
            "vel": 76,
            "ch": 1
          },
          {
            "step": 281,
            "len": 1,
            "note": 64,
            "vel": 84,
            "ch": 1
          },
          {
            "step": 281,
            "len": 1,
            "note": 71,
            "vel": 76,
            "ch": 1
          },
          {
            "step": 282,
            "len": 1,
            "note": 64,
            "vel": 84,
            "ch": 1
          },
          {
            "step": 282,
            "len": 1,
            "note": 71,
            "vel": 76,
            "ch": 1
          },
          {
            "step": 283,
            "len": 1,
            "note": 64,
            "vel": 84,
            "ch": 1
          },
          {
            "step": 283,
            "len": 1,
            "note": 71,
            "vel": 76,
            "ch": 1
          },
          {
            "step": 284,
            "len": 1,
            "note": 64,
            "vel": 84,
            "ch": 1
          },
          {
            "step": 284,
            "len": 1,
            "note": 71,
            "vel": 76,
            "ch": 1
          },
          {
            "step": 285,
            "len": 1,
            "note": 64,
            "vel": 84,
            "ch": 1
          },
          {
            "step": 285,
            "len": 1,
            "note": 71,
            "vel": 76,
            "ch": 1
          },
          {
            "step": 286,
            "len": 1,
            "note": 64,
            "vel": 84,
            "ch": 1
          },
          {
            "step": 286,
            "len": 1,
            "note": 71,
            "vel": 76,
            "ch": 1
          },
          {
            "step": 288,
            "len": 1,
            "note": 64,
            "vel": 84,
            "ch": 1
          },
          {
            "step": 288,
            "len": 1,
            "note": 71,
            "vel": 76,
            "ch": 1
          },
          {
            "step": 289,
            "len": 1,
            "note": 64,
            "vel": 84,
            "ch": 1
          },
          {
            "step": 289,
            "len": 1,
            "note": 71,
            "vel": 76,
            "ch": 1
          },
          {
            "step": 290,
            "len": 1,
            "note": 64,
            "vel": 84,
            "ch": 1
          },
          {
            "step": 290,
            "len": 1,
            "note": 71,
            "vel": 76,
            "ch": 1
          },
          {
            "step": 292,
            "len": 1,
            "note": 64,
            "vel": 84,
            "ch": 1
          },
          {
            "step": 292,
            "len": 1,
            "note": 71,
            "vel": 76,
            "ch": 1
          },
          {
            "step": 293,
            "len": 1,
            "note": 64,
            "vel": 84,
            "ch": 1
          },
          {
            "step": 293,
            "len": 1,
            "note": 71,
            "vel": 76,
            "ch": 1
          },
          {
            "step": 294,
            "len": 1,
            "note": 64,
            "vel": 84,
            "ch": 1
          },
          {
            "step": 294,
            "len": 1,
            "note": 71,
            "vel": 76,
            "ch": 1
          },
          {
            "step": 296,
            "len": 1,
            "note": 64,
            "vel": 84,
            "ch": 1
          },
          {
            "step": 296,
            "len": 1,
            "note": 71,
            "vel": 76,
            "ch": 1
          },
          {
            "step": 297,
            "len": 1,
            "note": 64,
            "vel": 84,
            "ch": 1
          },
          {
            "step": 297,
            "len": 1,
            "note": 71,
            "vel": 76,
            "ch": 1
          },
          {
            "step": 298,
            "len": 1,
            "note": 64,
            "vel": 84,
            "ch": 1
          },
          {
            "step": 298,
            "len": 1,
            "note": 71,
            "vel": 76,
            "ch": 1
          },
          {
            "step": 299,
            "len": 1,
            "note": 64,
            "vel": 84,
            "ch": 1
          },
          {
            "step": 299,
            "len": 1,
            "note": 71,
            "vel": 76,
            "ch": 1
          },
          {
            "step": 300,
            "len": 1,
            "note": 64,
            "vel": 84,
            "ch": 1
          },
          {
            "step": 300,
            "len": 1,
            "note": 71,
            "vel": 76,
            "ch": 1
          },
          {
            "step": 301,
            "len": 1,
            "note": 64,
            "vel": 84,
            "ch": 1
          },
          {
            "step": 301,
            "len": 1,
            "note": 71,
            "vel": 76,
            "ch": 1
          },
          {
            "step": 302,
            "len": 1,
            "note": 64,
            "vel": 84,
            "ch": 1
          },
          {
            "step": 302,
            "len": 1,
            "note": 71,
            "vel": 76,
            "ch": 1
          },
          {
            "step": 304,
            "len": 1,
            "note": 64,
            "vel": 84,
            "ch": 1
          },
          {
            "step": 304,
            "len": 1,
            "note": 71,
            "vel": 76,
            "ch": 1
          },
          {
            "step": 305,
            "len": 1,
            "note": 64,
            "vel": 84,
            "ch": 1
          },
          {
            "step": 305,
            "len": 1,
            "note": 71,
            "vel": 76,
            "ch": 1
          },
          {
            "step": 306,
            "len": 1,
            "note": 64,
            "vel": 84,
            "ch": 1
          },
          {
            "step": 306,
            "len": 1,
            "note": 71,
            "vel": 76,
            "ch": 1
          },
          {
            "step": 308,
            "len": 1,
            "note": 64,
            "vel": 84,
            "ch": 1
          },
          {
            "step": 308,
            "len": 1,
            "note": 71,
            "vel": 76,
            "ch": 1
          },
          {
            "step": 309,
            "len": 1,
            "note": 64,
            "vel": 84,
            "ch": 1
          },
          {
            "step": 309,
            "len": 1,
            "note": 71,
            "vel": 76,
            "ch": 1
          },
          {
            "step": 310,
            "len": 1,
            "note": 64,
            "vel": 84,
            "ch": 1
          },
          {
            "step": 310,
            "len": 1,
            "note": 71,
            "vel": 76,
            "ch": 1
          },
          {
            "step": 312,
            "len": 1,
            "note": 64,
            "vel": 84,
            "ch": 1
          },
          {
            "step": 312,
            "len": 1,
            "note": 71,
            "vel": 76,
            "ch": 1
          },
          {
            "step": 313,
            "len": 1,
            "note": 64,
            "vel": 84,
            "ch": 1
          },
          {
            "step": 313,
            "len": 1,
            "note": 71,
            "vel": 76,
            "ch": 1
          },
          {
            "step": 314,
            "len": 1,
            "note": 64,
            "vel": 84,
            "ch": 1
          },
          {
            "step": 314,
            "len": 1,
            "note": 71,
            "vel": 76,
            "ch": 1
          },
          {
            "step": 315,
            "len": 1,
            "note": 64,
            "vel": 84,
            "ch": 1
          },
          {
            "step": 315,
            "len": 1,
            "note": 71,
            "vel": 76,
            "ch": 1
          },
          {
            "step": 316,
            "len": 1,
            "note": 64,
            "vel": 84,
            "ch": 1
          },
          {
            "step": 316,
            "len": 1,
            "note": 71,
            "vel": 76,
            "ch": 1
          },
          {
            "step": 317,
            "len": 1,
            "note": 64,
            "vel": 84,
            "ch": 1
          },
          {
            "step": 317,
            "len": 1,
            "note": 71,
            "vel": 76,
            "ch": 1
          },
          {
            "step": 318,
            "len": 1,
            "note": 64,
            "vel": 84,
            "ch": 1
          },
          {
            "step": 318,
            "len": 1,
            "note": 71,
            "vel": 76,
            "ch": 1
          },
          {
            "step": 320,
            "len": 1,
            "note": 64,
            "vel": 84,
            "ch": 1
          },
          {
            "step": 320,
            "len": 1,
            "note": 71,
            "vel": 76,
            "ch": 1
          },
          {
            "step": 321,
            "len": 1,
            "note": 64,
            "vel": 84,
            "ch": 1
          },
          {
            "step": 321,
            "len": 1,
            "note": 71,
            "vel": 76,
            "ch": 1
          },
          {
            "step": 322,
            "len": 1,
            "note": 64,
            "vel": 84,
            "ch": 1
          },
          {
            "step": 322,
            "len": 1,
            "note": 71,
            "vel": 76,
            "ch": 1
          },
          {
            "step": 324,
            "len": 1,
            "note": 64,
            "vel": 84,
            "ch": 1
          },
          {
            "step": 324,
            "len": 1,
            "note": 71,
            "vel": 76,
            "ch": 1
          },
          {
            "step": 325,
            "len": 1,
            "note": 64,
            "vel": 84,
            "ch": 1
          },
          {
            "step": 325,
            "len": 1,
            "note": 71,
            "vel": 76,
            "ch": 1
          },
          {
            "step": 326,
            "len": 1,
            "note": 64,
            "vel": 84,
            "ch": 1
          },
          {
            "step": 326,
            "len": 1,
            "note": 71,
            "vel": 76,
            "ch": 1
          },
          {
            "step": 328,
            "len": 1,
            "note": 64,
            "vel": 84,
            "ch": 1
          },
          {
            "step": 328,
            "len": 1,
            "note": 71,
            "vel": 76,
            "ch": 1
          },
          {
            "step": 329,
            "len": 1,
            "note": 64,
            "vel": 84,
            "ch": 1
          },
          {
            "step": 329,
            "len": 1,
            "note": 71,
            "vel": 76,
            "ch": 1
          },
          {
            "step": 330,
            "len": 1,
            "note": 64,
            "vel": 84,
            "ch": 1
          },
          {
            "step": 330,
            "len": 1,
            "note": 71,
            "vel": 76,
            "ch": 1
          },
          {
            "step": 331,
            "len": 1,
            "note": 64,
            "vel": 84,
            "ch": 1
          },
          {
            "step": 331,
            "len": 1,
            "note": 71,
            "vel": 76,
            "ch": 1
          },
          {
            "step": 332,
            "len": 1,
            "note": 64,
            "vel": 84,
            "ch": 1
          },
          {
            "step": 332,
            "len": 1,
            "note": 71,
            "vel": 76,
            "ch": 1
          },
          {
            "step": 333,
            "len": 1,
            "note": 64,
            "vel": 84,
            "ch": 1
          },
          {
            "step": 333,
            "len": 1,
            "note": 71,
            "vel": 76,
            "ch": 1
          },
          {
            "step": 334,
            "len": 1,
            "note": 64,
            "vel": 84,
            "ch": 1
          },
          {
            "step": 334,
            "len": 1,
            "note": 71,
            "vel": 76,
            "ch": 1
          },
          {
            "step": 336,
            "len": 1,
            "note": 64,
            "vel": 84,
            "ch": 1
          },
          {
            "step": 336,
            "len": 1,
            "note": 71,
            "vel": 76,
            "ch": 1
          },
          {
            "step": 337,
            "len": 1,
            "note": 64,
            "vel": 84,
            "ch": 1
          },
          {
            "step": 337,
            "len": 1,
            "note": 71,
            "vel": 76,
            "ch": 1
          },
          {
            "step": 338,
            "len": 1,
            "note": 64,
            "vel": 84,
            "ch": 1
          },
          {
            "step": 338,
            "len": 1,
            "note": 71,
            "vel": 76,
            "ch": 1
          },
          {
            "step": 340,
            "len": 1,
            "note": 64,
            "vel": 84,
            "ch": 1
          },
          {
            "step": 340,
            "len": 1,
            "note": 71,
            "vel": 76,
            "ch": 1
          },
          {
            "step": 341,
            "len": 1,
            "note": 64,
            "vel": 84,
            "ch": 1
          },
          {
            "step": 341,
            "len": 1,
            "note": 71,
            "vel": 76,
            "ch": 1
          },
          {
            "step": 342,
            "len": 1,
            "note": 64,
            "vel": 84,
            "ch": 1
          },
          {
            "step": 342,
            "len": 1,
            "note": 71,
            "vel": 76,
            "ch": 1
          },
          {
            "step": 344,
            "len": 1,
            "note": 64,
            "vel": 84,
            "ch": 1
          },
          {
            "step": 344,
            "len": 1,
            "note": 71,
            "vel": 76,
            "ch": 1
          },
          {
            "step": 345,
            "len": 1,
            "note": 64,
            "vel": 84,
            "ch": 1
          },
          {
            "step": 345,
            "len": 1,
            "note": 71,
            "vel": 76,
            "ch": 1
          },
          {
            "step": 346,
            "len": 1,
            "note": 64,
            "vel": 84,
            "ch": 1
          },
          {
            "step": 346,
            "len": 1,
            "note": 71,
            "vel": 76,
            "ch": 1
          },
          {
            "step": 347,
            "len": 1,
            "note": 64,
            "vel": 84,
            "ch": 1
          },
          {
            "step": 347,
            "len": 1,
            "note": 71,
            "vel": 76,
            "ch": 1
          },
          {
            "step": 348,
            "len": 1,
            "note": 64,
            "vel": 84,
            "ch": 1
          },
          {
            "step": 348,
            "len": 1,
            "note": 71,
            "vel": 76,
            "ch": 1
          },
          {
            "step": 349,
            "len": 1,
            "note": 64,
            "vel": 84,
            "ch": 1
          },
          {
            "step": 349,
            "len": 1,
            "note": 71,
            "vel": 76,
            "ch": 1
          },
          {
            "step": 350,
            "len": 1,
            "note": 64,
            "vel": 84,
            "ch": 1
          },
          {
            "step": 350,
            "len": 1,
            "note": 71,
            "vel": 76,
            "ch": 1
          },
          {
            "step": 352,
            "len": 1,
            "note": 64,
            "vel": 84,
            "ch": 1
          },
          {
            "step": 352,
            "len": 1,
            "note": 71,
            "vel": 76,
            "ch": 1
          },
          {
            "step": 353,
            "len": 1,
            "note": 64,
            "vel": 84,
            "ch": 1
          },
          {
            "step": 353,
            "len": 1,
            "note": 71,
            "vel": 76,
            "ch": 1
          },
          {
            "step": 354,
            "len": 1,
            "note": 64,
            "vel": 84,
            "ch": 1
          },
          {
            "step": 354,
            "len": 1,
            "note": 71,
            "vel": 76,
            "ch": 1
          },
          {
            "step": 356,
            "len": 1,
            "note": 64,
            "vel": 84,
            "ch": 1
          },
          {
            "step": 356,
            "len": 1,
            "note": 71,
            "vel": 76,
            "ch": 1
          },
          {
            "step": 357,
            "len": 1,
            "note": 64,
            "vel": 84,
            "ch": 1
          },
          {
            "step": 357,
            "len": 1,
            "note": 71,
            "vel": 76,
            "ch": 1
          },
          {
            "step": 358,
            "len": 1,
            "note": 64,
            "vel": 84,
            "ch": 1
          },
          {
            "step": 358,
            "len": 1,
            "note": 71,
            "vel": 76,
            "ch": 1
          },
          {
            "step": 360,
            "len": 1,
            "note": 64,
            "vel": 84,
            "ch": 1
          },
          {
            "step": 360,
            "len": 1,
            "note": 71,
            "vel": 76,
            "ch": 1
          },
          {
            "step": 361,
            "len": 1,
            "note": 64,
            "vel": 84,
            "ch": 1
          },
          {
            "step": 361,
            "len": 1,
            "note": 71,
            "vel": 76,
            "ch": 1
          },
          {
            "step": 362,
            "len": 1,
            "note": 64,
            "vel": 84,
            "ch": 1
          },
          {
            "step": 362,
            "len": 1,
            "note": 71,
            "vel": 76,
            "ch": 1
          },
          {
            "step": 363,
            "len": 1,
            "note": 64,
            "vel": 84,
            "ch": 1
          },
          {
            "step": 363,
            "len": 1,
            "note": 71,
            "vel": 76,
            "ch": 1
          },
          {
            "step": 364,
            "len": 1,
            "note": 64,
            "vel": 84,
            "ch": 1
          },
          {
            "step": 364,
            "len": 1,
            "note": 71,
            "vel": 76,
            "ch": 1
          },
          {
            "step": 365,
            "len": 1,
            "note": 64,
            "vel": 84,
            "ch": 1
          },
          {
            "step": 365,
            "len": 1,
            "note": 71,
            "vel": 76,
            "ch": 1
          },
          {
            "step": 366,
            "len": 1,
            "note": 64,
            "vel": 84,
            "ch": 1
          },
          {
            "step": 366,
            "len": 1,
            "note": 71,
            "vel": 76,
            "ch": 1
          },
          {
            "step": 368,
            "len": 1,
            "note": 62,
            "vel": 84,
            "ch": 1
          },
          {
            "step": 368,
            "len": 1,
            "note": 69,
            "vel": 76,
            "ch": 1
          },
          {
            "step": 369,
            "len": 1,
            "note": 64,
            "vel": 84,
            "ch": 1
          },
          {
            "step": 369,
            "len": 1,
            "note": 71,
            "vel": 76,
            "ch": 1
          },
          {
            "step": 370,
            "len": 1,
            "note": 64,
            "vel": 84,
            "ch": 1
          },
          {
            "step": 370,
            "len": 1,
            "note": 71,
            "vel": 76,
            "ch": 1
          },
          {
            "step": 372,
            "len": 1,
            "note": 62,
            "vel": 84,
            "ch": 1
          },
          {
            "step": 372,
            "len": 1,
            "note": 69,
            "vel": 76,
            "ch": 1
          },
          {
            "step": 373,
            "len": 1,
            "note": 64,
            "vel": 84,
            "ch": 1
          },
          {
            "step": 373,
            "len": 1,
            "note": 71,
            "vel": 76,
            "ch": 1
          },
          {
            "step": 374,
            "len": 1,
            "note": 64,
            "vel": 84,
            "ch": 1
          },
          {
            "step": 374,
            "len": 1,
            "note": 71,
            "vel": 76,
            "ch": 1
          },
          {
            "step": 376,
            "len": 1,
            "note": 62,
            "vel": 84,
            "ch": 1
          },
          {
            "step": 376,
            "len": 1,
            "note": 69,
            "vel": 76,
            "ch": 1
          },
          {
            "step": 377,
            "len": 1,
            "note": 64,
            "vel": 84,
            "ch": 1
          },
          {
            "step": 377,
            "len": 1,
            "note": 71,
            "vel": 76,
            "ch": 1
          },
          {
            "step": 378,
            "len": 1,
            "note": 64,
            "vel": 84,
            "ch": 1
          },
          {
            "step": 378,
            "len": 1,
            "note": 71,
            "vel": 76,
            "ch": 1
          },
          {
            "step": 379,
            "len": 1,
            "note": 64,
            "vel": 84,
            "ch": 1
          },
          {
            "step": 379,
            "len": 1,
            "note": 71,
            "vel": 76,
            "ch": 1
          },
          {
            "step": 380,
            "len": 1,
            "note": 64,
            "vel": 84,
            "ch": 1
          },
          {
            "step": 380,
            "len": 1,
            "note": 71,
            "vel": 76,
            "ch": 1
          },
          {
            "step": 381,
            "len": 1,
            "note": 64,
            "vel": 84,
            "ch": 1
          },
          {
            "step": 381,
            "len": 1,
            "note": 71,
            "vel": 76,
            "ch": 1
          },
          {
            "step": 382,
            "len": 1,
            "note": 64,
            "vel": 84,
            "ch": 1
          },
          {
            "step": 382,
            "len": 1,
            "note": 71,
            "vel": 76,
            "ch": 1
          },
          {
            "step": 384,
            "len": 1,
            "note": 64,
            "vel": 84,
            "ch": 1
          },
          {
            "step": 384,
            "len": 1,
            "note": 71,
            "vel": 76,
            "ch": 1
          },
          {
            "step": 385,
            "len": 1,
            "note": 64,
            "vel": 84,
            "ch": 1
          },
          {
            "step": 385,
            "len": 1,
            "note": 71,
            "vel": 76,
            "ch": 1
          },
          {
            "step": 386,
            "len": 1,
            "note": 64,
            "vel": 84,
            "ch": 1
          },
          {
            "step": 386,
            "len": 1,
            "note": 71,
            "vel": 76,
            "ch": 1
          },
          {
            "step": 388,
            "len": 1,
            "note": 64,
            "vel": 84,
            "ch": 1
          },
          {
            "step": 388,
            "len": 1,
            "note": 71,
            "vel": 76,
            "ch": 1
          },
          {
            "step": 389,
            "len": 1,
            "note": 64,
            "vel": 84,
            "ch": 1
          },
          {
            "step": 389,
            "len": 1,
            "note": 71,
            "vel": 76,
            "ch": 1
          },
          {
            "step": 390,
            "len": 1,
            "note": 64,
            "vel": 84,
            "ch": 1
          },
          {
            "step": 390,
            "len": 1,
            "note": 71,
            "vel": 76,
            "ch": 1
          },
          {
            "step": 392,
            "len": 1,
            "note": 64,
            "vel": 84,
            "ch": 1
          },
          {
            "step": 392,
            "len": 1,
            "note": 71,
            "vel": 76,
            "ch": 1
          },
          {
            "step": 393,
            "len": 1,
            "note": 64,
            "vel": 84,
            "ch": 1
          },
          {
            "step": 393,
            "len": 1,
            "note": 71,
            "vel": 76,
            "ch": 1
          },
          {
            "step": 394,
            "len": 1,
            "note": 64,
            "vel": 84,
            "ch": 1
          },
          {
            "step": 394,
            "len": 1,
            "note": 71,
            "vel": 76,
            "ch": 1
          },
          {
            "step": 395,
            "len": 1,
            "note": 64,
            "vel": 84,
            "ch": 1
          },
          {
            "step": 395,
            "len": 1,
            "note": 71,
            "vel": 76,
            "ch": 1
          },
          {
            "step": 396,
            "len": 1,
            "note": 64,
            "vel": 84,
            "ch": 1
          },
          {
            "step": 396,
            "len": 1,
            "note": 71,
            "vel": 76,
            "ch": 1
          },
          {
            "step": 397,
            "len": 1,
            "note": 64,
            "vel": 84,
            "ch": 1
          },
          {
            "step": 397,
            "len": 1,
            "note": 71,
            "vel": 76,
            "ch": 1
          },
          {
            "step": 398,
            "len": 1,
            "note": 64,
            "vel": 84,
            "ch": 1
          },
          {
            "step": 398,
            "len": 1,
            "note": 71,
            "vel": 76,
            "ch": 1
          },
          {
            "step": 400,
            "len": 1,
            "note": 64,
            "vel": 84,
            "ch": 1
          },
          {
            "step": 400,
            "len": 1,
            "note": 71,
            "vel": 76,
            "ch": 1
          },
          {
            "step": 401,
            "len": 1,
            "note": 64,
            "vel": 84,
            "ch": 1
          },
          {
            "step": 401,
            "len": 1,
            "note": 71,
            "vel": 76,
            "ch": 1
          },
          {
            "step": 402,
            "len": 1,
            "note": 64,
            "vel": 84,
            "ch": 1
          },
          {
            "step": 402,
            "len": 1,
            "note": 71,
            "vel": 76,
            "ch": 1
          },
          {
            "step": 404,
            "len": 1,
            "note": 64,
            "vel": 84,
            "ch": 1
          },
          {
            "step": 404,
            "len": 1,
            "note": 71,
            "vel": 76,
            "ch": 1
          },
          {
            "step": 405,
            "len": 1,
            "note": 64,
            "vel": 84,
            "ch": 1
          },
          {
            "step": 405,
            "len": 1,
            "note": 71,
            "vel": 76,
            "ch": 1
          },
          {
            "step": 406,
            "len": 1,
            "note": 64,
            "vel": 84,
            "ch": 1
          },
          {
            "step": 406,
            "len": 1,
            "note": 71,
            "vel": 76,
            "ch": 1
          },
          {
            "step": 408,
            "len": 1,
            "note": 64,
            "vel": 84,
            "ch": 1
          },
          {
            "step": 408,
            "len": 1,
            "note": 71,
            "vel": 76,
            "ch": 1
          },
          {
            "step": 409,
            "len": 1,
            "note": 64,
            "vel": 84,
            "ch": 1
          },
          {
            "step": 409,
            "len": 1,
            "note": 71,
            "vel": 76,
            "ch": 1
          },
          {
            "step": 410,
            "len": 1,
            "note": 64,
            "vel": 84,
            "ch": 1
          },
          {
            "step": 410,
            "len": 1,
            "note": 71,
            "vel": 76,
            "ch": 1
          },
          {
            "step": 411,
            "len": 1,
            "note": 64,
            "vel": 84,
            "ch": 1
          },
          {
            "step": 411,
            "len": 1,
            "note": 71,
            "vel": 76,
            "ch": 1
          },
          {
            "step": 412,
            "len": 1,
            "note": 64,
            "vel": 84,
            "ch": 1
          },
          {
            "step": 412,
            "len": 1,
            "note": 71,
            "vel": 76,
            "ch": 1
          },
          {
            "step": 413,
            "len": 1,
            "note": 64,
            "vel": 84,
            "ch": 1
          },
          {
            "step": 413,
            "len": 1,
            "note": 71,
            "vel": 76,
            "ch": 1
          },
          {
            "step": 414,
            "len": 1,
            "note": 64,
            "vel": 84,
            "ch": 1
          },
          {
            "step": 414,
            "len": 1,
            "note": 71,
            "vel": 76,
            "ch": 1
          },
          {
            "step": 416,
            "len": 1,
            "note": 64,
            "vel": 84,
            "ch": 1
          },
          {
            "step": 416,
            "len": 1,
            "note": 71,
            "vel": 76,
            "ch": 1
          },
          {
            "step": 417,
            "len": 1,
            "note": 64,
            "vel": 84,
            "ch": 1
          },
          {
            "step": 417,
            "len": 1,
            "note": 71,
            "vel": 76,
            "ch": 1
          },
          {
            "step": 418,
            "len": 1,
            "note": 64,
            "vel": 84,
            "ch": 1
          },
          {
            "step": 418,
            "len": 1,
            "note": 71,
            "vel": 76,
            "ch": 1
          },
          {
            "step": 420,
            "len": 1,
            "note": 64,
            "vel": 84,
            "ch": 1
          },
          {
            "step": 420,
            "len": 1,
            "note": 71,
            "vel": 76,
            "ch": 1
          },
          {
            "step": 421,
            "len": 1,
            "note": 64,
            "vel": 84,
            "ch": 1
          },
          {
            "step": 421,
            "len": 1,
            "note": 71,
            "vel": 76,
            "ch": 1
          },
          {
            "step": 422,
            "len": 1,
            "note": 64,
            "vel": 84,
            "ch": 1
          },
          {
            "step": 422,
            "len": 1,
            "note": 71,
            "vel": 76,
            "ch": 1
          },
          {
            "step": 424,
            "len": 1,
            "note": 64,
            "vel": 84,
            "ch": 1
          },
          {
            "step": 424,
            "len": 1,
            "note": 71,
            "vel": 76,
            "ch": 1
          },
          {
            "step": 425,
            "len": 1,
            "note": 64,
            "vel": 84,
            "ch": 1
          },
          {
            "step": 425,
            "len": 1,
            "note": 71,
            "vel": 76,
            "ch": 1
          },
          {
            "step": 426,
            "len": 1,
            "note": 64,
            "vel": 84,
            "ch": 1
          },
          {
            "step": 426,
            "len": 1,
            "note": 71,
            "vel": 76,
            "ch": 1
          },
          {
            "step": 427,
            "len": 1,
            "note": 64,
            "vel": 84,
            "ch": 1
          },
          {
            "step": 427,
            "len": 1,
            "note": 71,
            "vel": 76,
            "ch": 1
          },
          {
            "step": 428,
            "len": 1,
            "note": 64,
            "vel": 84,
            "ch": 1
          },
          {
            "step": 428,
            "len": 1,
            "note": 71,
            "vel": 76,
            "ch": 1
          },
          {
            "step": 429,
            "len": 1,
            "note": 64,
            "vel": 84,
            "ch": 1
          },
          {
            "step": 429,
            "len": 1,
            "note": 71,
            "vel": 76,
            "ch": 1
          },
          {
            "step": 430,
            "len": 1,
            "note": 64,
            "vel": 84,
            "ch": 1
          },
          {
            "step": 430,
            "len": 1,
            "note": 71,
            "vel": 76,
            "ch": 1
          },
          {
            "step": 432,
            "len": 1,
            "note": 64,
            "vel": 84,
            "ch": 1
          },
          {
            "step": 432,
            "len": 1,
            "note": 71,
            "vel": 76,
            "ch": 1
          },
          {
            "step": 433,
            "len": 1,
            "note": 64,
            "vel": 84,
            "ch": 1
          },
          {
            "step": 433,
            "len": 1,
            "note": 71,
            "vel": 76,
            "ch": 1
          },
          {
            "step": 434,
            "len": 1,
            "note": 64,
            "vel": 84,
            "ch": 1
          },
          {
            "step": 434,
            "len": 1,
            "note": 71,
            "vel": 76,
            "ch": 1
          },
          {
            "step": 436,
            "len": 1,
            "note": 64,
            "vel": 84,
            "ch": 1
          },
          {
            "step": 436,
            "len": 1,
            "note": 71,
            "vel": 76,
            "ch": 1
          },
          {
            "step": 437,
            "len": 1,
            "note": 64,
            "vel": 84,
            "ch": 1
          },
          {
            "step": 437,
            "len": 1,
            "note": 71,
            "vel": 76,
            "ch": 1
          },
          {
            "step": 438,
            "len": 1,
            "note": 64,
            "vel": 84,
            "ch": 1
          },
          {
            "step": 438,
            "len": 1,
            "note": 71,
            "vel": 76,
            "ch": 1
          },
          {
            "step": 440,
            "len": 1,
            "note": 64,
            "vel": 84,
            "ch": 1
          },
          {
            "step": 440,
            "len": 1,
            "note": 71,
            "vel": 76,
            "ch": 1
          },
          {
            "step": 441,
            "len": 1,
            "note": 64,
            "vel": 84,
            "ch": 1
          },
          {
            "step": 441,
            "len": 1,
            "note": 71,
            "vel": 76,
            "ch": 1
          },
          {
            "step": 442,
            "len": 1,
            "note": 64,
            "vel": 84,
            "ch": 1
          },
          {
            "step": 442,
            "len": 1,
            "note": 71,
            "vel": 76,
            "ch": 1
          },
          {
            "step": 443,
            "len": 1,
            "note": 64,
            "vel": 84,
            "ch": 1
          },
          {
            "step": 443,
            "len": 1,
            "note": 71,
            "vel": 76,
            "ch": 1
          },
          {
            "step": 444,
            "len": 1,
            "note": 64,
            "vel": 84,
            "ch": 1
          },
          {
            "step": 444,
            "len": 1,
            "note": 71,
            "vel": 76,
            "ch": 1
          },
          {
            "step": 445,
            "len": 1,
            "note": 64,
            "vel": 84,
            "ch": 1
          },
          {
            "step": 445,
            "len": 1,
            "note": 71,
            "vel": 76,
            "ch": 1
          },
          {
            "step": 446,
            "len": 1,
            "note": 64,
            "vel": 84,
            "ch": 1
          },
          {
            "step": 446,
            "len": 1,
            "note": 71,
            "vel": 76,
            "ch": 1
          },
          {
            "step": 448,
            "len": 1,
            "note": 64,
            "vel": 84,
            "ch": 1
          },
          {
            "step": 448,
            "len": 1,
            "note": 71,
            "vel": 76,
            "ch": 1
          },
          {
            "step": 449,
            "len": 1,
            "note": 64,
            "vel": 84,
            "ch": 1
          },
          {
            "step": 449,
            "len": 1,
            "note": 71,
            "vel": 76,
            "ch": 1
          },
          {
            "step": 450,
            "len": 1,
            "note": 64,
            "vel": 84,
            "ch": 1
          },
          {
            "step": 450,
            "len": 1,
            "note": 71,
            "vel": 76,
            "ch": 1
          },
          {
            "step": 452,
            "len": 1,
            "note": 64,
            "vel": 84,
            "ch": 1
          },
          {
            "step": 452,
            "len": 1,
            "note": 71,
            "vel": 76,
            "ch": 1
          },
          {
            "step": 453,
            "len": 1,
            "note": 64,
            "vel": 84,
            "ch": 1
          },
          {
            "step": 453,
            "len": 1,
            "note": 71,
            "vel": 76,
            "ch": 1
          },
          {
            "step": 454,
            "len": 1,
            "note": 64,
            "vel": 84,
            "ch": 1
          },
          {
            "step": 454,
            "len": 1,
            "note": 71,
            "vel": 76,
            "ch": 1
          },
          {
            "step": 456,
            "len": 1,
            "note": 64,
            "vel": 84,
            "ch": 1
          },
          {
            "step": 456,
            "len": 1,
            "note": 71,
            "vel": 76,
            "ch": 1
          },
          {
            "step": 457,
            "len": 1,
            "note": 64,
            "vel": 84,
            "ch": 1
          },
          {
            "step": 457,
            "len": 1,
            "note": 71,
            "vel": 76,
            "ch": 1
          },
          {
            "step": 458,
            "len": 1,
            "note": 64,
            "vel": 84,
            "ch": 1
          },
          {
            "step": 458,
            "len": 1,
            "note": 71,
            "vel": 76,
            "ch": 1
          },
          {
            "step": 459,
            "len": 1,
            "note": 64,
            "vel": 84,
            "ch": 1
          },
          {
            "step": 459,
            "len": 1,
            "note": 71,
            "vel": 76,
            "ch": 1
          },
          {
            "step": 460,
            "len": 1,
            "note": 64,
            "vel": 84,
            "ch": 1
          },
          {
            "step": 460,
            "len": 1,
            "note": 71,
            "vel": 76,
            "ch": 1
          },
          {
            "step": 461,
            "len": 1,
            "note": 64,
            "vel": 84,
            "ch": 1
          },
          {
            "step": 461,
            "len": 1,
            "note": 71,
            "vel": 76,
            "ch": 1
          },
          {
            "step": 462,
            "len": 1,
            "note": 64,
            "vel": 84,
            "ch": 1
          },
          {
            "step": 462,
            "len": 1,
            "note": 71,
            "vel": 76,
            "ch": 1
          },
          {
            "step": 464,
            "len": 1,
            "note": 64,
            "vel": 84,
            "ch": 1
          },
          {
            "step": 464,
            "len": 1,
            "note": 71,
            "vel": 76,
            "ch": 1
          },
          {
            "step": 465,
            "len": 1,
            "note": 64,
            "vel": 84,
            "ch": 1
          },
          {
            "step": 465,
            "len": 1,
            "note": 71,
            "vel": 76,
            "ch": 1
          },
          {
            "step": 466,
            "len": 1,
            "note": 64,
            "vel": 84,
            "ch": 1
          },
          {
            "step": 466,
            "len": 1,
            "note": 71,
            "vel": 76,
            "ch": 1
          },
          {
            "step": 468,
            "len": 1,
            "note": 64,
            "vel": 84,
            "ch": 1
          },
          {
            "step": 468,
            "len": 1,
            "note": 71,
            "vel": 76,
            "ch": 1
          },
          {
            "step": 469,
            "len": 1,
            "note": 64,
            "vel": 84,
            "ch": 1
          },
          {
            "step": 469,
            "len": 1,
            "note": 71,
            "vel": 76,
            "ch": 1
          },
          {
            "step": 470,
            "len": 1,
            "note": 64,
            "vel": 84,
            "ch": 1
          },
          {
            "step": 470,
            "len": 1,
            "note": 71,
            "vel": 76,
            "ch": 1
          },
          {
            "step": 472,
            "len": 1,
            "note": 64,
            "vel": 84,
            "ch": 1
          },
          {
            "step": 472,
            "len": 1,
            "note": 71,
            "vel": 76,
            "ch": 1
          },
          {
            "step": 473,
            "len": 1,
            "note": 64,
            "vel": 84,
            "ch": 1
          },
          {
            "step": 473,
            "len": 1,
            "note": 71,
            "vel": 76,
            "ch": 1
          },
          {
            "step": 474,
            "len": 1,
            "note": 64,
            "vel": 84,
            "ch": 1
          },
          {
            "step": 474,
            "len": 1,
            "note": 71,
            "vel": 76,
            "ch": 1
          },
          {
            "step": 475,
            "len": 1,
            "note": 64,
            "vel": 84,
            "ch": 1
          },
          {
            "step": 475,
            "len": 1,
            "note": 71,
            "vel": 76,
            "ch": 1
          },
          {
            "step": 476,
            "len": 1,
            "note": 64,
            "vel": 84,
            "ch": 1
          },
          {
            "step": 476,
            "len": 1,
            "note": 71,
            "vel": 76,
            "ch": 1
          },
          {
            "step": 477,
            "len": 1,
            "note": 64,
            "vel": 84,
            "ch": 1
          },
          {
            "step": 477,
            "len": 1,
            "note": 71,
            "vel": 76,
            "ch": 1
          },
          {
            "step": 478,
            "len": 1,
            "note": 64,
            "vel": 84,
            "ch": 1
          },
          {
            "step": 478,
            "len": 1,
            "note": 71,
            "vel": 76,
            "ch": 1
          },
          {
            "step": 480,
            "len": 1,
            "note": 64,
            "vel": 84,
            "ch": 1
          },
          {
            "step": 480,
            "len": 1,
            "note": 71,
            "vel": 76,
            "ch": 1
          },
          {
            "step": 481,
            "len": 1,
            "note": 64,
            "vel": 84,
            "ch": 1
          },
          {
            "step": 481,
            "len": 1,
            "note": 71,
            "vel": 76,
            "ch": 1
          },
          {
            "step": 482,
            "len": 1,
            "note": 64,
            "vel": 84,
            "ch": 1
          },
          {
            "step": 482,
            "len": 1,
            "note": 71,
            "vel": 76,
            "ch": 1
          },
          {
            "step": 484,
            "len": 1,
            "note": 64,
            "vel": 84,
            "ch": 1
          },
          {
            "step": 484,
            "len": 1,
            "note": 71,
            "vel": 76,
            "ch": 1
          },
          {
            "step": 485,
            "len": 1,
            "note": 64,
            "vel": 84,
            "ch": 1
          },
          {
            "step": 485,
            "len": 1,
            "note": 71,
            "vel": 76,
            "ch": 1
          },
          {
            "step": 486,
            "len": 1,
            "note": 64,
            "vel": 84,
            "ch": 1
          },
          {
            "step": 486,
            "len": 1,
            "note": 71,
            "vel": 76,
            "ch": 1
          },
          {
            "step": 488,
            "len": 1,
            "note": 64,
            "vel": 84,
            "ch": 1
          },
          {
            "step": 488,
            "len": 1,
            "note": 71,
            "vel": 76,
            "ch": 1
          },
          {
            "step": 489,
            "len": 1,
            "note": 64,
            "vel": 84,
            "ch": 1
          },
          {
            "step": 489,
            "len": 1,
            "note": 71,
            "vel": 76,
            "ch": 1
          },
          {
            "step": 490,
            "len": 1,
            "note": 64,
            "vel": 84,
            "ch": 1
          },
          {
            "step": 490,
            "len": 1,
            "note": 71,
            "vel": 76,
            "ch": 1
          },
          {
            "step": 491,
            "len": 1,
            "note": 64,
            "vel": 84,
            "ch": 1
          },
          {
            "step": 491,
            "len": 1,
            "note": 71,
            "vel": 76,
            "ch": 1
          },
          {
            "step": 492,
            "len": 1,
            "note": 64,
            "vel": 84,
            "ch": 1
          },
          {
            "step": 492,
            "len": 1,
            "note": 71,
            "vel": 76,
            "ch": 1
          },
          {
            "step": 493,
            "len": 1,
            "note": 64,
            "vel": 84,
            "ch": 1
          },
          {
            "step": 493,
            "len": 1,
            "note": 71,
            "vel": 76,
            "ch": 1
          },
          {
            "step": 494,
            "len": 1,
            "note": 64,
            "vel": 84,
            "ch": 1
          },
          {
            "step": 494,
            "len": 1,
            "note": 71,
            "vel": 76,
            "ch": 1
          },
          {
            "step": 496,
            "len": 1,
            "note": 62,
            "vel": 84,
            "ch": 1
          },
          {
            "step": 496,
            "len": 1,
            "note": 69,
            "vel": 76,
            "ch": 1
          },
          {
            "step": 497,
            "len": 1,
            "note": 64,
            "vel": 84,
            "ch": 1
          },
          {
            "step": 497,
            "len": 1,
            "note": 71,
            "vel": 76,
            "ch": 1
          },
          {
            "step": 498,
            "len": 1,
            "note": 64,
            "vel": 84,
            "ch": 1
          },
          {
            "step": 498,
            "len": 1,
            "note": 71,
            "vel": 76,
            "ch": 1
          },
          {
            "step": 500,
            "len": 1,
            "note": 62,
            "vel": 84,
            "ch": 1
          },
          {
            "step": 500,
            "len": 1,
            "note": 69,
            "vel": 76,
            "ch": 1
          },
          {
            "step": 501,
            "len": 1,
            "note": 64,
            "vel": 84,
            "ch": 1
          },
          {
            "step": 501,
            "len": 1,
            "note": 71,
            "vel": 76,
            "ch": 1
          },
          {
            "step": 502,
            "len": 1,
            "note": 64,
            "vel": 84,
            "ch": 1
          },
          {
            "step": 502,
            "len": 1,
            "note": 71,
            "vel": 76,
            "ch": 1
          },
          {
            "step": 504,
            "len": 1,
            "note": 62,
            "vel": 84,
            "ch": 1
          },
          {
            "step": 504,
            "len": 1,
            "note": 69,
            "vel": 76,
            "ch": 1
          },
          {
            "step": 505,
            "len": 1,
            "note": 64,
            "vel": 84,
            "ch": 1
          },
          {
            "step": 505,
            "len": 1,
            "note": 71,
            "vel": 76,
            "ch": 1
          },
          {
            "step": 506,
            "len": 1,
            "note": 64,
            "vel": 84,
            "ch": 1
          },
          {
            "step": 506,
            "len": 1,
            "note": 71,
            "vel": 76,
            "ch": 1
          },
          {
            "step": 507,
            "len": 1,
            "note": 64,
            "vel": 84,
            "ch": 1
          },
          {
            "step": 507,
            "len": 1,
            "note": 71,
            "vel": 76,
            "ch": 1
          },
          {
            "step": 508,
            "len": 1,
            "note": 64,
            "vel": 84,
            "ch": 1
          },
          {
            "step": 508,
            "len": 1,
            "note": 71,
            "vel": 76,
            "ch": 1
          },
          {
            "step": 509,
            "len": 1,
            "note": 64,
            "vel": 84,
            "ch": 1
          },
          {
            "step": 509,
            "len": 1,
            "note": 71,
            "vel": 76,
            "ch": 1
          },
          {
            "step": 510,
            "len": 1,
            "note": 64,
            "vel": 84,
            "ch": 1
          },
          {
            "step": 510,
            "len": 1,
            "note": 71,
            "vel": 76,
            "ch": 1
          }
        ],
        "bass": [
          {
            "step": 0,
            "len": 1,
            "note": 52,
            "vel": 100,
            "ch": 0
          },
          {
            "step": 1,
            "len": 1,
            "note": 52,
            "vel": 88,
            "ch": 0
          },
          {
            "step": 2,
            "len": 1,
            "note": 52,
            "vel": 88,
            "ch": 0
          },
          {
            "step": 4,
            "len": 1,
            "note": 52,
            "vel": 88,
            "ch": 0
          },
          {
            "step": 5,
            "len": 1,
            "note": 52,
            "vel": 88,
            "ch": 0
          },
          {
            "step": 6,
            "len": 1,
            "note": 52,
            "vel": 88,
            "ch": 0
          },
          {
            "step": 8,
            "len": 1,
            "note": 52,
            "vel": 100,
            "ch": 0
          },
          {
            "step": 9,
            "len": 1,
            "note": 52,
            "vel": 88,
            "ch": 0
          },
          {
            "step": 10,
            "len": 1,
            "note": 52,
            "vel": 88,
            "ch": 0
          },
          {
            "step": 11,
            "len": 1,
            "note": 52,
            "vel": 88,
            "ch": 0
          },
          {
            "step": 12,
            "len": 1,
            "note": 52,
            "vel": 100,
            "ch": 0
          },
          {
            "step": 13,
            "len": 1,
            "note": 52,
            "vel": 88,
            "ch": 0
          },
          {
            "step": 14,
            "len": 1,
            "note": 52,
            "vel": 88,
            "ch": 0
          },
          {
            "step": 16,
            "len": 1,
            "note": 52,
            "vel": 100,
            "ch": 0
          },
          {
            "step": 17,
            "len": 1,
            "note": 52,
            "vel": 88,
            "ch": 0
          },
          {
            "step": 18,
            "len": 1,
            "note": 52,
            "vel": 88,
            "ch": 0
          },
          {
            "step": 20,
            "len": 1,
            "note": 52,
            "vel": 88,
            "ch": 0
          },
          {
            "step": 21,
            "len": 1,
            "note": 52,
            "vel": 88,
            "ch": 0
          },
          {
            "step": 22,
            "len": 1,
            "note": 52,
            "vel": 88,
            "ch": 0
          },
          {
            "step": 24,
            "len": 1,
            "note": 52,
            "vel": 100,
            "ch": 0
          },
          {
            "step": 25,
            "len": 1,
            "note": 52,
            "vel": 88,
            "ch": 0
          },
          {
            "step": 26,
            "len": 1,
            "note": 52,
            "vel": 88,
            "ch": 0
          },
          {
            "step": 27,
            "len": 1,
            "note": 52,
            "vel": 88,
            "ch": 0
          },
          {
            "step": 28,
            "len": 1,
            "note": 52,
            "vel": 100,
            "ch": 0
          },
          {
            "step": 29,
            "len": 1,
            "note": 52,
            "vel": 88,
            "ch": 0
          },
          {
            "step": 30,
            "len": 1,
            "note": 52,
            "vel": 88,
            "ch": 0
          },
          {
            "step": 32,
            "len": 1,
            "note": 52,
            "vel": 100,
            "ch": 0
          },
          {
            "step": 33,
            "len": 1,
            "note": 52,
            "vel": 88,
            "ch": 0
          },
          {
            "step": 34,
            "len": 1,
            "note": 52,
            "vel": 88,
            "ch": 0
          },
          {
            "step": 36,
            "len": 1,
            "note": 52,
            "vel": 88,
            "ch": 0
          },
          {
            "step": 37,
            "len": 1,
            "note": 52,
            "vel": 88,
            "ch": 0
          },
          {
            "step": 38,
            "len": 1,
            "note": 52,
            "vel": 88,
            "ch": 0
          },
          {
            "step": 40,
            "len": 1,
            "note": 52,
            "vel": 100,
            "ch": 0
          },
          {
            "step": 41,
            "len": 1,
            "note": 52,
            "vel": 88,
            "ch": 0
          },
          {
            "step": 42,
            "len": 1,
            "note": 52,
            "vel": 88,
            "ch": 0
          },
          {
            "step": 43,
            "len": 1,
            "note": 52,
            "vel": 88,
            "ch": 0
          },
          {
            "step": 44,
            "len": 1,
            "note": 52,
            "vel": 100,
            "ch": 0
          },
          {
            "step": 45,
            "len": 1,
            "note": 52,
            "vel": 88,
            "ch": 0
          },
          {
            "step": 46,
            "len": 1,
            "note": 52,
            "vel": 88,
            "ch": 0
          },
          {
            "step": 48,
            "len": 1,
            "note": 52,
            "vel": 100,
            "ch": 0
          },
          {
            "step": 49,
            "len": 1,
            "note": 52,
            "vel": 88,
            "ch": 0
          },
          {
            "step": 50,
            "len": 1,
            "note": 52,
            "vel": 88,
            "ch": 0
          },
          {
            "step": 52,
            "len": 1,
            "note": 52,
            "vel": 88,
            "ch": 0
          },
          {
            "step": 53,
            "len": 1,
            "note": 52,
            "vel": 88,
            "ch": 0
          },
          {
            "step": 54,
            "len": 1,
            "note": 52,
            "vel": 88,
            "ch": 0
          },
          {
            "step": 56,
            "len": 1,
            "note": 52,
            "vel": 100,
            "ch": 0
          },
          {
            "step": 57,
            "len": 1,
            "note": 52,
            "vel": 88,
            "ch": 0
          },
          {
            "step": 58,
            "len": 1,
            "note": 52,
            "vel": 88,
            "ch": 0
          },
          {
            "step": 59,
            "len": 1,
            "note": 52,
            "vel": 88,
            "ch": 0
          },
          {
            "step": 60,
            "len": 1,
            "note": 52,
            "vel": 100,
            "ch": 0
          },
          {
            "step": 61,
            "len": 1,
            "note": 52,
            "vel": 88,
            "ch": 0
          },
          {
            "step": 62,
            "len": 1,
            "note": 52,
            "vel": 88,
            "ch": 0
          },
          {
            "step": 64,
            "len": 1,
            "note": 52,
            "vel": 100,
            "ch": 0
          },
          {
            "step": 65,
            "len": 1,
            "note": 52,
            "vel": 88,
            "ch": 0
          },
          {
            "step": 66,
            "len": 1,
            "note": 52,
            "vel": 88,
            "ch": 0
          },
          {
            "step": 68,
            "len": 1,
            "note": 52,
            "vel": 88,
            "ch": 0
          },
          {
            "step": 69,
            "len": 1,
            "note": 52,
            "vel": 88,
            "ch": 0
          },
          {
            "step": 70,
            "len": 1,
            "note": 52,
            "vel": 88,
            "ch": 0
          },
          {
            "step": 72,
            "len": 1,
            "note": 52,
            "vel": 100,
            "ch": 0
          },
          {
            "step": 73,
            "len": 1,
            "note": 52,
            "vel": 88,
            "ch": 0
          },
          {
            "step": 74,
            "len": 1,
            "note": 52,
            "vel": 88,
            "ch": 0
          },
          {
            "step": 75,
            "len": 1,
            "note": 52,
            "vel": 88,
            "ch": 0
          },
          {
            "step": 76,
            "len": 1,
            "note": 52,
            "vel": 100,
            "ch": 0
          },
          {
            "step": 77,
            "len": 1,
            "note": 52,
            "vel": 88,
            "ch": 0
          },
          {
            "step": 78,
            "len": 1,
            "note": 52,
            "vel": 88,
            "ch": 0
          },
          {
            "step": 80,
            "len": 1,
            "note": 52,
            "vel": 100,
            "ch": 0
          },
          {
            "step": 81,
            "len": 1,
            "note": 52,
            "vel": 88,
            "ch": 0
          },
          {
            "step": 82,
            "len": 1,
            "note": 52,
            "vel": 88,
            "ch": 0
          },
          {
            "step": 84,
            "len": 1,
            "note": 52,
            "vel": 88,
            "ch": 0
          },
          {
            "step": 85,
            "len": 1,
            "note": 52,
            "vel": 88,
            "ch": 0
          },
          {
            "step": 86,
            "len": 1,
            "note": 52,
            "vel": 88,
            "ch": 0
          },
          {
            "step": 88,
            "len": 1,
            "note": 52,
            "vel": 100,
            "ch": 0
          },
          {
            "step": 89,
            "len": 1,
            "note": 52,
            "vel": 88,
            "ch": 0
          },
          {
            "step": 90,
            "len": 1,
            "note": 52,
            "vel": 88,
            "ch": 0
          },
          {
            "step": 91,
            "len": 1,
            "note": 52,
            "vel": 88,
            "ch": 0
          },
          {
            "step": 92,
            "len": 1,
            "note": 52,
            "vel": 100,
            "ch": 0
          },
          {
            "step": 93,
            "len": 1,
            "note": 52,
            "vel": 88,
            "ch": 0
          },
          {
            "step": 94,
            "len": 1,
            "note": 52,
            "vel": 88,
            "ch": 0
          },
          {
            "step": 96,
            "len": 1,
            "note": 52,
            "vel": 100,
            "ch": 0
          },
          {
            "step": 97,
            "len": 1,
            "note": 52,
            "vel": 88,
            "ch": 0
          },
          {
            "step": 98,
            "len": 1,
            "note": 52,
            "vel": 88,
            "ch": 0
          },
          {
            "step": 100,
            "len": 1,
            "note": 52,
            "vel": 88,
            "ch": 0
          },
          {
            "step": 101,
            "len": 1,
            "note": 52,
            "vel": 88,
            "ch": 0
          },
          {
            "step": 102,
            "len": 1,
            "note": 52,
            "vel": 88,
            "ch": 0
          },
          {
            "step": 104,
            "len": 1,
            "note": 52,
            "vel": 100,
            "ch": 0
          },
          {
            "step": 105,
            "len": 1,
            "note": 52,
            "vel": 88,
            "ch": 0
          },
          {
            "step": 106,
            "len": 1,
            "note": 52,
            "vel": 88,
            "ch": 0
          },
          {
            "step": 107,
            "len": 1,
            "note": 52,
            "vel": 88,
            "ch": 0
          },
          {
            "step": 108,
            "len": 1,
            "note": 52,
            "vel": 100,
            "ch": 0
          },
          {
            "step": 109,
            "len": 1,
            "note": 52,
            "vel": 88,
            "ch": 0
          },
          {
            "step": 110,
            "len": 1,
            "note": 52,
            "vel": 88,
            "ch": 0
          },
          {
            "step": 112,
            "len": 1,
            "note": 50,
            "vel": 100,
            "ch": 0
          },
          {
            "step": 113,
            "len": 1,
            "note": 52,
            "vel": 88,
            "ch": 0
          },
          {
            "step": 114,
            "len": 1,
            "note": 52,
            "vel": 88,
            "ch": 0
          },
          {
            "step": 116,
            "len": 1,
            "note": 50,
            "vel": 88,
            "ch": 0
          },
          {
            "step": 117,
            "len": 1,
            "note": 52,
            "vel": 88,
            "ch": 0
          },
          {
            "step": 118,
            "len": 1,
            "note": 52,
            "vel": 88,
            "ch": 0
          },
          {
            "step": 120,
            "len": 1,
            "note": 50,
            "vel": 100,
            "ch": 0
          },
          {
            "step": 121,
            "len": 1,
            "note": 52,
            "vel": 88,
            "ch": 0
          },
          {
            "step": 122,
            "len": 1,
            "note": 52,
            "vel": 88,
            "ch": 0
          },
          {
            "step": 123,
            "len": 1,
            "note": 52,
            "vel": 88,
            "ch": 0
          },
          {
            "step": 124,
            "len": 1,
            "note": 52,
            "vel": 100,
            "ch": 0
          },
          {
            "step": 125,
            "len": 1,
            "note": 52,
            "vel": 88,
            "ch": 0
          },
          {
            "step": 126,
            "len": 1,
            "note": 52,
            "vel": 88,
            "ch": 0
          },
          {
            "step": 128,
            "len": 1,
            "note": 52,
            "vel": 100,
            "ch": 0
          },
          {
            "step": 129,
            "len": 1,
            "note": 52,
            "vel": 88,
            "ch": 0
          },
          {
            "step": 130,
            "len": 1,
            "note": 52,
            "vel": 88,
            "ch": 0
          },
          {
            "step": 132,
            "len": 1,
            "note": 52,
            "vel": 88,
            "ch": 0
          },
          {
            "step": 133,
            "len": 1,
            "note": 52,
            "vel": 88,
            "ch": 0
          },
          {
            "step": 134,
            "len": 1,
            "note": 52,
            "vel": 88,
            "ch": 0
          },
          {
            "step": 136,
            "len": 1,
            "note": 52,
            "vel": 100,
            "ch": 0
          },
          {
            "step": 137,
            "len": 1,
            "note": 52,
            "vel": 88,
            "ch": 0
          },
          {
            "step": 138,
            "len": 1,
            "note": 52,
            "vel": 88,
            "ch": 0
          },
          {
            "step": 139,
            "len": 1,
            "note": 52,
            "vel": 88,
            "ch": 0
          },
          {
            "step": 140,
            "len": 1,
            "note": 52,
            "vel": 100,
            "ch": 0
          },
          {
            "step": 141,
            "len": 1,
            "note": 52,
            "vel": 88,
            "ch": 0
          },
          {
            "step": 142,
            "len": 1,
            "note": 52,
            "vel": 88,
            "ch": 0
          },
          {
            "step": 144,
            "len": 1,
            "note": 52,
            "vel": 100,
            "ch": 0
          },
          {
            "step": 145,
            "len": 1,
            "note": 52,
            "vel": 88,
            "ch": 0
          },
          {
            "step": 146,
            "len": 1,
            "note": 52,
            "vel": 88,
            "ch": 0
          },
          {
            "step": 148,
            "len": 1,
            "note": 52,
            "vel": 88,
            "ch": 0
          },
          {
            "step": 149,
            "len": 1,
            "note": 52,
            "vel": 88,
            "ch": 0
          },
          {
            "step": 150,
            "len": 1,
            "note": 52,
            "vel": 88,
            "ch": 0
          },
          {
            "step": 152,
            "len": 1,
            "note": 52,
            "vel": 100,
            "ch": 0
          },
          {
            "step": 153,
            "len": 1,
            "note": 52,
            "vel": 88,
            "ch": 0
          },
          {
            "step": 154,
            "len": 1,
            "note": 52,
            "vel": 88,
            "ch": 0
          },
          {
            "step": 155,
            "len": 1,
            "note": 52,
            "vel": 88,
            "ch": 0
          },
          {
            "step": 156,
            "len": 1,
            "note": 52,
            "vel": 100,
            "ch": 0
          },
          {
            "step": 157,
            "len": 1,
            "note": 52,
            "vel": 88,
            "ch": 0
          },
          {
            "step": 158,
            "len": 1,
            "note": 52,
            "vel": 88,
            "ch": 0
          },
          {
            "step": 160,
            "len": 1,
            "note": 52,
            "vel": 100,
            "ch": 0
          },
          {
            "step": 161,
            "len": 1,
            "note": 52,
            "vel": 88,
            "ch": 0
          },
          {
            "step": 162,
            "len": 1,
            "note": 52,
            "vel": 88,
            "ch": 0
          },
          {
            "step": 164,
            "len": 1,
            "note": 52,
            "vel": 88,
            "ch": 0
          },
          {
            "step": 165,
            "len": 1,
            "note": 52,
            "vel": 88,
            "ch": 0
          },
          {
            "step": 166,
            "len": 1,
            "note": 52,
            "vel": 88,
            "ch": 0
          },
          {
            "step": 168,
            "len": 1,
            "note": 52,
            "vel": 100,
            "ch": 0
          },
          {
            "step": 169,
            "len": 1,
            "note": 52,
            "vel": 88,
            "ch": 0
          },
          {
            "step": 170,
            "len": 1,
            "note": 52,
            "vel": 88,
            "ch": 0
          },
          {
            "step": 171,
            "len": 1,
            "note": 52,
            "vel": 88,
            "ch": 0
          },
          {
            "step": 172,
            "len": 1,
            "note": 52,
            "vel": 100,
            "ch": 0
          },
          {
            "step": 173,
            "len": 1,
            "note": 52,
            "vel": 88,
            "ch": 0
          },
          {
            "step": 174,
            "len": 1,
            "note": 52,
            "vel": 88,
            "ch": 0
          },
          {
            "step": 176,
            "len": 1,
            "note": 52,
            "vel": 100,
            "ch": 0
          },
          {
            "step": 177,
            "len": 1,
            "note": 52,
            "vel": 88,
            "ch": 0
          },
          {
            "step": 178,
            "len": 1,
            "note": 52,
            "vel": 88,
            "ch": 0
          },
          {
            "step": 180,
            "len": 1,
            "note": 52,
            "vel": 88,
            "ch": 0
          },
          {
            "step": 181,
            "len": 1,
            "note": 52,
            "vel": 88,
            "ch": 0
          },
          {
            "step": 182,
            "len": 1,
            "note": 52,
            "vel": 88,
            "ch": 0
          },
          {
            "step": 184,
            "len": 1,
            "note": 52,
            "vel": 100,
            "ch": 0
          },
          {
            "step": 185,
            "len": 1,
            "note": 52,
            "vel": 88,
            "ch": 0
          },
          {
            "step": 186,
            "len": 1,
            "note": 52,
            "vel": 88,
            "ch": 0
          },
          {
            "step": 187,
            "len": 1,
            "note": 52,
            "vel": 88,
            "ch": 0
          },
          {
            "step": 188,
            "len": 1,
            "note": 52,
            "vel": 100,
            "ch": 0
          },
          {
            "step": 189,
            "len": 1,
            "note": 52,
            "vel": 88,
            "ch": 0
          },
          {
            "step": 190,
            "len": 1,
            "note": 52,
            "vel": 88,
            "ch": 0
          },
          {
            "step": 192,
            "len": 1,
            "note": 52,
            "vel": 100,
            "ch": 0
          },
          {
            "step": 193,
            "len": 1,
            "note": 52,
            "vel": 88,
            "ch": 0
          },
          {
            "step": 194,
            "len": 1,
            "note": 52,
            "vel": 88,
            "ch": 0
          },
          {
            "step": 196,
            "len": 1,
            "note": 52,
            "vel": 88,
            "ch": 0
          },
          {
            "step": 197,
            "len": 1,
            "note": 52,
            "vel": 88,
            "ch": 0
          },
          {
            "step": 198,
            "len": 1,
            "note": 52,
            "vel": 88,
            "ch": 0
          },
          {
            "step": 200,
            "len": 1,
            "note": 52,
            "vel": 100,
            "ch": 0
          },
          {
            "step": 201,
            "len": 1,
            "note": 52,
            "vel": 88,
            "ch": 0
          },
          {
            "step": 202,
            "len": 1,
            "note": 52,
            "vel": 88,
            "ch": 0
          },
          {
            "step": 203,
            "len": 1,
            "note": 52,
            "vel": 88,
            "ch": 0
          },
          {
            "step": 204,
            "len": 1,
            "note": 52,
            "vel": 100,
            "ch": 0
          },
          {
            "step": 205,
            "len": 1,
            "note": 52,
            "vel": 88,
            "ch": 0
          },
          {
            "step": 206,
            "len": 1,
            "note": 52,
            "vel": 88,
            "ch": 0
          },
          {
            "step": 208,
            "len": 1,
            "note": 52,
            "vel": 100,
            "ch": 0
          },
          {
            "step": 209,
            "len": 1,
            "note": 52,
            "vel": 88,
            "ch": 0
          },
          {
            "step": 210,
            "len": 1,
            "note": 52,
            "vel": 88,
            "ch": 0
          },
          {
            "step": 212,
            "len": 1,
            "note": 52,
            "vel": 88,
            "ch": 0
          },
          {
            "step": 213,
            "len": 1,
            "note": 52,
            "vel": 88,
            "ch": 0
          },
          {
            "step": 214,
            "len": 1,
            "note": 52,
            "vel": 88,
            "ch": 0
          },
          {
            "step": 216,
            "len": 1,
            "note": 52,
            "vel": 100,
            "ch": 0
          },
          {
            "step": 217,
            "len": 1,
            "note": 52,
            "vel": 88,
            "ch": 0
          },
          {
            "step": 218,
            "len": 1,
            "note": 52,
            "vel": 88,
            "ch": 0
          },
          {
            "step": 219,
            "len": 1,
            "note": 52,
            "vel": 88,
            "ch": 0
          },
          {
            "step": 220,
            "len": 1,
            "note": 52,
            "vel": 100,
            "ch": 0
          },
          {
            "step": 221,
            "len": 1,
            "note": 52,
            "vel": 88,
            "ch": 0
          },
          {
            "step": 222,
            "len": 1,
            "note": 52,
            "vel": 88,
            "ch": 0
          },
          {
            "step": 224,
            "len": 1,
            "note": 52,
            "vel": 100,
            "ch": 0
          },
          {
            "step": 225,
            "len": 1,
            "note": 52,
            "vel": 88,
            "ch": 0
          },
          {
            "step": 226,
            "len": 1,
            "note": 52,
            "vel": 88,
            "ch": 0
          },
          {
            "step": 228,
            "len": 1,
            "note": 52,
            "vel": 88,
            "ch": 0
          },
          {
            "step": 229,
            "len": 1,
            "note": 52,
            "vel": 88,
            "ch": 0
          },
          {
            "step": 230,
            "len": 1,
            "note": 52,
            "vel": 88,
            "ch": 0
          },
          {
            "step": 232,
            "len": 1,
            "note": 52,
            "vel": 100,
            "ch": 0
          },
          {
            "step": 233,
            "len": 1,
            "note": 52,
            "vel": 88,
            "ch": 0
          },
          {
            "step": 234,
            "len": 1,
            "note": 52,
            "vel": 88,
            "ch": 0
          },
          {
            "step": 235,
            "len": 1,
            "note": 52,
            "vel": 88,
            "ch": 0
          },
          {
            "step": 236,
            "len": 1,
            "note": 52,
            "vel": 100,
            "ch": 0
          },
          {
            "step": 237,
            "len": 1,
            "note": 52,
            "vel": 88,
            "ch": 0
          },
          {
            "step": 238,
            "len": 1,
            "note": 52,
            "vel": 88,
            "ch": 0
          },
          {
            "step": 240,
            "len": 1,
            "note": 50,
            "vel": 100,
            "ch": 0
          },
          {
            "step": 241,
            "len": 1,
            "note": 52,
            "vel": 88,
            "ch": 0
          },
          {
            "step": 242,
            "len": 1,
            "note": 52,
            "vel": 88,
            "ch": 0
          },
          {
            "step": 244,
            "len": 1,
            "note": 50,
            "vel": 88,
            "ch": 0
          },
          {
            "step": 245,
            "len": 1,
            "note": 52,
            "vel": 88,
            "ch": 0
          },
          {
            "step": 246,
            "len": 1,
            "note": 52,
            "vel": 88,
            "ch": 0
          },
          {
            "step": 248,
            "len": 1,
            "note": 50,
            "vel": 100,
            "ch": 0
          },
          {
            "step": 249,
            "len": 1,
            "note": 52,
            "vel": 88,
            "ch": 0
          },
          {
            "step": 250,
            "len": 1,
            "note": 52,
            "vel": 88,
            "ch": 0
          },
          {
            "step": 251,
            "len": 1,
            "note": 52,
            "vel": 88,
            "ch": 0
          },
          {
            "step": 252,
            "len": 1,
            "note": 52,
            "vel": 100,
            "ch": 0
          },
          {
            "step": 253,
            "len": 1,
            "note": 52,
            "vel": 88,
            "ch": 0
          },
          {
            "step": 254,
            "len": 1,
            "note": 52,
            "vel": 88,
            "ch": 0
          },
          {
            "step": 256,
            "len": 1,
            "note": 52,
            "vel": 100,
            "ch": 0
          },
          {
            "step": 257,
            "len": 1,
            "note": 52,
            "vel": 88,
            "ch": 0
          },
          {
            "step": 258,
            "len": 1,
            "note": 52,
            "vel": 88,
            "ch": 0
          },
          {
            "step": 260,
            "len": 1,
            "note": 52,
            "vel": 88,
            "ch": 0
          },
          {
            "step": 261,
            "len": 1,
            "note": 52,
            "vel": 88,
            "ch": 0
          },
          {
            "step": 262,
            "len": 1,
            "note": 52,
            "vel": 88,
            "ch": 0
          },
          {
            "step": 264,
            "len": 1,
            "note": 52,
            "vel": 100,
            "ch": 0
          },
          {
            "step": 265,
            "len": 1,
            "note": 52,
            "vel": 88,
            "ch": 0
          },
          {
            "step": 266,
            "len": 1,
            "note": 52,
            "vel": 88,
            "ch": 0
          },
          {
            "step": 267,
            "len": 1,
            "note": 52,
            "vel": 88,
            "ch": 0
          },
          {
            "step": 268,
            "len": 1,
            "note": 52,
            "vel": 100,
            "ch": 0
          },
          {
            "step": 269,
            "len": 1,
            "note": 52,
            "vel": 88,
            "ch": 0
          },
          {
            "step": 270,
            "len": 1,
            "note": 52,
            "vel": 88,
            "ch": 0
          },
          {
            "step": 272,
            "len": 1,
            "note": 52,
            "vel": 100,
            "ch": 0
          },
          {
            "step": 273,
            "len": 1,
            "note": 52,
            "vel": 88,
            "ch": 0
          },
          {
            "step": 274,
            "len": 1,
            "note": 52,
            "vel": 88,
            "ch": 0
          },
          {
            "step": 276,
            "len": 1,
            "note": 52,
            "vel": 88,
            "ch": 0
          },
          {
            "step": 277,
            "len": 1,
            "note": 52,
            "vel": 88,
            "ch": 0
          },
          {
            "step": 278,
            "len": 1,
            "note": 52,
            "vel": 88,
            "ch": 0
          },
          {
            "step": 280,
            "len": 1,
            "note": 52,
            "vel": 100,
            "ch": 0
          },
          {
            "step": 281,
            "len": 1,
            "note": 52,
            "vel": 88,
            "ch": 0
          },
          {
            "step": 282,
            "len": 1,
            "note": 52,
            "vel": 88,
            "ch": 0
          },
          {
            "step": 283,
            "len": 1,
            "note": 52,
            "vel": 88,
            "ch": 0
          },
          {
            "step": 284,
            "len": 1,
            "note": 52,
            "vel": 100,
            "ch": 0
          },
          {
            "step": 285,
            "len": 1,
            "note": 52,
            "vel": 88,
            "ch": 0
          },
          {
            "step": 286,
            "len": 1,
            "note": 52,
            "vel": 88,
            "ch": 0
          },
          {
            "step": 288,
            "len": 1,
            "note": 52,
            "vel": 100,
            "ch": 0
          },
          {
            "step": 289,
            "len": 1,
            "note": 52,
            "vel": 88,
            "ch": 0
          },
          {
            "step": 290,
            "len": 1,
            "note": 52,
            "vel": 88,
            "ch": 0
          },
          {
            "step": 292,
            "len": 1,
            "note": 52,
            "vel": 88,
            "ch": 0
          },
          {
            "step": 293,
            "len": 1,
            "note": 52,
            "vel": 88,
            "ch": 0
          },
          {
            "step": 294,
            "len": 1,
            "note": 52,
            "vel": 88,
            "ch": 0
          },
          {
            "step": 296,
            "len": 1,
            "note": 52,
            "vel": 100,
            "ch": 0
          },
          {
            "step": 297,
            "len": 1,
            "note": 52,
            "vel": 88,
            "ch": 0
          },
          {
            "step": 298,
            "len": 1,
            "note": 52,
            "vel": 88,
            "ch": 0
          },
          {
            "step": 299,
            "len": 1,
            "note": 52,
            "vel": 88,
            "ch": 0
          },
          {
            "step": 300,
            "len": 1,
            "note": 52,
            "vel": 100,
            "ch": 0
          },
          {
            "step": 301,
            "len": 1,
            "note": 52,
            "vel": 88,
            "ch": 0
          },
          {
            "step": 302,
            "len": 1,
            "note": 52,
            "vel": 88,
            "ch": 0
          },
          {
            "step": 304,
            "len": 1,
            "note": 52,
            "vel": 100,
            "ch": 0
          },
          {
            "step": 305,
            "len": 1,
            "note": 52,
            "vel": 88,
            "ch": 0
          },
          {
            "step": 306,
            "len": 1,
            "note": 52,
            "vel": 88,
            "ch": 0
          },
          {
            "step": 308,
            "len": 1,
            "note": 52,
            "vel": 88,
            "ch": 0
          },
          {
            "step": 309,
            "len": 1,
            "note": 52,
            "vel": 88,
            "ch": 0
          },
          {
            "step": 310,
            "len": 1,
            "note": 52,
            "vel": 88,
            "ch": 0
          },
          {
            "step": 312,
            "len": 1,
            "note": 52,
            "vel": 100,
            "ch": 0
          },
          {
            "step": 313,
            "len": 1,
            "note": 52,
            "vel": 88,
            "ch": 0
          },
          {
            "step": 314,
            "len": 1,
            "note": 52,
            "vel": 88,
            "ch": 0
          },
          {
            "step": 315,
            "len": 1,
            "note": 52,
            "vel": 88,
            "ch": 0
          },
          {
            "step": 316,
            "len": 1,
            "note": 52,
            "vel": 100,
            "ch": 0
          },
          {
            "step": 317,
            "len": 1,
            "note": 52,
            "vel": 88,
            "ch": 0
          },
          {
            "step": 318,
            "len": 1,
            "note": 52,
            "vel": 88,
            "ch": 0
          },
          {
            "step": 320,
            "len": 1,
            "note": 52,
            "vel": 100,
            "ch": 0
          },
          {
            "step": 321,
            "len": 1,
            "note": 52,
            "vel": 88,
            "ch": 0
          },
          {
            "step": 322,
            "len": 1,
            "note": 52,
            "vel": 88,
            "ch": 0
          },
          {
            "step": 324,
            "len": 1,
            "note": 52,
            "vel": 88,
            "ch": 0
          },
          {
            "step": 325,
            "len": 1,
            "note": 52,
            "vel": 88,
            "ch": 0
          },
          {
            "step": 326,
            "len": 1,
            "note": 52,
            "vel": 88,
            "ch": 0
          },
          {
            "step": 328,
            "len": 1,
            "note": 52,
            "vel": 100,
            "ch": 0
          },
          {
            "step": 329,
            "len": 1,
            "note": 52,
            "vel": 88,
            "ch": 0
          },
          {
            "step": 330,
            "len": 1,
            "note": 52,
            "vel": 88,
            "ch": 0
          },
          {
            "step": 331,
            "len": 1,
            "note": 52,
            "vel": 88,
            "ch": 0
          },
          {
            "step": 332,
            "len": 1,
            "note": 52,
            "vel": 100,
            "ch": 0
          },
          {
            "step": 333,
            "len": 1,
            "note": 52,
            "vel": 88,
            "ch": 0
          },
          {
            "step": 334,
            "len": 1,
            "note": 52,
            "vel": 88,
            "ch": 0
          },
          {
            "step": 336,
            "len": 1,
            "note": 52,
            "vel": 100,
            "ch": 0
          },
          {
            "step": 337,
            "len": 1,
            "note": 52,
            "vel": 88,
            "ch": 0
          },
          {
            "step": 338,
            "len": 1,
            "note": 52,
            "vel": 88,
            "ch": 0
          },
          {
            "step": 340,
            "len": 1,
            "note": 52,
            "vel": 88,
            "ch": 0
          },
          {
            "step": 341,
            "len": 1,
            "note": 52,
            "vel": 88,
            "ch": 0
          },
          {
            "step": 342,
            "len": 1,
            "note": 52,
            "vel": 88,
            "ch": 0
          },
          {
            "step": 344,
            "len": 1,
            "note": 52,
            "vel": 100,
            "ch": 0
          },
          {
            "step": 345,
            "len": 1,
            "note": 52,
            "vel": 88,
            "ch": 0
          },
          {
            "step": 346,
            "len": 1,
            "note": 52,
            "vel": 88,
            "ch": 0
          },
          {
            "step": 347,
            "len": 1,
            "note": 52,
            "vel": 88,
            "ch": 0
          },
          {
            "step": 348,
            "len": 1,
            "note": 52,
            "vel": 100,
            "ch": 0
          },
          {
            "step": 349,
            "len": 1,
            "note": 52,
            "vel": 88,
            "ch": 0
          },
          {
            "step": 350,
            "len": 1,
            "note": 52,
            "vel": 88,
            "ch": 0
          },
          {
            "step": 352,
            "len": 1,
            "note": 52,
            "vel": 100,
            "ch": 0
          },
          {
            "step": 353,
            "len": 1,
            "note": 52,
            "vel": 88,
            "ch": 0
          },
          {
            "step": 354,
            "len": 1,
            "note": 52,
            "vel": 88,
            "ch": 0
          },
          {
            "step": 356,
            "len": 1,
            "note": 52,
            "vel": 88,
            "ch": 0
          },
          {
            "step": 357,
            "len": 1,
            "note": 52,
            "vel": 88,
            "ch": 0
          },
          {
            "step": 358,
            "len": 1,
            "note": 52,
            "vel": 88,
            "ch": 0
          },
          {
            "step": 360,
            "len": 1,
            "note": 52,
            "vel": 100,
            "ch": 0
          },
          {
            "step": 361,
            "len": 1,
            "note": 52,
            "vel": 88,
            "ch": 0
          },
          {
            "step": 362,
            "len": 1,
            "note": 52,
            "vel": 88,
            "ch": 0
          },
          {
            "step": 363,
            "len": 1,
            "note": 52,
            "vel": 88,
            "ch": 0
          },
          {
            "step": 364,
            "len": 1,
            "note": 52,
            "vel": 100,
            "ch": 0
          },
          {
            "step": 365,
            "len": 1,
            "note": 52,
            "vel": 88,
            "ch": 0
          },
          {
            "step": 366,
            "len": 1,
            "note": 52,
            "vel": 88,
            "ch": 0
          },
          {
            "step": 368,
            "len": 1,
            "note": 50,
            "vel": 100,
            "ch": 0
          },
          {
            "step": 369,
            "len": 1,
            "note": 52,
            "vel": 88,
            "ch": 0
          },
          {
            "step": 370,
            "len": 1,
            "note": 52,
            "vel": 88,
            "ch": 0
          },
          {
            "step": 372,
            "len": 1,
            "note": 50,
            "vel": 88,
            "ch": 0
          },
          {
            "step": 373,
            "len": 1,
            "note": 52,
            "vel": 88,
            "ch": 0
          },
          {
            "step": 374,
            "len": 1,
            "note": 52,
            "vel": 88,
            "ch": 0
          },
          {
            "step": 376,
            "len": 1,
            "note": 50,
            "vel": 100,
            "ch": 0
          },
          {
            "step": 377,
            "len": 1,
            "note": 52,
            "vel": 88,
            "ch": 0
          },
          {
            "step": 378,
            "len": 1,
            "note": 52,
            "vel": 88,
            "ch": 0
          },
          {
            "step": 379,
            "len": 1,
            "note": 52,
            "vel": 88,
            "ch": 0
          },
          {
            "step": 380,
            "len": 1,
            "note": 52,
            "vel": 100,
            "ch": 0
          },
          {
            "step": 381,
            "len": 1,
            "note": 52,
            "vel": 88,
            "ch": 0
          },
          {
            "step": 382,
            "len": 1,
            "note": 52,
            "vel": 88,
            "ch": 0
          },
          {
            "step": 384,
            "len": 1,
            "note": 52,
            "vel": 100,
            "ch": 0
          },
          {
            "step": 385,
            "len": 1,
            "note": 52,
            "vel": 88,
            "ch": 0
          },
          {
            "step": 386,
            "len": 1,
            "note": 52,
            "vel": 88,
            "ch": 0
          },
          {
            "step": 388,
            "len": 1,
            "note": 52,
            "vel": 88,
            "ch": 0
          },
          {
            "step": 389,
            "len": 1,
            "note": 52,
            "vel": 88,
            "ch": 0
          },
          {
            "step": 390,
            "len": 1,
            "note": 52,
            "vel": 88,
            "ch": 0
          },
          {
            "step": 392,
            "len": 1,
            "note": 52,
            "vel": 100,
            "ch": 0
          },
          {
            "step": 393,
            "len": 1,
            "note": 52,
            "vel": 88,
            "ch": 0
          },
          {
            "step": 394,
            "len": 1,
            "note": 52,
            "vel": 88,
            "ch": 0
          },
          {
            "step": 395,
            "len": 1,
            "note": 52,
            "vel": 88,
            "ch": 0
          },
          {
            "step": 396,
            "len": 1,
            "note": 52,
            "vel": 100,
            "ch": 0
          },
          {
            "step": 397,
            "len": 1,
            "note": 52,
            "vel": 88,
            "ch": 0
          },
          {
            "step": 398,
            "len": 1,
            "note": 52,
            "vel": 88,
            "ch": 0
          },
          {
            "step": 400,
            "len": 1,
            "note": 52,
            "vel": 100,
            "ch": 0
          },
          {
            "step": 401,
            "len": 1,
            "note": 52,
            "vel": 88,
            "ch": 0
          },
          {
            "step": 402,
            "len": 1,
            "note": 52,
            "vel": 88,
            "ch": 0
          },
          {
            "step": 404,
            "len": 1,
            "note": 52,
            "vel": 88,
            "ch": 0
          },
          {
            "step": 405,
            "len": 1,
            "note": 52,
            "vel": 88,
            "ch": 0
          },
          {
            "step": 406,
            "len": 1,
            "note": 52,
            "vel": 88,
            "ch": 0
          },
          {
            "step": 408,
            "len": 1,
            "note": 52,
            "vel": 100,
            "ch": 0
          },
          {
            "step": 409,
            "len": 1,
            "note": 52,
            "vel": 88,
            "ch": 0
          },
          {
            "step": 410,
            "len": 1,
            "note": 52,
            "vel": 88,
            "ch": 0
          },
          {
            "step": 411,
            "len": 1,
            "note": 52,
            "vel": 88,
            "ch": 0
          },
          {
            "step": 412,
            "len": 1,
            "note": 52,
            "vel": 100,
            "ch": 0
          },
          {
            "step": 413,
            "len": 1,
            "note": 52,
            "vel": 88,
            "ch": 0
          },
          {
            "step": 414,
            "len": 1,
            "note": 52,
            "vel": 88,
            "ch": 0
          },
          {
            "step": 416,
            "len": 1,
            "note": 52,
            "vel": 100,
            "ch": 0
          },
          {
            "step": 417,
            "len": 1,
            "note": 52,
            "vel": 88,
            "ch": 0
          },
          {
            "step": 418,
            "len": 1,
            "note": 52,
            "vel": 88,
            "ch": 0
          },
          {
            "step": 420,
            "len": 1,
            "note": 52,
            "vel": 88,
            "ch": 0
          },
          {
            "step": 421,
            "len": 1,
            "note": 52,
            "vel": 88,
            "ch": 0
          },
          {
            "step": 422,
            "len": 1,
            "note": 52,
            "vel": 88,
            "ch": 0
          },
          {
            "step": 424,
            "len": 1,
            "note": 52,
            "vel": 100,
            "ch": 0
          },
          {
            "step": 425,
            "len": 1,
            "note": 52,
            "vel": 88,
            "ch": 0
          },
          {
            "step": 426,
            "len": 1,
            "note": 52,
            "vel": 88,
            "ch": 0
          },
          {
            "step": 427,
            "len": 1,
            "note": 52,
            "vel": 88,
            "ch": 0
          },
          {
            "step": 428,
            "len": 1,
            "note": 52,
            "vel": 100,
            "ch": 0
          },
          {
            "step": 429,
            "len": 1,
            "note": 52,
            "vel": 88,
            "ch": 0
          },
          {
            "step": 430,
            "len": 1,
            "note": 52,
            "vel": 88,
            "ch": 0
          },
          {
            "step": 432,
            "len": 1,
            "note": 52,
            "vel": 100,
            "ch": 0
          },
          {
            "step": 433,
            "len": 1,
            "note": 52,
            "vel": 88,
            "ch": 0
          },
          {
            "step": 434,
            "len": 1,
            "note": 52,
            "vel": 88,
            "ch": 0
          },
          {
            "step": 436,
            "len": 1,
            "note": 52,
            "vel": 88,
            "ch": 0
          },
          {
            "step": 437,
            "len": 1,
            "note": 52,
            "vel": 88,
            "ch": 0
          },
          {
            "step": 438,
            "len": 1,
            "note": 52,
            "vel": 88,
            "ch": 0
          },
          {
            "step": 440,
            "len": 1,
            "note": 52,
            "vel": 100,
            "ch": 0
          },
          {
            "step": 441,
            "len": 1,
            "note": 52,
            "vel": 88,
            "ch": 0
          },
          {
            "step": 442,
            "len": 1,
            "note": 52,
            "vel": 88,
            "ch": 0
          },
          {
            "step": 443,
            "len": 1,
            "note": 52,
            "vel": 88,
            "ch": 0
          },
          {
            "step": 444,
            "len": 1,
            "note": 52,
            "vel": 100,
            "ch": 0
          },
          {
            "step": 445,
            "len": 1,
            "note": 52,
            "vel": 88,
            "ch": 0
          },
          {
            "step": 446,
            "len": 1,
            "note": 52,
            "vel": 88,
            "ch": 0
          },
          {
            "step": 448,
            "len": 1,
            "note": 52,
            "vel": 100,
            "ch": 0
          },
          {
            "step": 449,
            "len": 1,
            "note": 52,
            "vel": 88,
            "ch": 0
          },
          {
            "step": 450,
            "len": 1,
            "note": 52,
            "vel": 88,
            "ch": 0
          },
          {
            "step": 452,
            "len": 1,
            "note": 52,
            "vel": 88,
            "ch": 0
          },
          {
            "step": 453,
            "len": 1,
            "note": 52,
            "vel": 88,
            "ch": 0
          },
          {
            "step": 454,
            "len": 1,
            "note": 52,
            "vel": 88,
            "ch": 0
          },
          {
            "step": 456,
            "len": 1,
            "note": 52,
            "vel": 100,
            "ch": 0
          },
          {
            "step": 457,
            "len": 1,
            "note": 52,
            "vel": 88,
            "ch": 0
          },
          {
            "step": 458,
            "len": 1,
            "note": 52,
            "vel": 88,
            "ch": 0
          },
          {
            "step": 459,
            "len": 1,
            "note": 52,
            "vel": 88,
            "ch": 0
          },
          {
            "step": 460,
            "len": 1,
            "note": 52,
            "vel": 100,
            "ch": 0
          },
          {
            "step": 461,
            "len": 1,
            "note": 52,
            "vel": 88,
            "ch": 0
          },
          {
            "step": 462,
            "len": 1,
            "note": 52,
            "vel": 88,
            "ch": 0
          },
          {
            "step": 464,
            "len": 1,
            "note": 52,
            "vel": 100,
            "ch": 0
          },
          {
            "step": 465,
            "len": 1,
            "note": 52,
            "vel": 88,
            "ch": 0
          },
          {
            "step": 466,
            "len": 1,
            "note": 52,
            "vel": 88,
            "ch": 0
          },
          {
            "step": 468,
            "len": 1,
            "note": 52,
            "vel": 88,
            "ch": 0
          },
          {
            "step": 469,
            "len": 1,
            "note": 52,
            "vel": 88,
            "ch": 0
          },
          {
            "step": 470,
            "len": 1,
            "note": 52,
            "vel": 88,
            "ch": 0
          },
          {
            "step": 472,
            "len": 1,
            "note": 52,
            "vel": 100,
            "ch": 0
          },
          {
            "step": 473,
            "len": 1,
            "note": 52,
            "vel": 88,
            "ch": 0
          },
          {
            "step": 474,
            "len": 1,
            "note": 52,
            "vel": 88,
            "ch": 0
          },
          {
            "step": 475,
            "len": 1,
            "note": 52,
            "vel": 88,
            "ch": 0
          },
          {
            "step": 476,
            "len": 1,
            "note": 52,
            "vel": 100,
            "ch": 0
          },
          {
            "step": 477,
            "len": 1,
            "note": 52,
            "vel": 88,
            "ch": 0
          },
          {
            "step": 478,
            "len": 1,
            "note": 52,
            "vel": 88,
            "ch": 0
          },
          {
            "step": 480,
            "len": 1,
            "note": 52,
            "vel": 100,
            "ch": 0
          },
          {
            "step": 481,
            "len": 1,
            "note": 52,
            "vel": 88,
            "ch": 0
          },
          {
            "step": 482,
            "len": 1,
            "note": 52,
            "vel": 88,
            "ch": 0
          },
          {
            "step": 484,
            "len": 1,
            "note": 52,
            "vel": 88,
            "ch": 0
          },
          {
            "step": 485,
            "len": 1,
            "note": 52,
            "vel": 88,
            "ch": 0
          },
          {
            "step": 486,
            "len": 1,
            "note": 52,
            "vel": 88,
            "ch": 0
          },
          {
            "step": 488,
            "len": 1,
            "note": 52,
            "vel": 100,
            "ch": 0
          },
          {
            "step": 489,
            "len": 1,
            "note": 52,
            "vel": 88,
            "ch": 0
          },
          {
            "step": 490,
            "len": 1,
            "note": 52,
            "vel": 88,
            "ch": 0
          },
          {
            "step": 491,
            "len": 1,
            "note": 52,
            "vel": 88,
            "ch": 0
          },
          {
            "step": 492,
            "len": 1,
            "note": 52,
            "vel": 100,
            "ch": 0
          },
          {
            "step": 493,
            "len": 1,
            "note": 52,
            "vel": 88,
            "ch": 0
          },
          {
            "step": 494,
            "len": 1,
            "note": 52,
            "vel": 88,
            "ch": 0
          },
          {
            "step": 496,
            "len": 1,
            "note": 50,
            "vel": 100,
            "ch": 0
          },
          {
            "step": 497,
            "len": 1,
            "note": 52,
            "vel": 88,
            "ch": 0
          },
          {
            "step": 498,
            "len": 1,
            "note": 52,
            "vel": 88,
            "ch": 0
          },
          {
            "step": 500,
            "len": 1,
            "note": 50,
            "vel": 88,
            "ch": 0
          },
          {
            "step": 501,
            "len": 1,
            "note": 52,
            "vel": 88,
            "ch": 0
          },
          {
            "step": 502,
            "len": 1,
            "note": 52,
            "vel": 88,
            "ch": 0
          },
          {
            "step": 504,
            "len": 1,
            "note": 50,
            "vel": 100,
            "ch": 0
          },
          {
            "step": 505,
            "len": 1,
            "note": 52,
            "vel": 88,
            "ch": 0
          },
          {
            "step": 506,
            "len": 1,
            "note": 52,
            "vel": 88,
            "ch": 0
          },
          {
            "step": 507,
            "len": 1,
            "note": 52,
            "vel": 88,
            "ch": 0
          },
          {
            "step": 508,
            "len": 1,
            "note": 52,
            "vel": 100,
            "ch": 0
          },
          {
            "step": 509,
            "len": 1,
            "note": 52,
            "vel": 88,
            "ch": 0
          },
          {
            "step": 510,
            "len": 1,
            "note": 52,
            "vel": 88,
            "ch": 0
          }
        ],
        "texture": [],
        "drums": []
      }
    }
  }
}