{
  "track": "Drums",
  "version": "v1",
  "step_resolution": 16,
  "source": "Derived from Drumscribe - Motorik - MIDI.mid (TPQ=480, 130 BPM, 139 bars). Run tools/audio-analysis/analyze_midi_drums.py to inspect the source file.",
  "note_mapping": {
    "36": "Kick (bass drum)",
    "38": "Acoustic snare",
    "40": "Electric snare (fills/accents)",
    "41": "Low floor tom (fills)",
    "42": "Closed hi-hat",
    "43": "High floor tom (fills)",
    "46": "Open hi-hat",
    "47": "Low-mid tom (fills)",
    "48": "Hi-mid tom (fills)",
    "49": "Crash cymbal 1",
    "51": "Ride cymbal",
    "52": "China cymbal (section start accent)"
  },
  "patterns": [
    {
      "id": "drum_core_a",
      "label": "Core motorik A \u2014 medium intensity",
      "family": "core",
      "bars": 1,
      "intensity": "medium",
      "description": "Standard motorik pulse. Kick on steps 0,2,6,8,14 (beat-1, 1-and, 2-and, beat-3, 4-and). Snare on steps 4 and 12 (beats 2 and 4). Closed hat on all 8th offbeat positions (steps 2,4,6,8,10,12,14 \u2014 hat absent on beat 1 giving the characteristic motorik spacing). Closely matches bars 1-32 of source file. Use for intro build and low-energy sections.",
      "events": [
        {
          "step": 0,
          "note": 36,
          "vel": 80,
          "len": 1
        },
        {
          "step": 2,
          "note": 36,
          "vel": 78,
          "len": 1
        },
        {
          "step": 2,
          "note": 42,
          "vel": 80,
          "len": 1
        },
        {
          "step": 4,
          "note": 38,
          "vel": 80,
          "len": 1
        },
        {
          "step": 4,
          "note": 42,
          "vel": 91,
          "len": 1
        },
        {
          "step": 6,
          "note": 36,
          "vel": 76,
          "len": 1
        },
        {
          "step": 6,
          "note": 42,
          "vel": 91,
          "len": 1
        },
        {
          "step": 8,
          "note": 36,
          "vel": 80,
          "len": 1
        },
        {
          "step": 8,
          "note": 42,
          "vel": 91,
          "len": 1
        },
        {
          "step": 10,
          "note": 42,
          "vel": 91,
          "len": 1
        },
        {
          "step": 12,
          "note": 38,
          "vel": 80,
          "len": 1
        },
        {
          "step": 12,
          "note": 42,
          "vel": 91,
          "len": 1
        },
        {
          "step": 14,
          "note": 36,
          "vel": 76,
          "len": 1
        },
        {
          "step": 14,
          "note": 42,
          "vel": 91,
          "len": 1
        }
      ]
    },
    {
      "id": "drum_core_b",
      "label": "Core motorik B \u2014 high intensity, extra kick",
      "family": "core",
      "bars": 1,
      "intensity": "high",
      "description": "Higher velocity version with extra kick at step 10 (beat 3-and), pushing the groove harder and denser. Matches bars 33-128 of source file. Use for main body and climactic sections.",
      "events": [
        {
          "step": 0,
          "note": 36,
          "vel": 93,
          "len": 1
        },
        {
          "step": 2,
          "note": 36,
          "vel": 91,
          "len": 1
        },
        {
          "step": 2,
          "note": 42,
          "vel": 91,
          "len": 1
        },
        {
          "step": 4,
          "note": 38,
          "vel": 93,
          "len": 1
        },
        {
          "step": 4,
          "note": 42,
          "vel": 91,
          "len": 1
        },
        {
          "step": 6,
          "note": 36,
          "vel": 91,
          "len": 1
        },
        {
          "step": 6,
          "note": 42,
          "vel": 91,
          "len": 1
        },
        {
          "step": 8,
          "note": 36,
          "vel": 93,
          "len": 1
        },
        {
          "step": 8,
          "note": 42,
          "vel": 91,
          "len": 1
        },
        {
          "step": 10,
          "note": 36,
          "vel": 89,
          "len": 1
        },
        {
          "step": 10,
          "note": 42,
          "vel": 91,
          "len": 1
        },
        {
          "step": 12,
          "note": 38,
          "vel": 93,
          "len": 1
        },
        {
          "step": 12,
          "note": 42,
          "vel": 91,
          "len": 1
        },
        {
          "step": 14,
          "note": 36,
          "vel": 89,
          "len": 1
        },
        {
          "step": 14,
          "note": 42,
          "vel": 91,
          "len": 1
        }
      ]
    },
    {
      "id": "drum_sparse",
      "label": "Sparse motorik \u2014 low intensity",
      "family": "sparse",
      "bars": 1,
      "intensity": "low",
      "description": "Stripped-down groove. Kick on beats 1 and 3 only (steps 0 and 8). Snare on beats 2 and 4 (steps 4 and 12). Closed hat on quarter note positions only. Use for intro builds, bridge passages, or low-energy sections.",
      "events": [
        {
          "step": 0,
          "note": 36,
          "vel": 72,
          "len": 1
        },
        {
          "step": 4,
          "note": 38,
          "vel": 68,
          "len": 1
        },
        {
          "step": 4,
          "note": 42,
          "vel": 72,
          "len": 1
        },
        {
          "step": 8,
          "note": 36,
          "vel": 72,
          "len": 1
        },
        {
          "step": 8,
          "note": 42,
          "vel": 68,
          "len": 1
        },
        {
          "step": 12,
          "note": 38,
          "vel": 68,
          "len": 1
        },
        {
          "step": 12,
          "note": 42,
          "vel": 72,
          "len": 1
        }
      ]
    },
    {
      "id": "drum_intro_kickhat",
      "label": "Intro start \u2014 kick and hat only, no snare",
      "family": "sparse",
      "bars": 1,
      "intensity": "low",
      "description": "Intro bar per spec: kick and closed hat present, snare deliberately absent. Use for the first 1-2 bars of a drums-only or drums+bass intro type. Switch to drum_sparse or drum_core_a once snare enters at bar 2 or 3.",
      "events": [
        {
          "step": 0,
          "note": 36,
          "vel": 70,
          "len": 1
        },
        {
          "step": 2,
          "note": 36,
          "vel": 68,
          "len": 1
        },
        {
          "step": 2,
          "note": 42,
          "vel": 72,
          "len": 1
        },
        {
          "step": 4,
          "note": 42,
          "vel": 80,
          "len": 1
        },
        {
          "step": 6,
          "note": 36,
          "vel": 66,
          "len": 1
        },
        {
          "step": 6,
          "note": 42,
          "vel": 80,
          "len": 1
        },
        {
          "step": 8,
          "note": 36,
          "vel": 70,
          "len": 1
        },
        {
          "step": 8,
          "note": 42,
          "vel": 72,
          "len": 1
        },
        {
          "step": 10,
          "note": 42,
          "vel": 80,
          "len": 1
        },
        {
          "step": 12,
          "note": 42,
          "vel": 80,
          "len": 1
        },
        {
          "step": 14,
          "note": 36,
          "vel": 66,
          "len": 1
        },
        {
          "step": 14,
          "note": 42,
          "vel": 80,
          "len": 1
        }
      ]
    },
    {
      "id": "drum_outro_reduce",
      "label": "Outro \u2014 reduced density, cymbal thinning",
      "family": "sparse",
      "bars": 1,
      "intensity": "low",
      "description": "Outro step-down pattern per spec. Hat density reduced; only kick and snare backbone remain prominent. Ghost snare accents removed. Use for last 2-4 bars of a drums-only outro tail before final stop.",
      "events": [
        {
          "step": 0,
          "note": 36,
          "vel": 80,
          "len": 1
        },
        {
          "step": 4,
          "note": 38,
          "vel": 72,
          "len": 1
        },
        {
          "step": 8,
          "note": 36,
          "vel": 76,
          "len": 1
        },
        {
          "step": 8,
          "note": 42,
          "vel": 62,
          "len": 1
        },
        {
          "step": 12,
          "note": 38,
          "vel": 72,
          "len": 1
        }
      ]
    },
    {
      "id": "drum_outro_kickonly",
      "label": "Outro tail \u2014 kick only pulse",
      "family": "sparse",
      "bars": 1,
      "intensity": "low",
      "description": "Final outro bar. Kick on beats 1 and 3 only; no snare, no hat. Per spec: last bar may end with kick-only pulse (40% probability). Use as the final bar before a hard stop.",
      "events": [
        {
          "step": 0,
          "note": 36,
          "vel": 70,
          "len": 1
        },
        {
          "step": 8,
          "note": 36,
          "vel": 65,
          "len": 1
        }
      ]
    },
    {
      "id": "drum_section_start",
      "label": "Section start bar \u2014 crash accent on beat 1",
      "family": "accent",
      "bars": 1,
      "intensity": "high",
      "description": "Core B groove with China/Crash cymbal on beat 1 (step 0). Use as the first bar of a new major section or structural transition. Matches the section-start decoration found in bar 1 of each major block in the source file.",
      "events": [
        {
          "step": 0,
          "note": 36,
          "vel": 93,
          "len": 1
        },
        {
          "step": 0,
          "note": 52,
          "vel": 80,
          "len": 1
        },
        {
          "step": 2,
          "note": 36,
          "vel": 91,
          "len": 1
        },
        {
          "step": 2,
          "note": 42,
          "vel": 91,
          "len": 1
        },
        {
          "step": 4,
          "note": 38,
          "vel": 93,
          "len": 1
        },
        {
          "step": 4,
          "note": 42,
          "vel": 91,
          "len": 1
        },
        {
          "step": 6,
          "note": 36,
          "vel": 91,
          "len": 1
        },
        {
          "step": 6,
          "note": 42,
          "vel": 91,
          "len": 1
        },
        {
          "step": 8,
          "note": 36,
          "vel": 93,
          "len": 1
        },
        {
          "step": 8,
          "note": 42,
          "vel": 91,
          "len": 1
        },
        {
          "step": 10,
          "note": 36,
          "vel": 89,
          "len": 1
        },
        {
          "step": 10,
          "note": 42,
          "vel": 91,
          "len": 1
        },
        {
          "step": 12,
          "note": 38,
          "vel": 93,
          "len": 1
        },
        {
          "step": 12,
          "note": 42,
          "vel": 91,
          "len": 1
        },
        {
          "step": 14,
          "note": 36,
          "vel": 89,
          "len": 1
        },
        {
          "step": 14,
          "note": 42,
          "vel": 91,
          "len": 1
        }
      ]
    },
    {
      "id": "drum_ride",
      "label": "Ride cymbal variant \u2014 sustained glide feel",
      "family": "accent",
      "bars": 1,
      "intensity": "high",
      "description": "Core B kick/snare pattern with ride cymbal replacing closed hat on all 8th positions. Creates a sustained, gliding cymbal texture. Use for extended build sections or as a contrasting texture mid-song. Derived from blocks 51-63 of source file.",
      "events": [
        {
          "step": 0,
          "note": 36,
          "vel": 101,
          "len": 1
        },
        {
          "step": 2,
          "note": 36,
          "vel": 101,
          "len": 1
        },
        {
          "step": 2,
          "note": 51,
          "vel": 91,
          "len": 1
        },
        {
          "step": 4,
          "note": 38,
          "vel": 101,
          "len": 1
        },
        {
          "step": 4,
          "note": 51,
          "vel": 91,
          "len": 1
        },
        {
          "step": 6,
          "note": 36,
          "vel": 101,
          "len": 1
        },
        {
          "step": 6,
          "note": 51,
          "vel": 91,
          "len": 1
        },
        {
          "step": 8,
          "note": 36,
          "vel": 101,
          "len": 1
        },
        {
          "step": 8,
          "note": 51,
          "vel": 91,
          "len": 1
        },
        {
          "step": 10,
          "note": 36,
          "vel": 97,
          "len": 1
        },
        {
          "step": 10,
          "note": 51,
          "vel": 91,
          "len": 1
        },
        {
          "step": 12,
          "note": 38,
          "vel": 101,
          "len": 1
        },
        {
          "step": 12,
          "note": 51,
          "vel": 91,
          "len": 1
        },
        {
          "step": 14,
          "note": 36,
          "vel": 97,
          "len": 1
        },
        {
          "step": 14,
          "note": 51,
          "vel": 91,
          "len": 1
        }
      ]
    },
    {
      "id": "drum_open_hat_lift",
      "label": "Open hat lift \u2014 driving 8th-note open hat",
      "family": "accent",
      "bars": 1,
      "intensity": "high",
      "description": "Core B kick/snare with open hi-hat replacing closed hat on all 8th positions. Creates an open, airy, forward-driving feel. Use at phrase or section transitions for 1-2 bars before returning to closed hat.",
      "events": [
        {
          "step": 0,
          "note": 36,
          "vel": 93,
          "len": 1
        },
        {
          "step": 2,
          "note": 36,
          "vel": 91,
          "len": 1
        },
        {
          "step": 2,
          "note": 46,
          "vel": 85,
          "len": 1
        },
        {
          "step": 4,
          "note": 38,
          "vel": 93,
          "len": 1
        },
        {
          "step": 4,
          "note": 46,
          "vel": 85,
          "len": 1
        },
        {
          "step": 6,
          "note": 36,
          "vel": 91,
          "len": 1
        },
        {
          "step": 6,
          "note": 46,
          "vel": 85,
          "len": 1
        },
        {
          "step": 8,
          "note": 36,
          "vel": 93,
          "len": 1
        },
        {
          "step": 8,
          "note": 46,
          "vel": 85,
          "len": 1
        },
        {
          "step": 10,
          "note": 36,
          "vel": 89,
          "len": 1
        },
        {
          "step": 10,
          "note": 46,
          "vel": 85,
          "len": 1
        },
        {
          "step": 12,
          "note": 38,
          "vel": 93,
          "len": 1
        },
        {
          "step": 12,
          "note": 46,
          "vel": 85,
          "len": 1
        },
        {
          "step": 14,
          "note": 36,
          "vel": 89,
          "len": 1
        },
        {
          "step": 14,
          "note": 46,
          "vel": 85,
          "len": 1
        }
      ]
    },
    {
      "id": "drum_fill_short_tom",
      "label": "Short fill \u2014 snare2 + floor tom, last 2 beats",
      "family": "fill",
      "bars": 1,
      "intensity": "medium",
      "description": "Most common fill type in the source file. First half (beats 1-2) is normal Core A groove; steps 10-14 replace hat/kick with snare2+floortom hits leading into the next section. 1-2 beat fill. Use at 8-bar phrase boundaries (30% probability slot per spec). Derived from blocks 3 and 7 of source file.",
      "events": [
        {
          "step": 0,
          "note": 36,
          "vel": 80,
          "len": 1
        },
        {
          "step": 2,
          "note": 36,
          "vel": 78,
          "len": 1
        },
        {
          "step": 2,
          "note": 42,
          "vel": 80,
          "len": 1
        },
        {
          "step": 4,
          "note": 38,
          "vel": 80,
          "len": 1
        },
        {
          "step": 4,
          "note": 42,
          "vel": 91,
          "len": 1
        },
        {
          "step": 6,
          "note": 36,
          "vel": 76,
          "len": 1
        },
        {
          "step": 6,
          "note": 42,
          "vel": 91,
          "len": 1
        },
        {
          "step": 8,
          "note": 36,
          "vel": 80,
          "len": 1
        },
        {
          "step": 8,
          "note": 42,
          "vel": 91,
          "len": 1
        },
        {
          "step": 10,
          "note": 40,
          "vel": 88,
          "len": 1
        },
        {
          "step": 10,
          "note": 41,
          "vel": 88,
          "len": 1
        },
        {
          "step": 12,
          "note": 36,
          "vel": 80,
          "len": 1
        },
        {
          "step": 12,
          "note": 40,
          "vel": 92,
          "len": 1
        },
        {
          "step": 12,
          "note": 41,
          "vel": 92,
          "len": 1
        },
        {
          "step": 14,
          "note": 36,
          "vel": 80,
          "len": 1
        },
        {
          "step": 14,
          "note": 40,
          "vel": 92,
          "len": 1
        },
        {
          "step": 14,
          "note": 41,
          "vel": 92,
          "len": 1
        }
      ]
    },
    {
      "id": "drum_fill_snare_run",
      "label": "Short fill \u2014 snare accent run, last 2 beats",
      "family": "fill",
      "bars": 1,
      "intensity": "medium",
      "description": "First half is normal Core B groove; steps 10, 12, 14 become additional snare hits (alongside hat), creating a triplet-accent drive into the next section. Derived from block 23 of source file.",
      "events": [
        {
          "step": 0,
          "note": 36,
          "vel": 93,
          "len": 1
        },
        {
          "step": 2,
          "note": 36,
          "vel": 91,
          "len": 1
        },
        {
          "step": 2,
          "note": 42,
          "vel": 91,
          "len": 1
        },
        {
          "step": 4,
          "note": 38,
          "vel": 93,
          "len": 1
        },
        {
          "step": 4,
          "note": 42,
          "vel": 91,
          "len": 1
        },
        {
          "step": 6,
          "note": 36,
          "vel": 91,
          "len": 1
        },
        {
          "step": 6,
          "note": 42,
          "vel": 91,
          "len": 1
        },
        {
          "step": 8,
          "note": 36,
          "vel": 93,
          "len": 1
        },
        {
          "step": 8,
          "note": 42,
          "vel": 91,
          "len": 1
        },
        {
          "step": 10,
          "note": 38,
          "vel": 93,
          "len": 1
        },
        {
          "step": 10,
          "note": 42,
          "vel": 91,
          "len": 1
        },
        {
          "step": 12,
          "note": 38,
          "vel": 93,
          "len": 1
        },
        {
          "step": 12,
          "note": 42,
          "vel": 91,
          "len": 1
        },
        {
          "step": 14,
          "note": 38,
          "vel": 93,
          "len": 1
        },
        {
          "step": 14,
          "note": 42,
          "vel": 91,
          "len": 1
        }
      ]
    },
    {
      "id": "drum_fill_snare_roll",
      "label": "Snare roll fill \u2014 dense 16th-note run from beat 3",
      "family": "fill",
      "bars": 1,
      "intensity": "high",
      "description": "First half normal Core B; from beat 3 (step 8) a dense 16th-note snare roll builds to the bar end. Very energetic; use sparingly at major section boundaries. Derived from block 31 of source file.",
      "events": [
        {
          "step": 0,
          "note": 36,
          "vel": 93,
          "len": 1
        },
        {
          "step": 2,
          "note": 36,
          "vel": 91,
          "len": 1
        },
        {
          "step": 2,
          "note": 42,
          "vel": 91,
          "len": 1
        },
        {
          "step": 4,
          "note": 38,
          "vel": 93,
          "len": 1
        },
        {
          "step": 4,
          "note": 42,
          "vel": 91,
          "len": 1
        },
        {
          "step": 6,
          "note": 36,
          "vel": 91,
          "len": 1
        },
        {
          "step": 6,
          "note": 42,
          "vel": 91,
          "len": 1
        },
        {
          "step": 8,
          "note": 36,
          "vel": 92,
          "len": 1
        },
        {
          "step": 8,
          "note": 38,
          "vel": 92,
          "len": 1
        },
        {
          "step": 9,
          "note": 38,
          "vel": 88,
          "len": 1
        },
        {
          "step": 10,
          "note": 38,
          "vel": 90,
          "len": 1
        },
        {
          "step": 11,
          "note": 38,
          "vel": 86,
          "len": 1
        },
        {
          "step": 12,
          "note": 36,
          "vel": 92,
          "len": 1
        },
        {
          "step": 12,
          "note": 38,
          "vel": 92,
          "len": 1
        },
        {
          "step": 13,
          "note": 38,
          "vel": 88,
          "len": 1
        },
        {
          "step": 14,
          "note": 38,
          "vel": 90,
          "len": 1
        },
        {
          "step": 15,
          "note": 38,
          "vel": 86,
          "len": 1
        }
      ]
    },
    {
      "id": "drum_fill_tom_run",
      "label": "Tom run fill \u2014 kick + floor tom pattern, second half bar",
      "family": "fill",
      "bars": 1,
      "intensity": "high",
      "description": "First half normal Core B; second half (from beat 3) becomes a prominent kick+floor-tom descend with snare accents. Use at 16-bar section boundaries. Derived from block 35 of source file.",
      "events": [
        {
          "step": 0,
          "note": 36,
          "vel": 93,
          "len": 1
        },
        {
          "step": 2,
          "note": 36,
          "vel": 91,
          "len": 1
        },
        {
          "step": 2,
          "note": 42,
          "vel": 91,
          "len": 1
        },
        {
          "step": 4,
          "note": 38,
          "vel": 93,
          "len": 1
        },
        {
          "step": 4,
          "note": 42,
          "vel": 91,
          "len": 1
        },
        {
          "step": 6,
          "note": 36,
          "vel": 91,
          "len": 1
        },
        {
          "step": 6,
          "note": 42,
          "vel": 91,
          "len": 1
        },
        {
          "step": 8,
          "note": 36,
          "vel": 93,
          "len": 1
        },
        {
          "step": 8,
          "note": 41,
          "vel": 93,
          "len": 1
        },
        {
          "step": 10,
          "note": 36,
          "vel": 91,
          "len": 1
        },
        {
          "step": 10,
          "note": 41,
          "vel": 91,
          "len": 1
        },
        {
          "step": 12,
          "note": 36,
          "vel": 93,
          "len": 1
        },
        {
          "step": 12,
          "note": 38,
          "vel": 93,
          "len": 1
        },
        {
          "step": 13,
          "note": 38,
          "vel": 89,
          "len": 1
        },
        {
          "step": 14,
          "note": 36,
          "vel": 91,
          "len": 1
        },
        {
          "step": 14,
          "note": 41,
          "vel": 91,
          "len": 1
        }
      ]
    },
    {
      "id": "drum_fill_crash_climax",
      "label": "Crash climax fill \u2014 crash on every 8th note position",
      "family": "fill",
      "bars": 1,
      "intensity": "high",
      "description": "Every 8th-note position has a crash cymbal hit alongside kick/snare. Maximum intensity marker. Reserve for the end of the song or a single major structural peak only. Derived from block 63 bar 1 of source file.",
      "events": [
        {
          "step": 0,
          "note": 36,
          "vel": 101,
          "len": 1
        },
        {
          "step": 0,
          "note": 49,
          "vel": 70,
          "len": 1
        },
        {
          "step": 2,
          "note": 36,
          "vel": 101,
          "len": 1
        },
        {
          "step": 2,
          "note": 49,
          "vel": 70,
          "len": 1
        },
        {
          "step": 4,
          "note": 38,
          "vel": 101,
          "len": 1
        },
        {
          "step": 4,
          "note": 49,
          "vel": 70,
          "len": 1
        },
        {
          "step": 6,
          "note": 36,
          "vel": 101,
          "len": 1
        },
        {
          "step": 6,
          "note": 49,
          "vel": 70,
          "len": 1
        },
        {
          "step": 8,
          "note": 36,
          "vel": 101,
          "len": 1
        },
        {
          "step": 8,
          "note": 49,
          "vel": 70,
          "len": 1
        },
        {
          "step": 10,
          "note": 36,
          "vel": 101,
          "len": 1
        },
        {
          "step": 10,
          "note": 49,
          "vel": 70,
          "len": 1
        },
        {
          "step": 12,
          "note": 38,
          "vel": 101,
          "len": 1
        },
        {
          "step": 12,
          "note": 49,
          "vel": 70,
          "len": 1
        },
        {
          "step": 14,
          "note": 36,
          "vel": 101,
          "len": 1
        },
        {
          "step": 14,
          "note": 49,
          "vel": 70,
          "len": 1
        }
      ]
    }
  ]
}