{
  "midi": "/Users/urlocker/Downloads/The Doors - L A Woman.mid",
  "ticks_per_beat": 480,
  "tracks": [
    {
      "index": 0,
      "name": "L. A. woman",
      "note_count": 0
    },
    {
      "index": 1,
      "name": "Guitar 1 (Light Dist.)",
      "note_count": 762
    },
    {
      "index": 2,
      "name": "Guitar 2 (Clean)",
      "note_count": 5391
    },
    {
      "index": 3,
      "name": "Electric Piano",
      "note_count": 814
    },
    {
      "index": 4,
      "name": "Acoustic Basses",
      "note_count": 352
    },
    {
      "index": 5,
      "name": "Acoustic Piano",
      "note_count": 1889
    },
    {
      "index": 6,
      "name": "Bass",
      "note_count": 2191
    },
    {
      "index": 7,
      "name": "Drums",
      "note_count": 4479
    }
  ],
  "sections": {
    "all": {
      "bars": [
        1,
        129
      ],
      "tracks": {
        "rhythm": [],
        "bass": [
          {
            "step": 256,
            "len": 1,
            "note": 71,
            "vel": 76,
            "ch": 0
          },
          {
            "step": 256,
            "len": 16,
            "note": 73,
            "vel": 89,
            "ch": 0
          },
          {
            "step": 272,
            "len": 16,
            "note": 71,
            "vel": 89,
            "ch": 0
          },
          {
            "step": 288,
            "len": 15,
            "note": 69,
            "vel": 89,
            "ch": 0
          },
          {
            "step": 303,
            "len": 1,
            "note": 69,
            "vel": 89,
            "ch": 0
          },
          {
            "step": 304,
            "len": 16,
            "note": 67,
            "vel": 89,
            "ch": 0
          },
          {
            "step": 322,
            "len": 1,
            "note": 66,
            "vel": 76,
            "ch": 0
          },
          {
            "step": 322,
            "len": 4,
            "note": 67,
            "vel": 89,
            "ch": 0
          },
          {
            "step": 326,
            "len": 2,
            "note": 66,
            "vel": 89,
            "ch": 0
          },
          {
            "step": 328,
            "len": 2,
            "note": 67,
            "vel": 89,
            "ch": 0
          },
          {
            "step": 330,
            "len": 2,
            "note": 66,
            "vel": 89,
            "ch": 0
          },
          {
            "step": 332,
            "len": 2,
            "note": 64,
            "vel": 89,
            "ch": 0
          },
          {
            "step": 334,
            "len": 1,
            "note": 64,
            "vel": 76,
            "ch": 0
          },
          {
            "step": 334,
            "len": 18,
            "note": 66,
            "vel": 89,
            "ch": 0
          },
          {
            "step": 354,
            "len": 1,
            "note": 61,
            "vel": 76,
            "ch": 0
          },
          {
            "step": 354,
            "len": 4,
            "note": 62,
            "vel": 89,
            "ch": 0
          },
          {
            "step": 358,
            "len": 2,
            "note": 61,
            "vel": 89,
            "ch": 0
          },
          {
            "step": 360,
            "len": 2,
            "note": 62,
            "vel": 89,
            "ch": 0
          },
          {
            "step": 362,
            "len": 2,
            "note": 61,
            "vel": 89,
            "ch": 0
          },
          {
            "step": 364,
            "len": 2,
            "note": 59,
            "vel": 89,
            "ch": 0
          },
          {
            "step": 366,
            "len": 18,
            "note": 61,
            "vel": 89,
            "ch": 0
          },
          {
            "step": 388,
            "len": 2,
            "note": 62,
            "vel": 89,
            "ch": 0
          },
          {
            "step": 390,
            "len": 2,
            "note": 61,
            "vel": 89,
            "ch": 0
          },
          {
            "step": 392,
            "len": 2,
            "note": 62,
            "vel": 89,
            "ch": 0
          },
          {
            "step": 394,
            "len": 2,
            "note": 61,
            "vel": 89,
            "ch": 0
          },
          {
            "step": 396,
            "len": 2,
            "note": 57,
            "vel": 89,
            "ch": 0
          },
          {
            "step": 398,
            "len": 18,
            "note": 61,
            "vel": 89,
            "ch": 0
          },
          {
            "step": 418,
            "len": 1,
            "note": 61,
            "vel": 76,
            "ch": 0
          },
          {
            "step": 418,
            "len": 4,
            "note": 62,
            "vel": 89,
            "ch": 0
          },
          {
            "step": 422,
            "len": 2,
            "note": 61,
            "vel": 89,
            "ch": 0
          },
          {
            "step": 424,
            "len": 2,
            "note": 62,
            "vel": 89,
            "ch": 0
          },
          {
            "step": 426,
            "len": 2,
            "note": 61,
            "vel": 89,
            "ch": 0
          },
          {
            "step": 428,
            "len": 2,
            "note": 57,
            "vel": 89,
            "ch": 0
          },
          {
            "step": 430,
            "len": 18,
            "note": 57,
            "vel": 89,
            "ch": 0
          },
          {
            "step": 450,
            "len": 1,
            "note": 61,
            "vel": 76,
            "ch": 0
          },
          {
            "step": 450,
            "len": 4,
            "note": 62,
            "vel": 89,
            "ch": 0
          },
          {
            "step": 454,
            "len": 2,
            "note": 61,
            "vel": 89,
            "ch": 0
          },
          {
            "step": 456,
            "len": 2,
            "note": 62,
            "vel": 89,
            "ch": 0
          },
          {
            "step": 458,
            "len": 2,
            "note": 61,
            "vel": 89,
            "ch": 0
          },
          {
            "step": 460,
            "len": 2,
            "note": 57,
            "vel": 89,
            "ch": 0
          },
          {
            "step": 462,
            "len": 18,
            "note": 61,
            "vel": 89,
            "ch": 0
          },
          {
            "step": 482,
            "len": 1,
            "note": 61,
            "vel": 76,
            "ch": 0
          },
          {
            "step": 482,
            "len": 4,
            "note": 62,
            "vel": 89,
            "ch": 0
          },
          {
            "step": 486,
            "len": 2,
            "note": 61,
            "vel": 89,
            "ch": 0
          },
          {
            "step": 488,
            "len": 2,
            "note": 62,
            "vel": 89,
            "ch": 0
          },
          {
            "step": 490,
            "len": 2,
            "note": 61,
            "vel": 89,
            "ch": 0
          },
          {
            "step": 492,
            "len": 2,
            "note": 57,
            "vel": 89,
            "ch": 0
          },
          {
            "step": 494,
            "len": 18,
            "note": 57,
            "vel": 89,
            "ch": 0
          },
          {
            "step": 520,
            "len": 1,
            "note": 61,
            "vel": 76,
            "ch": 0
          },
          {
            "step": 520,
            "len": 2,
            "note": 62,
            "vel": 89,
            "ch": 0
          },
          {
            "step": 522,
            "len": 2,
            "note": 61,
            "vel": 89,
            "ch": 0
          },
          {
            "step": 524,
            "len": 2,
            "note": 57,
            "vel": 89,
            "ch": 0
          },
          {
            "step": 526,
            "len": 18,
            "note": 57,
            "vel": 89,
            "ch": 0
          },
          {
            "step": 552,
            "len": 1,
            "note": 61,
            "vel": 76,
            "ch": 0
          },
          {
            "step": 552,
            "len": 2,
            "note": 62,
            "vel": 89,
            "ch": 0
          },
          {
            "step": 554,
            "len": 2,
            "note": 61,
            "vel": 89,
            "ch": 0
          },
          {
            "step": 556,
            "len": 2,
            "note": 57,
            "vel": 89,
            "ch": 0
          },
          {
            "step": 558,
            "len": 10,
            "note": 57,
            "vel": 89,
            "ch": 0
          },
          {
            "step": 592,
            "len": 4,
            "note": 67,
            "vel": 89,
            "ch": 0
          },
          {
            "step": 596,
            "len": 4,
            "note": 66,
            "vel": 89,
            "ch": 0
          },
          {
            "step": 600,
            "len": 2,
            "note": 64,
            "vel": 89,
            "ch": 0
          },
          {
            "step": 602,
            "len": 2,
            "note": 66,
            "vel": 89,
            "ch": 0
          },
          {
            "step": 606,
            "len": 6,
            "note": 60,
            "vel": 89,
            "ch": 0
          },
          {
            "step": 612,
            "len": 2,
            "note": 57,
            "vel": 89,
            "ch": 0
          },
          {
            "step": 614,
            "len": 2,
            "note": 55,
            "vel": 89,
            "ch": 0
          },
          {
            "step": 616,
            "len": 2,
            "note": 52,
            "vel": 89,
            "ch": 0
          },
          {
            "step": 618,
            "len": 2,
            "note": 51,
            "vel": 89,
            "ch": 0
          },
          {
            "step": 620,
            "len": 2,
            "note": 50,
            "vel": 89,
            "ch": 0
          },
          {
            "step": 622,
            "len": 2,
            "note": 48,
            "vel": 89,
            "ch": 0
          },
          {
            "step": 624,
            "len": 16,
            "note": 57,
            "vel": 89,
            "ch": 0
          },
          {
            "step": 656,
            "len": 4,
            "note": 67,
            "vel": 89,
            "ch": 0
          },
          {
            "step": 660,
            "len": 4,
            "note": 66,
            "vel": 89,
            "ch": 0
          },
          {
            "step": 664,
            "len": 2,
            "note": 64,
            "vel": 89,
            "ch": 0
          },
          {
            "step": 666,
            "len": 2,
            "note": 66,
            "vel": 89,
            "ch": 0
          },
          {
            "step": 670,
            "len": 6,
            "note": 60,
            "vel": 89,
            "ch": 0
          },
          {
            "step": 676,
            "len": 2,
            "note": 57,
            "vel": 89,
            "ch": 0
          },
          {
            "step": 678,
            "len": 2,
            "note": 55,
            "vel": 89,
            "ch": 0
          },
          {
            "step": 680,
            "len": 2,
            "note": 52,
            "vel": 89,
            "ch": 0
          },
          {
            "step": 682,
            "len": 2,
            "note": 51,
            "vel": 89,
            "ch": 0
          },
          {
            "step": 684,
            "len": 2,
            "note": 50,
            "vel": 89,
            "ch": 0
          },
          {
            "step": 686,
            "len": 2,
            "note": 48,
            "vel": 89,
            "ch": 0
          },
          {
            "step": 688,
            "len": 16,
            "note": 57,
            "vel": 89,
            "ch": 0
          },
          {
            "step": 720,
            "len": 2,
            "note": 57,
            "vel": 89,
            "ch": 0
          },
          {
            "step": 722,
            "len": 2,
            "note": 55,
            "vel": 89,
            "ch": 0
          },
          {
            "step": 724,
            "len": 2,
            "note": 57,
            "vel": 89,
            "ch": 0
          },
          {
            "step": 726,
            "len": 2,
            "note": 55,
            "vel": 89,
            "ch": 0
          },
          {
            "step": 728,
            "len": 2,
            "note": 57,
            "vel": 89,
            "ch": 0
          },
          {
            "step": 730,
            "len": 2,
            "note": 55,
            "vel": 89,
            "ch": 0
          },
          {
            "step": 732,
            "len": 2,
            "note": 57,
            "vel": 89,
            "ch": 0
          },
          {
            "step": 734,
            "len": 1,
            "note": 55,
            "vel": 76,
            "ch": 0
          },
          {
            "step": 734,
            "len": 4,
            "note": 57,
            "vel": 89,
            "ch": 0
          },
          {
            "step": 738,
            "len": 2,
            "note": 55,
            "vel": 89,
            "ch": 0
          },
          {
            "step": 740,
            "len": 2,
            "note": 57,
            "vel": 89,
            "ch": 0
          },
          {
            "step": 742,
            "len": 6,
            "note": 60,
            "vel": 89,
            "ch": 0
          },
          {
            "step": 748,
            "len": 2,
            "note": 55,
            "vel": 89,
            "ch": 0
          },
          {
            "step": 750,
            "len": 26,
            "note": 57,
            "vel": 89,
            "ch": 0
          },
          {
            "step": 784,
            "len": 2,
            "note": 62,
            "vel": 89,
            "ch": 0
          },
          {
            "step": 786,
            "len": 2,
            "note": 61,
            "vel": 89,
            "ch": 0
          },
          {
            "step": 788,
            "len": 2,
            "note": 62,
            "vel": 89,
            "ch": 0
          },
          {
            "step": 790,
            "len": 2,
            "note": 61,
            "vel": 89,
            "ch": 0
          },
          {
            "step": 792,
            "len": 2,
            "note": 62,
            "vel": 89,
            "ch": 0
          },
          {
            "step": 794,
            "len": 2,
            "note": 61,
            "vel": 89,
            "ch": 0
          },
          {
            "step": 796,
            "len": 2,
            "note": 62,
            "vel": 89,
            "ch": 0
          },
          {
            "step": 798,
            "len": 2,
            "note": 61,
            "vel": 89,
            "ch": 0
          },
          {
            "step": 800,
            "len": 2,
            "note": 62,
            "vel": 89,
            "ch": 0
          },
          {
            "step": 802,
            "len": 2,
            "note": 61,
            "vel": 89,
            "ch": 0
          },
          {
            "step": 804,
            "len": 2,
            "note": 62,
            "vel": 89,
            "ch": 0
          },
          {
            "step": 806,
            "len": 26,
            "note": 64,
            "vel": 89,
            "ch": 0
          },
          {
            "step": 848,
            "len": 32,
            "note": 43,
            "vel": 89,
            "ch": 0
          },
          {
            "step": 848,
            "len": 32,
            "note": 50,
            "vel": 89,
            "ch": 0
          },
          {
            "step": 848,
            "len": 32,
            "note": 55,
            "vel": 89,
            "ch": 0
          },
          {
            "step": 880,
            "len": 32,
            "note": 45,
            "vel": 89,
            "ch": 0
          },
          {
            "step": 880,
            "len": 32,
            "note": 52,
            "vel": 89,
            "ch": 0
          },
          {
            "step": 880,
            "len": 32,
            "note": 57,
            "vel": 89,
            "ch": 0
          },
          {
            "step": 912,
            "len": 32,
            "note": 43,
            "vel": 89,
            "ch": 0
          },
          {
            "step": 912,
            "len": 32,
            "note": 50,
            "vel": 89,
            "ch": 0
          },
          {
            "step": 912,
            "len": 32,
            "note": 55,
            "vel": 89,
            "ch": 0
          },
          {
            "step": 944,
            "len": 24,
            "note": 45,
            "vel": 89,
            "ch": 0
          },
          {
            "step": 944,
            "len": 24,
            "note": 52,
            "vel": 89,
            "ch": 0
          },
          {
            "step": 944,
            "len": 24,
            "note": 57,
            "vel": 89,
            "ch": 0
          },
          {
            "step": 970,
            "len": 2,
            "note": 40,
            "vel": 89,
            "ch": 0
          },
          {
            "step": 972,
            "len": 2,
            "note": 42,
            "vel": 89,
            "ch": 0
          },
          {
            "step": 974,
            "len": 2,
            "note": 44,
            "vel": 89,
            "ch": 0
          },
          {
            "step": 976,
            "len": 2,
            "note": 45,
            "vel": 89,
            "ch": 0
          },
          {
            "step": 978,
            "len": 2,
            "note": 47,
            "vel": 89,
            "ch": 0
          },
          {
            "step": 980,
            "len": 2,
            "note": 49,
            "vel": 89,
            "ch": 0
          },
          {
            "step": 982,
            "len": 2,
            "note": 50,
            "vel": 89,
            "ch": 0
          },
          {
            "step": 984,
            "len": 2,
            "note": 52,
            "vel": 89,
            "ch": 0
          },
          {
            "step": 986,
            "len": 2,
            "note": 54,
            "vel": 89,
            "ch": 0
          },
          {
            "step": 988,
            "len": 2,
            "note": 55,
            "vel": 89,
            "ch": 0
          },
          {
            "step": 990,
            "len": 2,
            "note": 57,
            "vel": 89,
            "ch": 0
          },
          {
            "step": 992,
            "len": 2,
            "note": 59,
            "vel": 89,
            "ch": 0
          },
          {
            "step": 994,
            "len": 6,
            "note": 59,
            "vel": 89,
            "ch": 0
          },
          {
            "step": 1000,
            "len": 1,
            "note": 59,
            "vel": 89,
            "ch": 0
          },
          {
            "step": 1001,
            "len": 1,
            "note": 57,
            "vel": 89,
            "ch": 0
          },
          {
            "step": 1003,
            "len": 1,
            "note": 54,
            "vel": 89,
            "ch": 0
          },
          {
            "step": 1004,
            "len": 14,
            "note": 57,
            "vel": 89,
            "ch": 0
          },
          {
            "step": 1018,
            "len": 2,
            "note": 50,
            "vel": 89,
            "ch": 0
          },
          {
            "step": 1020,
            "len": 2,
            "note": 52,
            "vel": 89,
            "ch": 0
          },
          {
            "step": 1022,
            "len": 2,
            "note": 54,
            "vel": 89,
            "ch": 0
          },
          {
            "step": 1024,
            "len": 2,
            "note": 55,
            "vel": 89,
            "ch": 0
          },
          {
            "step": 1026,
            "len": 2,
            "note": 57,
            "vel": 89,
            "ch": 0
          },
          {
            "step": 1028,
            "len": 4,
            "note": 59,
            "vel": 89,
            "ch": 0
          },
          {
            "step": 1032,
            "len": 6,
            "note": 59,
            "vel": 89,
            "ch": 0
          },
          {
            "step": 1038,
            "len": 4,
            "note": 59,
            "vel": 89,
            "ch": 0
          },
          {
            "step": 1042,
            "len": 2,
            "note": 57,
            "vel": 89,
            "ch": 0
          },
          {
            "step": 1044,
            "len": 2,
            "note": 54,
            "vel": 89,
            "ch": 0
          },
          {
            "step": 1046,
            "len": 2,
            "note": 57,
            "vel": 89,
            "ch": 0
          },
          {
            "step": 1048,
            "len": 4,
            "note": 59,
            "vel": 89,
            "ch": 0
          },
          {
            "step": 1052,
            "len": 1,
            "note": 59,
            "vel": 89,
            "ch": 0
          },
          {
            "step": 1053,
            "len": 1,
            "note": 57,
            "vel": 89,
            "ch": 0
          },
          {
            "step": 1055,
            "len": 1,
            "note": 54,
            "vel": 89,
            "ch": 0
          },
          {
            "step": 1056,
            "len": 6,
            "note": 59,
            "vel": 89,
            "ch": 0
          },
          {
            "step": 1062,
            "len": 4,
            "note": 59,
            "vel": 89,
            "ch": 0
          },
          {
            "step": 1066,
            "len": 2,
            "note": 57,
            "vel": 89,
            "ch": 0
          },
          {
            "step": 1068,
            "len": 2,
            "note": 54,
            "vel": 89,
            "ch": 0
          },
          {
            "step": 1070,
            "len": 4,
            "note": 57,
            "vel": 89,
            "ch": 0
          },
          {
            "step": 1074,
            "len": 2,
            "note": 57,
            "vel": 89,
            "ch": 0
          },
          {
            "step": 1076,
            "len": 2,
            "note": 54,
            "vel": 89,
            "ch": 0
          },
          {
            "step": 1078,
            "len": 4,
            "note": 57,
            "vel": 89,
            "ch": 0
          },
          {
            "step": 1082,
            "len": 2,
            "note": 57,
            "vel": 89,
            "ch": 0
          },
          {
            "step": 1084,
            "len": 2,
            "note": 59,
            "vel": 89,
            "ch": 0
          },
          {
            "step": 1086,
            "len": 6,
            "note": 64,
            "vel": 89,
            "ch": 0
          },
          {
            "step": 1092,
            "len": 4,
            "note": 69,
            "vel": 89,
            "ch": 0
          },
          {
            "step": 1096,
            "len": 4,
            "note": 69,
            "vel": 89,
            "ch": 0
          },
          {
            "step": 1100,
            "len": 2,
            "note": 69,
            "vel": 89,
            "ch": 0
          },
          {
            "step": 1102,
            "len": 4,
            "note": 71,
            "vel": 89,
            "ch": 0
          },
          {
            "step": 1106,
            "len": 2,
            "note": 69,
            "vel": 89,
            "ch": 0
          },
          {
            "step": 1108,
            "len": 2,
            "note": 71,
            "vel": 89,
            "ch": 0
          },
          {
            "step": 1110,
            "len": 4,
            "note": 71,
            "vel": 89,
            "ch": 0
          },
          {
            "step": 1114,
            "len": 2,
            "note": 69,
            "vel": 89,
            "ch": 0
          },
          {
            "step": 1116,
            "len": 2,
            "note": 66,
            "vel": 89,
            "ch": 0
          },
          {
            "step": 1118,
            "len": 4,
            "note": 69,
            "vel": 89,
            "ch": 0
          },
          {
            "step": 1122,
            "len": 2,
            "note": 69,
            "vel": 89,
            "ch": 0
          },
          {
            "step": 1124,
            "len": 2,
            "note": 71,
            "vel": 89,
            "ch": 0
          },
          {
            "step": 1126,
            "len": 2,
            "note": 69,
            "vel": 89,
            "ch": 0
          },
          {
            "step": 1128,
            "len": 2,
            "note": 71,
            "vel": 89,
            "ch": 0
          },
          {
            "step": 1130,
            "len": 2,
            "note": 71,
            "vel": 89,
            "ch": 0
          },
          {
            "step": 1132,
            "len": 2,
            "note": 71,
            "vel": 89,
            "ch": 0
          },
          {
            "step": 1134,
            "len": 1,
            "note": 71,
            "vel": 76,
            "ch": 0
          },
          {
            "step": 1134,
            "len": 4,
            "note": 73,
            "vel": 89,
            "ch": 0
          },
          {
            "step": 1138,
            "len": 2,
            "note": 73,
            "vel": 89,
            "ch": 0
          },
          {
            "step": 1140,
            "len": 2,
            "note": 73,
            "vel": 89,
            "ch": 0
          },
          {
            "step": 1142,
            "len": 4,
            "note": 73,
            "vel": 89,
            "ch": 0
          },
          {
            "step": 1146,
            "len": 2,
            "note": 74,
            "vel": 89,
            "ch": 0
          },
          {
            "step": 1148,
            "len": 2,
            "note": 74,
            "vel": 89,
            "ch": 0
          },
          {
            "step": 1150,
            "len": 2,
            "note": 74,
            "vel": 89,
            "ch": 0
          },
          {
            "step": 1152,
            "len": 2,
            "note": 73,
            "vel": 89,
            "ch": 0
          },
          {
            "step": 1154,
            "len": 2,
            "note": 73,
            "vel": 89,
            "ch": 0
          },
          {
            "step": 1156,
            "len": 4,
            "note": 73,
            "vel": 89,
            "ch": 0
          },
          {
            "step": 1160,
            "len": 2,
            "note": 73,
            "vel": 89,
            "ch": 0
          },
          {
            "step": 1165,
            "len": 1,
            "note": 71,
            "vel": 89,
            "ch": 0
          },
          {
            "step": 1166,
            "len": 10,
            "note": 71,
            "vel": 89,
            "ch": 0
          },
          {
            "step": 1176,
            "len": 2,
            "note": 71,
            "vel": 89,
            "ch": 0
          },
          {
            "step": 1178,
            "len": 2,
            "note": 69,
            "vel": 89,
            "ch": 0
          },
          {
            "step": 1180,
            "len": 2,
            "note": 69,
            "vel": 89,
            "ch": 0
          },
          {
            "step": 1182,
            "len": 10,
            "note": 69,
            "vel": 89,
            "ch": 0
          },
          {
            "step": 1192,
            "len": 8,
            "note": 67,
            "vel": 89,
            "ch": 0
          },
          {
            "step": 1192,
            "len": 1,
            "note": 69,
            "vel": 76,
            "ch": 0
          },
          {
            "step": 1200,
            "len": 16,
            "note": 67,
            "vel": 89,
            "ch": 0
          },
          {
            "step": 1218,
            "len": 1,
            "note": 61,
            "vel": 76,
            "ch": 0
          },
          {
            "step": 1218,
            "len": 4,
            "note": 62,
            "vel": 89,
            "ch": 0
          },
          {
            "step": 1222,
            "len": 2,
            "note": 61,
            "vel": 89,
            "ch": 0
          },
          {
            "step": 1224,
            "len": 2,
            "note": 62,
            "vel": 89,
            "ch": 0
          },
          {
            "step": 1226,
            "len": 2,
            "note": 61,
            "vel": 89,
            "ch": 0
          },
          {
            "step": 1228,
            "len": 12,
            "note": 62,
            "vel": 89,
            "ch": 0
          },
          {
            "step": 1240,
            "len": 1,
            "note": 62,
            "vel": 89,
            "ch": 0
          },
          {
            "step": 1241,
            "len": 3,
            "note": 61,
            "vel": 89,
            "ch": 0
          },
          {
            "step": 1244,
            "len": 2,
            "note": 57,
            "vel": 89,
            "ch": 0
          },
          {
            "step": 1246,
            "len": 10,
            "note": 61,
            "vel": 89,
            "ch": 0
          },
          {
            "step": 1256,
            "len": 2,
            "note": 62,
            "vel": 89,
            "ch": 0
          },
          {
            "step": 1258,
            "len": 2,
            "note": 61,
            "vel": 89,
            "ch": 0
          },
          {
            "step": 1260,
            "len": 2,
            "note": 57,
            "vel": 89,
            "ch": 0
          },
          {
            "step": 1262,
            "len": 18,
            "note": 57,
            "vel": 89,
            "ch": 0
          },
          {
            "step": 1282,
            "len": 1,
            "note": 61,
            "vel": 76,
            "ch": 0
          },
          {
            "step": 1282,
            "len": 4,
            "note": 62,
            "vel": 89,
            "ch": 0
          },
          {
            "step": 1286,
            "len": 2,
            "note": 61,
            "vel": 89,
            "ch": 0
          },
          {
            "step": 1288,
            "len": 2,
            "note": 62,
            "vel": 89,
            "ch": 0
          },
          {
            "step": 1290,
            "len": 2,
            "note": 61,
            "vel": 89,
            "ch": 0
          },
          {
            "step": 1292,
            "len": 2,
            "note": 57,
            "vel": 89,
            "ch": 0
          },
          {
            "step": 1294,
            "len": 18,
            "note": 57,
            "vel": 89,
            "ch": 0
          },
          {
            "step": 1376,
            "len": 4,
            "note": 62,
            "vel": 89,
            "ch": 0
          },
          {
            "step": 1380,
            "len": 2,
            "note": 60,
            "vel": 89,
            "ch": 0
          },
          {
            "step": 1382,
            "len": 2,
            "note": 62,
            "vel": 89,
            "ch": 0
          },
          {
            "step": 1386,
            "len": 6,
            "note": 62,
            "vel": 89,
            "ch": 0
          },
          {
            "step": 1408,
            "len": 6,
            "note": 67,
            "vel": 89,
            "ch": 0
          },
          {
            "step": 1414,
            "len": 10,
            "note": 60,
            "vel": 89,
            "ch": 0
          },
          {
            "step": 1456,
            "len": 2,
            "note": 57,
            "vel": 89,
            "ch": 0
          },
          {
            "step": 1458,
            "len": 2,
            "note": 55,
            "vel": 89,
            "ch": 0
          },
          {
            "step": 1460,
            "len": 2,
            "note": 57,
            "vel": 89,
            "ch": 0
          },
          {
            "step": 1462,
            "len": 2,
            "note": 55,
            "vel": 89,
            "ch": 0
          },
          {
            "step": 1464,
            "len": 2,
            "note": 57,
            "vel": 89,
            "ch": 0
          },
          {
            "step": 1466,
            "len": 2,
            "note": 55,
            "vel": 89,
            "ch": 0
          },
          {
            "step": 1468,
            "len": 2,
            "note": 57,
            "vel": 89,
            "ch": 0
          },
          {
            "step": 1470,
            "len": 2,
            "note": 55,
            "vel": 89,
            "ch": 0
          },
          {
            "step": 1472,
            "len": 2,
            "note": 57,
            "vel": 89,
            "ch": 0
          },
          {
            "step": 1474,
            "len": 2,
            "note": 55,
            "vel": 89,
            "ch": 0
          },
          {
            "step": 1476,
            "len": 2,
            "note": 57,
            "vel": 89,
            "ch": 0
          },
          {
            "step": 1478,
            "len": 10,
            "note": 60,
            "vel": 89,
            "ch": 0
          },
          {
            "step": 1520,
            "len": 8,
            "note": 62,
            "vel": 89,
            "ch": 0
          },
          {
            "step": 1520,
            "len": 8,
            "note": 66,
            "vel": 89,
            "ch": 0
          },
          {
            "step": 1528,
            "len": 2,
            "note": 60,
            "vel": 89,
            "ch": 0
          },
          {
            "step": 1530,
            "len": 6,
            "note": 57,
            "vel": 89,
            "ch": 0
          },
          {
            "step": 1536,
            "len": 2,
            "note": 60,
            "vel": 89,
            "ch": 0
          },
          {
            "step": 1538,
            "len": 2,
            "note": 57,
            "vel": 89,
            "ch": 0
          },
          {
            "step": 1540,
            "len": 2,
            "note": 52,
            "vel": 89,
            "ch": 0
          },
          {
            "step": 1542,
            "len": 10,
            "note": 52,
            "vel": 89,
            "ch": 0
          },
          {
            "step": 1566,
            "len": 2,
            "note": 55,
            "vel": 89,
            "ch": 0
          },
          {
            "step": 1568,
            "len": 2,
            "note": 60,
            "vel": 89,
            "ch": 0
          },
          {
            "step": 1570,
            "len": 2,
            "note": 55,
            "vel": 89,
            "ch": 0
          },
          {
            "step": 1572,
            "len": 2,
            "note": 55,
            "vel": 89,
            "ch": 0
          },
          {
            "step": 1574,
            "len": 2,
            "note": 57,
            "vel": 89,
            "ch": 0
          },
          {
            "step": 1578,
            "len": 2,
            "note": 55,
            "vel": 89,
            "ch": 0
          },
          {
            "step": 1580,
            "len": 2,
            "note": 57,
            "vel": 89,
            "ch": 0
          },
          {
            "step": 1582,
            "len": 2,
            "note": 55,
            "vel": 89,
            "ch": 0
          },
          {
            "step": 1584,
            "len": 2,
            "note": 57,
            "vel": 89,
            "ch": 0
          },
          {
            "step": 1586,
            "len": 2,
            "note": 55,
            "vel": 89,
            "ch": 0
          },
          {
            "step": 1588,
            "len": 2,
            "note": 57,
            "vel": 89,
            "ch": 0
          },
          {
            "step": 1590,
            "len": 2,
            "note": 55,
            "vel": 89,
            "ch": 0
          },
          {
            "step": 1592,
            "len": 2,
            "note": 57,
            "vel": 89,
            "ch": 0
          },
          {
            "step": 1594,
            "len": 2,
            "note": 55,
            "vel": 89,
            "ch": 0
          },
          {
            "step": 1596,
            "len": 4,
            "note": 57,
            "vel": 89,
            "ch": 0
          },
          {
            "step": 1616,
            "len": 22,
            "note": 43,
            "vel": 89,
            "ch": 0
          },
          {
            "step": 1616,
            "len": 22,
            "note": 50,
            "vel": 89,
            "ch": 0
          },
          {
            "step": 1616,
            "len": 22,
            "note": 55,
            "vel": 89,
            "ch": 0
          },
          {
            "step": 1616,
            "len": 22,
            "note": 59,
            "vel": 89,
            "ch": 0
          },
          {
            "step": 1638,
            "len": 10,
            "note": 43,
            "vel": 89,
            "ch": 0
          },
          {
            "step": 1638,
            "len": 10,
            "note": 50,
            "vel": 89,
            "ch": 0
          },
          {
            "step": 1638,
            "len": 10,
            "note": 55,
            "vel": 89,
            "ch": 0
          },
          {
            "step": 1638,
            "len": 10,
            "note": 59,
            "vel": 89,
            "ch": 0
          },
          {
            "step": 1648,
            "len": 32,
            "note": 45,
            "vel": 89,
            "ch": 0
          },
          {
            "step": 1648,
            "len": 32,
            "note": 52,
            "vel": 89,
            "ch": 0
          },
          {
            "step": 1648,
            "len": 32,
            "note": 57,
            "vel": 89,
            "ch": 0
          },
          {
            "step": 1648,
            "len": 32,
            "note": 61,
            "vel": 89,
            "ch": 0
          },
          {
            "step": 1680,
            "len": 22,
            "note": 43,
            "vel": 89,
            "ch": 0
          },
          {
            "step": 1680,
            "len": 22,
            "note": 50,
            "vel": 89,
            "ch": 0
          },
          {
            "step": 1680,
            "len": 22,
            "note": 55,
            "vel": 89,
            "ch": 0
          },
          {
            "step": 1680,
            "len": 22,
            "note": 59,
            "vel": 89,
            "ch": 0
          },
          {
            "step": 1702,
            "len": 10,
            "note": 43,
            "vel": 89,
            "ch": 0
          },
          {
            "step": 1702,
            "len": 10,
            "note": 50,
            "vel": 89,
            "ch": 0
          },
          {
            "step": 1702,
            "len": 10,
            "note": 55,
            "vel": 89,
            "ch": 0
          },
          {
            "step": 1702,
            "len": 10,
            "note": 59,
            "vel": 89,
            "ch": 0
          },
          {
            "step": 1712,
            "len": 32,
            "note": 45,
            "vel": 89,
            "ch": 0
          },
          {
            "step": 1712,
            "len": 32,
            "note": 52,
            "vel": 89,
            "ch": 0
          },
          {
            "step": 1712,
            "len": 32,
            "note": 57,
            "vel": 89,
            "ch": 0
          },
          {
            "step": 1712,
            "len": 32,
            "note": 61,
            "vel": 89,
            "ch": 0
          }
        ],
        "texture": [
          {
            "step": 436,
            "len": 2,
            "note": 57,
            "vel": 89,
            "ch": 2
          },
          {
            "step": 436,
            "len": 2,
            "note": 61,
            "vel": 89,
            "ch": 2
          },
          {
            "step": 436,
            "len": 2,
            "note": 64,
            "vel": 89,
            "ch": 2
          },
          {
            "step": 436,
            "len": 2,
            "note": 69,
            "vel": 89,
            "ch": 2
          },
          {
            "step": 438,
            "len": 2,
            "note": 57,
            "vel": 89,
            "ch": 2
          },
          {
            "step": 438,
            "len": 2,
            "note": 61,
            "vel": 89,
            "ch": 2
          },
          {
            "step": 438,
            "len": 2,
            "note": 64,
            "vel": 89,
            "ch": 2
          },
          {
            "step": 438,
            "len": 2,
            "note": 69,
            "vel": 89,
            "ch": 2
          },
          {
            "step": 442,
            "len": 2,
            "note": 57,
            "vel": 89,
            "ch": 2
          },
          {
            "step": 442,
            "len": 2,
            "note": 61,
            "vel": 89,
            "ch": 2
          },
          {
            "step": 442,
            "len": 2,
            "note": 64,
            "vel": 89,
            "ch": 2
          },
          {
            "step": 442,
            "len": 2,
            "note": 69,
            "vel": 89,
            "ch": 2
          },
          {
            "step": 444,
            "len": 2,
            "note": 50,
            "vel": 89,
            "ch": 2
          },
          {
            "step": 444,
            "len": 2,
            "note": 55,
            "vel": 89,
            "ch": 2
          },
          {
            "step": 444,
            "len": 2,
            "note": 59,
            "vel": 89,
            "ch": 2
          },
          {
            "step": 446,
            "len": 2,
            "note": 50,
            "vel": 89,
            "ch": 2
          },
          {
            "step": 446,
            "len": 2,
            "note": 55,
            "vel": 89,
            "ch": 2
          },
          {
            "step": 446,
            "len": 2,
            "note": 59,
            "vel": 89,
            "ch": 2
          },
          {
            "step": 448,
            "len": 2,
            "note": 57,
            "vel": 89,
            "ch": 2
          },
          {
            "step": 448,
            "len": 2,
            "note": 61,
            "vel": 89,
            "ch": 2
          },
          {
            "step": 448,
            "len": 2,
            "note": 64,
            "vel": 89,
            "ch": 2
          },
          {
            "step": 448,
            "len": 2,
            "note": 69,
            "vel": 89,
            "ch": 2
          },
          {
            "step": 450,
            "len": 2,
            "note": 50,
            "vel": 89,
            "ch": 2
          },
          {
            "step": 450,
            "len": 2,
            "note": 55,
            "vel": 89,
            "ch": 2
          },
          {
            "step": 450,
            "len": 2,
            "note": 59,
            "vel": 89,
            "ch": 2
          },
          {
            "step": 452,
            "len": 2,
            "note": 50,
            "vel": 89,
            "ch": 2
          },
          {
            "step": 452,
            "len": 2,
            "note": 55,
            "vel": 89,
            "ch": 2
          },
          {
            "step": 452,
            "len": 2,
            "note": 59,
            "vel": 89,
            "ch": 2
          },
          {
            "step": 454,
            "len": 2,
            "note": 57,
            "vel": 89,
            "ch": 2
          },
          {
            "step": 454,
            "len": 2,
            "note": 61,
            "vel": 89,
            "ch": 2
          },
          {
            "step": 454,
            "len": 2,
            "note": 64,
            "vel": 89,
            "ch": 2
          },
          {
            "step": 454,
            "len": 2,
            "note": 69,
            "vel": 89,
            "ch": 2
          },
          {
            "step": 456,
            "len": 2,
            "note": 50,
            "vel": 89,
            "ch": 2
          },
          {
            "step": 456,
            "len": 2,
            "note": 55,
            "vel": 89,
            "ch": 2
          },
          {
            "step": 456,
            "len": 2,
            "note": 59,
            "vel": 89,
            "ch": 2
          },
          {
            "step": 458,
            "len": 2,
            "note": 50,
            "vel": 89,
            "ch": 2
          },
          {
            "step": 458,
            "len": 2,
            "note": 55,
            "vel": 89,
            "ch": 2
          },
          {
            "step": 458,
            "len": 2,
            "note": 59,
            "vel": 89,
            "ch": 2
          },
          {
            "step": 460,
            "len": 2,
            "note": 50,
            "vel": 89,
            "ch": 2
          },
          {
            "step": 460,
            "len": 2,
            "note": 55,
            "vel": 89,
            "ch": 2
          },
          {
            "step": 460,
            "len": 2,
            "note": 59,
            "vel": 89,
            "ch": 2
          },
          {
            "step": 462,
            "len": 2,
            "note": 50,
            "vel": 89,
            "ch": 2
          },
          {
            "step": 462,
            "len": 2,
            "note": 55,
            "vel": 89,
            "ch": 2
          },
          {
            "step": 462,
            "len": 2,
            "note": 59,
            "vel": 89,
            "ch": 2
          },
          {
            "step": 464,
            "len": 2,
            "note": 50,
            "vel": 89,
            "ch": 2
          },
          {
            "step": 464,
            "len": 2,
            "note": 55,
            "vel": 89,
            "ch": 2
          },
          {
            "step": 464,
            "len": 2,
            "note": 59,
            "vel": 89,
            "ch": 2
          },
          {
            "step": 466,
            "len": 2,
            "note": 50,
            "vel": 89,
            "ch": 2
          },
          {
            "step": 466,
            "len": 2,
            "note": 55,
            "vel": 89,
            "ch": 2
          },
          {
            "step": 466,
            "len": 2,
            "note": 59,
            "vel": 89,
            "ch": 2
          },
          {
            "step": 468,
            "len": 2,
            "note": 57,
            "vel": 89,
            "ch": 2
          },
          {
            "step": 468,
            "len": 2,
            "note": 61,
            "vel": 89,
            "ch": 2
          },
          {
            "step": 468,
            "len": 2,
            "note": 64,
            "vel": 89,
            "ch": 2
          },
          {
            "step": 468,
            "len": 2,
            "note": 69,
            "vel": 89,
            "ch": 2
          },
          {
            "step": 470,
            "len": 2,
            "note": 50,
            "vel": 89,
            "ch": 2
          },
          {
            "step": 470,
            "len": 2,
            "note": 55,
            "vel": 89,
            "ch": 2
          },
          {
            "step": 470,
            "len": 2,
            "note": 59,
            "vel": 89,
            "ch": 2
          },
          {
            "step": 472,
            "len": 2,
            "note": 50,
            "vel": 89,
            "ch": 2
          },
          {
            "step": 472,
            "len": 2,
            "note": 55,
            "vel": 89,
            "ch": 2
          },
          {
            "step": 472,
            "len": 2,
            "note": 59,
            "vel": 89,
            "ch": 2
          },
          {
            "step": 474,
            "len": 2,
            "note": 57,
            "vel": 89,
            "ch": 2
          },
          {
            "step": 474,
            "len": 2,
            "note": 61,
            "vel": 89,
            "ch": 2
          },
          {
            "step": 474,
            "len": 2,
            "note": 64,
            "vel": 89,
            "ch": 2
          },
          {
            "step": 474,
            "len": 2,
            "note": 69,
            "vel": 89,
            "ch": 2
          },
          {
            "step": 476,
            "len": 2,
            "note": 50,
            "vel": 89,
            "ch": 2
          },
          {
            "step": 476,
            "len": 2,
            "note": 55,
            "vel": 89,
            "ch": 2
          },
          {
            "step": 476,
            "len": 2,
            "note": 59,
            "vel": 89,
            "ch": 2
          },
          {
            "step": 478,
            "len": 2,
            "note": 50,
            "vel": 89,
            "ch": 2
          },
          {
            "step": 478,
            "len": 2,
            "note": 55,
            "vel": 89,
            "ch": 2
          },
          {
            "step": 478,
            "len": 2,
            "note": 59,
            "vel": 89,
            "ch": 2
          },
          {
            "step": 480,
            "len": 2,
            "note": 57,
            "vel": 89,
            "ch": 2
          },
          {
            "step": 480,
            "len": 2,
            "note": 61,
            "vel": 89,
            "ch": 2
          },
          {
            "step": 480,
            "len": 2,
            "note": 64,
            "vel": 89,
            "ch": 2
          },
          {
            "step": 480,
            "len": 2,
            "note": 69,
            "vel": 89,
            "ch": 2
          },
          {
            "step": 482,
            "len": 2,
            "note": 50,
            "vel": 89,
            "ch": 2
          },
          {
            "step": 482,
            "len": 2,
            "note": 55,
            "vel": 89,
            "ch": 2
          },
          {
            "step": 482,
            "len": 2,
            "note": 59,
            "vel": 89,
            "ch": 2
          },
          {
            "step": 484,
            "len": 2,
            "note": 50,
            "vel": 89,
            "ch": 2
          },
          {
            "step": 484,
            "len": 2,
            "note": 55,
            "vel": 89,
            "ch": 2
          },
          {
            "step": 484,
            "len": 2,
            "note": 59,
            "vel": 89,
            "ch": 2
          },
          {
            "step": 486,
            "len": 2,
            "note": 57,
            "vel": 89,
            "ch": 2
          },
          {
            "step": 486,
            "len": 2,
            "note": 61,
            "vel": 89,
            "ch": 2
          },
          {
            "step": 486,
            "len": 2,
            "note": 64,
            "vel": 89,
            "ch": 2
          },
          {
            "step": 486,
            "len": 2,
            "note": 69,
            "vel": 89,
            "ch": 2
          },
          {
            "step": 488,
            "len": 2,
            "note": 50,
            "vel": 89,
            "ch": 2
          },
          {
            "step": 488,
            "len": 2,
            "note": 55,
            "vel": 89,
            "ch": 2
          },
          {
            "step": 488,
            "len": 2,
            "note": 59,
            "vel": 89,
            "ch": 2
          },
          {
            "step": 490,
            "len": 2,
            "note": 50,
            "vel": 89,
            "ch": 2
          },
          {
            "step": 490,
            "len": 2,
            "note": 55,
            "vel": 89,
            "ch": 2
          },
          {
            "step": 490,
            "len": 2,
            "note": 59,
            "vel": 89,
            "ch": 2
          },
          {
            "step": 492,
            "len": 2,
            "note": 50,
            "vel": 89,
            "ch": 2
          },
          {
            "step": 492,
            "len": 2,
            "note": 55,
            "vel": 89,
            "ch": 2
          },
          {
            "step": 492,
            "len": 2,
            "note": 59,
            "vel": 89,
            "ch": 2
          },
          {
            "step": 494,
            "len": 2,
            "note": 50,
            "vel": 89,
            "ch": 2
          },
          {
            "step": 494,
            "len": 2,
            "note": 55,
            "vel": 89,
            "ch": 2
          },
          {
            "step": 494,
            "len": 2,
            "note": 59,
            "vel": 89,
            "ch": 2
          },
          {
            "step": 496,
            "len": 2,
            "note": 50,
            "vel": 89,
            "ch": 2
          },
          {
            "step": 496,
            "len": 2,
            "note": 55,
            "vel": 89,
            "ch": 2
          },
          {
            "step": 496,
            "len": 2,
            "note": 59,
            "vel": 89,
            "ch": 2
          },
          {
            "step": 498,
            "len": 2,
            "note": 50,
            "vel": 89,
            "ch": 2
          },
          {
            "step": 498,
            "len": 2,
            "note": 55,
            "vel": 89,
            "ch": 2
          },
          {
            "step": 498,
            "len": 2,
            "note": 59,
            "vel": 89,
            "ch": 2
          },
          {
            "step": 500,
            "len": 2,
            "note": 57,
            "vel": 89,
            "ch": 2
          },
          {
            "step": 500,
            "len": 2,
            "note": 61,
            "vel": 89,
            "ch": 2
          },
          {
            "step": 500,
            "len": 2,
            "note": 64,
            "vel": 89,
            "ch": 2
          },
          {
            "step": 500,
            "len": 2,
            "note": 69,
            "vel": 89,
            "ch": 2
          },
          {
            "step": 502,
            "len": 2,
            "note": 50,
            "vel": 89,
            "ch": 2
          },
          {
            "step": 502,
            "len": 2,
            "note": 55,
            "vel": 89,
            "ch": 2
          },
          {
            "step": 502,
            "len": 2,
            "note": 59,
            "vel": 89,
            "ch": 2
          },
          {
            "step": 504,
            "len": 2,
            "note": 50,
            "vel": 89,
            "ch": 2
          },
          {
            "step": 504,
            "len": 2,
            "note": 55,
            "vel": 89,
            "ch": 2
          },
          {
            "step": 504,
            "len": 2,
            "note": 59,
            "vel": 89,
            "ch": 2
          },
          {
            "step": 506,
            "len": 2,
            "note": 57,
            "vel": 89,
            "ch": 2
          },
          {
            "step": 506,
            "len": 2,
            "note": 61,
            "vel": 89,
            "ch": 2
          },
          {
            "step": 506,
            "len": 2,
            "note": 64,
            "vel": 89,
            "ch": 2
          },
          {
            "step": 506,
            "len": 2,
            "note": 69,
            "vel": 89,
            "ch": 2
          },
          {
            "step": 508,
            "len": 2,
            "note": 50,
            "vel": 89,
            "ch": 2
          },
          {
            "step": 508,
            "len": 2,
            "note": 55,
            "vel": 89,
            "ch": 2
          },
          {
            "step": 508,
            "len": 2,
            "note": 59,
            "vel": 89,
            "ch": 2
          },
          {
            "step": 510,
            "len": 2,
            "note": 50,
            "vel": 89,
            "ch": 2
          },
          {
            "step": 510,
            "len": 2,
            "note": 55,
            "vel": 89,
            "ch": 2
          },
          {
            "step": 510,
            "len": 2,
            "note": 59,
            "vel": 89,
            "ch": 2
          },
          {
            "step": 512,
            "len": 2,
            "note": 57,
            "vel": 89,
            "ch": 2
          },
          {
            "step": 512,
            "len": 2,
            "note": 61,
            "vel": 89,
            "ch": 2
          },
          {
            "step": 512,
            "len": 2,
            "note": 64,
            "vel": 89,
            "ch": 2
          },
          {
            "step": 512,
            "len": 2,
            "note": 69,
            "vel": 89,
            "ch": 2
          },
          {
            "step": 514,
            "len": 2,
            "note": 50,
            "vel": 89,
            "ch": 2
          },
          {
            "step": 514,
            "len": 2,
            "note": 55,
            "vel": 89,
            "ch": 2
          },
          {
            "step": 514,
            "len": 2,
            "note": 59,
            "vel": 89,
            "ch": 2
          },
          {
            "step": 516,
            "len": 2,
            "note": 50,
            "vel": 89,
            "ch": 2
          },
          {
            "step": 516,
            "len": 2,
            "note": 55,
            "vel": 89,
            "ch": 2
          },
          {
            "step": 516,
            "len": 2,
            "note": 59,
            "vel": 89,
            "ch": 2
          },
          {
            "step": 518,
            "len": 2,
            "note": 57,
            "vel": 89,
            "ch": 2
          },
          {
            "step": 518,
            "len": 2,
            "note": 61,
            "vel": 89,
            "ch": 2
          },
          {
            "step": 518,
            "len": 2,
            "note": 64,
            "vel": 89,
            "ch": 2
          },
          {
            "step": 518,
            "len": 2,
            "note": 69,
            "vel": 89,
            "ch": 2
          },
          {
            "step": 520,
            "len": 2,
            "note": 50,
            "vel": 89,
            "ch": 2
          },
          {
            "step": 520,
            "len": 2,
            "note": 55,
            "vel": 89,
            "ch": 2
          },
          {
            "step": 520,
            "len": 2,
            "note": 59,
            "vel": 89,
            "ch": 2
          },
          {
            "step": 522,
            "len": 2,
            "note": 50,
            "vel": 89,
            "ch": 2
          },
          {
            "step": 522,
            "len": 2,
            "note": 55,
            "vel": 89,
            "ch": 2
          },
          {
            "step": 522,
            "len": 2,
            "note": 59,
            "vel": 89,
            "ch": 2
          },
          {
            "step": 524,
            "len": 2,
            "note": 50,
            "vel": 89,
            "ch": 2
          },
          {
            "step": 524,
            "len": 2,
            "note": 55,
            "vel": 89,
            "ch": 2
          },
          {
            "step": 524,
            "len": 2,
            "note": 59,
            "vel": 89,
            "ch": 2
          },
          {
            "step": 526,
            "len": 2,
            "note": 50,
            "vel": 89,
            "ch": 2
          },
          {
            "step": 526,
            "len": 2,
            "note": 55,
            "vel": 89,
            "ch": 2
          },
          {
            "step": 526,
            "len": 2,
            "note": 59,
            "vel": 89,
            "ch": 2
          },
          {
            "step": 528,
            "len": 2,
            "note": 50,
            "vel": 89,
            "ch": 2
          },
          {
            "step": 528,
            "len": 2,
            "note": 55,
            "vel": 89,
            "ch": 2
          },
          {
            "step": 528,
            "len": 2,
            "note": 59,
            "vel": 89,
            "ch": 2
          },
          {
            "step": 530,
            "len": 2,
            "note": 50,
            "vel": 89,
            "ch": 2
          },
          {
            "step": 530,
            "len": 2,
            "note": 55,
            "vel": 89,
            "ch": 2
          },
          {
            "step": 530,
            "len": 2,
            "note": 59,
            "vel": 89,
            "ch": 2
          },
          {
            "step": 532,
            "len": 2,
            "note": 57,
            "vel": 89,
            "ch": 2
          },
          {
            "step": 532,
            "len": 2,
            "note": 61,
            "vel": 89,
            "ch": 2
          },
          {
            "step": 532,
            "len": 2,
            "note": 64,
            "vel": 89,
            "ch": 2
          },
          {
            "step": 532,
            "len": 2,
            "note": 69,
            "vel": 89,
            "ch": 2
          },
          {
            "step": 534,
            "len": 2,
            "note": 50,
            "vel": 89,
            "ch": 2
          },
          {
            "step": 534,
            "len": 2,
            "note": 55,
            "vel": 89,
            "ch": 2
          },
          {
            "step": 534,
            "len": 2,
            "note": 59,
            "vel": 89,
            "ch": 2
          },
          {
            "step": 536,
            "len": 2,
            "note": 50,
            "vel": 89,
            "ch": 2
          },
          {
            "step": 536,
            "len": 2,
            "note": 55,
            "vel": 89,
            "ch": 2
          },
          {
            "step": 536,
            "len": 2,
            "note": 59,
            "vel": 89,
            "ch": 2
          },
          {
            "step": 538,
            "len": 2,
            "note": 57,
            "vel": 89,
            "ch": 2
          },
          {
            "step": 538,
            "len": 2,
            "note": 61,
            "vel": 89,
            "ch": 2
          },
          {
            "step": 538,
            "len": 2,
            "note": 64,
            "vel": 89,
            "ch": 2
          },
          {
            "step": 538,
            "len": 2,
            "note": 69,
            "vel": 89,
            "ch": 2
          },
          {
            "step": 540,
            "len": 2,
            "note": 50,
            "vel": 89,
            "ch": 2
          },
          {
            "step": 540,
            "len": 2,
            "note": 55,
            "vel": 89,
            "ch": 2
          },
          {
            "step": 540,
            "len": 2,
            "note": 59,
            "vel": 89,
            "ch": 2
          },
          {
            "step": 542,
            "len": 2,
            "note": 50,
            "vel": 89,
            "ch": 2
          },
          {
            "step": 542,
            "len": 2,
            "note": 55,
            "vel": 89,
            "ch": 2
          },
          {
            "step": 542,
            "len": 2,
            "note": 59,
            "vel": 89,
            "ch": 2
          },
          {
            "step": 544,
            "len": 2,
            "note": 57,
            "vel": 89,
            "ch": 2
          },
          {
            "step": 544,
            "len": 2,
            "note": 61,
            "vel": 89,
            "ch": 2
          },
          {
            "step": 544,
            "len": 2,
            "note": 64,
            "vel": 89,
            "ch": 2
          },
          {
            "step": 544,
            "len": 2,
            "note": 69,
            "vel": 89,
            "ch": 2
          },
          {
            "step": 546,
            "len": 2,
            "note": 50,
            "vel": 89,
            "ch": 2
          },
          {
            "step": 546,
            "len": 2,
            "note": 55,
            "vel": 89,
            "ch": 2
          },
          {
            "step": 546,
            "len": 2,
            "note": 59,
            "vel": 89,
            "ch": 2
          },
          {
            "step": 548,
            "len": 2,
            "note": 50,
            "vel": 89,
            "ch": 2
          },
          {
            "step": 548,
            "len": 2,
            "note": 55,
            "vel": 89,
            "ch": 2
          },
          {
            "step": 548,
            "len": 2,
            "note": 59,
            "vel": 89,
            "ch": 2
          },
          {
            "step": 550,
            "len": 2,
            "note": 57,
            "vel": 89,
            "ch": 2
          },
          {
            "step": 550,
            "len": 2,
            "note": 61,
            "vel": 89,
            "ch": 2
          },
          {
            "step": 550,
            "len": 2,
            "note": 64,
            "vel": 89,
            "ch": 2
          },
          {
            "step": 550,
            "len": 2,
            "note": 69,
            "vel": 89,
            "ch": 2
          },
          {
            "step": 552,
            "len": 2,
            "note": 50,
            "vel": 89,
            "ch": 2
          },
          {
            "step": 552,
            "len": 2,
            "note": 55,
            "vel": 89,
            "ch": 2
          },
          {
            "step": 552,
            "len": 2,
            "note": 59,
            "vel": 89,
            "ch": 2
          },
          {
            "step": 554,
            "len": 2,
            "note": 50,
            "vel": 89,
            "ch": 2
          },
          {
            "step": 554,
            "len": 2,
            "note": 55,
            "vel": 89,
            "ch": 2
          },
          {
            "step": 554,
            "len": 2,
            "note": 59,
            "vel": 89,
            "ch": 2
          },
          {
            "step": 556,
            "len": 2,
            "note": 50,
            "vel": 89,
            "ch": 2
          },
          {
            "step": 556,
            "len": 2,
            "note": 55,
            "vel": 89,
            "ch": 2
          },
          {
            "step": 556,
            "len": 2,
            "note": 59,
            "vel": 89,
            "ch": 2
          },
          {
            "step": 558,
            "len": 2,
            "note": 50,
            "vel": 89,
            "ch": 2
          },
          {
            "step": 558,
            "len": 2,
            "note": 55,
            "vel": 89,
            "ch": 2
          },
          {
            "step": 558,
            "len": 2,
            "note": 59,
            "vel": 89,
            "ch": 2
          },
          {
            "step": 560,
            "len": 2,
            "note": 50,
            "vel": 89,
            "ch": 2
          },
          {
            "step": 560,
            "len": 2,
            "note": 55,
            "vel": 89,
            "ch": 2
          },
          {
            "step": 560,
            "len": 2,
            "note": 59,
            "vel": 89,
            "ch": 2
          },
          {
            "step": 562,
            "len": 2,
            "note": 50,
            "vel": 89,
            "ch": 2
          },
          {
            "step": 562,
            "len": 2,
            "note": 55,
            "vel": 89,
            "ch": 2
          },
          {
            "step": 562,
            "len": 2,
            "note": 59,
            "vel": 89,
            "ch": 2
          },
          {
            "step": 564,
            "len": 2,
            "note": 57,
            "vel": 89,
            "ch": 2
          },
          {
            "step": 564,
            "len": 2,
            "note": 61,
            "vel": 89,
            "ch": 2
          },
          {
            "step": 564,
            "len": 2,
            "note": 64,
            "vel": 89,
            "ch": 2
          },
          {
            "step": 564,
            "len": 2,
            "note": 69,
            "vel": 89,
            "ch": 2
          },
          {
            "step": 566,
            "len": 2,
            "note": 50,
            "vel": 89,
            "ch": 2
          },
          {
            "step": 566,
            "len": 2,
            "note": 55,
            "vel": 89,
            "ch": 2
          },
          {
            "step": 566,
            "len": 2,
            "note": 59,
            "vel": 89,
            "ch": 2
          },
          {
            "step": 568,
            "len": 2,
            "note": 50,
            "vel": 89,
            "ch": 2
          },
          {
            "step": 568,
            "len": 2,
            "note": 55,
            "vel": 89,
            "ch": 2
          },
          {
            "step": 568,
            "len": 2,
            "note": 59,
            "vel": 89,
            "ch": 2
          },
          {
            "step": 570,
            "len": 2,
            "note": 57,
            "vel": 89,
            "ch": 2
          },
          {
            "step": 570,
            "len": 2,
            "note": 61,
            "vel": 89,
            "ch": 2
          },
          {
            "step": 570,
            "len": 2,
            "note": 64,
            "vel": 89,
            "ch": 2
          },
          {
            "step": 570,
            "len": 2,
            "note": 69,
            "vel": 89,
            "ch": 2
          },
          {
            "step": 572,
            "len": 2,
            "note": 50,
            "vel": 89,
            "ch": 2
          },
          {
            "step": 572,
            "len": 2,
            "note": 55,
            "vel": 89,
            "ch": 2
          },
          {
            "step": 572,
            "len": 2,
            "note": 59,
            "vel": 89,
            "ch": 2
          },
          {
            "step": 574,
            "len": 2,
            "note": 50,
            "vel": 89,
            "ch": 2
          },
          {
            "step": 574,
            "len": 2,
            "note": 55,
            "vel": 89,
            "ch": 2
          },
          {
            "step": 574,
            "len": 2,
            "note": 59,
            "vel": 89,
            "ch": 2
          },
          {
            "step": 576,
            "len": 2,
            "note": 57,
            "vel": 89,
            "ch": 2
          },
          {
            "step": 576,
            "len": 2,
            "note": 61,
            "vel": 89,
            "ch": 2
          },
          {
            "step": 576,
            "len": 2,
            "note": 64,
            "vel": 89,
            "ch": 2
          },
          {
            "step": 576,
            "len": 2,
            "note": 69,
            "vel": 89,
            "ch": 2
          },
          {
            "step": 578,
            "len": 2,
            "note": 50,
            "vel": 89,
            "ch": 2
          },
          {
            "step": 578,
            "len": 2,
            "note": 55,
            "vel": 89,
            "ch": 2
          },
          {
            "step": 578,
            "len": 2,
            "note": 59,
            "vel": 89,
            "ch": 2
          },
          {
            "step": 580,
            "len": 2,
            "note": 50,
            "vel": 89,
            "ch": 2
          },
          {
            "step": 580,
            "len": 2,
            "note": 55,
            "vel": 89,
            "ch": 2
          },
          {
            "step": 580,
            "len": 2,
            "note": 59,
            "vel": 89,
            "ch": 2
          },
          {
            "step": 582,
            "len": 2,
            "note": 57,
            "vel": 89,
            "ch": 2
          },
          {
            "step": 582,
            "len": 2,
            "note": 61,
            "vel": 89,
            "ch": 2
          },
          {
            "step": 582,
            "len": 2,
            "note": 64,
            "vel": 89,
            "ch": 2
          },
          {
            "step": 582,
            "len": 2,
            "note": 69,
            "vel": 89,
            "ch": 2
          },
          {
            "step": 584,
            "len": 2,
            "note": 50,
            "vel": 89,
            "ch": 2
          },
          {
            "step": 584,
            "len": 2,
            "note": 55,
            "vel": 89,
            "ch": 2
          },
          {
            "step": 584,
            "len": 2,
            "note": 59,
            "vel": 89,
            "ch": 2
          },
          {
            "step": 586,
            "len": 2,
            "note": 50,
            "vel": 89,
            "ch": 2
          },
          {
            "step": 586,
            "len": 2,
            "note": 55,
            "vel": 89,
            "ch": 2
          },
          {
            "step": 586,
            "len": 2,
            "note": 59,
            "vel": 89,
            "ch": 2
          },
          {
            "step": 588,
            "len": 2,
            "note": 50,
            "vel": 89,
            "ch": 2
          },
          {
            "step": 588,
            "len": 2,
            "note": 55,
            "vel": 89,
            "ch": 2
          },
          {
            "step": 588,
            "len": 2,
            "note": 59,
            "vel": 89,
            "ch": 2
          },
          {
            "step": 590,
            "len": 2,
            "note": 50,
            "vel": 89,
            "ch": 2
          },
          {
            "step": 590,
            "len": 2,
            "note": 55,
            "vel": 89,
            "ch": 2
          },
          {
            "step": 590,
            "len": 2,
            "note": 59,
            "vel": 89,
            "ch": 2
          },
          {
            "step": 592,
            "len": 2,
            "note": 50,
            "vel": 89,
            "ch": 2
          },
          {
            "step": 592,
            "len": 2,
            "note": 55,
            "vel": 89,
            "ch": 2
          },
          {
            "step": 592,
            "len": 2,
            "note": 59,
            "vel": 89,
            "ch": 2
          },
          {
            "step": 594,
            "len": 2,
            "note": 50,
            "vel": 89,
            "ch": 2
          },
          {
            "step": 594,
            "len": 2,
            "note": 55,
            "vel": 89,
            "ch": 2
          },
          {
            "step": 594,
            "len": 2,
            "note": 59,
            "vel": 89,
            "ch": 2
          },
          {
            "step": 596,
            "len": 2,
            "note": 57,
            "vel": 89,
            "ch": 2
          },
          {
            "step": 596,
            "len": 2,
            "note": 61,
            "vel": 89,
            "ch": 2
          },
          {
            "step": 596,
            "len": 2,
            "note": 64,
            "vel": 89,
            "ch": 2
          },
          {
            "step": 596,
            "len": 2,
            "note": 69,
            "vel": 89,
            "ch": 2
          },
          {
            "step": 598,
            "len": 2,
            "note": 50,
            "vel": 89,
            "ch": 2
          },
          {
            "step": 598,
            "len": 2,
            "note": 55,
            "vel": 89,
            "ch": 2
          },
          {
            "step": 598,
            "len": 2,
            "note": 59,
            "vel": 89,
            "ch": 2
          },
          {
            "step": 600,
            "len": 2,
            "note": 50,
            "vel": 89,
            "ch": 2
          },
          {
            "step": 600,
            "len": 2,
            "note": 55,
            "vel": 89,
            "ch": 2
          },
          {
            "step": 600,
            "len": 2,
            "note": 59,
            "vel": 89,
            "ch": 2
          },
          {
            "step": 602,
            "len": 2,
            "note": 57,
            "vel": 89,
            "ch": 2
          },
          {
            "step": 602,
            "len": 2,
            "note": 61,
            "vel": 89,
            "ch": 2
          },
          {
            "step": 602,
            "len": 2,
            "note": 64,
            "vel": 89,
            "ch": 2
          },
          {
            "step": 602,
            "len": 2,
            "note": 69,
            "vel": 89,
            "ch": 2
          },
          {
            "step": 604,
            "len": 2,
            "note": 50,
            "vel": 89,
            "ch": 2
          },
          {
            "step": 604,
            "len": 2,
            "note": 55,
            "vel": 89,
            "ch": 2
          },
          {
            "step": 604,
            "len": 2,
            "note": 59,
            "vel": 89,
            "ch": 2
          },
          {
            "step": 606,
            "len": 2,
            "note": 50,
            "vel": 89,
            "ch": 2
          },
          {
            "step": 606,
            "len": 2,
            "note": 55,
            "vel": 89,
            "ch": 2
          },
          {
            "step": 606,
            "len": 2,
            "note": 59,
            "vel": 89,
            "ch": 2
          },
          {
            "step": 608,
            "len": 2,
            "note": 57,
            "vel": 89,
            "ch": 2
          },
          {
            "step": 608,
            "len": 2,
            "note": 61,
            "vel": 89,
            "ch": 2
          },
          {
            "step": 608,
            "len": 2,
            "note": 64,
            "vel": 89,
            "ch": 2
          },
          {
            "step": 608,
            "len": 2,
            "note": 69,
            "vel": 89,
            "ch": 2
          },
          {
            "step": 610,
            "len": 2,
            "note": 50,
            "vel": 89,
            "ch": 2
          },
          {
            "step": 610,
            "len": 2,
            "note": 55,
            "vel": 89,
            "ch": 2
          },
          {
            "step": 610,
            "len": 2,
            "note": 59,
            "vel": 89,
            "ch": 2
          },
          {
            "step": 612,
            "len": 2,
            "note": 50,
            "vel": 89,
            "ch": 2
          },
          {
            "step": 612,
            "len": 2,
            "note": 55,
            "vel": 89,
            "ch": 2
          },
          {
            "step": 612,
            "len": 2,
            "note": 59,
            "vel": 89,
            "ch": 2
          },
          {
            "step": 614,
            "len": 2,
            "note": 57,
            "vel": 89,
            "ch": 2
          },
          {
            "step": 614,
            "len": 2,
            "note": 61,
            "vel": 89,
            "ch": 2
          },
          {
            "step": 614,
            "len": 2,
            "note": 64,
            "vel": 89,
            "ch": 2
          },
          {
            "step": 614,
            "len": 2,
            "note": 69,
            "vel": 89,
            "ch": 2
          },
          {
            "step": 616,
            "len": 2,
            "note": 50,
            "vel": 89,
            "ch": 2
          },
          {
            "step": 616,
            "len": 2,
            "note": 55,
            "vel": 89,
            "ch": 2
          },
          {
            "step": 616,
            "len": 2,
            "note": 59,
            "vel": 89,
            "ch": 2
          },
          {
            "step": 618,
            "len": 2,
            "note": 50,
            "vel": 89,
            "ch": 2
          },
          {
            "step": 618,
            "len": 2,
            "note": 55,
            "vel": 89,
            "ch": 2
          },
          {
            "step": 618,
            "len": 2,
            "note": 59,
            "vel": 89,
            "ch": 2
          },
          {
            "step": 620,
            "len": 2,
            "note": 50,
            "vel": 89,
            "ch": 2
          },
          {
            "step": 620,
            "len": 2,
            "note": 55,
            "vel": 89,
            "ch": 2
          },
          {
            "step": 620,
            "len": 2,
            "note": 59,
            "vel": 89,
            "ch": 2
          },
          {
            "step": 622,
            "len": 2,
            "note": 50,
            "vel": 89,
            "ch": 2
          },
          {
            "step": 622,
            "len": 2,
            "note": 55,
            "vel": 89,
            "ch": 2
          },
          {
            "step": 622,
            "len": 2,
            "note": 59,
            "vel": 89,
            "ch": 2
          },
          {
            "step": 624,
            "len": 2,
            "note": 50,
            "vel": 89,
            "ch": 2
          },
          {
            "step": 624,
            "len": 2,
            "note": 55,
            "vel": 89,
            "ch": 2
          },
          {
            "step": 624,
            "len": 2,
            "note": 59,
            "vel": 89,
            "ch": 2
          },
          {
            "step": 626,
            "len": 2,
            "note": 50,
            "vel": 89,
            "ch": 2
          },
          {
            "step": 626,
            "len": 2,
            "note": 55,
            "vel": 89,
            "ch": 2
          },
          {
            "step": 626,
            "len": 2,
            "note": 59,
            "vel": 89,
            "ch": 2
          },
          {
            "step": 628,
            "len": 2,
            "note": 57,
            "vel": 89,
            "ch": 2
          },
          {
            "step": 628,
            "len": 2,
            "note": 61,
            "vel": 89,
            "ch": 2
          },
          {
            "step": 628,
            "len": 2,
            "note": 64,
            "vel": 89,
            "ch": 2
          },
          {
            "step": 628,
            "len": 2,
            "note": 69,
            "vel": 89,
            "ch": 2
          },
          {
            "step": 630,
            "len": 2,
            "note": 50,
            "vel": 89,
            "ch": 2
          },
          {
            "step": 630,
            "len": 2,
            "note": 55,
            "vel": 89,
            "ch": 2
          },
          {
            "step": 630,
            "len": 2,
            "note": 59,
            "vel": 89,
            "ch": 2
          },
          {
            "step": 632,
            "len": 2,
            "note": 50,
            "vel": 89,
            "ch": 2
          },
          {
            "step": 632,
            "len": 2,
            "note": 55,
            "vel": 89,
            "ch": 2
          },
          {
            "step": 632,
            "len": 2,
            "note": 59,
            "vel": 89,
            "ch": 2
          },
          {
            "step": 634,
            "len": 2,
            "note": 57,
            "vel": 89,
            "ch": 2
          },
          {
            "step": 634,
            "len": 2,
            "note": 61,
            "vel": 89,
            "ch": 2
          },
          {
            "step": 634,
            "len": 2,
            "note": 64,
            "vel": 89,
            "ch": 2
          },
          {
            "step": 634,
            "len": 2,
            "note": 69,
            "vel": 89,
            "ch": 2
          },
          {
            "step": 636,
            "len": 2,
            "note": 50,
            "vel": 89,
            "ch": 2
          },
          {
            "step": 636,
            "len": 2,
            "note": 55,
            "vel": 89,
            "ch": 2
          },
          {
            "step": 636,
            "len": 2,
            "note": 59,
            "vel": 89,
            "ch": 2
          },
          {
            "step": 638,
            "len": 2,
            "note": 50,
            "vel": 89,
            "ch": 2
          },
          {
            "step": 638,
            "len": 2,
            "note": 55,
            "vel": 89,
            "ch": 2
          },
          {
            "step": 638,
            "len": 2,
            "note": 59,
            "vel": 89,
            "ch": 2
          },
          {
            "step": 640,
            "len": 2,
            "note": 57,
            "vel": 89,
            "ch": 2
          },
          {
            "step": 640,
            "len": 2,
            "note": 61,
            "vel": 89,
            "ch": 2
          },
          {
            "step": 640,
            "len": 2,
            "note": 64,
            "vel": 89,
            "ch": 2
          },
          {
            "step": 640,
            "len": 2,
            "note": 69,
            "vel": 89,
            "ch": 2
          },
          {
            "step": 642,
            "len": 2,
            "note": 50,
            "vel": 89,
            "ch": 2
          },
          {
            "step": 642,
            "len": 2,
            "note": 55,
            "vel": 89,
            "ch": 2
          },
          {
            "step": 642,
            "len": 2,
            "note": 59,
            "vel": 89,
            "ch": 2
          },
          {
            "step": 644,
            "len": 2,
            "note": 50,
            "vel": 89,
            "ch": 2
          },
          {
            "step": 644,
            "len": 2,
            "note": 55,
            "vel": 89,
            "ch": 2
          },
          {
            "step": 644,
            "len": 2,
            "note": 59,
            "vel": 89,
            "ch": 2
          },
          {
            "step": 646,
            "len": 2,
            "note": 57,
            "vel": 89,
            "ch": 2
          },
          {
            "step": 646,
            "len": 2,
            "note": 61,
            "vel": 89,
            "ch": 2
          },
          {
            "step": 646,
            "len": 2,
            "note": 64,
            "vel": 89,
            "ch": 2
          },
          {
            "step": 646,
            "len": 2,
            "note": 69,
            "vel": 89,
            "ch": 2
          },
          {
            "step": 648,
            "len": 2,
            "note": 50,
            "vel": 89,
            "ch": 2
          },
          {
            "step": 648,
            "len": 2,
            "note": 55,
            "vel": 89,
            "ch": 2
          },
          {
            "step": 648,
            "len": 2,
            "note": 59,
            "vel": 89,
            "ch": 2
          },
          {
            "step": 650,
            "len": 2,
            "note": 50,
            "vel": 89,
            "ch": 2
          },
          {
            "step": 650,
            "len": 2,
            "note": 55,
            "vel": 89,
            "ch": 2
          },
          {
            "step": 650,
            "len": 2,
            "note": 59,
            "vel": 89,
            "ch": 2
          },
          {
            "step": 652,
            "len": 2,
            "note": 50,
            "vel": 89,
            "ch": 2
          },
          {
            "step": 652,
            "len": 2,
            "note": 55,
            "vel": 89,
            "ch": 2
          },
          {
            "step": 652,
            "len": 2,
            "note": 59,
            "vel": 89,
            "ch": 2
          },
          {
            "step": 654,
            "len": 2,
            "note": 50,
            "vel": 89,
            "ch": 2
          },
          {
            "step": 654,
            "len": 2,
            "note": 55,
            "vel": 89,
            "ch": 2
          },
          {
            "step": 654,
            "len": 2,
            "note": 59,
            "vel": 89,
            "ch": 2
          },
          {
            "step": 656,
            "len": 2,
            "note": 50,
            "vel": 89,
            "ch": 2
          },
          {
            "step": 656,
            "len": 2,
            "note": 55,
            "vel": 89,
            "ch": 2
          },
          {
            "step": 656,
            "len": 2,
            "note": 59,
            "vel": 89,
            "ch": 2
          },
          {
            "step": 658,
            "len": 2,
            "note": 50,
            "vel": 89,
            "ch": 2
          },
          {
            "step": 658,
            "len": 2,
            "note": 55,
            "vel": 89,
            "ch": 2
          },
          {
            "step": 658,
            "len": 2,
            "note": 59,
            "vel": 89,
            "ch": 2
          },
          {
            "step": 660,
            "len": 2,
            "note": 57,
            "vel": 89,
            "ch": 2
          },
          {
            "step": 660,
            "len": 2,
            "note": 61,
            "vel": 89,
            "ch": 2
          },
          {
            "step": 660,
            "len": 2,
            "note": 64,
            "vel": 89,
            "ch": 2
          },
          {
            "step": 660,
            "len": 2,
            "note": 69,
            "vel": 89,
            "ch": 2
          },
          {
            "step": 662,
            "len": 2,
            "note": 50,
            "vel": 89,
            "ch": 2
          },
          {
            "step": 662,
            "len": 2,
            "note": 55,
            "vel": 89,
            "ch": 2
          },
          {
            "step": 662,
            "len": 2,
            "note": 59,
            "vel": 89,
            "ch": 2
          },
          {
            "step": 664,
            "len": 2,
            "note": 50,
            "vel": 89,
            "ch": 2
          },
          {
            "step": 664,
            "len": 2,
            "note": 55,
            "vel": 89,
            "ch": 2
          },
          {
            "step": 664,
            "len": 2,
            "note": 59,
            "vel": 89,
            "ch": 2
          },
          {
            "step": 666,
            "len": 2,
            "note": 57,
            "vel": 89,
            "ch": 2
          },
          {
            "step": 666,
            "len": 2,
            "note": 61,
            "vel": 89,
            "ch": 2
          },
          {
            "step": 666,
            "len": 2,
            "note": 64,
            "vel": 89,
            "ch": 2
          },
          {
            "step": 666,
            "len": 2,
            "note": 69,
            "vel": 89,
            "ch": 2
          },
          {
            "step": 668,
            "len": 2,
            "note": 50,
            "vel": 89,
            "ch": 2
          },
          {
            "step": 668,
            "len": 2,
            "note": 55,
            "vel": 89,
            "ch": 2
          },
          {
            "step": 668,
            "len": 2,
            "note": 59,
            "vel": 89,
            "ch": 2
          },
          {
            "step": 670,
            "len": 2,
            "note": 50,
            "vel": 89,
            "ch": 2
          },
          {
            "step": 670,
            "len": 2,
            "note": 55,
            "vel": 89,
            "ch": 2
          },
          {
            "step": 670,
            "len": 2,
            "note": 59,
            "vel": 89,
            "ch": 2
          },
          {
            "step": 672,
            "len": 2,
            "note": 57,
            "vel": 89,
            "ch": 2
          },
          {
            "step": 672,
            "len": 2,
            "note": 61,
            "vel": 89,
            "ch": 2
          },
          {
            "step": 672,
            "len": 2,
            "note": 64,
            "vel": 89,
            "ch": 2
          },
          {
            "step": 672,
            "len": 2,
            "note": 69,
            "vel": 89,
            "ch": 2
          },
          {
            "step": 674,
            "len": 2,
            "note": 50,
            "vel": 89,
            "ch": 2
          },
          {
            "step": 674,
            "len": 2,
            "note": 55,
            "vel": 89,
            "ch": 2
          },
          {
            "step": 674,
            "len": 2,
            "note": 59,
            "vel": 89,
            "ch": 2
          },
          {
            "step": 676,
            "len": 2,
            "note": 50,
            "vel": 89,
            "ch": 2
          },
          {
            "step": 676,
            "len": 2,
            "note": 55,
            "vel": 89,
            "ch": 2
          },
          {
            "step": 676,
            "len": 2,
            "note": 59,
            "vel": 89,
            "ch": 2
          },
          {
            "step": 678,
            "len": 2,
            "note": 57,
            "vel": 89,
            "ch": 2
          },
          {
            "step": 678,
            "len": 2,
            "note": 61,
            "vel": 89,
            "ch": 2
          },
          {
            "step": 678,
            "len": 2,
            "note": 64,
            "vel": 89,
            "ch": 2
          },
          {
            "step": 678,
            "len": 2,
            "note": 69,
            "vel": 89,
            "ch": 2
          },
          {
            "step": 680,
            "len": 2,
            "note": 50,
            "vel": 89,
            "ch": 2
          },
          {
            "step": 680,
            "len": 2,
            "note": 55,
            "vel": 89,
            "ch": 2
          },
          {
            "step": 680,
            "len": 2,
            "note": 59,
            "vel": 89,
            "ch": 2
          },
          {
            "step": 682,
            "len": 2,
            "note": 50,
            "vel": 89,
            "ch": 2
          },
          {
            "step": 682,
            "len": 2,
            "note": 55,
            "vel": 89,
            "ch": 2
          },
          {
            "step": 682,
            "len": 2,
            "note": 59,
            "vel": 89,
            "ch": 2
          },
          {
            "step": 684,
            "len": 2,
            "note": 50,
            "vel": 89,
            "ch": 2
          },
          {
            "step": 684,
            "len": 2,
            "note": 55,
            "vel": 89,
            "ch": 2
          },
          {
            "step": 684,
            "len": 2,
            "note": 59,
            "vel": 89,
            "ch": 2
          },
          {
            "step": 686,
            "len": 2,
            "note": 50,
            "vel": 89,
            "ch": 2
          },
          {
            "step": 686,
            "len": 2,
            "note": 55,
            "vel": 89,
            "ch": 2
          },
          {
            "step": 686,
            "len": 2,
            "note": 59,
            "vel": 89,
            "ch": 2
          },
          {
            "step": 688,
            "len": 2,
            "note": 50,
            "vel": 89,
            "ch": 2
          },
          {
            "step": 688,
            "len": 2,
            "note": 55,
            "vel": 89,
            "ch": 2
          },
          {
            "step": 688,
            "len": 2,
            "note": 59,
            "vel": 89,
            "ch": 2
          },
          {
            "step": 690,
            "len": 2,
            "note": 50,
            "vel": 89,
            "ch": 2
          },
          {
            "step": 690,
            "len": 2,
            "note": 55,
            "vel": 89,
            "ch": 2
          },
          {
            "step": 690,
            "len": 2,
            "note": 59,
            "vel": 89,
            "ch": 2
          },
          {
            "step": 692,
            "len": 2,
            "note": 57,
            "vel": 89,
            "ch": 2
          },
          {
            "step": 692,
            "len": 2,
            "note": 61,
            "vel": 89,
            "ch": 2
          },
          {
            "step": 692,
            "len": 2,
            "note": 64,
            "vel": 89,
            "ch": 2
          },
          {
            "step": 692,
            "len": 2,
            "note": 69,
            "vel": 89,
            "ch": 2
          },
          {
            "step": 694,
            "len": 2,
            "note": 50,
            "vel": 89,
            "ch": 2
          },
          {
            "step": 694,
            "len": 2,
            "note": 55,
            "vel": 89,
            "ch": 2
          },
          {
            "step": 694,
            "len": 2,
            "note": 59,
            "vel": 89,
            "ch": 2
          },
          {
            "step": 696,
            "len": 2,
            "note": 50,
            "vel": 89,
            "ch": 2
          },
          {
            "step": 696,
            "len": 2,
            "note": 55,
            "vel": 89,
            "ch": 2
          },
          {
            "step": 696,
            "len": 2,
            "note": 59,
            "vel": 89,
            "ch": 2
          },
          {
            "step": 698,
            "len": 2,
            "note": 57,
            "vel": 89,
            "ch": 2
          },
          {
            "step": 698,
            "len": 2,
            "note": 61,
            "vel": 89,
            "ch": 2
          },
          {
            "step": 698,
            "len": 2,
            "note": 64,
            "vel": 89,
            "ch": 2
          },
          {
            "step": 698,
            "len": 2,
            "note": 69,
            "vel": 89,
            "ch": 2
          },
          {
            "step": 700,
            "len": 2,
            "note": 50,
            "vel": 89,
            "ch": 2
          },
          {
            "step": 700,
            "len": 2,
            "note": 55,
            "vel": 89,
            "ch": 2
          },
          {
            "step": 700,
            "len": 2,
            "note": 59,
            "vel": 89,
            "ch": 2
          },
          {
            "step": 702,
            "len": 2,
            "note": 50,
            "vel": 89,
            "ch": 2
          },
          {
            "step": 702,
            "len": 2,
            "note": 55,
            "vel": 89,
            "ch": 2
          },
          {
            "step": 702,
            "len": 2,
            "note": 59,
            "vel": 89,
            "ch": 2
          },
          {
            "step": 704,
            "len": 2,
            "note": 57,
            "vel": 89,
            "ch": 2
          },
          {
            "step": 704,
            "len": 2,
            "note": 61,
            "vel": 89,
            "ch": 2
          },
          {
            "step": 704,
            "len": 2,
            "note": 64,
            "vel": 89,
            "ch": 2
          },
          {
            "step": 704,
            "len": 2,
            "note": 69,
            "vel": 89,
            "ch": 2
          },
          {
            "step": 706,
            "len": 2,
            "note": 50,
            "vel": 89,
            "ch": 2
          },
          {
            "step": 706,
            "len": 2,
            "note": 55,
            "vel": 89,
            "ch": 2
          },
          {
            "step": 706,
            "len": 2,
            "note": 59,
            "vel": 89,
            "ch": 2
          },
          {
            "step": 708,
            "len": 2,
            "note": 50,
            "vel": 89,
            "ch": 2
          },
          {
            "step": 708,
            "len": 2,
            "note": 55,
            "vel": 89,
            "ch": 2
          },
          {
            "step": 708,
            "len": 2,
            "note": 59,
            "vel": 89,
            "ch": 2
          },
          {
            "step": 710,
            "len": 2,
            "note": 57,
            "vel": 89,
            "ch": 2
          },
          {
            "step": 710,
            "len": 2,
            "note": 61,
            "vel": 89,
            "ch": 2
          },
          {
            "step": 710,
            "len": 2,
            "note": 64,
            "vel": 89,
            "ch": 2
          },
          {
            "step": 710,
            "len": 2,
            "note": 69,
            "vel": 89,
            "ch": 2
          },
          {
            "step": 712,
            "len": 2,
            "note": 50,
            "vel": 89,
            "ch": 2
          },
          {
            "step": 712,
            "len": 2,
            "note": 55,
            "vel": 89,
            "ch": 2
          },
          {
            "step": 712,
            "len": 2,
            "note": 59,
            "vel": 89,
            "ch": 2
          },
          {
            "step": 714,
            "len": 2,
            "note": 50,
            "vel": 89,
            "ch": 2
          },
          {
            "step": 714,
            "len": 2,
            "note": 55,
            "vel": 89,
            "ch": 2
          },
          {
            "step": 714,
            "len": 2,
            "note": 59,
            "vel": 89,
            "ch": 2
          },
          {
            "step": 716,
            "len": 2,
            "note": 50,
            "vel": 89,
            "ch": 2
          },
          {
            "step": 716,
            "len": 2,
            "note": 55,
            "vel": 89,
            "ch": 2
          },
          {
            "step": 716,
            "len": 2,
            "note": 59,
            "vel": 89,
            "ch": 2
          },
          {
            "step": 718,
            "len": 2,
            "note": 50,
            "vel": 89,
            "ch": 2
          },
          {
            "step": 718,
            "len": 2,
            "note": 55,
            "vel": 89,
            "ch": 2
          },
          {
            "step": 718,
            "len": 2,
            "note": 59,
            "vel": 89,
            "ch": 2
          },
          {
            "step": 720,
            "len": 2,
            "note": 50,
            "vel": 89,
            "ch": 2
          },
          {
            "step": 720,
            "len": 2,
            "note": 55,
            "vel": 89,
            "ch": 2
          },
          {
            "step": 720,
            "len": 2,
            "note": 59,
            "vel": 89,
            "ch": 2
          },
          {
            "step": 722,
            "len": 2,
            "note": 50,
            "vel": 89,
            "ch": 2
          },
          {
            "step": 722,
            "len": 2,
            "note": 55,
            "vel": 89,
            "ch": 2
          },
          {
            "step": 722,
            "len": 2,
            "note": 59,
            "vel": 89,
            "ch": 2
          },
          {
            "step": 724,
            "len": 2,
            "note": 57,
            "vel": 89,
            "ch": 2
          },
          {
            "step": 724,
            "len": 2,
            "note": 61,
            "vel": 89,
            "ch": 2
          },
          {
            "step": 724,
            "len": 2,
            "note": 64,
            "vel": 89,
            "ch": 2
          },
          {
            "step": 724,
            "len": 2,
            "note": 69,
            "vel": 89,
            "ch": 2
          },
          {
            "step": 726,
            "len": 2,
            "note": 50,
            "vel": 89,
            "ch": 2
          },
          {
            "step": 726,
            "len": 2,
            "note": 55,
            "vel": 89,
            "ch": 2
          },
          {
            "step": 726,
            "len": 2,
            "note": 59,
            "vel": 89,
            "ch": 2
          },
          {
            "step": 728,
            "len": 2,
            "note": 50,
            "vel": 89,
            "ch": 2
          },
          {
            "step": 728,
            "len": 2,
            "note": 55,
            "vel": 89,
            "ch": 2
          },
          {
            "step": 728,
            "len": 2,
            "note": 59,
            "vel": 89,
            "ch": 2
          },
          {
            "step": 730,
            "len": 2,
            "note": 57,
            "vel": 89,
            "ch": 2
          },
          {
            "step": 730,
            "len": 2,
            "note": 61,
            "vel": 89,
            "ch": 2
          },
          {
            "step": 730,
            "len": 2,
            "note": 64,
            "vel": 89,
            "ch": 2
          },
          {
            "step": 730,
            "len": 2,
            "note": 69,
            "vel": 89,
            "ch": 2
          },
          {
            "step": 732,
            "len": 2,
            "note": 50,
            "vel": 89,
            "ch": 2
          },
          {
            "step": 732,
            "len": 2,
            "note": 55,
            "vel": 89,
            "ch": 2
          },
          {
            "step": 732,
            "len": 2,
            "note": 59,
            "vel": 89,
            "ch": 2
          },
          {
            "step": 734,
            "len": 2,
            "note": 50,
            "vel": 89,
            "ch": 2
          },
          {
            "step": 734,
            "len": 2,
            "note": 55,
            "vel": 89,
            "ch": 2
          },
          {
            "step": 734,
            "len": 2,
            "note": 59,
            "vel": 89,
            "ch": 2
          },
          {
            "step": 736,
            "len": 2,
            "note": 57,
            "vel": 89,
            "ch": 2
          },
          {
            "step": 736,
            "len": 2,
            "note": 61,
            "vel": 89,
            "ch": 2
          },
          {
            "step": 736,
            "len": 2,
            "note": 64,
            "vel": 89,
            "ch": 2
          },
          {
            "step": 736,
            "len": 2,
            "note": 69,
            "vel": 89,
            "ch": 2
          },
          {
            "step": 738,
            "len": 2,
            "note": 50,
            "vel": 89,
            "ch": 2
          },
          {
            "step": 738,
            "len": 2,
            "note": 55,
            "vel": 89,
            "ch": 2
          },
          {
            "step": 738,
            "len": 2,
            "note": 59,
            "vel": 89,
            "ch": 2
          },
          {
            "step": 740,
            "len": 2,
            "note": 50,
            "vel": 89,
            "ch": 2
          },
          {
            "step": 740,
            "len": 2,
            "note": 55,
            "vel": 89,
            "ch": 2
          },
          {
            "step": 740,
            "len": 2,
            "note": 59,
            "vel": 89,
            "ch": 2
          },
          {
            "step": 742,
            "len": 2,
            "note": 57,
            "vel": 89,
            "ch": 2
          },
          {
            "step": 742,
            "len": 2,
            "note": 61,
            "vel": 89,
            "ch": 2
          },
          {
            "step": 742,
            "len": 2,
            "note": 64,
            "vel": 89,
            "ch": 2
          },
          {
            "step": 742,
            "len": 2,
            "note": 69,
            "vel": 89,
            "ch": 2
          },
          {
            "step": 744,
            "len": 2,
            "note": 50,
            "vel": 89,
            "ch": 2
          },
          {
            "step": 744,
            "len": 2,
            "note": 55,
            "vel": 89,
            "ch": 2
          },
          {
            "step": 744,
            "len": 2,
            "note": 59,
            "vel": 89,
            "ch": 2
          },
          {
            "step": 746,
            "len": 2,
            "note": 50,
            "vel": 89,
            "ch": 2
          },
          {
            "step": 746,
            "len": 2,
            "note": 55,
            "vel": 89,
            "ch": 2
          },
          {
            "step": 746,
            "len": 2,
            "note": 59,
            "vel": 89,
            "ch": 2
          },
          {
            "step": 748,
            "len": 2,
            "note": 50,
            "vel": 89,
            "ch": 2
          },
          {
            "step": 748,
            "len": 2,
            "note": 55,
            "vel": 89,
            "ch": 2
          },
          {
            "step": 748,
            "len": 2,
            "note": 59,
            "vel": 89,
            "ch": 2
          },
          {
            "step": 750,
            "len": 2,
            "note": 50,
            "vel": 89,
            "ch": 2
          },
          {
            "step": 750,
            "len": 2,
            "note": 55,
            "vel": 89,
            "ch": 2
          },
          {
            "step": 750,
            "len": 2,
            "note": 59,
            "vel": 89,
            "ch": 2
          },
          {
            "step": 752,
            "len": 2,
            "note": 50,
            "vel": 89,
            "ch": 2
          },
          {
            "step": 752,
            "len": 2,
            "note": 55,
            "vel": 89,
            "ch": 2
          },
          {
            "step": 752,
            "len": 2,
            "note": 59,
            "vel": 89,
            "ch": 2
          },
          {
            "step": 754,
            "len": 2,
            "note": 50,
            "vel": 89,
            "ch": 2
          },
          {
            "step": 754,
            "len": 2,
            "note": 55,
            "vel": 89,
            "ch": 2
          },
          {
            "step": 754,
            "len": 2,
            "note": 59,
            "vel": 89,
            "ch": 2
          },
          {
            "step": 756,
            "len": 2,
            "note": 57,
            "vel": 89,
            "ch": 2
          },
          {
            "step": 756,
            "len": 2,
            "note": 61,
            "vel": 89,
            "ch": 2
          },
          {
            "step": 756,
            "len": 2,
            "note": 64,
            "vel": 89,
            "ch": 2
          },
          {
            "step": 756,
            "len": 2,
            "note": 69,
            "vel": 89,
            "ch": 2
          },
          {
            "step": 758,
            "len": 2,
            "note": 50,
            "vel": 89,
            "ch": 2
          },
          {
            "step": 758,
            "len": 2,
            "note": 55,
            "vel": 89,
            "ch": 2
          },
          {
            "step": 758,
            "len": 2,
            "note": 59,
            "vel": 89,
            "ch": 2
          },
          {
            "step": 760,
            "len": 2,
            "note": 50,
            "vel": 89,
            "ch": 2
          },
          {
            "step": 760,
            "len": 2,
            "note": 55,
            "vel": 89,
            "ch": 2
          },
          {
            "step": 760,
            "len": 2,
            "note": 59,
            "vel": 89,
            "ch": 2
          },
          {
            "step": 762,
            "len": 2,
            "note": 57,
            "vel": 89,
            "ch": 2
          },
          {
            "step": 762,
            "len": 2,
            "note": 61,
            "vel": 89,
            "ch": 2
          },
          {
            "step": 762,
            "len": 2,
            "note": 64,
            "vel": 89,
            "ch": 2
          },
          {
            "step": 762,
            "len": 2,
            "note": 69,
            "vel": 89,
            "ch": 2
          },
          {
            "step": 764,
            "len": 2,
            "note": 50,
            "vel": 89,
            "ch": 2
          },
          {
            "step": 764,
            "len": 2,
            "note": 55,
            "vel": 89,
            "ch": 2
          },
          {
            "step": 764,
            "len": 2,
            "note": 59,
            "vel": 89,
            "ch": 2
          },
          {
            "step": 766,
            "len": 2,
            "note": 50,
            "vel": 89,
            "ch": 2
          },
          {
            "step": 766,
            "len": 2,
            "note": 55,
            "vel": 89,
            "ch": 2
          },
          {
            "step": 766,
            "len": 2,
            "note": 59,
            "vel": 89,
            "ch": 2
          },
          {
            "step": 768,
            "len": 2,
            "note": 57,
            "vel": 89,
            "ch": 2
          },
          {
            "step": 768,
            "len": 2,
            "note": 61,
            "vel": 89,
            "ch": 2
          },
          {
            "step": 768,
            "len": 2,
            "note": 64,
            "vel": 89,
            "ch": 2
          },
          {
            "step": 768,
            "len": 2,
            "note": 69,
            "vel": 89,
            "ch": 2
          },
          {
            "step": 770,
            "len": 2,
            "note": 50,
            "vel": 89,
            "ch": 2
          },
          {
            "step": 770,
            "len": 2,
            "note": 55,
            "vel": 89,
            "ch": 2
          },
          {
            "step": 770,
            "len": 2,
            "note": 59,
            "vel": 89,
            "ch": 2
          },
          {
            "step": 772,
            "len": 2,
            "note": 50,
            "vel": 89,
            "ch": 2
          },
          {
            "step": 772,
            "len": 2,
            "note": 55,
            "vel": 89,
            "ch": 2
          },
          {
            "step": 772,
            "len": 2,
            "note": 59,
            "vel": 89,
            "ch": 2
          },
          {
            "step": 774,
            "len": 2,
            "note": 57,
            "vel": 89,
            "ch": 2
          },
          {
            "step": 774,
            "len": 2,
            "note": 61,
            "vel": 89,
            "ch": 2
          },
          {
            "step": 774,
            "len": 2,
            "note": 64,
            "vel": 89,
            "ch": 2
          },
          {
            "step": 774,
            "len": 2,
            "note": 69,
            "vel": 89,
            "ch": 2
          },
          {
            "step": 776,
            "len": 2,
            "note": 50,
            "vel": 89,
            "ch": 2
          },
          {
            "step": 776,
            "len": 2,
            "note": 55,
            "vel": 89,
            "ch": 2
          },
          {
            "step": 776,
            "len": 2,
            "note": 59,
            "vel": 89,
            "ch": 2
          },
          {
            "step": 778,
            "len": 2,
            "note": 50,
            "vel": 89,
            "ch": 2
          },
          {
            "step": 778,
            "len": 2,
            "note": 55,
            "vel": 89,
            "ch": 2
          },
          {
            "step": 778,
            "len": 2,
            "note": 59,
            "vel": 89,
            "ch": 2
          },
          {
            "step": 780,
            "len": 2,
            "note": 50,
            "vel": 89,
            "ch": 2
          },
          {
            "step": 780,
            "len": 2,
            "note": 55,
            "vel": 89,
            "ch": 2
          },
          {
            "step": 780,
            "len": 2,
            "note": 59,
            "vel": 89,
            "ch": 2
          },
          {
            "step": 782,
            "len": 2,
            "note": 50,
            "vel": 89,
            "ch": 2
          },
          {
            "step": 782,
            "len": 2,
            "note": 55,
            "vel": 89,
            "ch": 2
          },
          {
            "step": 782,
            "len": 2,
            "note": 59,
            "vel": 89,
            "ch": 2
          },
          {
            "step": 784,
            "len": 2,
            "note": 50,
            "vel": 89,
            "ch": 2
          },
          {
            "step": 784,
            "len": 2,
            "note": 55,
            "vel": 89,
            "ch": 2
          },
          {
            "step": 784,
            "len": 2,
            "note": 59,
            "vel": 89,
            "ch": 2
          },
          {
            "step": 786,
            "len": 2,
            "note": 50,
            "vel": 89,
            "ch": 2
          },
          {
            "step": 786,
            "len": 2,
            "note": 55,
            "vel": 89,
            "ch": 2
          },
          {
            "step": 786,
            "len": 2,
            "note": 59,
            "vel": 89,
            "ch": 2
          },
          {
            "step": 788,
            "len": 2,
            "note": 57,
            "vel": 89,
            "ch": 2
          },
          {
            "step": 788,
            "len": 2,
            "note": 61,
            "vel": 89,
            "ch": 2
          },
          {
            "step": 788,
            "len": 2,
            "note": 64,
            "vel": 89,
            "ch": 2
          },
          {
            "step": 788,
            "len": 2,
            "note": 69,
            "vel": 89,
            "ch": 2
          },
          {
            "step": 790,
            "len": 2,
            "note": 50,
            "vel": 89,
            "ch": 2
          },
          {
            "step": 790,
            "len": 2,
            "note": 55,
            "vel": 89,
            "ch": 2
          },
          {
            "step": 790,
            "len": 2,
            "note": 59,
            "vel": 89,
            "ch": 2
          },
          {
            "step": 792,
            "len": 2,
            "note": 50,
            "vel": 89,
            "ch": 2
          },
          {
            "step": 792,
            "len": 2,
            "note": 55,
            "vel": 89,
            "ch": 2
          },
          {
            "step": 792,
            "len": 2,
            "note": 59,
            "vel": 89,
            "ch": 2
          },
          {
            "step": 794,
            "len": 2,
            "note": 57,
            "vel": 89,
            "ch": 2
          },
          {
            "step": 794,
            "len": 2,
            "note": 61,
            "vel": 89,
            "ch": 2
          },
          {
            "step": 794,
            "len": 2,
            "note": 64,
            "vel": 89,
            "ch": 2
          },
          {
            "step": 794,
            "len": 2,
            "note": 69,
            "vel": 89,
            "ch": 2
          },
          {
            "step": 796,
            "len": 2,
            "note": 50,
            "vel": 89,
            "ch": 2
          },
          {
            "step": 796,
            "len": 2,
            "note": 55,
            "vel": 89,
            "ch": 2
          },
          {
            "step": 796,
            "len": 2,
            "note": 59,
            "vel": 89,
            "ch": 2
          },
          {
            "step": 798,
            "len": 2,
            "note": 50,
            "vel": 89,
            "ch": 2
          },
          {
            "step": 798,
            "len": 2,
            "note": 55,
            "vel": 89,
            "ch": 2
          },
          {
            "step": 798,
            "len": 2,
            "note": 59,
            "vel": 89,
            "ch": 2
          },
          {
            "step": 800,
            "len": 2,
            "note": 57,
            "vel": 89,
            "ch": 2
          },
          {
            "step": 800,
            "len": 2,
            "note": 61,
            "vel": 89,
            "ch": 2
          },
          {
            "step": 800,
            "len": 2,
            "note": 64,
            "vel": 89,
            "ch": 2
          },
          {
            "step": 800,
            "len": 2,
            "note": 69,
            "vel": 89,
            "ch": 2
          },
          {
            "step": 802,
            "len": 2,
            "note": 50,
            "vel": 89,
            "ch": 2
          },
          {
            "step": 802,
            "len": 2,
            "note": 55,
            "vel": 89,
            "ch": 2
          },
          {
            "step": 802,
            "len": 2,
            "note": 59,
            "vel": 89,
            "ch": 2
          },
          {
            "step": 804,
            "len": 2,
            "note": 50,
            "vel": 89,
            "ch": 2
          },
          {
            "step": 804,
            "len": 2,
            "note": 55,
            "vel": 89,
            "ch": 2
          },
          {
            "step": 804,
            "len": 2,
            "note": 59,
            "vel": 89,
            "ch": 2
          },
          {
            "step": 806,
            "len": 2,
            "note": 57,
            "vel": 89,
            "ch": 2
          },
          {
            "step": 806,
            "len": 2,
            "note": 61,
            "vel": 89,
            "ch": 2
          },
          {
            "step": 806,
            "len": 2,
            "note": 64,
            "vel": 89,
            "ch": 2
          },
          {
            "step": 806,
            "len": 2,
            "note": 69,
            "vel": 89,
            "ch": 2
          },
          {
            "step": 808,
            "len": 2,
            "note": 50,
            "vel": 89,
            "ch": 2
          },
          {
            "step": 808,
            "len": 2,
            "note": 55,
            "vel": 89,
            "ch": 2
          },
          {
            "step": 808,
            "len": 2,
            "note": 59,
            "vel": 89,
            "ch": 2
          },
          {
            "step": 810,
            "len": 2,
            "note": 50,
            "vel": 89,
            "ch": 2
          },
          {
            "step": 810,
            "len": 2,
            "note": 55,
            "vel": 89,
            "ch": 2
          },
          {
            "step": 810,
            "len": 2,
            "note": 59,
            "vel": 89,
            "ch": 2
          },
          {
            "step": 812,
            "len": 2,
            "note": 50,
            "vel": 89,
            "ch": 2
          },
          {
            "step": 812,
            "len": 2,
            "note": 55,
            "vel": 89,
            "ch": 2
          },
          {
            "step": 812,
            "len": 2,
            "note": 59,
            "vel": 89,
            "ch": 2
          },
          {
            "step": 814,
            "len": 2,
            "note": 50,
            "vel": 89,
            "ch": 2
          },
          {
            "step": 814,
            "len": 2,
            "note": 55,
            "vel": 89,
            "ch": 2
          },
          {
            "step": 814,
            "len": 2,
            "note": 59,
            "vel": 89,
            "ch": 2
          },
          {
            "step": 816,
            "len": 2,
            "note": 50,
            "vel": 89,
            "ch": 2
          },
          {
            "step": 816,
            "len": 2,
            "note": 55,
            "vel": 89,
            "ch": 2
          },
          {
            "step": 816,
            "len": 2,
            "note": 59,
            "vel": 89,
            "ch": 2
          },
          {
            "step": 818,
            "len": 2,
            "note": 50,
            "vel": 89,
            "ch": 2
          },
          {
            "step": 818,
            "len": 2,
            "note": 55,
            "vel": 89,
            "ch": 2
          },
          {
            "step": 818,
            "len": 2,
            "note": 59,
            "vel": 89,
            "ch": 2
          },
          {
            "step": 820,
            "len": 2,
            "note": 57,
            "vel": 89,
            "ch": 2
          },
          {
            "step": 820,
            "len": 2,
            "note": 61,
            "vel": 89,
            "ch": 2
          },
          {
            "step": 820,
            "len": 2,
            "note": 64,
            "vel": 89,
            "ch": 2
          },
          {
            "step": 820,
            "len": 2,
            "note": 69,
            "vel": 89,
            "ch": 2
          },
          {
            "step": 822,
            "len": 2,
            "note": 50,
            "vel": 89,
            "ch": 2
          },
          {
            "step": 822,
            "len": 2,
            "note": 55,
            "vel": 89,
            "ch": 2
          },
          {
            "step": 822,
            "len": 2,
            "note": 59,
            "vel": 89,
            "ch": 2
          },
          {
            "step": 824,
            "len": 2,
            "note": 50,
            "vel": 89,
            "ch": 2
          },
          {
            "step": 824,
            "len": 2,
            "note": 55,
            "vel": 89,
            "ch": 2
          },
          {
            "step": 824,
            "len": 2,
            "note": 59,
            "vel": 89,
            "ch": 2
          },
          {
            "step": 826,
            "len": 2,
            "note": 57,
            "vel": 89,
            "ch": 2
          },
          {
            "step": 826,
            "len": 2,
            "note": 61,
            "vel": 89,
            "ch": 2
          },
          {
            "step": 826,
            "len": 2,
            "note": 64,
            "vel": 89,
            "ch": 2
          },
          {
            "step": 826,
            "len": 2,
            "note": 69,
            "vel": 89,
            "ch": 2
          },
          {
            "step": 828,
            "len": 2,
            "note": 50,
            "vel": 89,
            "ch": 2
          },
          {
            "step": 828,
            "len": 2,
            "note": 55,
            "vel": 89,
            "ch": 2
          },
          {
            "step": 828,
            "len": 2,
            "note": 59,
            "vel": 89,
            "ch": 2
          },
          {
            "step": 830,
            "len": 2,
            "note": 50,
            "vel": 89,
            "ch": 2
          },
          {
            "step": 830,
            "len": 2,
            "note": 55,
            "vel": 89,
            "ch": 2
          },
          {
            "step": 830,
            "len": 2,
            "note": 59,
            "vel": 89,
            "ch": 2
          },
          {
            "step": 832,
            "len": 2,
            "note": 57,
            "vel": 89,
            "ch": 2
          },
          {
            "step": 832,
            "len": 2,
            "note": 61,
            "vel": 89,
            "ch": 2
          },
          {
            "step": 832,
            "len": 2,
            "note": 64,
            "vel": 89,
            "ch": 2
          },
          {
            "step": 832,
            "len": 2,
            "note": 69,
            "vel": 89,
            "ch": 2
          },
          {
            "step": 834,
            "len": 2,
            "note": 50,
            "vel": 89,
            "ch": 2
          },
          {
            "step": 834,
            "len": 2,
            "note": 55,
            "vel": 89,
            "ch": 2
          },
          {
            "step": 834,
            "len": 2,
            "note": 59,
            "vel": 89,
            "ch": 2
          },
          {
            "step": 836,
            "len": 2,
            "note": 50,
            "vel": 89,
            "ch": 2
          },
          {
            "step": 836,
            "len": 2,
            "note": 55,
            "vel": 89,
            "ch": 2
          },
          {
            "step": 836,
            "len": 2,
            "note": 59,
            "vel": 89,
            "ch": 2
          },
          {
            "step": 838,
            "len": 2,
            "note": 57,
            "vel": 89,
            "ch": 2
          },
          {
            "step": 838,
            "len": 2,
            "note": 61,
            "vel": 89,
            "ch": 2
          },
          {
            "step": 838,
            "len": 2,
            "note": 64,
            "vel": 89,
            "ch": 2
          },
          {
            "step": 838,
            "len": 2,
            "note": 69,
            "vel": 89,
            "ch": 2
          },
          {
            "step": 840,
            "len": 2,
            "note": 50,
            "vel": 89,
            "ch": 2
          },
          {
            "step": 840,
            "len": 2,
            "note": 55,
            "vel": 89,
            "ch": 2
          },
          {
            "step": 840,
            "len": 2,
            "note": 59,
            "vel": 89,
            "ch": 2
          },
          {
            "step": 842,
            "len": 2,
            "note": 50,
            "vel": 89,
            "ch": 2
          },
          {
            "step": 842,
            "len": 2,
            "note": 55,
            "vel": 89,
            "ch": 2
          },
          {
            "step": 842,
            "len": 2,
            "note": 59,
            "vel": 89,
            "ch": 2
          },
          {
            "step": 844,
            "len": 2,
            "note": 50,
            "vel": 89,
            "ch": 2
          },
          {
            "step": 844,
            "len": 2,
            "note": 55,
            "vel": 89,
            "ch": 2
          },
          {
            "step": 844,
            "len": 2,
            "note": 59,
            "vel": 89,
            "ch": 2
          },
          {
            "step": 846,
            "len": 2,
            "note": 50,
            "vel": 89,
            "ch": 2
          },
          {
            "step": 846,
            "len": 2,
            "note": 55,
            "vel": 89,
            "ch": 2
          },
          {
            "step": 846,
            "len": 2,
            "note": 59,
            "vel": 89,
            "ch": 2
          },
          {
            "step": 848,
            "len": 2,
            "note": 50,
            "vel": 89,
            "ch": 2
          },
          {
            "step": 848,
            "len": 2,
            "note": 55,
            "vel": 89,
            "ch": 2
          },
          {
            "step": 848,
            "len": 2,
            "note": 59,
            "vel": 89,
            "ch": 2
          },
          {
            "step": 850,
            "len": 2,
            "note": 50,
            "vel": 89,
            "ch": 2
          },
          {
            "step": 850,
            "len": 2,
            "note": 55,
            "vel": 89,
            "ch": 2
          },
          {
            "step": 850,
            "len": 2,
            "note": 59,
            "vel": 89,
            "ch": 2
          },
          {
            "step": 852,
            "len": 2,
            "note": 55,
            "vel": 89,
            "ch": 2
          },
          {
            "step": 852,
            "len": 2,
            "note": 59,
            "vel": 89,
            "ch": 2
          },
          {
            "step": 852,
            "len": 2,
            "note": 62,
            "vel": 89,
            "ch": 2
          },
          {
            "step": 852,
            "len": 2,
            "note": 67,
            "vel": 89,
            "ch": 2
          },
          {
            "step": 854,
            "len": 2,
            "note": 50,
            "vel": 89,
            "ch": 2
          },
          {
            "step": 854,
            "len": 2,
            "note": 55,
            "vel": 89,
            "ch": 2
          },
          {
            "step": 854,
            "len": 2,
            "note": 59,
            "vel": 89,
            "ch": 2
          },
          {
            "step": 856,
            "len": 2,
            "note": 50,
            "vel": 89,
            "ch": 2
          },
          {
            "step": 856,
            "len": 2,
            "note": 55,
            "vel": 89,
            "ch": 2
          },
          {
            "step": 856,
            "len": 2,
            "note": 59,
            "vel": 89,
            "ch": 2
          },
          {
            "step": 858,
            "len": 2,
            "note": 55,
            "vel": 89,
            "ch": 2
          },
          {
            "step": 858,
            "len": 2,
            "note": 59,
            "vel": 89,
            "ch": 2
          },
          {
            "step": 858,
            "len": 2,
            "note": 62,
            "vel": 89,
            "ch": 2
          },
          {
            "step": 858,
            "len": 2,
            "note": 67,
            "vel": 89,
            "ch": 2
          },
          {
            "step": 860,
            "len": 2,
            "note": 50,
            "vel": 89,
            "ch": 2
          },
          {
            "step": 860,
            "len": 2,
            "note": 55,
            "vel": 89,
            "ch": 2
          },
          {
            "step": 860,
            "len": 2,
            "note": 59,
            "vel": 89,
            "ch": 2
          },
          {
            "step": 862,
            "len": 2,
            "note": 50,
            "vel": 89,
            "ch": 2
          },
          {
            "step": 862,
            "len": 2,
            "note": 55,
            "vel": 89,
            "ch": 2
          },
          {
            "step": 862,
            "len": 2,
            "note": 59,
            "vel": 89,
            "ch": 2
          },
          {
            "step": 864,
            "len": 2,
            "note": 55,
            "vel": 89,
            "ch": 2
          },
          {
            "step": 864,
            "len": 2,
            "note": 59,
            "vel": 89,
            "ch": 2
          },
          {
            "step": 864,
            "len": 2,
            "note": 62,
            "vel": 89,
            "ch": 2
          },
          {
            "step": 864,
            "len": 2,
            "note": 67,
            "vel": 89,
            "ch": 2
          },
          {
            "step": 866,
            "len": 2,
            "note": 50,
            "vel": 89,
            "ch": 2
          },
          {
            "step": 866,
            "len": 2,
            "note": 55,
            "vel": 89,
            "ch": 2
          },
          {
            "step": 866,
            "len": 2,
            "note": 59,
            "vel": 89,
            "ch": 2
          },
          {
            "step": 868,
            "len": 2,
            "note": 50,
            "vel": 89,
            "ch": 2
          },
          {
            "step": 868,
            "len": 2,
            "note": 55,
            "vel": 89,
            "ch": 2
          },
          {
            "step": 868,
            "len": 2,
            "note": 59,
            "vel": 89,
            "ch": 2
          },
          {
            "step": 870,
            "len": 2,
            "note": 55,
            "vel": 89,
            "ch": 2
          },
          {
            "step": 870,
            "len": 2,
            "note": 59,
            "vel": 89,
            "ch": 2
          },
          {
            "step": 870,
            "len": 2,
            "note": 62,
            "vel": 89,
            "ch": 2
          },
          {
            "step": 870,
            "len": 2,
            "note": 67,
            "vel": 89,
            "ch": 2
          },
          {
            "step": 872,
            "len": 2,
            "note": 50,
            "vel": 89,
            "ch": 2
          },
          {
            "step": 872,
            "len": 2,
            "note": 55,
            "vel": 89,
            "ch": 2
          },
          {
            "step": 872,
            "len": 2,
            "note": 59,
            "vel": 89,
            "ch": 2
          },
          {
            "step": 874,
            "len": 2,
            "note": 50,
            "vel": 89,
            "ch": 2
          },
          {
            "step": 874,
            "len": 2,
            "note": 55,
            "vel": 89,
            "ch": 2
          },
          {
            "step": 874,
            "len": 2,
            "note": 59,
            "vel": 89,
            "ch": 2
          },
          {
            "step": 876,
            "len": 2,
            "note": 50,
            "vel": 89,
            "ch": 2
          },
          {
            "step": 876,
            "len": 2,
            "note": 55,
            "vel": 89,
            "ch": 2
          },
          {
            "step": 876,
            "len": 2,
            "note": 59,
            "vel": 89,
            "ch": 2
          },
          {
            "step": 878,
            "len": 2,
            "note": 50,
            "vel": 89,
            "ch": 2
          },
          {
            "step": 878,
            "len": 2,
            "note": 55,
            "vel": 89,
            "ch": 2
          },
          {
            "step": 878,
            "len": 2,
            "note": 59,
            "vel": 89,
            "ch": 2
          },
          {
            "step": 880,
            "len": 2,
            "note": 50,
            "vel": 89,
            "ch": 2
          },
          {
            "step": 880,
            "len": 2,
            "note": 55,
            "vel": 89,
            "ch": 2
          },
          {
            "step": 880,
            "len": 2,
            "note": 59,
            "vel": 89,
            "ch": 2
          },
          {
            "step": 882,
            "len": 2,
            "note": 50,
            "vel": 89,
            "ch": 2
          },
          {
            "step": 882,
            "len": 2,
            "note": 55,
            "vel": 89,
            "ch": 2
          },
          {
            "step": 882,
            "len": 2,
            "note": 59,
            "vel": 89,
            "ch": 2
          },
          {
            "step": 884,
            "len": 2,
            "note": 57,
            "vel": 89,
            "ch": 2
          },
          {
            "step": 884,
            "len": 2,
            "note": 61,
            "vel": 89,
            "ch": 2
          },
          {
            "step": 884,
            "len": 2,
            "note": 64,
            "vel": 89,
            "ch": 2
          },
          {
            "step": 884,
            "len": 2,
            "note": 69,
            "vel": 89,
            "ch": 2
          },
          {
            "step": 886,
            "len": 2,
            "note": 50,
            "vel": 89,
            "ch": 2
          },
          {
            "step": 886,
            "len": 2,
            "note": 55,
            "vel": 89,
            "ch": 2
          },
          {
            "step": 886,
            "len": 2,
            "note": 59,
            "vel": 89,
            "ch": 2
          },
          {
            "step": 888,
            "len": 2,
            "note": 50,
            "vel": 89,
            "ch": 2
          },
          {
            "step": 888,
            "len": 2,
            "note": 55,
            "vel": 89,
            "ch": 2
          },
          {
            "step": 888,
            "len": 2,
            "note": 59,
            "vel": 89,
            "ch": 2
          },
          {
            "step": 890,
            "len": 2,
            "note": 57,
            "vel": 89,
            "ch": 2
          },
          {
            "step": 890,
            "len": 2,
            "note": 61,
            "vel": 89,
            "ch": 2
          },
          {
            "step": 890,
            "len": 2,
            "note": 64,
            "vel": 89,
            "ch": 2
          },
          {
            "step": 890,
            "len": 2,
            "note": 69,
            "vel": 89,
            "ch": 2
          },
          {
            "step": 892,
            "len": 2,
            "note": 50,
            "vel": 89,
            "ch": 2
          },
          {
            "step": 892,
            "len": 2,
            "note": 55,
            "vel": 89,
            "ch": 2
          },
          {
            "step": 892,
            "len": 2,
            "note": 59,
            "vel": 89,
            "ch": 2
          },
          {
            "step": 894,
            "len": 2,
            "note": 50,
            "vel": 89,
            "ch": 2
          },
          {
            "step": 894,
            "len": 2,
            "note": 55,
            "vel": 89,
            "ch": 2
          },
          {
            "step": 894,
            "len": 2,
            "note": 59,
            "vel": 89,
            "ch": 2
          },
          {
            "step": 896,
            "len": 2,
            "note": 57,
            "vel": 89,
            "ch": 2
          },
          {
            "step": 896,
            "len": 2,
            "note": 61,
            "vel": 89,
            "ch": 2
          },
          {
            "step": 896,
            "len": 2,
            "note": 64,
            "vel": 89,
            "ch": 2
          },
          {
            "step": 896,
            "len": 2,
            "note": 69,
            "vel": 89,
            "ch": 2
          },
          {
            "step": 898,
            "len": 2,
            "note": 50,
            "vel": 89,
            "ch": 2
          },
          {
            "step": 898,
            "len": 2,
            "note": 55,
            "vel": 89,
            "ch": 2
          },
          {
            "step": 898,
            "len": 2,
            "note": 59,
            "vel": 89,
            "ch": 2
          },
          {
            "step": 900,
            "len": 2,
            "note": 50,
            "vel": 89,
            "ch": 2
          },
          {
            "step": 900,
            "len": 2,
            "note": 55,
            "vel": 89,
            "ch": 2
          },
          {
            "step": 900,
            "len": 2,
            "note": 59,
            "vel": 89,
            "ch": 2
          },
          {
            "step": 902,
            "len": 2,
            "note": 57,
            "vel": 89,
            "ch": 2
          },
          {
            "step": 902,
            "len": 2,
            "note": 61,
            "vel": 89,
            "ch": 2
          },
          {
            "step": 902,
            "len": 2,
            "note": 64,
            "vel": 89,
            "ch": 2
          },
          {
            "step": 902,
            "len": 2,
            "note": 69,
            "vel": 89,
            "ch": 2
          },
          {
            "step": 904,
            "len": 2,
            "note": 50,
            "vel": 89,
            "ch": 2
          },
          {
            "step": 904,
            "len": 2,
            "note": 55,
            "vel": 89,
            "ch": 2
          },
          {
            "step": 904,
            "len": 2,
            "note": 59,
            "vel": 89,
            "ch": 2
          },
          {
            "step": 906,
            "len": 2,
            "note": 50,
            "vel": 89,
            "ch": 2
          },
          {
            "step": 906,
            "len": 2,
            "note": 55,
            "vel": 89,
            "ch": 2
          },
          {
            "step": 906,
            "len": 2,
            "note": 59,
            "vel": 89,
            "ch": 2
          },
          {
            "step": 908,
            "len": 2,
            "note": 50,
            "vel": 89,
            "ch": 2
          },
          {
            "step": 908,
            "len": 2,
            "note": 55,
            "vel": 89,
            "ch": 2
          },
          {
            "step": 908,
            "len": 2,
            "note": 59,
            "vel": 89,
            "ch": 2
          },
          {
            "step": 910,
            "len": 2,
            "note": 50,
            "vel": 89,
            "ch": 2
          },
          {
            "step": 910,
            "len": 2,
            "note": 55,
            "vel": 89,
            "ch": 2
          },
          {
            "step": 910,
            "len": 2,
            "note": 59,
            "vel": 89,
            "ch": 2
          },
          {
            "step": 912,
            "len": 2,
            "note": 50,
            "vel": 89,
            "ch": 2
          },
          {
            "step": 912,
            "len": 2,
            "note": 55,
            "vel": 89,
            "ch": 2
          },
          {
            "step": 912,
            "len": 2,
            "note": 59,
            "vel": 89,
            "ch": 2
          },
          {
            "step": 914,
            "len": 2,
            "note": 50,
            "vel": 89,
            "ch": 2
          },
          {
            "step": 914,
            "len": 2,
            "note": 55,
            "vel": 89,
            "ch": 2
          },
          {
            "step": 914,
            "len": 2,
            "note": 59,
            "vel": 89,
            "ch": 2
          },
          {
            "step": 916,
            "len": 2,
            "note": 55,
            "vel": 89,
            "ch": 2
          },
          {
            "step": 916,
            "len": 2,
            "note": 59,
            "vel": 89,
            "ch": 2
          },
          {
            "step": 916,
            "len": 2,
            "note": 62,
            "vel": 89,
            "ch": 2
          },
          {
            "step": 916,
            "len": 2,
            "note": 67,
            "vel": 89,
            "ch": 2
          },
          {
            "step": 918,
            "len": 2,
            "note": 50,
            "vel": 89,
            "ch": 2
          },
          {
            "step": 918,
            "len": 2,
            "note": 55,
            "vel": 89,
            "ch": 2
          },
          {
            "step": 918,
            "len": 2,
            "note": 59,
            "vel": 89,
            "ch": 2
          },
          {
            "step": 920,
            "len": 2,
            "note": 50,
            "vel": 89,
            "ch": 2
          },
          {
            "step": 920,
            "len": 2,
            "note": 55,
            "vel": 89,
            "ch": 2
          },
          {
            "step": 920,
            "len": 2,
            "note": 59,
            "vel": 89,
            "ch": 2
          },
          {
            "step": 922,
            "len": 2,
            "note": 55,
            "vel": 89,
            "ch": 2
          },
          {
            "step": 922,
            "len": 2,
            "note": 59,
            "vel": 89,
            "ch": 2
          },
          {
            "step": 922,
            "len": 2,
            "note": 62,
            "vel": 89,
            "ch": 2
          },
          {
            "step": 922,
            "len": 2,
            "note": 67,
            "vel": 89,
            "ch": 2
          },
          {
            "step": 924,
            "len": 2,
            "note": 50,
            "vel": 89,
            "ch": 2
          },
          {
            "step": 924,
            "len": 2,
            "note": 55,
            "vel": 89,
            "ch": 2
          },
          {
            "step": 924,
            "len": 2,
            "note": 59,
            "vel": 89,
            "ch": 2
          },
          {
            "step": 926,
            "len": 2,
            "note": 50,
            "vel": 89,
            "ch": 2
          },
          {
            "step": 926,
            "len": 2,
            "note": 55,
            "vel": 89,
            "ch": 2
          },
          {
            "step": 926,
            "len": 2,
            "note": 59,
            "vel": 89,
            "ch": 2
          },
          {
            "step": 928,
            "len": 2,
            "note": 55,
            "vel": 89,
            "ch": 2
          },
          {
            "step": 928,
            "len": 2,
            "note": 59,
            "vel": 89,
            "ch": 2
          },
          {
            "step": 928,
            "len": 2,
            "note": 62,
            "vel": 89,
            "ch": 2
          },
          {
            "step": 928,
            "len": 2,
            "note": 67,
            "vel": 89,
            "ch": 2
          },
          {
            "step": 930,
            "len": 2,
            "note": 50,
            "vel": 89,
            "ch": 2
          },
          {
            "step": 930,
            "len": 2,
            "note": 55,
            "vel": 89,
            "ch": 2
          },
          {
            "step": 930,
            "len": 2,
            "note": 59,
            "vel": 89,
            "ch": 2
          },
          {
            "step": 932,
            "len": 2,
            "note": 50,
            "vel": 89,
            "ch": 2
          },
          {
            "step": 932,
            "len": 2,
            "note": 55,
            "vel": 89,
            "ch": 2
          },
          {
            "step": 932,
            "len": 2,
            "note": 59,
            "vel": 89,
            "ch": 2
          },
          {
            "step": 934,
            "len": 2,
            "note": 55,
            "vel": 89,
            "ch": 2
          },
          {
            "step": 934,
            "len": 2,
            "note": 59,
            "vel": 89,
            "ch": 2
          },
          {
            "step": 934,
            "len": 2,
            "note": 62,
            "vel": 89,
            "ch": 2
          },
          {
            "step": 934,
            "len": 2,
            "note": 67,
            "vel": 89,
            "ch": 2
          },
          {
            "step": 936,
            "len": 2,
            "note": 50,
            "vel": 89,
            "ch": 2
          },
          {
            "step": 936,
            "len": 2,
            "note": 55,
            "vel": 89,
            "ch": 2
          },
          {
            "step": 936,
            "len": 2,
            "note": 59,
            "vel": 89,
            "ch": 2
          },
          {
            "step": 938,
            "len": 2,
            "note": 50,
            "vel": 89,
            "ch": 2
          },
          {
            "step": 938,
            "len": 2,
            "note": 55,
            "vel": 89,
            "ch": 2
          },
          {
            "step": 938,
            "len": 2,
            "note": 59,
            "vel": 89,
            "ch": 2
          },
          {
            "step": 940,
            "len": 2,
            "note": 50,
            "vel": 89,
            "ch": 2
          },
          {
            "step": 940,
            "len": 2,
            "note": 55,
            "vel": 89,
            "ch": 2
          },
          {
            "step": 940,
            "len": 2,
            "note": 59,
            "vel": 89,
            "ch": 2
          },
          {
            "step": 942,
            "len": 2,
            "note": 50,
            "vel": 89,
            "ch": 2
          },
          {
            "step": 942,
            "len": 2,
            "note": 55,
            "vel": 89,
            "ch": 2
          },
          {
            "step": 942,
            "len": 2,
            "note": 59,
            "vel": 89,
            "ch": 2
          },
          {
            "step": 944,
            "len": 2,
            "note": 50,
            "vel": 89,
            "ch": 2
          },
          {
            "step": 944,
            "len": 2,
            "note": 55,
            "vel": 89,
            "ch": 2
          },
          {
            "step": 944,
            "len": 2,
            "note": 59,
            "vel": 89,
            "ch": 2
          },
          {
            "step": 946,
            "len": 2,
            "note": 50,
            "vel": 89,
            "ch": 2
          },
          {
            "step": 946,
            "len": 2,
            "note": 55,
            "vel": 89,
            "ch": 2
          },
          {
            "step": 946,
            "len": 2,
            "note": 59,
            "vel": 89,
            "ch": 2
          },
          {
            "step": 948,
            "len": 2,
            "note": 57,
            "vel": 89,
            "ch": 2
          },
          {
            "step": 948,
            "len": 2,
            "note": 61,
            "vel": 89,
            "ch": 2
          },
          {
            "step": 948,
            "len": 2,
            "note": 64,
            "vel": 89,
            "ch": 2
          },
          {
            "step": 948,
            "len": 2,
            "note": 69,
            "vel": 89,
            "ch": 2
          },
          {
            "step": 950,
            "len": 2,
            "note": 57,
            "vel": 89,
            "ch": 2
          },
          {
            "step": 950,
            "len": 2,
            "note": 61,
            "vel": 89,
            "ch": 2
          },
          {
            "step": 950,
            "len": 2,
            "note": 64,
            "vel": 89,
            "ch": 2
          },
          {
            "step": 950,
            "len": 2,
            "note": 69,
            "vel": 89,
            "ch": 2
          },
          {
            "step": 952,
            "len": 2,
            "note": 50,
            "vel": 89,
            "ch": 2
          },
          {
            "step": 952,
            "len": 2,
            "note": 55,
            "vel": 89,
            "ch": 2
          },
          {
            "step": 952,
            "len": 2,
            "note": 59,
            "vel": 89,
            "ch": 2
          },
          {
            "step": 954,
            "len": 2,
            "note": 57,
            "vel": 89,
            "ch": 2
          },
          {
            "step": 954,
            "len": 2,
            "note": 61,
            "vel": 89,
            "ch": 2
          },
          {
            "step": 954,
            "len": 2,
            "note": 64,
            "vel": 89,
            "ch": 2
          },
          {
            "step": 954,
            "len": 2,
            "note": 69,
            "vel": 89,
            "ch": 2
          },
          {
            "step": 956,
            "len": 2,
            "note": 50,
            "vel": 89,
            "ch": 2
          },
          {
            "step": 956,
            "len": 2,
            "note": 55,
            "vel": 89,
            "ch": 2
          },
          {
            "step": 956,
            "len": 2,
            "note": 59,
            "vel": 89,
            "ch": 2
          },
          {
            "step": 958,
            "len": 2,
            "note": 50,
            "vel": 89,
            "ch": 2
          },
          {
            "step": 958,
            "len": 2,
            "note": 55,
            "vel": 89,
            "ch": 2
          },
          {
            "step": 958,
            "len": 2,
            "note": 59,
            "vel": 89,
            "ch": 2
          },
          {
            "step": 960,
            "len": 2,
            "note": 57,
            "vel": 89,
            "ch": 2
          },
          {
            "step": 960,
            "len": 2,
            "note": 61,
            "vel": 89,
            "ch": 2
          },
          {
            "step": 960,
            "len": 2,
            "note": 64,
            "vel": 89,
            "ch": 2
          },
          {
            "step": 960,
            "len": 2,
            "note": 69,
            "vel": 89,
            "ch": 2
          },
          {
            "step": 962,
            "len": 2,
            "note": 57,
            "vel": 89,
            "ch": 2
          },
          {
            "step": 962,
            "len": 2,
            "note": 61,
            "vel": 89,
            "ch": 2
          },
          {
            "step": 962,
            "len": 2,
            "note": 64,
            "vel": 89,
            "ch": 2
          },
          {
            "step": 962,
            "len": 2,
            "note": 69,
            "vel": 89,
            "ch": 2
          },
          {
            "step": 964,
            "len": 2,
            "note": 50,
            "vel": 89,
            "ch": 2
          },
          {
            "step": 964,
            "len": 2,
            "note": 55,
            "vel": 89,
            "ch": 2
          },
          {
            "step": 964,
            "len": 2,
            "note": 59,
            "vel": 89,
            "ch": 2
          },
          {
            "step": 966,
            "len": 2,
            "note": 57,
            "vel": 89,
            "ch": 2
          },
          {
            "step": 966,
            "len": 2,
            "note": 61,
            "vel": 89,
            "ch": 2
          },
          {
            "step": 966,
            "len": 2,
            "note": 64,
            "vel": 89,
            "ch": 2
          },
          {
            "step": 966,
            "len": 2,
            "note": 69,
            "vel": 89,
            "ch": 2
          },
          {
            "step": 968,
            "len": 2,
            "note": 50,
            "vel": 89,
            "ch": 2
          },
          {
            "step": 968,
            "len": 2,
            "note": 55,
            "vel": 89,
            "ch": 2
          },
          {
            "step": 968,
            "len": 2,
            "note": 59,
            "vel": 89,
            "ch": 2
          },
          {
            "step": 970,
            "len": 2,
            "note": 57,
            "vel": 89,
            "ch": 2
          },
          {
            "step": 970,
            "len": 2,
            "note": 61,
            "vel": 89,
            "ch": 2
          },
          {
            "step": 970,
            "len": 2,
            "note": 64,
            "vel": 89,
            "ch": 2
          },
          {
            "step": 970,
            "len": 2,
            "note": 69,
            "vel": 89,
            "ch": 2
          },
          {
            "step": 972,
            "len": 2,
            "note": 50,
            "vel": 89,
            "ch": 2
          },
          {
            "step": 972,
            "len": 2,
            "note": 55,
            "vel": 89,
            "ch": 2
          },
          {
            "step": 972,
            "len": 2,
            "note": 59,
            "vel": 89,
            "ch": 2
          },
          {
            "step": 974,
            "len": 2,
            "note": 57,
            "vel": 89,
            "ch": 2
          },
          {
            "step": 974,
            "len": 2,
            "note": 61,
            "vel": 89,
            "ch": 2
          },
          {
            "step": 974,
            "len": 2,
            "note": 64,
            "vel": 89,
            "ch": 2
          },
          {
            "step": 974,
            "len": 2,
            "note": 69,
            "vel": 89,
            "ch": 2
          },
          {
            "step": 976,
            "len": 2,
            "note": 50,
            "vel": 89,
            "ch": 2
          },
          {
            "step": 976,
            "len": 2,
            "note": 55,
            "vel": 89,
            "ch": 2
          },
          {
            "step": 976,
            "len": 2,
            "note": 59,
            "vel": 89,
            "ch": 2
          },
          {
            "step": 978,
            "len": 2,
            "note": 50,
            "vel": 89,
            "ch": 2
          },
          {
            "step": 978,
            "len": 2,
            "note": 55,
            "vel": 89,
            "ch": 2
          },
          {
            "step": 978,
            "len": 2,
            "note": 59,
            "vel": 89,
            "ch": 2
          },
          {
            "step": 980,
            "len": 2,
            "note": 57,
            "vel": 89,
            "ch": 2
          },
          {
            "step": 980,
            "len": 2,
            "note": 61,
            "vel": 89,
            "ch": 2
          },
          {
            "step": 980,
            "len": 2,
            "note": 64,
            "vel": 89,
            "ch": 2
          },
          {
            "step": 980,
            "len": 2,
            "note": 69,
            "vel": 89,
            "ch": 2
          },
          {
            "step": 982,
            "len": 2,
            "note": 50,
            "vel": 89,
            "ch": 2
          },
          {
            "step": 982,
            "len": 2,
            "note": 55,
            "vel": 89,
            "ch": 2
          },
          {
            "step": 982,
            "len": 2,
            "note": 59,
            "vel": 89,
            "ch": 2
          },
          {
            "step": 984,
            "len": 2,
            "note": 50,
            "vel": 89,
            "ch": 2
          },
          {
            "step": 984,
            "len": 2,
            "note": 55,
            "vel": 89,
            "ch": 2
          },
          {
            "step": 984,
            "len": 2,
            "note": 59,
            "vel": 89,
            "ch": 2
          },
          {
            "step": 986,
            "len": 2,
            "note": 57,
            "vel": 89,
            "ch": 2
          },
          {
            "step": 986,
            "len": 2,
            "note": 61,
            "vel": 89,
            "ch": 2
          },
          {
            "step": 986,
            "len": 2,
            "note": 64,
            "vel": 89,
            "ch": 2
          },
          {
            "step": 986,
            "len": 2,
            "note": 69,
            "vel": 89,
            "ch": 2
          },
          {
            "step": 988,
            "len": 2,
            "note": 50,
            "vel": 89,
            "ch": 2
          },
          {
            "step": 988,
            "len": 2,
            "note": 55,
            "vel": 89,
            "ch": 2
          },
          {
            "step": 988,
            "len": 2,
            "note": 59,
            "vel": 89,
            "ch": 2
          },
          {
            "step": 990,
            "len": 2,
            "note": 50,
            "vel": 89,
            "ch": 2
          },
          {
            "step": 990,
            "len": 2,
            "note": 55,
            "vel": 89,
            "ch": 2
          },
          {
            "step": 990,
            "len": 2,
            "note": 59,
            "vel": 89,
            "ch": 2
          },
          {
            "step": 992,
            "len": 2,
            "note": 57,
            "vel": 89,
            "ch": 2
          },
          {
            "step": 992,
            "len": 2,
            "note": 61,
            "vel": 89,
            "ch": 2
          },
          {
            "step": 992,
            "len": 2,
            "note": 64,
            "vel": 89,
            "ch": 2
          },
          {
            "step": 992,
            "len": 2,
            "note": 69,
            "vel": 89,
            "ch": 2
          },
          {
            "step": 994,
            "len": 2,
            "note": 50,
            "vel": 89,
            "ch": 2
          },
          {
            "step": 994,
            "len": 2,
            "note": 55,
            "vel": 89,
            "ch": 2
          },
          {
            "step": 994,
            "len": 2,
            "note": 59,
            "vel": 89,
            "ch": 2
          },
          {
            "step": 996,
            "len": 2,
            "note": 50,
            "vel": 89,
            "ch": 2
          },
          {
            "step": 996,
            "len": 2,
            "note": 55,
            "vel": 89,
            "ch": 2
          },
          {
            "step": 996,
            "len": 2,
            "note": 59,
            "vel": 89,
            "ch": 2
          },
          {
            "step": 998,
            "len": 2,
            "note": 57,
            "vel": 89,
            "ch": 2
          },
          {
            "step": 998,
            "len": 2,
            "note": 61,
            "vel": 89,
            "ch": 2
          },
          {
            "step": 998,
            "len": 2,
            "note": 64,
            "vel": 89,
            "ch": 2
          },
          {
            "step": 998,
            "len": 2,
            "note": 69,
            "vel": 89,
            "ch": 2
          },
          {
            "step": 1000,
            "len": 2,
            "note": 50,
            "vel": 89,
            "ch": 2
          },
          {
            "step": 1000,
            "len": 2,
            "note": 55,
            "vel": 89,
            "ch": 2
          },
          {
            "step": 1000,
            "len": 2,
            "note": 59,
            "vel": 89,
            "ch": 2
          },
          {
            "step": 1002,
            "len": 2,
            "note": 50,
            "vel": 89,
            "ch": 2
          },
          {
            "step": 1002,
            "len": 2,
            "note": 55,
            "vel": 89,
            "ch": 2
          },
          {
            "step": 1002,
            "len": 2,
            "note": 59,
            "vel": 89,
            "ch": 2
          },
          {
            "step": 1004,
            "len": 2,
            "note": 50,
            "vel": 89,
            "ch": 2
          },
          {
            "step": 1004,
            "len": 2,
            "note": 55,
            "vel": 89,
            "ch": 2
          },
          {
            "step": 1004,
            "len": 2,
            "note": 59,
            "vel": 89,
            "ch": 2
          },
          {
            "step": 1006,
            "len": 2,
            "note": 50,
            "vel": 89,
            "ch": 2
          },
          {
            "step": 1006,
            "len": 2,
            "note": 55,
            "vel": 89,
            "ch": 2
          },
          {
            "step": 1006,
            "len": 2,
            "note": 59,
            "vel": 89,
            "ch": 2
          },
          {
            "step": 1008,
            "len": 2,
            "note": 50,
            "vel": 89,
            "ch": 2
          },
          {
            "step": 1008,
            "len": 2,
            "note": 55,
            "vel": 89,
            "ch": 2
          },
          {
            "step": 1008,
            "len": 2,
            "note": 59,
            "vel": 89,
            "ch": 2
          },
          {
            "step": 1010,
            "len": 2,
            "note": 50,
            "vel": 89,
            "ch": 2
          },
          {
            "step": 1010,
            "len": 2,
            "note": 55,
            "vel": 89,
            "ch": 2
          },
          {
            "step": 1010,
            "len": 2,
            "note": 59,
            "vel": 89,
            "ch": 2
          },
          {
            "step": 1012,
            "len": 2,
            "note": 57,
            "vel": 89,
            "ch": 2
          },
          {
            "step": 1012,
            "len": 2,
            "note": 61,
            "vel": 89,
            "ch": 2
          },
          {
            "step": 1012,
            "len": 2,
            "note": 64,
            "vel": 89,
            "ch": 2
          },
          {
            "step": 1012,
            "len": 2,
            "note": 69,
            "vel": 89,
            "ch": 2
          },
          {
            "step": 1014,
            "len": 2,
            "note": 50,
            "vel": 89,
            "ch": 2
          },
          {
            "step": 1014,
            "len": 2,
            "note": 55,
            "vel": 89,
            "ch": 2
          },
          {
            "step": 1014,
            "len": 2,
            "note": 59,
            "vel": 89,
            "ch": 2
          },
          {
            "step": 1016,
            "len": 2,
            "note": 50,
            "vel": 89,
            "ch": 2
          },
          {
            "step": 1016,
            "len": 2,
            "note": 55,
            "vel": 89,
            "ch": 2
          },
          {
            "step": 1016,
            "len": 2,
            "note": 59,
            "vel": 89,
            "ch": 2
          },
          {
            "step": 1018,
            "len": 2,
            "note": 57,
            "vel": 89,
            "ch": 2
          },
          {
            "step": 1018,
            "len": 2,
            "note": 61,
            "vel": 89,
            "ch": 2
          },
          {
            "step": 1018,
            "len": 2,
            "note": 64,
            "vel": 89,
            "ch": 2
          },
          {
            "step": 1018,
            "len": 2,
            "note": 69,
            "vel": 89,
            "ch": 2
          },
          {
            "step": 1020,
            "len": 2,
            "note": 50,
            "vel": 89,
            "ch": 2
          },
          {
            "step": 1020,
            "len": 2,
            "note": 55,
            "vel": 89,
            "ch": 2
          },
          {
            "step": 1020,
            "len": 2,
            "note": 59,
            "vel": 89,
            "ch": 2
          },
          {
            "step": 1022,
            "len": 2,
            "note": 50,
            "vel": 89,
            "ch": 2
          },
          {
            "step": 1022,
            "len": 2,
            "note": 55,
            "vel": 89,
            "ch": 2
          },
          {
            "step": 1022,
            "len": 2,
            "note": 59,
            "vel": 89,
            "ch": 2
          },
          {
            "step": 1024,
            "len": 2,
            "note": 57,
            "vel": 89,
            "ch": 2
          },
          {
            "step": 1024,
            "len": 2,
            "note": 61,
            "vel": 89,
            "ch": 2
          },
          {
            "step": 1024,
            "len": 2,
            "note": 64,
            "vel": 89,
            "ch": 2
          },
          {
            "step": 1024,
            "len": 2,
            "note": 69,
            "vel": 89,
            "ch": 2
          },
          {
            "step": 1026,
            "len": 2,
            "note": 50,
            "vel": 89,
            "ch": 2
          },
          {
            "step": 1026,
            "len": 2,
            "note": 55,
            "vel": 89,
            "ch": 2
          },
          {
            "step": 1026,
            "len": 2,
            "note": 59,
            "vel": 89,
            "ch": 2
          },
          {
            "step": 1028,
            "len": 2,
            "note": 50,
            "vel": 89,
            "ch": 2
          },
          {
            "step": 1028,
            "len": 2,
            "note": 55,
            "vel": 89,
            "ch": 2
          },
          {
            "step": 1028,
            "len": 2,
            "note": 59,
            "vel": 89,
            "ch": 2
          },
          {
            "step": 1030,
            "len": 2,
            "note": 57,
            "vel": 89,
            "ch": 2
          },
          {
            "step": 1030,
            "len": 2,
            "note": 61,
            "vel": 89,
            "ch": 2
          },
          {
            "step": 1030,
            "len": 2,
            "note": 64,
            "vel": 89,
            "ch": 2
          },
          {
            "step": 1030,
            "len": 2,
            "note": 69,
            "vel": 89,
            "ch": 2
          },
          {
            "step": 1032,
            "len": 2,
            "note": 50,
            "vel": 89,
            "ch": 2
          },
          {
            "step": 1032,
            "len": 2,
            "note": 55,
            "vel": 89,
            "ch": 2
          },
          {
            "step": 1032,
            "len": 2,
            "note": 59,
            "vel": 89,
            "ch": 2
          },
          {
            "step": 1034,
            "len": 2,
            "note": 50,
            "vel": 89,
            "ch": 2
          },
          {
            "step": 1034,
            "len": 2,
            "note": 55,
            "vel": 89,
            "ch": 2
          },
          {
            "step": 1034,
            "len": 2,
            "note": 59,
            "vel": 89,
            "ch": 2
          },
          {
            "step": 1036,
            "len": 2,
            "note": 50,
            "vel": 89,
            "ch": 2
          },
          {
            "step": 1036,
            "len": 2,
            "note": 55,
            "vel": 89,
            "ch": 2
          },
          {
            "step": 1036,
            "len": 2,
            "note": 59,
            "vel": 89,
            "ch": 2
          },
          {
            "step": 1038,
            "len": 2,
            "note": 50,
            "vel": 89,
            "ch": 2
          },
          {
            "step": 1038,
            "len": 2,
            "note": 55,
            "vel": 89,
            "ch": 2
          },
          {
            "step": 1038,
            "len": 2,
            "note": 59,
            "vel": 89,
            "ch": 2
          },
          {
            "step": 1040,
            "len": 2,
            "note": 50,
            "vel": 89,
            "ch": 2
          },
          {
            "step": 1040,
            "len": 2,
            "note": 55,
            "vel": 89,
            "ch": 2
          },
          {
            "step": 1040,
            "len": 2,
            "note": 59,
            "vel": 89,
            "ch": 2
          },
          {
            "step": 1042,
            "len": 2,
            "note": 50,
            "vel": 89,
            "ch": 2
          },
          {
            "step": 1042,
            "len": 2,
            "note": 55,
            "vel": 89,
            "ch": 2
          },
          {
            "step": 1042,
            "len": 2,
            "note": 59,
            "vel": 89,
            "ch": 2
          },
          {
            "step": 1044,
            "len": 2,
            "note": 57,
            "vel": 89,
            "ch": 2
          },
          {
            "step": 1044,
            "len": 2,
            "note": 61,
            "vel": 89,
            "ch": 2
          },
          {
            "step": 1044,
            "len": 2,
            "note": 64,
            "vel": 89,
            "ch": 2
          },
          {
            "step": 1044,
            "len": 2,
            "note": 69,
            "vel": 89,
            "ch": 2
          },
          {
            "step": 1046,
            "len": 2,
            "note": 50,
            "vel": 89,
            "ch": 2
          },
          {
            "step": 1046,
            "len": 2,
            "note": 55,
            "vel": 89,
            "ch": 2
          },
          {
            "step": 1046,
            "len": 2,
            "note": 59,
            "vel": 89,
            "ch": 2
          },
          {
            "step": 1048,
            "len": 2,
            "note": 50,
            "vel": 89,
            "ch": 2
          },
          {
            "step": 1048,
            "len": 2,
            "note": 55,
            "vel": 89,
            "ch": 2
          },
          {
            "step": 1048,
            "len": 2,
            "note": 59,
            "vel": 89,
            "ch": 2
          },
          {
            "step": 1050,
            "len": 2,
            "note": 57,
            "vel": 89,
            "ch": 2
          },
          {
            "step": 1050,
            "len": 2,
            "note": 61,
            "vel": 89,
            "ch": 2
          },
          {
            "step": 1050,
            "len": 2,
            "note": 64,
            "vel": 89,
            "ch": 2
          },
          {
            "step": 1050,
            "len": 2,
            "note": 69,
            "vel": 89,
            "ch": 2
          },
          {
            "step": 1052,
            "len": 2,
            "note": 50,
            "vel": 89,
            "ch": 2
          },
          {
            "step": 1052,
            "len": 2,
            "note": 55,
            "vel": 89,
            "ch": 2
          },
          {
            "step": 1052,
            "len": 2,
            "note": 59,
            "vel": 89,
            "ch": 2
          },
          {
            "step": 1054,
            "len": 2,
            "note": 50,
            "vel": 89,
            "ch": 2
          },
          {
            "step": 1054,
            "len": 2,
            "note": 55,
            "vel": 89,
            "ch": 2
          },
          {
            "step": 1054,
            "len": 2,
            "note": 59,
            "vel": 89,
            "ch": 2
          },
          {
            "step": 1056,
            "len": 2,
            "note": 57,
            "vel": 89,
            "ch": 2
          },
          {
            "step": 1056,
            "len": 2,
            "note": 61,
            "vel": 89,
            "ch": 2
          },
          {
            "step": 1056,
            "len": 2,
            "note": 64,
            "vel": 89,
            "ch": 2
          },
          {
            "step": 1056,
            "len": 2,
            "note": 69,
            "vel": 89,
            "ch": 2
          },
          {
            "step": 1058,
            "len": 2,
            "note": 50,
            "vel": 89,
            "ch": 2
          },
          {
            "step": 1058,
            "len": 2,
            "note": 55,
            "vel": 89,
            "ch": 2
          },
          {
            "step": 1058,
            "len": 2,
            "note": 59,
            "vel": 89,
            "ch": 2
          },
          {
            "step": 1060,
            "len": 2,
            "note": 50,
            "vel": 89,
            "ch": 2
          },
          {
            "step": 1060,
            "len": 2,
            "note": 55,
            "vel": 89,
            "ch": 2
          },
          {
            "step": 1060,
            "len": 2,
            "note": 59,
            "vel": 89,
            "ch": 2
          },
          {
            "step": 1062,
            "len": 2,
            "note": 57,
            "vel": 89,
            "ch": 2
          },
          {
            "step": 1062,
            "len": 2,
            "note": 61,
            "vel": 89,
            "ch": 2
          },
          {
            "step": 1062,
            "len": 2,
            "note": 64,
            "vel": 89,
            "ch": 2
          },
          {
            "step": 1062,
            "len": 2,
            "note": 69,
            "vel": 89,
            "ch": 2
          },
          {
            "step": 1064,
            "len": 2,
            "note": 50,
            "vel": 89,
            "ch": 2
          },
          {
            "step": 1064,
            "len": 2,
            "note": 55,
            "vel": 89,
            "ch": 2
          },
          {
            "step": 1064,
            "len": 2,
            "note": 59,
            "vel": 89,
            "ch": 2
          },
          {
            "step": 1066,
            "len": 2,
            "note": 50,
            "vel": 89,
            "ch": 2
          },
          {
            "step": 1066,
            "len": 2,
            "note": 55,
            "vel": 89,
            "ch": 2
          },
          {
            "step": 1066,
            "len": 2,
            "note": 59,
            "vel": 89,
            "ch": 2
          },
          {
            "step": 1068,
            "len": 2,
            "note": 50,
            "vel": 89,
            "ch": 2
          },
          {
            "step": 1068,
            "len": 2,
            "note": 55,
            "vel": 89,
            "ch": 2
          },
          {
            "step": 1068,
            "len": 2,
            "note": 59,
            "vel": 89,
            "ch": 2
          },
          {
            "step": 1070,
            "len": 2,
            "note": 50,
            "vel": 89,
            "ch": 2
          },
          {
            "step": 1070,
            "len": 2,
            "note": 55,
            "vel": 89,
            "ch": 2
          },
          {
            "step": 1070,
            "len": 2,
            "note": 59,
            "vel": 89,
            "ch": 2
          },
          {
            "step": 1072,
            "len": 2,
            "note": 50,
            "vel": 89,
            "ch": 2
          },
          {
            "step": 1072,
            "len": 2,
            "note": 55,
            "vel": 89,
            "ch": 2
          },
          {
            "step": 1072,
            "len": 2,
            "note": 59,
            "vel": 89,
            "ch": 2
          },
          {
            "step": 1074,
            "len": 2,
            "note": 50,
            "vel": 89,
            "ch": 2
          },
          {
            "step": 1074,
            "len": 2,
            "note": 55,
            "vel": 89,
            "ch": 2
          },
          {
            "step": 1074,
            "len": 2,
            "note": 59,
            "vel": 89,
            "ch": 2
          },
          {
            "step": 1076,
            "len": 2,
            "note": 57,
            "vel": 89,
            "ch": 2
          },
          {
            "step": 1076,
            "len": 2,
            "note": 61,
            "vel": 89,
            "ch": 2
          },
          {
            "step": 1076,
            "len": 2,
            "note": 64,
            "vel": 89,
            "ch": 2
          },
          {
            "step": 1076,
            "len": 2,
            "note": 69,
            "vel": 89,
            "ch": 2
          },
          {
            "step": 1078,
            "len": 2,
            "note": 50,
            "vel": 89,
            "ch": 2
          },
          {
            "step": 1078,
            "len": 2,
            "note": 55,
            "vel": 89,
            "ch": 2
          },
          {
            "step": 1078,
            "len": 2,
            "note": 59,
            "vel": 89,
            "ch": 2
          },
          {
            "step": 1080,
            "len": 2,
            "note": 50,
            "vel": 89,
            "ch": 2
          },
          {
            "step": 1080,
            "len": 2,
            "note": 55,
            "vel": 89,
            "ch": 2
          },
          {
            "step": 1080,
            "len": 2,
            "note": 59,
            "vel": 89,
            "ch": 2
          },
          {
            "step": 1082,
            "len": 2,
            "note": 57,
            "vel": 89,
            "ch": 2
          },
          {
            "step": 1082,
            "len": 2,
            "note": 61,
            "vel": 89,
            "ch": 2
          },
          {
            "step": 1082,
            "len": 2,
            "note": 64,
            "vel": 89,
            "ch": 2
          },
          {
            "step": 1082,
            "len": 2,
            "note": 69,
            "vel": 89,
            "ch": 2
          },
          {
            "step": 1084,
            "len": 2,
            "note": 50,
            "vel": 89,
            "ch": 2
          },
          {
            "step": 1084,
            "len": 2,
            "note": 55,
            "vel": 89,
            "ch": 2
          },
          {
            "step": 1084,
            "len": 2,
            "note": 59,
            "vel": 89,
            "ch": 2
          },
          {
            "step": 1086,
            "len": 2,
            "note": 50,
            "vel": 89,
            "ch": 2
          },
          {
            "step": 1086,
            "len": 2,
            "note": 55,
            "vel": 89,
            "ch": 2
          },
          {
            "step": 1086,
            "len": 2,
            "note": 59,
            "vel": 89,
            "ch": 2
          },
          {
            "step": 1088,
            "len": 2,
            "note": 57,
            "vel": 89,
            "ch": 2
          },
          {
            "step": 1088,
            "len": 2,
            "note": 61,
            "vel": 89,
            "ch": 2
          },
          {
            "step": 1088,
            "len": 2,
            "note": 64,
            "vel": 89,
            "ch": 2
          },
          {
            "step": 1088,
            "len": 2,
            "note": 69,
            "vel": 89,
            "ch": 2
          },
          {
            "step": 1090,
            "len": 2,
            "note": 50,
            "vel": 89,
            "ch": 2
          },
          {
            "step": 1090,
            "len": 2,
            "note": 55,
            "vel": 89,
            "ch": 2
          },
          {
            "step": 1090,
            "len": 2,
            "note": 59,
            "vel": 89,
            "ch": 2
          },
          {
            "step": 1092,
            "len": 2,
            "note": 50,
            "vel": 89,
            "ch": 2
          },
          {
            "step": 1092,
            "len": 2,
            "note": 55,
            "vel": 89,
            "ch": 2
          },
          {
            "step": 1092,
            "len": 2,
            "note": 59,
            "vel": 89,
            "ch": 2
          },
          {
            "step": 1094,
            "len": 2,
            "note": 57,
            "vel": 89,
            "ch": 2
          },
          {
            "step": 1094,
            "len": 2,
            "note": 61,
            "vel": 89,
            "ch": 2
          },
          {
            "step": 1094,
            "len": 2,
            "note": 64,
            "vel": 89,
            "ch": 2
          },
          {
            "step": 1094,
            "len": 2,
            "note": 69,
            "vel": 89,
            "ch": 2
          },
          {
            "step": 1096,
            "len": 2,
            "note": 50,
            "vel": 89,
            "ch": 2
          },
          {
            "step": 1096,
            "len": 2,
            "note": 55,
            "vel": 89,
            "ch": 2
          },
          {
            "step": 1096,
            "len": 2,
            "note": 59,
            "vel": 89,
            "ch": 2
          },
          {
            "step": 1098,
            "len": 2,
            "note": 50,
            "vel": 89,
            "ch": 2
          },
          {
            "step": 1098,
            "len": 2,
            "note": 55,
            "vel": 89,
            "ch": 2
          },
          {
            "step": 1098,
            "len": 2,
            "note": 59,
            "vel": 89,
            "ch": 2
          },
          {
            "step": 1100,
            "len": 2,
            "note": 50,
            "vel": 89,
            "ch": 2
          },
          {
            "step": 1100,
            "len": 2,
            "note": 55,
            "vel": 89,
            "ch": 2
          },
          {
            "step": 1100,
            "len": 2,
            "note": 59,
            "vel": 89,
            "ch": 2
          },
          {
            "step": 1102,
            "len": 2,
            "note": 50,
            "vel": 89,
            "ch": 2
          },
          {
            "step": 1102,
            "len": 2,
            "note": 55,
            "vel": 89,
            "ch": 2
          },
          {
            "step": 1102,
            "len": 2,
            "note": 59,
            "vel": 89,
            "ch": 2
          },
          {
            "step": 1104,
            "len": 2,
            "note": 50,
            "vel": 89,
            "ch": 2
          },
          {
            "step": 1104,
            "len": 2,
            "note": 55,
            "vel": 89,
            "ch": 2
          },
          {
            "step": 1104,
            "len": 2,
            "note": 59,
            "vel": 89,
            "ch": 2
          },
          {
            "step": 1106,
            "len": 2,
            "note": 50,
            "vel": 89,
            "ch": 2
          },
          {
            "step": 1106,
            "len": 2,
            "note": 55,
            "vel": 89,
            "ch": 2
          },
          {
            "step": 1106,
            "len": 2,
            "note": 59,
            "vel": 89,
            "ch": 2
          },
          {
            "step": 1108,
            "len": 2,
            "note": 57,
            "vel": 89,
            "ch": 2
          },
          {
            "step": 1108,
            "len": 2,
            "note": 61,
            "vel": 89,
            "ch": 2
          },
          {
            "step": 1108,
            "len": 2,
            "note": 64,
            "vel": 89,
            "ch": 2
          },
          {
            "step": 1108,
            "len": 2,
            "note": 69,
            "vel": 89,
            "ch": 2
          },
          {
            "step": 1110,
            "len": 2,
            "note": 50,
            "vel": 89,
            "ch": 2
          },
          {
            "step": 1110,
            "len": 2,
            "note": 55,
            "vel": 89,
            "ch": 2
          },
          {
            "step": 1110,
            "len": 2,
            "note": 59,
            "vel": 89,
            "ch": 2
          },
          {
            "step": 1112,
            "len": 2,
            "note": 50,
            "vel": 89,
            "ch": 2
          },
          {
            "step": 1112,
            "len": 2,
            "note": 55,
            "vel": 89,
            "ch": 2
          },
          {
            "step": 1112,
            "len": 2,
            "note": 59,
            "vel": 89,
            "ch": 2
          },
          {
            "step": 1114,
            "len": 2,
            "note": 57,
            "vel": 89,
            "ch": 2
          },
          {
            "step": 1114,
            "len": 2,
            "note": 61,
            "vel": 89,
            "ch": 2
          },
          {
            "step": 1114,
            "len": 2,
            "note": 64,
            "vel": 89,
            "ch": 2
          },
          {
            "step": 1114,
            "len": 2,
            "note": 69,
            "vel": 89,
            "ch": 2
          },
          {
            "step": 1116,
            "len": 2,
            "note": 50,
            "vel": 89,
            "ch": 2
          },
          {
            "step": 1116,
            "len": 2,
            "note": 55,
            "vel": 89,
            "ch": 2
          },
          {
            "step": 1116,
            "len": 2,
            "note": 59,
            "vel": 89,
            "ch": 2
          },
          {
            "step": 1118,
            "len": 2,
            "note": 50,
            "vel": 89,
            "ch": 2
          },
          {
            "step": 1118,
            "len": 2,
            "note": 55,
            "vel": 89,
            "ch": 2
          },
          {
            "step": 1118,
            "len": 2,
            "note": 59,
            "vel": 89,
            "ch": 2
          },
          {
            "step": 1120,
            "len": 2,
            "note": 57,
            "vel": 89,
            "ch": 2
          },
          {
            "step": 1120,
            "len": 2,
            "note": 61,
            "vel": 89,
            "ch": 2
          },
          {
            "step": 1120,
            "len": 2,
            "note": 64,
            "vel": 89,
            "ch": 2
          },
          {
            "step": 1120,
            "len": 2,
            "note": 69,
            "vel": 89,
            "ch": 2
          },
          {
            "step": 1122,
            "len": 2,
            "note": 50,
            "vel": 89,
            "ch": 2
          },
          {
            "step": 1122,
            "len": 2,
            "note": 55,
            "vel": 89,
            "ch": 2
          },
          {
            "step": 1122,
            "len": 2,
            "note": 59,
            "vel": 89,
            "ch": 2
          },
          {
            "step": 1124,
            "len": 2,
            "note": 50,
            "vel": 89,
            "ch": 2
          },
          {
            "step": 1124,
            "len": 2,
            "note": 55,
            "vel": 89,
            "ch": 2
          },
          {
            "step": 1124,
            "len": 2,
            "note": 59,
            "vel": 89,
            "ch": 2
          },
          {
            "step": 1126,
            "len": 2,
            "note": 57,
            "vel": 89,
            "ch": 2
          },
          {
            "step": 1126,
            "len": 2,
            "note": 61,
            "vel": 89,
            "ch": 2
          },
          {
            "step": 1126,
            "len": 2,
            "note": 64,
            "vel": 89,
            "ch": 2
          },
          {
            "step": 1126,
            "len": 2,
            "note": 69,
            "vel": 89,
            "ch": 2
          },
          {
            "step": 1128,
            "len": 2,
            "note": 50,
            "vel": 89,
            "ch": 2
          },
          {
            "step": 1128,
            "len": 2,
            "note": 55,
            "vel": 89,
            "ch": 2
          },
          {
            "step": 1128,
            "len": 2,
            "note": 59,
            "vel": 89,
            "ch": 2
          },
          {
            "step": 1130,
            "len": 2,
            "note": 50,
            "vel": 89,
            "ch": 2
          },
          {
            "step": 1130,
            "len": 2,
            "note": 55,
            "vel": 89,
            "ch": 2
          },
          {
            "step": 1130,
            "len": 2,
            "note": 59,
            "vel": 89,
            "ch": 2
          },
          {
            "step": 1132,
            "len": 2,
            "note": 50,
            "vel": 89,
            "ch": 2
          },
          {
            "step": 1132,
            "len": 2,
            "note": 55,
            "vel": 89,
            "ch": 2
          },
          {
            "step": 1132,
            "len": 2,
            "note": 59,
            "vel": 89,
            "ch": 2
          },
          {
            "step": 1134,
            "len": 2,
            "note": 50,
            "vel": 89,
            "ch": 2
          },
          {
            "step": 1134,
            "len": 2,
            "note": 55,
            "vel": 89,
            "ch": 2
          },
          {
            "step": 1134,
            "len": 2,
            "note": 59,
            "vel": 89,
            "ch": 2
          },
          {
            "step": 1136,
            "len": 2,
            "note": 50,
            "vel": 89,
            "ch": 2
          },
          {
            "step": 1136,
            "len": 2,
            "note": 55,
            "vel": 89,
            "ch": 2
          },
          {
            "step": 1136,
            "len": 2,
            "note": 59,
            "vel": 89,
            "ch": 2
          },
          {
            "step": 1138,
            "len": 2,
            "note": 50,
            "vel": 89,
            "ch": 2
          },
          {
            "step": 1138,
            "len": 2,
            "note": 55,
            "vel": 89,
            "ch": 2
          },
          {
            "step": 1138,
            "len": 2,
            "note": 59,
            "vel": 89,
            "ch": 2
          },
          {
            "step": 1140,
            "len": 2,
            "note": 57,
            "vel": 89,
            "ch": 2
          },
          {
            "step": 1140,
            "len": 2,
            "note": 61,
            "vel": 89,
            "ch": 2
          },
          {
            "step": 1140,
            "len": 2,
            "note": 64,
            "vel": 89,
            "ch": 2
          },
          {
            "step": 1140,
            "len": 2,
            "note": 69,
            "vel": 89,
            "ch": 2
          },
          {
            "step": 1142,
            "len": 2,
            "note": 50,
            "vel": 89,
            "ch": 2
          },
          {
            "step": 1142,
            "len": 2,
            "note": 55,
            "vel": 89,
            "ch": 2
          },
          {
            "step": 1142,
            "len": 2,
            "note": 59,
            "vel": 89,
            "ch": 2
          },
          {
            "step": 1144,
            "len": 2,
            "note": 50,
            "vel": 89,
            "ch": 2
          },
          {
            "step": 1144,
            "len": 2,
            "note": 55,
            "vel": 89,
            "ch": 2
          },
          {
            "step": 1144,
            "len": 2,
            "note": 59,
            "vel": 89,
            "ch": 2
          },
          {
            "step": 1146,
            "len": 2,
            "note": 57,
            "vel": 89,
            "ch": 2
          },
          {
            "step": 1146,
            "len": 2,
            "note": 61,
            "vel": 89,
            "ch": 2
          },
          {
            "step": 1146,
            "len": 2,
            "note": 64,
            "vel": 89,
            "ch": 2
          },
          {
            "step": 1146,
            "len": 2,
            "note": 69,
            "vel": 89,
            "ch": 2
          },
          {
            "step": 1148,
            "len": 2,
            "note": 50,
            "vel": 89,
            "ch": 2
          },
          {
            "step": 1148,
            "len": 2,
            "note": 55,
            "vel": 89,
            "ch": 2
          },
          {
            "step": 1148,
            "len": 2,
            "note": 59,
            "vel": 89,
            "ch": 2
          },
          {
            "step": 1150,
            "len": 2,
            "note": 50,
            "vel": 89,
            "ch": 2
          },
          {
            "step": 1150,
            "len": 2,
            "note": 55,
            "vel": 89,
            "ch": 2
          },
          {
            "step": 1150,
            "len": 2,
            "note": 59,
            "vel": 89,
            "ch": 2
          },
          {
            "step": 1152,
            "len": 2,
            "note": 57,
            "vel": 89,
            "ch": 2
          },
          {
            "step": 1152,
            "len": 2,
            "note": 61,
            "vel": 89,
            "ch": 2
          },
          {
            "step": 1152,
            "len": 2,
            "note": 64,
            "vel": 89,
            "ch": 2
          },
          {
            "step": 1152,
            "len": 2,
            "note": 69,
            "vel": 89,
            "ch": 2
          },
          {
            "step": 1154,
            "len": 2,
            "note": 50,
            "vel": 89,
            "ch": 2
          },
          {
            "step": 1154,
            "len": 2,
            "note": 55,
            "vel": 89,
            "ch": 2
          },
          {
            "step": 1154,
            "len": 2,
            "note": 59,
            "vel": 89,
            "ch": 2
          },
          {
            "step": 1156,
            "len": 2,
            "note": 50,
            "vel": 89,
            "ch": 2
          },
          {
            "step": 1156,
            "len": 2,
            "note": 55,
            "vel": 89,
            "ch": 2
          },
          {
            "step": 1156,
            "len": 2,
            "note": 59,
            "vel": 89,
            "ch": 2
          },
          {
            "step": 1158,
            "len": 2,
            "note": 57,
            "vel": 89,
            "ch": 2
          },
          {
            "step": 1158,
            "len": 2,
            "note": 61,
            "vel": 89,
            "ch": 2
          },
          {
            "step": 1158,
            "len": 2,
            "note": 64,
            "vel": 89,
            "ch": 2
          },
          {
            "step": 1158,
            "len": 2,
            "note": 69,
            "vel": 89,
            "ch": 2
          },
          {
            "step": 1160,
            "len": 2,
            "note": 50,
            "vel": 89,
            "ch": 2
          },
          {
            "step": 1160,
            "len": 2,
            "note": 55,
            "vel": 89,
            "ch": 2
          },
          {
            "step": 1160,
            "len": 2,
            "note": 59,
            "vel": 89,
            "ch": 2
          },
          {
            "step": 1162,
            "len": 2,
            "note": 50,
            "vel": 89,
            "ch": 2
          },
          {
            "step": 1162,
            "len": 2,
            "note": 55,
            "vel": 89,
            "ch": 2
          },
          {
            "step": 1162,
            "len": 2,
            "note": 59,
            "vel": 89,
            "ch": 2
          },
          {
            "step": 1164,
            "len": 2,
            "note": 50,
            "vel": 89,
            "ch": 2
          },
          {
            "step": 1164,
            "len": 2,
            "note": 55,
            "vel": 89,
            "ch": 2
          },
          {
            "step": 1164,
            "len": 2,
            "note": 59,
            "vel": 89,
            "ch": 2
          },
          {
            "step": 1166,
            "len": 2,
            "note": 50,
            "vel": 89,
            "ch": 2
          },
          {
            "step": 1166,
            "len": 2,
            "note": 55,
            "vel": 89,
            "ch": 2
          },
          {
            "step": 1166,
            "len": 2,
            "note": 59,
            "vel": 89,
            "ch": 2
          },
          {
            "step": 1168,
            "len": 2,
            "note": 50,
            "vel": 89,
            "ch": 2
          },
          {
            "step": 1168,
            "len": 2,
            "note": 55,
            "vel": 89,
            "ch": 2
          },
          {
            "step": 1168,
            "len": 2,
            "note": 59,
            "vel": 89,
            "ch": 2
          },
          {
            "step": 1170,
            "len": 2,
            "note": 50,
            "vel": 89,
            "ch": 2
          },
          {
            "step": 1170,
            "len": 2,
            "note": 55,
            "vel": 89,
            "ch": 2
          },
          {
            "step": 1170,
            "len": 2,
            "note": 59,
            "vel": 89,
            "ch": 2
          },
          {
            "step": 1172,
            "len": 2,
            "note": 57,
            "vel": 89,
            "ch": 2
          },
          {
            "step": 1172,
            "len": 2,
            "note": 61,
            "vel": 89,
            "ch": 2
          },
          {
            "step": 1172,
            "len": 2,
            "note": 64,
            "vel": 89,
            "ch": 2
          },
          {
            "step": 1172,
            "len": 2,
            "note": 69,
            "vel": 89,
            "ch": 2
          },
          {
            "step": 1174,
            "len": 2,
            "note": 50,
            "vel": 89,
            "ch": 2
          },
          {
            "step": 1174,
            "len": 2,
            "note": 55,
            "vel": 89,
            "ch": 2
          },
          {
            "step": 1174,
            "len": 2,
            "note": 59,
            "vel": 89,
            "ch": 2
          },
          {
            "step": 1176,
            "len": 2,
            "note": 50,
            "vel": 89,
            "ch": 2
          },
          {
            "step": 1176,
            "len": 2,
            "note": 55,
            "vel": 89,
            "ch": 2
          },
          {
            "step": 1176,
            "len": 2,
            "note": 59,
            "vel": 89,
            "ch": 2
          },
          {
            "step": 1178,
            "len": 2,
            "note": 57,
            "vel": 89,
            "ch": 2
          },
          {
            "step": 1178,
            "len": 2,
            "note": 61,
            "vel": 89,
            "ch": 2
          },
          {
            "step": 1178,
            "len": 2,
            "note": 64,
            "vel": 89,
            "ch": 2
          },
          {
            "step": 1178,
            "len": 2,
            "note": 69,
            "vel": 89,
            "ch": 2
          },
          {
            "step": 1180,
            "len": 2,
            "note": 50,
            "vel": 89,
            "ch": 2
          },
          {
            "step": 1180,
            "len": 2,
            "note": 55,
            "vel": 89,
            "ch": 2
          },
          {
            "step": 1180,
            "len": 2,
            "note": 59,
            "vel": 89,
            "ch": 2
          },
          {
            "step": 1182,
            "len": 2,
            "note": 50,
            "vel": 89,
            "ch": 2
          },
          {
            "step": 1182,
            "len": 2,
            "note": 55,
            "vel": 89,
            "ch": 2
          },
          {
            "step": 1182,
            "len": 2,
            "note": 59,
            "vel": 89,
            "ch": 2
          },
          {
            "step": 1184,
            "len": 2,
            "note": 57,
            "vel": 89,
            "ch": 2
          },
          {
            "step": 1184,
            "len": 2,
            "note": 61,
            "vel": 89,
            "ch": 2
          },
          {
            "step": 1184,
            "len": 2,
            "note": 64,
            "vel": 89,
            "ch": 2
          },
          {
            "step": 1184,
            "len": 2,
            "note": 69,
            "vel": 89,
            "ch": 2
          },
          {
            "step": 1186,
            "len": 2,
            "note": 50,
            "vel": 89,
            "ch": 2
          },
          {
            "step": 1186,
            "len": 2,
            "note": 55,
            "vel": 89,
            "ch": 2
          },
          {
            "step": 1186,
            "len": 2,
            "note": 59,
            "vel": 89,
            "ch": 2
          },
          {
            "step": 1188,
            "len": 2,
            "note": 50,
            "vel": 89,
            "ch": 2
          },
          {
            "step": 1188,
            "len": 2,
            "note": 55,
            "vel": 89,
            "ch": 2
          },
          {
            "step": 1188,
            "len": 2,
            "note": 59,
            "vel": 89,
            "ch": 2
          },
          {
            "step": 1190,
            "len": 2,
            "note": 57,
            "vel": 89,
            "ch": 2
          },
          {
            "step": 1190,
            "len": 2,
            "note": 61,
            "vel": 89,
            "ch": 2
          },
          {
            "step": 1190,
            "len": 2,
            "note": 64,
            "vel": 89,
            "ch": 2
          },
          {
            "step": 1190,
            "len": 2,
            "note": 69,
            "vel": 89,
            "ch": 2
          },
          {
            "step": 1192,
            "len": 2,
            "note": 50,
            "vel": 89,
            "ch": 2
          },
          {
            "step": 1192,
            "len": 2,
            "note": 55,
            "vel": 89,
            "ch": 2
          },
          {
            "step": 1192,
            "len": 2,
            "note": 59,
            "vel": 89,
            "ch": 2
          },
          {
            "step": 1194,
            "len": 2,
            "note": 50,
            "vel": 89,
            "ch": 2
          },
          {
            "step": 1194,
            "len": 2,
            "note": 55,
            "vel": 89,
            "ch": 2
          },
          {
            "step": 1194,
            "len": 2,
            "note": 59,
            "vel": 89,
            "ch": 2
          },
          {
            "step": 1196,
            "len": 2,
            "note": 50,
            "vel": 89,
            "ch": 2
          },
          {
            "step": 1196,
            "len": 2,
            "note": 55,
            "vel": 89,
            "ch": 2
          },
          {
            "step": 1196,
            "len": 2,
            "note": 59,
            "vel": 89,
            "ch": 2
          },
          {
            "step": 1198,
            "len": 2,
            "note": 50,
            "vel": 89,
            "ch": 2
          },
          {
            "step": 1198,
            "len": 2,
            "note": 55,
            "vel": 89,
            "ch": 2
          },
          {
            "step": 1198,
            "len": 2,
            "note": 59,
            "vel": 89,
            "ch": 2
          },
          {
            "step": 1200,
            "len": 2,
            "note": 50,
            "vel": 89,
            "ch": 2
          },
          {
            "step": 1200,
            "len": 2,
            "note": 55,
            "vel": 89,
            "ch": 2
          },
          {
            "step": 1200,
            "len": 2,
            "note": 59,
            "vel": 89,
            "ch": 2
          },
          {
            "step": 1202,
            "len": 2,
            "note": 50,
            "vel": 89,
            "ch": 2
          },
          {
            "step": 1202,
            "len": 2,
            "note": 55,
            "vel": 89,
            "ch": 2
          },
          {
            "step": 1202,
            "len": 2,
            "note": 59,
            "vel": 89,
            "ch": 2
          },
          {
            "step": 1204,
            "len": 2,
            "note": 57,
            "vel": 89,
            "ch": 2
          },
          {
            "step": 1204,
            "len": 2,
            "note": 61,
            "vel": 89,
            "ch": 2
          },
          {
            "step": 1204,
            "len": 2,
            "note": 64,
            "vel": 89,
            "ch": 2
          },
          {
            "step": 1204,
            "len": 2,
            "note": 69,
            "vel": 89,
            "ch": 2
          },
          {
            "step": 1206,
            "len": 2,
            "note": 50,
            "vel": 89,
            "ch": 2
          },
          {
            "step": 1206,
            "len": 2,
            "note": 55,
            "vel": 89,
            "ch": 2
          },
          {
            "step": 1206,
            "len": 2,
            "note": 59,
            "vel": 89,
            "ch": 2
          },
          {
            "step": 1208,
            "len": 2,
            "note": 50,
            "vel": 89,
            "ch": 2
          },
          {
            "step": 1208,
            "len": 2,
            "note": 55,
            "vel": 89,
            "ch": 2
          },
          {
            "step": 1208,
            "len": 2,
            "note": 59,
            "vel": 89,
            "ch": 2
          },
          {
            "step": 1210,
            "len": 2,
            "note": 57,
            "vel": 89,
            "ch": 2
          },
          {
            "step": 1210,
            "len": 2,
            "note": 61,
            "vel": 89,
            "ch": 2
          },
          {
            "step": 1210,
            "len": 2,
            "note": 64,
            "vel": 89,
            "ch": 2
          },
          {
            "step": 1210,
            "len": 2,
            "note": 69,
            "vel": 89,
            "ch": 2
          },
          {
            "step": 1212,
            "len": 2,
            "note": 50,
            "vel": 89,
            "ch": 2
          },
          {
            "step": 1212,
            "len": 2,
            "note": 55,
            "vel": 89,
            "ch": 2
          },
          {
            "step": 1212,
            "len": 2,
            "note": 59,
            "vel": 89,
            "ch": 2
          },
          {
            "step": 1214,
            "len": 2,
            "note": 50,
            "vel": 89,
            "ch": 2
          },
          {
            "step": 1214,
            "len": 2,
            "note": 55,
            "vel": 89,
            "ch": 2
          },
          {
            "step": 1214,
            "len": 2,
            "note": 59,
            "vel": 89,
            "ch": 2
          },
          {
            "step": 1216,
            "len": 2,
            "note": 57,
            "vel": 89,
            "ch": 2
          },
          {
            "step": 1216,
            "len": 2,
            "note": 61,
            "vel": 89,
            "ch": 2
          },
          {
            "step": 1216,
            "len": 2,
            "note": 64,
            "vel": 89,
            "ch": 2
          },
          {
            "step": 1216,
            "len": 2,
            "note": 69,
            "vel": 89,
            "ch": 2
          },
          {
            "step": 1218,
            "len": 2,
            "note": 50,
            "vel": 89,
            "ch": 2
          },
          {
            "step": 1218,
            "len": 2,
            "note": 55,
            "vel": 89,
            "ch": 2
          },
          {
            "step": 1218,
            "len": 2,
            "note": 59,
            "vel": 89,
            "ch": 2
          },
          {
            "step": 1220,
            "len": 2,
            "note": 50,
            "vel": 89,
            "ch": 2
          },
          {
            "step": 1220,
            "len": 2,
            "note": 55,
            "vel": 89,
            "ch": 2
          },
          {
            "step": 1220,
            "len": 2,
            "note": 59,
            "vel": 89,
            "ch": 2
          },
          {
            "step": 1222,
            "len": 2,
            "note": 57,
            "vel": 89,
            "ch": 2
          },
          {
            "step": 1222,
            "len": 2,
            "note": 61,
            "vel": 89,
            "ch": 2
          },
          {
            "step": 1222,
            "len": 2,
            "note": 64,
            "vel": 89,
            "ch": 2
          },
          {
            "step": 1222,
            "len": 2,
            "note": 69,
            "vel": 89,
            "ch": 2
          },
          {
            "step": 1224,
            "len": 2,
            "note": 50,
            "vel": 89,
            "ch": 2
          },
          {
            "step": 1224,
            "len": 2,
            "note": 55,
            "vel": 89,
            "ch": 2
          },
          {
            "step": 1224,
            "len": 2,
            "note": 59,
            "vel": 89,
            "ch": 2
          },
          {
            "step": 1226,
            "len": 2,
            "note": 50,
            "vel": 89,
            "ch": 2
          },
          {
            "step": 1226,
            "len": 2,
            "note": 55,
            "vel": 89,
            "ch": 2
          },
          {
            "step": 1226,
            "len": 2,
            "note": 59,
            "vel": 89,
            "ch": 2
          },
          {
            "step": 1228,
            "len": 2,
            "note": 50,
            "vel": 89,
            "ch": 2
          },
          {
            "step": 1228,
            "len": 2,
            "note": 55,
            "vel": 89,
            "ch": 2
          },
          {
            "step": 1228,
            "len": 2,
            "note": 59,
            "vel": 89,
            "ch": 2
          },
          {
            "step": 1230,
            "len": 2,
            "note": 50,
            "vel": 89,
            "ch": 2
          },
          {
            "step": 1230,
            "len": 2,
            "note": 55,
            "vel": 89,
            "ch": 2
          },
          {
            "step": 1230,
            "len": 2,
            "note": 59,
            "vel": 89,
            "ch": 2
          },
          {
            "step": 1232,
            "len": 2,
            "note": 50,
            "vel": 89,
            "ch": 2
          },
          {
            "step": 1232,
            "len": 2,
            "note": 55,
            "vel": 89,
            "ch": 2
          },
          {
            "step": 1232,
            "len": 2,
            "note": 59,
            "vel": 89,
            "ch": 2
          },
          {
            "step": 1234,
            "len": 2,
            "note": 50,
            "vel": 89,
            "ch": 2
          },
          {
            "step": 1234,
            "len": 2,
            "note": 55,
            "vel": 89,
            "ch": 2
          },
          {
            "step": 1234,
            "len": 2,
            "note": 59,
            "vel": 89,
            "ch": 2
          },
          {
            "step": 1236,
            "len": 2,
            "note": 57,
            "vel": 89,
            "ch": 2
          },
          {
            "step": 1236,
            "len": 2,
            "note": 61,
            "vel": 89,
            "ch": 2
          },
          {
            "step": 1236,
            "len": 2,
            "note": 64,
            "vel": 89,
            "ch": 2
          },
          {
            "step": 1236,
            "len": 2,
            "note": 69,
            "vel": 89,
            "ch": 2
          },
          {
            "step": 1238,
            "len": 2,
            "note": 50,
            "vel": 89,
            "ch": 2
          },
          {
            "step": 1238,
            "len": 2,
            "note": 55,
            "vel": 89,
            "ch": 2
          },
          {
            "step": 1238,
            "len": 2,
            "note": 59,
            "vel": 89,
            "ch": 2
          },
          {
            "step": 1240,
            "len": 2,
            "note": 50,
            "vel": 89,
            "ch": 2
          },
          {
            "step": 1240,
            "len": 2,
            "note": 55,
            "vel": 89,
            "ch": 2
          },
          {
            "step": 1240,
            "len": 2,
            "note": 59,
            "vel": 89,
            "ch": 2
          },
          {
            "step": 1242,
            "len": 2,
            "note": 57,
            "vel": 89,
            "ch": 2
          },
          {
            "step": 1242,
            "len": 2,
            "note": 61,
            "vel": 89,
            "ch": 2
          },
          {
            "step": 1242,
            "len": 2,
            "note": 64,
            "vel": 89,
            "ch": 2
          },
          {
            "step": 1242,
            "len": 2,
            "note": 69,
            "vel": 89,
            "ch": 2
          },
          {
            "step": 1244,
            "len": 2,
            "note": 50,
            "vel": 89,
            "ch": 2
          },
          {
            "step": 1244,
            "len": 2,
            "note": 55,
            "vel": 89,
            "ch": 2
          },
          {
            "step": 1244,
            "len": 2,
            "note": 59,
            "vel": 89,
            "ch": 2
          },
          {
            "step": 1246,
            "len": 2,
            "note": 50,
            "vel": 89,
            "ch": 2
          },
          {
            "step": 1246,
            "len": 2,
            "note": 55,
            "vel": 89,
            "ch": 2
          },
          {
            "step": 1246,
            "len": 2,
            "note": 59,
            "vel": 89,
            "ch": 2
          },
          {
            "step": 1248,
            "len": 2,
            "note": 57,
            "vel": 89,
            "ch": 2
          },
          {
            "step": 1248,
            "len": 2,
            "note": 61,
            "vel": 89,
            "ch": 2
          },
          {
            "step": 1248,
            "len": 2,
            "note": 64,
            "vel": 89,
            "ch": 2
          },
          {
            "step": 1248,
            "len": 2,
            "note": 69,
            "vel": 89,
            "ch": 2
          },
          {
            "step": 1250,
            "len": 2,
            "note": 50,
            "vel": 89,
            "ch": 2
          },
          {
            "step": 1250,
            "len": 2,
            "note": 55,
            "vel": 89,
            "ch": 2
          },
          {
            "step": 1250,
            "len": 2,
            "note": 59,
            "vel": 89,
            "ch": 2
          },
          {
            "step": 1252,
            "len": 2,
            "note": 50,
            "vel": 89,
            "ch": 2
          },
          {
            "step": 1252,
            "len": 2,
            "note": 55,
            "vel": 89,
            "ch": 2
          },
          {
            "step": 1252,
            "len": 2,
            "note": 59,
            "vel": 89,
            "ch": 2
          },
          {
            "step": 1254,
            "len": 2,
            "note": 57,
            "vel": 89,
            "ch": 2
          },
          {
            "step": 1254,
            "len": 2,
            "note": 61,
            "vel": 89,
            "ch": 2
          },
          {
            "step": 1254,
            "len": 2,
            "note": 64,
            "vel": 89,
            "ch": 2
          },
          {
            "step": 1254,
            "len": 2,
            "note": 69,
            "vel": 89,
            "ch": 2
          },
          {
            "step": 1256,
            "len": 2,
            "note": 50,
            "vel": 89,
            "ch": 2
          },
          {
            "step": 1256,
            "len": 2,
            "note": 55,
            "vel": 89,
            "ch": 2
          },
          {
            "step": 1256,
            "len": 2,
            "note": 59,
            "vel": 89,
            "ch": 2
          },
          {
            "step": 1258,
            "len": 2,
            "note": 50,
            "vel": 89,
            "ch": 2
          },
          {
            "step": 1258,
            "len": 2,
            "note": 55,
            "vel": 89,
            "ch": 2
          },
          {
            "step": 1258,
            "len": 2,
            "note": 59,
            "vel": 89,
            "ch": 2
          },
          {
            "step": 1260,
            "len": 2,
            "note": 50,
            "vel": 89,
            "ch": 2
          },
          {
            "step": 1260,
            "len": 2,
            "note": 55,
            "vel": 89,
            "ch": 2
          },
          {
            "step": 1260,
            "len": 2,
            "note": 59,
            "vel": 89,
            "ch": 2
          },
          {
            "step": 1262,
            "len": 2,
            "note": 50,
            "vel": 89,
            "ch": 2
          },
          {
            "step": 1262,
            "len": 2,
            "note": 55,
            "vel": 89,
            "ch": 2
          },
          {
            "step": 1262,
            "len": 2,
            "note": 59,
            "vel": 89,
            "ch": 2
          },
          {
            "step": 1264,
            "len": 2,
            "note": 50,
            "vel": 89,
            "ch": 2
          },
          {
            "step": 1264,
            "len": 2,
            "note": 55,
            "vel": 89,
            "ch": 2
          },
          {
            "step": 1264,
            "len": 2,
            "note": 59,
            "vel": 89,
            "ch": 2
          },
          {
            "step": 1266,
            "len": 2,
            "note": 50,
            "vel": 89,
            "ch": 2
          },
          {
            "step": 1266,
            "len": 2,
            "note": 55,
            "vel": 89,
            "ch": 2
          },
          {
            "step": 1266,
            "len": 2,
            "note": 59,
            "vel": 89,
            "ch": 2
          },
          {
            "step": 1268,
            "len": 2,
            "note": 57,
            "vel": 89,
            "ch": 2
          },
          {
            "step": 1268,
            "len": 2,
            "note": 61,
            "vel": 89,
            "ch": 2
          },
          {
            "step": 1268,
            "len": 2,
            "note": 64,
            "vel": 89,
            "ch": 2
          },
          {
            "step": 1268,
            "len": 2,
            "note": 69,
            "vel": 89,
            "ch": 2
          },
          {
            "step": 1270,
            "len": 2,
            "note": 50,
            "vel": 89,
            "ch": 2
          },
          {
            "step": 1270,
            "len": 2,
            "note": 55,
            "vel": 89,
            "ch": 2
          },
          {
            "step": 1270,
            "len": 2,
            "note": 59,
            "vel": 89,
            "ch": 2
          },
          {
            "step": 1272,
            "len": 2,
            "note": 50,
            "vel": 89,
            "ch": 2
          },
          {
            "step": 1272,
            "len": 2,
            "note": 55,
            "vel": 89,
            "ch": 2
          },
          {
            "step": 1272,
            "len": 2,
            "note": 59,
            "vel": 89,
            "ch": 2
          },
          {
            "step": 1274,
            "len": 2,
            "note": 57,
            "vel": 89,
            "ch": 2
          },
          {
            "step": 1274,
            "len": 2,
            "note": 61,
            "vel": 89,
            "ch": 2
          },
          {
            "step": 1274,
            "len": 2,
            "note": 64,
            "vel": 89,
            "ch": 2
          },
          {
            "step": 1274,
            "len": 2,
            "note": 69,
            "vel": 89,
            "ch": 2
          },
          {
            "step": 1276,
            "len": 2,
            "note": 50,
            "vel": 89,
            "ch": 2
          },
          {
            "step": 1276,
            "len": 2,
            "note": 55,
            "vel": 89,
            "ch": 2
          },
          {
            "step": 1276,
            "len": 2,
            "note": 59,
            "vel": 89,
            "ch": 2
          },
          {
            "step": 1278,
            "len": 2,
            "note": 50,
            "vel": 89,
            "ch": 2
          },
          {
            "step": 1278,
            "len": 2,
            "note": 55,
            "vel": 89,
            "ch": 2
          },
          {
            "step": 1278,
            "len": 2,
            "note": 59,
            "vel": 89,
            "ch": 2
          },
          {
            "step": 1280,
            "len": 2,
            "note": 57,
            "vel": 89,
            "ch": 2
          },
          {
            "step": 1280,
            "len": 2,
            "note": 61,
            "vel": 89,
            "ch": 2
          },
          {
            "step": 1280,
            "len": 2,
            "note": 64,
            "vel": 89,
            "ch": 2
          },
          {
            "step": 1280,
            "len": 2,
            "note": 69,
            "vel": 89,
            "ch": 2
          },
          {
            "step": 1282,
            "len": 2,
            "note": 50,
            "vel": 89,
            "ch": 2
          },
          {
            "step": 1282,
            "len": 2,
            "note": 55,
            "vel": 89,
            "ch": 2
          },
          {
            "step": 1282,
            "len": 2,
            "note": 59,
            "vel": 89,
            "ch": 2
          },
          {
            "step": 1284,
            "len": 2,
            "note": 50,
            "vel": 89,
            "ch": 2
          },
          {
            "step": 1284,
            "len": 2,
            "note": 55,
            "vel": 89,
            "ch": 2
          },
          {
            "step": 1284,
            "len": 2,
            "note": 59,
            "vel": 89,
            "ch": 2
          },
          {
            "step": 1286,
            "len": 2,
            "note": 57,
            "vel": 89,
            "ch": 2
          },
          {
            "step": 1286,
            "len": 2,
            "note": 61,
            "vel": 89,
            "ch": 2
          },
          {
            "step": 1286,
            "len": 2,
            "note": 64,
            "vel": 89,
            "ch": 2
          },
          {
            "step": 1286,
            "len": 2,
            "note": 69,
            "vel": 89,
            "ch": 2
          },
          {
            "step": 1288,
            "len": 2,
            "note": 50,
            "vel": 89,
            "ch": 2
          },
          {
            "step": 1288,
            "len": 2,
            "note": 55,
            "vel": 89,
            "ch": 2
          },
          {
            "step": 1288,
            "len": 2,
            "note": 59,
            "vel": 89,
            "ch": 2
          },
          {
            "step": 1290,
            "len": 2,
            "note": 50,
            "vel": 89,
            "ch": 2
          },
          {
            "step": 1290,
            "len": 2,
            "note": 55,
            "vel": 89,
            "ch": 2
          },
          {
            "step": 1290,
            "len": 2,
            "note": 59,
            "vel": 89,
            "ch": 2
          },
          {
            "step": 1292,
            "len": 2,
            "note": 50,
            "vel": 89,
            "ch": 2
          },
          {
            "step": 1292,
            "len": 2,
            "note": 55,
            "vel": 89,
            "ch": 2
          },
          {
            "step": 1292,
            "len": 2,
            "note": 59,
            "vel": 89,
            "ch": 2
          },
          {
            "step": 1294,
            "len": 2,
            "note": 50,
            "vel": 89,
            "ch": 2
          },
          {
            "step": 1294,
            "len": 2,
            "note": 55,
            "vel": 89,
            "ch": 2
          },
          {
            "step": 1294,
            "len": 2,
            "note": 59,
            "vel": 89,
            "ch": 2
          },
          {
            "step": 1296,
            "len": 2,
            "note": 50,
            "vel": 89,
            "ch": 2
          },
          {
            "step": 1296,
            "len": 2,
            "note": 55,
            "vel": 89,
            "ch": 2
          },
          {
            "step": 1296,
            "len": 2,
            "note": 59,
            "vel": 89,
            "ch": 2
          },
          {
            "step": 1298,
            "len": 2,
            "note": 50,
            "vel": 89,
            "ch": 2
          },
          {
            "step": 1298,
            "len": 2,
            "note": 55,
            "vel": 89,
            "ch": 2
          },
          {
            "step": 1298,
            "len": 2,
            "note": 59,
            "vel": 89,
            "ch": 2
          },
          {
            "step": 1300,
            "len": 2,
            "note": 57,
            "vel": 89,
            "ch": 2
          },
          {
            "step": 1300,
            "len": 2,
            "note": 61,
            "vel": 89,
            "ch": 2
          },
          {
            "step": 1300,
            "len": 2,
            "note": 64,
            "vel": 89,
            "ch": 2
          },
          {
            "step": 1300,
            "len": 2,
            "note": 69,
            "vel": 89,
            "ch": 2
          },
          {
            "step": 1302,
            "len": 2,
            "note": 50,
            "vel": 89,
            "ch": 2
          },
          {
            "step": 1302,
            "len": 2,
            "note": 55,
            "vel": 89,
            "ch": 2
          },
          {
            "step": 1302,
            "len": 2,
            "note": 59,
            "vel": 89,
            "ch": 2
          },
          {
            "step": 1304,
            "len": 2,
            "note": 50,
            "vel": 89,
            "ch": 2
          },
          {
            "step": 1304,
            "len": 2,
            "note": 55,
            "vel": 89,
            "ch": 2
          },
          {
            "step": 1304,
            "len": 2,
            "note": 59,
            "vel": 89,
            "ch": 2
          },
          {
            "step": 1306,
            "len": 2,
            "note": 57,
            "vel": 89,
            "ch": 2
          },
          {
            "step": 1306,
            "len": 2,
            "note": 61,
            "vel": 89,
            "ch": 2
          },
          {
            "step": 1306,
            "len": 2,
            "note": 64,
            "vel": 89,
            "ch": 2
          },
          {
            "step": 1306,
            "len": 2,
            "note": 69,
            "vel": 89,
            "ch": 2
          },
          {
            "step": 1308,
            "len": 2,
            "note": 50,
            "vel": 89,
            "ch": 2
          },
          {
            "step": 1308,
            "len": 2,
            "note": 55,
            "vel": 89,
            "ch": 2
          },
          {
            "step": 1308,
            "len": 2,
            "note": 59,
            "vel": 89,
            "ch": 2
          },
          {
            "step": 1310,
            "len": 2,
            "note": 50,
            "vel": 89,
            "ch": 2
          },
          {
            "step": 1310,
            "len": 2,
            "note": 55,
            "vel": 89,
            "ch": 2
          },
          {
            "step": 1310,
            "len": 2,
            "note": 59,
            "vel": 89,
            "ch": 2
          },
          {
            "step": 1312,
            "len": 2,
            "note": 57,
            "vel": 89,
            "ch": 2
          },
          {
            "step": 1312,
            "len": 2,
            "note": 61,
            "vel": 89,
            "ch": 2
          },
          {
            "step": 1312,
            "len": 2,
            "note": 64,
            "vel": 89,
            "ch": 2
          },
          {
            "step": 1312,
            "len": 2,
            "note": 69,
            "vel": 89,
            "ch": 2
          },
          {
            "step": 1314,
            "len": 2,
            "note": 50,
            "vel": 89,
            "ch": 2
          },
          {
            "step": 1314,
            "len": 2,
            "note": 55,
            "vel": 89,
            "ch": 2
          },
          {
            "step": 1314,
            "len": 2,
            "note": 59,
            "vel": 89,
            "ch": 2
          },
          {
            "step": 1316,
            "len": 2,
            "note": 50,
            "vel": 89,
            "ch": 2
          },
          {
            "step": 1316,
            "len": 2,
            "note": 55,
            "vel": 89,
            "ch": 2
          },
          {
            "step": 1316,
            "len": 2,
            "note": 59,
            "vel": 89,
            "ch": 2
          },
          {
            "step": 1318,
            "len": 2,
            "note": 57,
            "vel": 89,
            "ch": 2
          },
          {
            "step": 1318,
            "len": 2,
            "note": 61,
            "vel": 89,
            "ch": 2
          },
          {
            "step": 1318,
            "len": 2,
            "note": 64,
            "vel": 89,
            "ch": 2
          },
          {
            "step": 1318,
            "len": 2,
            "note": 69,
            "vel": 89,
            "ch": 2
          },
          {
            "step": 1320,
            "len": 2,
            "note": 50,
            "vel": 89,
            "ch": 2
          },
          {
            "step": 1320,
            "len": 2,
            "note": 55,
            "vel": 89,
            "ch": 2
          },
          {
            "step": 1320,
            "len": 2,
            "note": 59,
            "vel": 89,
            "ch": 2
          },
          {
            "step": 1322,
            "len": 2,
            "note": 50,
            "vel": 89,
            "ch": 2
          },
          {
            "step": 1322,
            "len": 2,
            "note": 55,
            "vel": 89,
            "ch": 2
          },
          {
            "step": 1322,
            "len": 2,
            "note": 59,
            "vel": 89,
            "ch": 2
          },
          {
            "step": 1324,
            "len": 2,
            "note": 50,
            "vel": 89,
            "ch": 2
          },
          {
            "step": 1324,
            "len": 2,
            "note": 55,
            "vel": 89,
            "ch": 2
          },
          {
            "step": 1324,
            "len": 2,
            "note": 59,
            "vel": 89,
            "ch": 2
          },
          {
            "step": 1326,
            "len": 2,
            "note": 50,
            "vel": 89,
            "ch": 2
          },
          {
            "step": 1326,
            "len": 2,
            "note": 55,
            "vel": 89,
            "ch": 2
          },
          {
            "step": 1326,
            "len": 2,
            "note": 59,
            "vel": 89,
            "ch": 2
          },
          {
            "step": 1328,
            "len": 2,
            "note": 50,
            "vel": 89,
            "ch": 2
          },
          {
            "step": 1328,
            "len": 2,
            "note": 55,
            "vel": 89,
            "ch": 2
          },
          {
            "step": 1328,
            "len": 2,
            "note": 59,
            "vel": 89,
            "ch": 2
          },
          {
            "step": 1330,
            "len": 2,
            "note": 50,
            "vel": 89,
            "ch": 2
          },
          {
            "step": 1330,
            "len": 2,
            "note": 55,
            "vel": 89,
            "ch": 2
          },
          {
            "step": 1330,
            "len": 2,
            "note": 59,
            "vel": 89,
            "ch": 2
          },
          {
            "step": 1332,
            "len": 2,
            "note": 57,
            "vel": 89,
            "ch": 2
          },
          {
            "step": 1332,
            "len": 2,
            "note": 61,
            "vel": 89,
            "ch": 2
          },
          {
            "step": 1332,
            "len": 2,
            "note": 64,
            "vel": 89,
            "ch": 2
          },
          {
            "step": 1332,
            "len": 2,
            "note": 69,
            "vel": 89,
            "ch": 2
          },
          {
            "step": 1334,
            "len": 2,
            "note": 50,
            "vel": 89,
            "ch": 2
          },
          {
            "step": 1334,
            "len": 2,
            "note": 55,
            "vel": 89,
            "ch": 2
          },
          {
            "step": 1334,
            "len": 2,
            "note": 59,
            "vel": 89,
            "ch": 2
          },
          {
            "step": 1336,
            "len": 2,
            "note": 50,
            "vel": 89,
            "ch": 2
          },
          {
            "step": 1336,
            "len": 2,
            "note": 55,
            "vel": 89,
            "ch": 2
          },
          {
            "step": 1336,
            "len": 2,
            "note": 59,
            "vel": 89,
            "ch": 2
          },
          {
            "step": 1338,
            "len": 2,
            "note": 57,
            "vel": 89,
            "ch": 2
          },
          {
            "step": 1338,
            "len": 2,
            "note": 61,
            "vel": 89,
            "ch": 2
          },
          {
            "step": 1338,
            "len": 2,
            "note": 64,
            "vel": 89,
            "ch": 2
          },
          {
            "step": 1338,
            "len": 2,
            "note": 69,
            "vel": 89,
            "ch": 2
          },
          {
            "step": 1340,
            "len": 2,
            "note": 50,
            "vel": 89,
            "ch": 2
          },
          {
            "step": 1340,
            "len": 2,
            "note": 55,
            "vel": 89,
            "ch": 2
          },
          {
            "step": 1340,
            "len": 2,
            "note": 59,
            "vel": 89,
            "ch": 2
          },
          {
            "step": 1342,
            "len": 2,
            "note": 50,
            "vel": 89,
            "ch": 2
          },
          {
            "step": 1342,
            "len": 2,
            "note": 55,
            "vel": 89,
            "ch": 2
          },
          {
            "step": 1342,
            "len": 2,
            "note": 59,
            "vel": 89,
            "ch": 2
          },
          {
            "step": 1344,
            "len": 2,
            "note": 57,
            "vel": 89,
            "ch": 2
          },
          {
            "step": 1344,
            "len": 2,
            "note": 61,
            "vel": 89,
            "ch": 2
          },
          {
            "step": 1344,
            "len": 2,
            "note": 64,
            "vel": 89,
            "ch": 2
          },
          {
            "step": 1344,
            "len": 2,
            "note": 69,
            "vel": 89,
            "ch": 2
          },
          {
            "step": 1346,
            "len": 2,
            "note": 50,
            "vel": 89,
            "ch": 2
          },
          {
            "step": 1346,
            "len": 2,
            "note": 55,
            "vel": 89,
            "ch": 2
          },
          {
            "step": 1346,
            "len": 2,
            "note": 59,
            "vel": 89,
            "ch": 2
          },
          {
            "step": 1348,
            "len": 2,
            "note": 50,
            "vel": 89,
            "ch": 2
          },
          {
            "step": 1348,
            "len": 2,
            "note": 55,
            "vel": 89,
            "ch": 2
          },
          {
            "step": 1348,
            "len": 2,
            "note": 59,
            "vel": 89,
            "ch": 2
          },
          {
            "step": 1350,
            "len": 2,
            "note": 57,
            "vel": 89,
            "ch": 2
          },
          {
            "step": 1350,
            "len": 2,
            "note": 61,
            "vel": 89,
            "ch": 2
          },
          {
            "step": 1350,
            "len": 2,
            "note": 64,
            "vel": 89,
            "ch": 2
          },
          {
            "step": 1350,
            "len": 2,
            "note": 69,
            "vel": 89,
            "ch": 2
          },
          {
            "step": 1352,
            "len": 2,
            "note": 50,
            "vel": 89,
            "ch": 2
          },
          {
            "step": 1352,
            "len": 2,
            "note": 55,
            "vel": 89,
            "ch": 2
          },
          {
            "step": 1352,
            "len": 2,
            "note": 59,
            "vel": 89,
            "ch": 2
          },
          {
            "step": 1354,
            "len": 2,
            "note": 50,
            "vel": 89,
            "ch": 2
          },
          {
            "step": 1354,
            "len": 2,
            "note": 55,
            "vel": 89,
            "ch": 2
          },
          {
            "step": 1354,
            "len": 2,
            "note": 59,
            "vel": 89,
            "ch": 2
          },
          {
            "step": 1356,
            "len": 2,
            "note": 50,
            "vel": 89,
            "ch": 2
          },
          {
            "step": 1356,
            "len": 2,
            "note": 55,
            "vel": 89,
            "ch": 2
          },
          {
            "step": 1356,
            "len": 2,
            "note": 59,
            "vel": 89,
            "ch": 2
          },
          {
            "step": 1358,
            "len": 2,
            "note": 50,
            "vel": 89,
            "ch": 2
          },
          {
            "step": 1358,
            "len": 2,
            "note": 55,
            "vel": 89,
            "ch": 2
          },
          {
            "step": 1358,
            "len": 2,
            "note": 59,
            "vel": 89,
            "ch": 2
          },
          {
            "step": 1360,
            "len": 2,
            "note": 50,
            "vel": 89,
            "ch": 2
          },
          {
            "step": 1360,
            "len": 2,
            "note": 55,
            "vel": 89,
            "ch": 2
          },
          {
            "step": 1360,
            "len": 2,
            "note": 59,
            "vel": 89,
            "ch": 2
          },
          {
            "step": 1362,
            "len": 2,
            "note": 50,
            "vel": 89,
            "ch": 2
          },
          {
            "step": 1362,
            "len": 2,
            "note": 55,
            "vel": 89,
            "ch": 2
          },
          {
            "step": 1362,
            "len": 2,
            "note": 59,
            "vel": 89,
            "ch": 2
          },
          {
            "step": 1364,
            "len": 2,
            "note": 57,
            "vel": 89,
            "ch": 2
          },
          {
            "step": 1364,
            "len": 2,
            "note": 61,
            "vel": 89,
            "ch": 2
          },
          {
            "step": 1364,
            "len": 2,
            "note": 64,
            "vel": 89,
            "ch": 2
          },
          {
            "step": 1364,
            "len": 2,
            "note": 69,
            "vel": 89,
            "ch": 2
          },
          {
            "step": 1366,
            "len": 2,
            "note": 50,
            "vel": 89,
            "ch": 2
          },
          {
            "step": 1366,
            "len": 2,
            "note": 55,
            "vel": 89,
            "ch": 2
          },
          {
            "step": 1366,
            "len": 2,
            "note": 59,
            "vel": 89,
            "ch": 2
          },
          {
            "step": 1368,
            "len": 2,
            "note": 50,
            "vel": 89,
            "ch": 2
          },
          {
            "step": 1368,
            "len": 2,
            "note": 55,
            "vel": 89,
            "ch": 2
          },
          {
            "step": 1368,
            "len": 2,
            "note": 59,
            "vel": 89,
            "ch": 2
          },
          {
            "step": 1370,
            "len": 2,
            "note": 57,
            "vel": 89,
            "ch": 2
          },
          {
            "step": 1370,
            "len": 2,
            "note": 61,
            "vel": 89,
            "ch": 2
          },
          {
            "step": 1370,
            "len": 2,
            "note": 64,
            "vel": 89,
            "ch": 2
          },
          {
            "step": 1370,
            "len": 2,
            "note": 69,
            "vel": 89,
            "ch": 2
          },
          {
            "step": 1372,
            "len": 2,
            "note": 50,
            "vel": 89,
            "ch": 2
          },
          {
            "step": 1372,
            "len": 2,
            "note": 55,
            "vel": 89,
            "ch": 2
          },
          {
            "step": 1372,
            "len": 2,
            "note": 59,
            "vel": 89,
            "ch": 2
          },
          {
            "step": 1374,
            "len": 2,
            "note": 50,
            "vel": 89,
            "ch": 2
          },
          {
            "step": 1374,
            "len": 2,
            "note": 55,
            "vel": 89,
            "ch": 2
          },
          {
            "step": 1374,
            "len": 2,
            "note": 59,
            "vel": 89,
            "ch": 2
          },
          {
            "step": 1376,
            "len": 2,
            "note": 57,
            "vel": 89,
            "ch": 2
          },
          {
            "step": 1376,
            "len": 2,
            "note": 61,
            "vel": 89,
            "ch": 2
          },
          {
            "step": 1376,
            "len": 2,
            "note": 64,
            "vel": 89,
            "ch": 2
          },
          {
            "step": 1376,
            "len": 2,
            "note": 69,
            "vel": 89,
            "ch": 2
          },
          {
            "step": 1378,
            "len": 2,
            "note": 50,
            "vel": 89,
            "ch": 2
          },
          {
            "step": 1378,
            "len": 2,
            "note": 55,
            "vel": 89,
            "ch": 2
          },
          {
            "step": 1378,
            "len": 2,
            "note": 59,
            "vel": 89,
            "ch": 2
          },
          {
            "step": 1380,
            "len": 2,
            "note": 50,
            "vel": 89,
            "ch": 2
          },
          {
            "step": 1380,
            "len": 2,
            "note": 55,
            "vel": 89,
            "ch": 2
          },
          {
            "step": 1380,
            "len": 2,
            "note": 59,
            "vel": 89,
            "ch": 2
          },
          {
            "step": 1382,
            "len": 2,
            "note": 57,
            "vel": 89,
            "ch": 2
          },
          {
            "step": 1382,
            "len": 2,
            "note": 61,
            "vel": 89,
            "ch": 2
          },
          {
            "step": 1382,
            "len": 2,
            "note": 64,
            "vel": 89,
            "ch": 2
          },
          {
            "step": 1382,
            "len": 2,
            "note": 69,
            "vel": 89,
            "ch": 2
          },
          {
            "step": 1384,
            "len": 2,
            "note": 50,
            "vel": 89,
            "ch": 2
          },
          {
            "step": 1384,
            "len": 2,
            "note": 55,
            "vel": 89,
            "ch": 2
          },
          {
            "step": 1384,
            "len": 2,
            "note": 59,
            "vel": 89,
            "ch": 2
          },
          {
            "step": 1386,
            "len": 2,
            "note": 50,
            "vel": 89,
            "ch": 2
          },
          {
            "step": 1386,
            "len": 2,
            "note": 55,
            "vel": 89,
            "ch": 2
          },
          {
            "step": 1386,
            "len": 2,
            "note": 59,
            "vel": 89,
            "ch": 2
          },
          {
            "step": 1388,
            "len": 2,
            "note": 50,
            "vel": 89,
            "ch": 2
          },
          {
            "step": 1388,
            "len": 2,
            "note": 55,
            "vel": 89,
            "ch": 2
          },
          {
            "step": 1388,
            "len": 2,
            "note": 59,
            "vel": 89,
            "ch": 2
          },
          {
            "step": 1390,
            "len": 2,
            "note": 50,
            "vel": 89,
            "ch": 2
          },
          {
            "step": 1390,
            "len": 2,
            "note": 55,
            "vel": 89,
            "ch": 2
          },
          {
            "step": 1390,
            "len": 2,
            "note": 59,
            "vel": 89,
            "ch": 2
          },
          {
            "step": 1392,
            "len": 2,
            "note": 50,
            "vel": 89,
            "ch": 2
          },
          {
            "step": 1392,
            "len": 2,
            "note": 55,
            "vel": 89,
            "ch": 2
          },
          {
            "step": 1392,
            "len": 2,
            "note": 59,
            "vel": 89,
            "ch": 2
          },
          {
            "step": 1394,
            "len": 2,
            "note": 50,
            "vel": 89,
            "ch": 2
          },
          {
            "step": 1394,
            "len": 2,
            "note": 55,
            "vel": 89,
            "ch": 2
          },
          {
            "step": 1394,
            "len": 2,
            "note": 59,
            "vel": 89,
            "ch": 2
          },
          {
            "step": 1396,
            "len": 2,
            "note": 57,
            "vel": 89,
            "ch": 2
          },
          {
            "step": 1396,
            "len": 2,
            "note": 61,
            "vel": 89,
            "ch": 2
          },
          {
            "step": 1396,
            "len": 2,
            "note": 64,
            "vel": 89,
            "ch": 2
          },
          {
            "step": 1396,
            "len": 2,
            "note": 69,
            "vel": 89,
            "ch": 2
          },
          {
            "step": 1398,
            "len": 2,
            "note": 50,
            "vel": 89,
            "ch": 2
          },
          {
            "step": 1398,
            "len": 2,
            "note": 55,
            "vel": 89,
            "ch": 2
          },
          {
            "step": 1398,
            "len": 2,
            "note": 59,
            "vel": 89,
            "ch": 2
          },
          {
            "step": 1400,
            "len": 2,
            "note": 50,
            "vel": 89,
            "ch": 2
          },
          {
            "step": 1400,
            "len": 2,
            "note": 55,
            "vel": 89,
            "ch": 2
          },
          {
            "step": 1400,
            "len": 2,
            "note": 59,
            "vel": 89,
            "ch": 2
          },
          {
            "step": 1402,
            "len": 2,
            "note": 57,
            "vel": 89,
            "ch": 2
          },
          {
            "step": 1402,
            "len": 2,
            "note": 61,
            "vel": 89,
            "ch": 2
          },
          {
            "step": 1402,
            "len": 2,
            "note": 64,
            "vel": 89,
            "ch": 2
          },
          {
            "step": 1402,
            "len": 2,
            "note": 69,
            "vel": 89,
            "ch": 2
          },
          {
            "step": 1404,
            "len": 2,
            "note": 50,
            "vel": 89,
            "ch": 2
          },
          {
            "step": 1404,
            "len": 2,
            "note": 55,
            "vel": 89,
            "ch": 2
          },
          {
            "step": 1404,
            "len": 2,
            "note": 59,
            "vel": 89,
            "ch": 2
          },
          {
            "step": 1406,
            "len": 2,
            "note": 50,
            "vel": 89,
            "ch": 2
          },
          {
            "step": 1406,
            "len": 2,
            "note": 55,
            "vel": 89,
            "ch": 2
          },
          {
            "step": 1406,
            "len": 2,
            "note": 59,
            "vel": 89,
            "ch": 2
          },
          {
            "step": 1408,
            "len": 2,
            "note": 57,
            "vel": 89,
            "ch": 2
          },
          {
            "step": 1408,
            "len": 2,
            "note": 61,
            "vel": 89,
            "ch": 2
          },
          {
            "step": 1408,
            "len": 2,
            "note": 64,
            "vel": 89,
            "ch": 2
          },
          {
            "step": 1408,
            "len": 2,
            "note": 69,
            "vel": 89,
            "ch": 2
          },
          {
            "step": 1410,
            "len": 2,
            "note": 50,
            "vel": 89,
            "ch": 2
          },
          {
            "step": 1410,
            "len": 2,
            "note": 55,
            "vel": 89,
            "ch": 2
          },
          {
            "step": 1410,
            "len": 2,
            "note": 59,
            "vel": 89,
            "ch": 2
          },
          {
            "step": 1412,
            "len": 2,
            "note": 50,
            "vel": 89,
            "ch": 2
          },
          {
            "step": 1412,
            "len": 2,
            "note": 55,
            "vel": 89,
            "ch": 2
          },
          {
            "step": 1412,
            "len": 2,
            "note": 59,
            "vel": 89,
            "ch": 2
          },
          {
            "step": 1414,
            "len": 2,
            "note": 57,
            "vel": 89,
            "ch": 2
          },
          {
            "step": 1414,
            "len": 2,
            "note": 61,
            "vel": 89,
            "ch": 2
          },
          {
            "step": 1414,
            "len": 2,
            "note": 64,
            "vel": 89,
            "ch": 2
          },
          {
            "step": 1414,
            "len": 2,
            "note": 69,
            "vel": 89,
            "ch": 2
          },
          {
            "step": 1416,
            "len": 2,
            "note": 50,
            "vel": 89,
            "ch": 2
          },
          {
            "step": 1416,
            "len": 2,
            "note": 55,
            "vel": 89,
            "ch": 2
          },
          {
            "step": 1416,
            "len": 2,
            "note": 59,
            "vel": 89,
            "ch": 2
          },
          {
            "step": 1418,
            "len": 2,
            "note": 50,
            "vel": 89,
            "ch": 2
          },
          {
            "step": 1418,
            "len": 2,
            "note": 55,
            "vel": 89,
            "ch": 2
          },
          {
            "step": 1418,
            "len": 2,
            "note": 59,
            "vel": 89,
            "ch": 2
          },
          {
            "step": 1420,
            "len": 2,
            "note": 50,
            "vel": 89,
            "ch": 2
          },
          {
            "step": 1420,
            "len": 2,
            "note": 55,
            "vel": 89,
            "ch": 2
          },
          {
            "step": 1420,
            "len": 2,
            "note": 59,
            "vel": 89,
            "ch": 2
          },
          {
            "step": 1422,
            "len": 2,
            "note": 50,
            "vel": 89,
            "ch": 2
          },
          {
            "step": 1422,
            "len": 2,
            "note": 55,
            "vel": 89,
            "ch": 2
          },
          {
            "step": 1422,
            "len": 2,
            "note": 59,
            "vel": 89,
            "ch": 2
          },
          {
            "step": 1424,
            "len": 2,
            "note": 50,
            "vel": 89,
            "ch": 2
          },
          {
            "step": 1424,
            "len": 2,
            "note": 55,
            "vel": 89,
            "ch": 2
          },
          {
            "step": 1424,
            "len": 2,
            "note": 59,
            "vel": 89,
            "ch": 2
          },
          {
            "step": 1426,
            "len": 2,
            "note": 50,
            "vel": 89,
            "ch": 2
          },
          {
            "step": 1426,
            "len": 2,
            "note": 55,
            "vel": 89,
            "ch": 2
          },
          {
            "step": 1426,
            "len": 2,
            "note": 59,
            "vel": 89,
            "ch": 2
          },
          {
            "step": 1428,
            "len": 2,
            "note": 57,
            "vel": 89,
            "ch": 2
          },
          {
            "step": 1428,
            "len": 2,
            "note": 61,
            "vel": 89,
            "ch": 2
          },
          {
            "step": 1428,
            "len": 2,
            "note": 64,
            "vel": 89,
            "ch": 2
          },
          {
            "step": 1428,
            "len": 2,
            "note": 69,
            "vel": 89,
            "ch": 2
          },
          {
            "step": 1430,
            "len": 2,
            "note": 50,
            "vel": 89,
            "ch": 2
          },
          {
            "step": 1430,
            "len": 2,
            "note": 55,
            "vel": 89,
            "ch": 2
          },
          {
            "step": 1430,
            "len": 2,
            "note": 59,
            "vel": 89,
            "ch": 2
          },
          {
            "step": 1432,
            "len": 2,
            "note": 50,
            "vel": 89,
            "ch": 2
          },
          {
            "step": 1432,
            "len": 2,
            "note": 55,
            "vel": 89,
            "ch": 2
          },
          {
            "step": 1432,
            "len": 2,
            "note": 59,
            "vel": 89,
            "ch": 2
          },
          {
            "step": 1434,
            "len": 2,
            "note": 57,
            "vel": 89,
            "ch": 2
          },
          {
            "step": 1434,
            "len": 2,
            "note": 61,
            "vel": 89,
            "ch": 2
          },
          {
            "step": 1434,
            "len": 2,
            "note": 64,
            "vel": 89,
            "ch": 2
          },
          {
            "step": 1434,
            "len": 2,
            "note": 69,
            "vel": 89,
            "ch": 2
          },
          {
            "step": 1436,
            "len": 2,
            "note": 50,
            "vel": 89,
            "ch": 2
          },
          {
            "step": 1436,
            "len": 2,
            "note": 55,
            "vel": 89,
            "ch": 2
          },
          {
            "step": 1436,
            "len": 2,
            "note": 59,
            "vel": 89,
            "ch": 2
          },
          {
            "step": 1438,
            "len": 2,
            "note": 50,
            "vel": 89,
            "ch": 2
          },
          {
            "step": 1438,
            "len": 2,
            "note": 55,
            "vel": 89,
            "ch": 2
          },
          {
            "step": 1438,
            "len": 2,
            "note": 59,
            "vel": 89,
            "ch": 2
          },
          {
            "step": 1440,
            "len": 2,
            "note": 57,
            "vel": 89,
            "ch": 2
          },
          {
            "step": 1440,
            "len": 2,
            "note": 61,
            "vel": 89,
            "ch": 2
          },
          {
            "step": 1440,
            "len": 2,
            "note": 64,
            "vel": 89,
            "ch": 2
          },
          {
            "step": 1440,
            "len": 2,
            "note": 69,
            "vel": 89,
            "ch": 2
          },
          {
            "step": 1442,
            "len": 2,
            "note": 50,
            "vel": 89,
            "ch": 2
          },
          {
            "step": 1442,
            "len": 2,
            "note": 55,
            "vel": 89,
            "ch": 2
          },
          {
            "step": 1442,
            "len": 2,
            "note": 59,
            "vel": 89,
            "ch": 2
          },
          {
            "step": 1444,
            "len": 2,
            "note": 50,
            "vel": 89,
            "ch": 2
          },
          {
            "step": 1444,
            "len": 2,
            "note": 55,
            "vel": 89,
            "ch": 2
          },
          {
            "step": 1444,
            "len": 2,
            "note": 59,
            "vel": 89,
            "ch": 2
          },
          {
            "step": 1446,
            "len": 2,
            "note": 57,
            "vel": 89,
            "ch": 2
          },
          {
            "step": 1446,
            "len": 2,
            "note": 61,
            "vel": 89,
            "ch": 2
          },
          {
            "step": 1446,
            "len": 2,
            "note": 64,
            "vel": 89,
            "ch": 2
          },
          {
            "step": 1446,
            "len": 2,
            "note": 69,
            "vel": 89,
            "ch": 2
          },
          {
            "step": 1448,
            "len": 2,
            "note": 50,
            "vel": 89,
            "ch": 2
          },
          {
            "step": 1448,
            "len": 2,
            "note": 55,
            "vel": 89,
            "ch": 2
          },
          {
            "step": 1448,
            "len": 2,
            "note": 59,
            "vel": 89,
            "ch": 2
          },
          {
            "step": 1450,
            "len": 2,
            "note": 50,
            "vel": 89,
            "ch": 2
          },
          {
            "step": 1450,
            "len": 2,
            "note": 55,
            "vel": 89,
            "ch": 2
          },
          {
            "step": 1450,
            "len": 2,
            "note": 59,
            "vel": 89,
            "ch": 2
          },
          {
            "step": 1452,
            "len": 2,
            "note": 50,
            "vel": 89,
            "ch": 2
          },
          {
            "step": 1452,
            "len": 2,
            "note": 55,
            "vel": 89,
            "ch": 2
          },
          {
            "step": 1452,
            "len": 2,
            "note": 59,
            "vel": 89,
            "ch": 2
          },
          {
            "step": 1454,
            "len": 2,
            "note": 50,
            "vel": 89,
            "ch": 2
          },
          {
            "step": 1454,
            "len": 2,
            "note": 55,
            "vel": 89,
            "ch": 2
          },
          {
            "step": 1454,
            "len": 2,
            "note": 59,
            "vel": 89,
            "ch": 2
          },
          {
            "step": 1456,
            "len": 2,
            "note": 50,
            "vel": 89,
            "ch": 2
          },
          {
            "step": 1456,
            "len": 2,
            "note": 55,
            "vel": 89,
            "ch": 2
          },
          {
            "step": 1456,
            "len": 2,
            "note": 59,
            "vel": 89,
            "ch": 2
          },
          {
            "step": 1458,
            "len": 2,
            "note": 50,
            "vel": 89,
            "ch": 2
          },
          {
            "step": 1458,
            "len": 2,
            "note": 55,
            "vel": 89,
            "ch": 2
          },
          {
            "step": 1458,
            "len": 2,
            "note": 59,
            "vel": 89,
            "ch": 2
          },
          {
            "step": 1460,
            "len": 2,
            "note": 57,
            "vel": 89,
            "ch": 2
          },
          {
            "step": 1460,
            "len": 2,
            "note": 61,
            "vel": 89,
            "ch": 2
          },
          {
            "step": 1460,
            "len": 2,
            "note": 64,
            "vel": 89,
            "ch": 2
          },
          {
            "step": 1460,
            "len": 2,
            "note": 69,
            "vel": 89,
            "ch": 2
          },
          {
            "step": 1462,
            "len": 2,
            "note": 50,
            "vel": 89,
            "ch": 2
          },
          {
            "step": 1462,
            "len": 2,
            "note": 55,
            "vel": 89,
            "ch": 2
          },
          {
            "step": 1462,
            "len": 2,
            "note": 59,
            "vel": 89,
            "ch": 2
          },
          {
            "step": 1464,
            "len": 2,
            "note": 50,
            "vel": 89,
            "ch": 2
          },
          {
            "step": 1464,
            "len": 2,
            "note": 55,
            "vel": 89,
            "ch": 2
          },
          {
            "step": 1464,
            "len": 2,
            "note": 59,
            "vel": 89,
            "ch": 2
          },
          {
            "step": 1466,
            "len": 2,
            "note": 57,
            "vel": 89,
            "ch": 2
          },
          {
            "step": 1466,
            "len": 2,
            "note": 61,
            "vel": 89,
            "ch": 2
          },
          {
            "step": 1466,
            "len": 2,
            "note": 64,
            "vel": 89,
            "ch": 2
          },
          {
            "step": 1466,
            "len": 2,
            "note": 69,
            "vel": 89,
            "ch": 2
          },
          {
            "step": 1468,
            "len": 2,
            "note": 50,
            "vel": 89,
            "ch": 2
          },
          {
            "step": 1468,
            "len": 2,
            "note": 55,
            "vel": 89,
            "ch": 2
          },
          {
            "step": 1468,
            "len": 2,
            "note": 59,
            "vel": 89,
            "ch": 2
          },
          {
            "step": 1470,
            "len": 2,
            "note": 50,
            "vel": 89,
            "ch": 2
          },
          {
            "step": 1470,
            "len": 2,
            "note": 55,
            "vel": 89,
            "ch": 2
          },
          {
            "step": 1470,
            "len": 2,
            "note": 59,
            "vel": 89,
            "ch": 2
          },
          {
            "step": 1472,
            "len": 2,
            "note": 57,
            "vel": 89,
            "ch": 2
          },
          {
            "step": 1472,
            "len": 2,
            "note": 61,
            "vel": 89,
            "ch": 2
          },
          {
            "step": 1472,
            "len": 2,
            "note": 64,
            "vel": 89,
            "ch": 2
          },
          {
            "step": 1472,
            "len": 2,
            "note": 69,
            "vel": 89,
            "ch": 2
          },
          {
            "step": 1474,
            "len": 2,
            "note": 50,
            "vel": 89,
            "ch": 2
          },
          {
            "step": 1474,
            "len": 2,
            "note": 55,
            "vel": 89,
            "ch": 2
          },
          {
            "step": 1474,
            "len": 2,
            "note": 59,
            "vel": 89,
            "ch": 2
          },
          {
            "step": 1476,
            "len": 2,
            "note": 50,
            "vel": 89,
            "ch": 2
          },
          {
            "step": 1476,
            "len": 2,
            "note": 55,
            "vel": 89,
            "ch": 2
          },
          {
            "step": 1476,
            "len": 2,
            "note": 59,
            "vel": 89,
            "ch": 2
          },
          {
            "step": 1478,
            "len": 2,
            "note": 57,
            "vel": 89,
            "ch": 2
          },
          {
            "step": 1478,
            "len": 2,
            "note": 61,
            "vel": 89,
            "ch": 2
          },
          {
            "step": 1478,
            "len": 2,
            "note": 64,
            "vel": 89,
            "ch": 2
          },
          {
            "step": 1478,
            "len": 2,
            "note": 69,
            "vel": 89,
            "ch": 2
          },
          {
            "step": 1480,
            "len": 2,
            "note": 50,
            "vel": 89,
            "ch": 2
          },
          {
            "step": 1480,
            "len": 2,
            "note": 55,
            "vel": 89,
            "ch": 2
          },
          {
            "step": 1480,
            "len": 2,
            "note": 59,
            "vel": 89,
            "ch": 2
          },
          {
            "step": 1482,
            "len": 2,
            "note": 50,
            "vel": 89,
            "ch": 2
          },
          {
            "step": 1482,
            "len": 2,
            "note": 55,
            "vel": 89,
            "ch": 2
          },
          {
            "step": 1482,
            "len": 2,
            "note": 59,
            "vel": 89,
            "ch": 2
          },
          {
            "step": 1484,
            "len": 2,
            "note": 50,
            "vel": 89,
            "ch": 2
          },
          {
            "step": 1484,
            "len": 2,
            "note": 55,
            "vel": 89,
            "ch": 2
          },
          {
            "step": 1484,
            "len": 2,
            "note": 59,
            "vel": 89,
            "ch": 2
          },
          {
            "step": 1486,
            "len": 2,
            "note": 50,
            "vel": 89,
            "ch": 2
          },
          {
            "step": 1486,
            "len": 2,
            "note": 55,
            "vel": 89,
            "ch": 2
          },
          {
            "step": 1486,
            "len": 2,
            "note": 59,
            "vel": 89,
            "ch": 2
          },
          {
            "step": 1488,
            "len": 2,
            "note": 50,
            "vel": 89,
            "ch": 2
          },
          {
            "step": 1488,
            "len": 2,
            "note": 55,
            "vel": 89,
            "ch": 2
          },
          {
            "step": 1488,
            "len": 2,
            "note": 59,
            "vel": 89,
            "ch": 2
          },
          {
            "step": 1490,
            "len": 2,
            "note": 50,
            "vel": 89,
            "ch": 2
          },
          {
            "step": 1490,
            "len": 2,
            "note": 55,
            "vel": 89,
            "ch": 2
          },
          {
            "step": 1490,
            "len": 2,
            "note": 59,
            "vel": 89,
            "ch": 2
          },
          {
            "step": 1492,
            "len": 2,
            "note": 57,
            "vel": 89,
            "ch": 2
          },
          {
            "step": 1492,
            "len": 2,
            "note": 61,
            "vel": 89,
            "ch": 2
          },
          {
            "step": 1492,
            "len": 2,
            "note": 64,
            "vel": 89,
            "ch": 2
          },
          {
            "step": 1492,
            "len": 2,
            "note": 69,
            "vel": 89,
            "ch": 2
          },
          {
            "step": 1494,
            "len": 2,
            "note": 50,
            "vel": 89,
            "ch": 2
          },
          {
            "step": 1494,
            "len": 2,
            "note": 55,
            "vel": 89,
            "ch": 2
          },
          {
            "step": 1494,
            "len": 2,
            "note": 59,
            "vel": 89,
            "ch": 2
          },
          {
            "step": 1496,
            "len": 2,
            "note": 50,
            "vel": 89,
            "ch": 2
          },
          {
            "step": 1496,
            "len": 2,
            "note": 55,
            "vel": 89,
            "ch": 2
          },
          {
            "step": 1496,
            "len": 2,
            "note": 59,
            "vel": 89,
            "ch": 2
          },
          {
            "step": 1498,
            "len": 2,
            "note": 57,
            "vel": 89,
            "ch": 2
          },
          {
            "step": 1498,
            "len": 2,
            "note": 61,
            "vel": 89,
            "ch": 2
          },
          {
            "step": 1498,
            "len": 2,
            "note": 64,
            "vel": 89,
            "ch": 2
          },
          {
            "step": 1498,
            "len": 2,
            "note": 69,
            "vel": 89,
            "ch": 2
          },
          {
            "step": 1500,
            "len": 2,
            "note": 50,
            "vel": 89,
            "ch": 2
          },
          {
            "step": 1500,
            "len": 2,
            "note": 55,
            "vel": 89,
            "ch": 2
          },
          {
            "step": 1500,
            "len": 2,
            "note": 59,
            "vel": 89,
            "ch": 2
          },
          {
            "step": 1502,
            "len": 2,
            "note": 50,
            "vel": 89,
            "ch": 2
          },
          {
            "step": 1502,
            "len": 2,
            "note": 55,
            "vel": 89,
            "ch": 2
          },
          {
            "step": 1502,
            "len": 2,
            "note": 59,
            "vel": 89,
            "ch": 2
          },
          {
            "step": 1504,
            "len": 2,
            "note": 57,
            "vel": 89,
            "ch": 2
          },
          {
            "step": 1504,
            "len": 2,
            "note": 61,
            "vel": 89,
            "ch": 2
          },
          {
            "step": 1504,
            "len": 2,
            "note": 64,
            "vel": 89,
            "ch": 2
          },
          {
            "step": 1504,
            "len": 2,
            "note": 69,
            "vel": 89,
            "ch": 2
          },
          {
            "step": 1506,
            "len": 2,
            "note": 50,
            "vel": 89,
            "ch": 2
          },
          {
            "step": 1506,
            "len": 2,
            "note": 55,
            "vel": 89,
            "ch": 2
          },
          {
            "step": 1506,
            "len": 2,
            "note": 59,
            "vel": 89,
            "ch": 2
          },
          {
            "step": 1508,
            "len": 2,
            "note": 50,
            "vel": 89,
            "ch": 2
          },
          {
            "step": 1508,
            "len": 2,
            "note": 55,
            "vel": 89,
            "ch": 2
          },
          {
            "step": 1508,
            "len": 2,
            "note": 59,
            "vel": 89,
            "ch": 2
          },
          {
            "step": 1510,
            "len": 2,
            "note": 57,
            "vel": 89,
            "ch": 2
          },
          {
            "step": 1510,
            "len": 2,
            "note": 61,
            "vel": 89,
            "ch": 2
          },
          {
            "step": 1510,
            "len": 2,
            "note": 64,
            "vel": 89,
            "ch": 2
          },
          {
            "step": 1510,
            "len": 2,
            "note": 69,
            "vel": 89,
            "ch": 2
          },
          {
            "step": 1512,
            "len": 2,
            "note": 50,
            "vel": 89,
            "ch": 2
          },
          {
            "step": 1512,
            "len": 2,
            "note": 55,
            "vel": 89,
            "ch": 2
          },
          {
            "step": 1512,
            "len": 2,
            "note": 59,
            "vel": 89,
            "ch": 2
          },
          {
            "step": 1514,
            "len": 2,
            "note": 50,
            "vel": 89,
            "ch": 2
          },
          {
            "step": 1514,
            "len": 2,
            "note": 55,
            "vel": 89,
            "ch": 2
          },
          {
            "step": 1514,
            "len": 2,
            "note": 59,
            "vel": 89,
            "ch": 2
          },
          {
            "step": 1516,
            "len": 2,
            "note": 50,
            "vel": 89,
            "ch": 2
          },
          {
            "step": 1516,
            "len": 2,
            "note": 55,
            "vel": 89,
            "ch": 2
          },
          {
            "step": 1516,
            "len": 2,
            "note": 59,
            "vel": 89,
            "ch": 2
          },
          {
            "step": 1518,
            "len": 2,
            "note": 50,
            "vel": 89,
            "ch": 2
          },
          {
            "step": 1518,
            "len": 2,
            "note": 55,
            "vel": 89,
            "ch": 2
          },
          {
            "step": 1518,
            "len": 2,
            "note": 59,
            "vel": 89,
            "ch": 2
          },
          {
            "step": 1520,
            "len": 2,
            "note": 50,
            "vel": 89,
            "ch": 2
          },
          {
            "step": 1520,
            "len": 2,
            "note": 55,
            "vel": 89,
            "ch": 2
          },
          {
            "step": 1520,
            "len": 2,
            "note": 59,
            "vel": 89,
            "ch": 2
          },
          {
            "step": 1522,
            "len": 2,
            "note": 50,
            "vel": 89,
            "ch": 2
          },
          {
            "step": 1522,
            "len": 2,
            "note": 55,
            "vel": 89,
            "ch": 2
          },
          {
            "step": 1522,
            "len": 2,
            "note": 59,
            "vel": 89,
            "ch": 2
          },
          {
            "step": 1524,
            "len": 2,
            "note": 57,
            "vel": 89,
            "ch": 2
          },
          {
            "step": 1524,
            "len": 2,
            "note": 61,
            "vel": 89,
            "ch": 2
          },
          {
            "step": 1524,
            "len": 2,
            "note": 64,
            "vel": 89,
            "ch": 2
          },
          {
            "step": 1524,
            "len": 2,
            "note": 69,
            "vel": 89,
            "ch": 2
          },
          {
            "step": 1526,
            "len": 2,
            "note": 50,
            "vel": 89,
            "ch": 2
          },
          {
            "step": 1526,
            "len": 2,
            "note": 55,
            "vel": 89,
            "ch": 2
          },
          {
            "step": 1526,
            "len": 2,
            "note": 59,
            "vel": 89,
            "ch": 2
          },
          {
            "step": 1528,
            "len": 2,
            "note": 50,
            "vel": 89,
            "ch": 2
          },
          {
            "step": 1528,
            "len": 2,
            "note": 55,
            "vel": 89,
            "ch": 2
          },
          {
            "step": 1528,
            "len": 2,
            "note": 59,
            "vel": 89,
            "ch": 2
          },
          {
            "step": 1530,
            "len": 2,
            "note": 57,
            "vel": 89,
            "ch": 2
          },
          {
            "step": 1530,
            "len": 2,
            "note": 61,
            "vel": 89,
            "ch": 2
          },
          {
            "step": 1530,
            "len": 2,
            "note": 64,
            "vel": 89,
            "ch": 2
          },
          {
            "step": 1530,
            "len": 2,
            "note": 69,
            "vel": 89,
            "ch": 2
          },
          {
            "step": 1532,
            "len": 2,
            "note": 50,
            "vel": 89,
            "ch": 2
          },
          {
            "step": 1532,
            "len": 2,
            "note": 55,
            "vel": 89,
            "ch": 2
          },
          {
            "step": 1532,
            "len": 2,
            "note": 59,
            "vel": 89,
            "ch": 2
          },
          {
            "step": 1534,
            "len": 2,
            "note": 50,
            "vel": 89,
            "ch": 2
          },
          {
            "step": 1534,
            "len": 2,
            "note": 55,
            "vel": 89,
            "ch": 2
          },
          {
            "step": 1534,
            "len": 2,
            "note": 59,
            "vel": 89,
            "ch": 2
          },
          {
            "step": 1536,
            "len": 2,
            "note": 57,
            "vel": 89,
            "ch": 2
          },
          {
            "step": 1536,
            "len": 2,
            "note": 61,
            "vel": 89,
            "ch": 2
          },
          {
            "step": 1536,
            "len": 2,
            "note": 64,
            "vel": 89,
            "ch": 2
          },
          {
            "step": 1536,
            "len": 2,
            "note": 69,
            "vel": 89,
            "ch": 2
          },
          {
            "step": 1538,
            "len": 2,
            "note": 50,
            "vel": 89,
            "ch": 2
          },
          {
            "step": 1538,
            "len": 2,
            "note": 55,
            "vel": 89,
            "ch": 2
          },
          {
            "step": 1538,
            "len": 2,
            "note": 59,
            "vel": 89,
            "ch": 2
          },
          {
            "step": 1540,
            "len": 2,
            "note": 50,
            "vel": 89,
            "ch": 2
          },
          {
            "step": 1540,
            "len": 2,
            "note": 55,
            "vel": 89,
            "ch": 2
          },
          {
            "step": 1540,
            "len": 2,
            "note": 59,
            "vel": 89,
            "ch": 2
          },
          {
            "step": 1542,
            "len": 2,
            "note": 57,
            "vel": 89,
            "ch": 2
          },
          {
            "step": 1542,
            "len": 2,
            "note": 61,
            "vel": 89,
            "ch": 2
          },
          {
            "step": 1542,
            "len": 2,
            "note": 64,
            "vel": 89,
            "ch": 2
          },
          {
            "step": 1542,
            "len": 2,
            "note": 69,
            "vel": 89,
            "ch": 2
          },
          {
            "step": 1544,
            "len": 2,
            "note": 50,
            "vel": 89,
            "ch": 2
          },
          {
            "step": 1544,
            "len": 2,
            "note": 55,
            "vel": 89,
            "ch": 2
          },
          {
            "step": 1544,
            "len": 2,
            "note": 59,
            "vel": 89,
            "ch": 2
          },
          {
            "step": 1546,
            "len": 2,
            "note": 50,
            "vel": 89,
            "ch": 2
          },
          {
            "step": 1546,
            "len": 2,
            "note": 55,
            "vel": 89,
            "ch": 2
          },
          {
            "step": 1546,
            "len": 2,
            "note": 59,
            "vel": 89,
            "ch": 2
          },
          {
            "step": 1548,
            "len": 2,
            "note": 50,
            "vel": 89,
            "ch": 2
          },
          {
            "step": 1548,
            "len": 2,
            "note": 55,
            "vel": 89,
            "ch": 2
          },
          {
            "step": 1548,
            "len": 2,
            "note": 59,
            "vel": 89,
            "ch": 2
          },
          {
            "step": 1550,
            "len": 2,
            "note": 50,
            "vel": 89,
            "ch": 2
          },
          {
            "step": 1550,
            "len": 2,
            "note": 55,
            "vel": 89,
            "ch": 2
          },
          {
            "step": 1550,
            "len": 2,
            "note": 59,
            "vel": 89,
            "ch": 2
          },
          {
            "step": 1552,
            "len": 2,
            "note": 50,
            "vel": 89,
            "ch": 2
          },
          {
            "step": 1552,
            "len": 2,
            "note": 55,
            "vel": 89,
            "ch": 2
          },
          {
            "step": 1552,
            "len": 2,
            "note": 59,
            "vel": 89,
            "ch": 2
          },
          {
            "step": 1554,
            "len": 2,
            "note": 50,
            "vel": 89,
            "ch": 2
          },
          {
            "step": 1554,
            "len": 2,
            "note": 55,
            "vel": 89,
            "ch": 2
          },
          {
            "step": 1554,
            "len": 2,
            "note": 59,
            "vel": 89,
            "ch": 2
          },
          {
            "step": 1556,
            "len": 2,
            "note": 57,
            "vel": 89,
            "ch": 2
          },
          {
            "step": 1556,
            "len": 2,
            "note": 61,
            "vel": 89,
            "ch": 2
          },
          {
            "step": 1556,
            "len": 2,
            "note": 64,
            "vel": 89,
            "ch": 2
          },
          {
            "step": 1556,
            "len": 2,
            "note": 69,
            "vel": 89,
            "ch": 2
          },
          {
            "step": 1558,
            "len": 2,
            "note": 50,
            "vel": 89,
            "ch": 2
          },
          {
            "step": 1558,
            "len": 2,
            "note": 55,
            "vel": 89,
            "ch": 2
          },
          {
            "step": 1558,
            "len": 2,
            "note": 59,
            "vel": 89,
            "ch": 2
          },
          {
            "step": 1560,
            "len": 2,
            "note": 50,
            "vel": 89,
            "ch": 2
          },
          {
            "step": 1560,
            "len": 2,
            "note": 55,
            "vel": 89,
            "ch": 2
          },
          {
            "step": 1560,
            "len": 2,
            "note": 59,
            "vel": 89,
            "ch": 2
          },
          {
            "step": 1562,
            "len": 2,
            "note": 57,
            "vel": 89,
            "ch": 2
          },
          {
            "step": 1562,
            "len": 2,
            "note": 61,
            "vel": 89,
            "ch": 2
          },
          {
            "step": 1562,
            "len": 2,
            "note": 64,
            "vel": 89,
            "ch": 2
          },
          {
            "step": 1562,
            "len": 2,
            "note": 69,
            "vel": 89,
            "ch": 2
          },
          {
            "step": 1564,
            "len": 2,
            "note": 50,
            "vel": 89,
            "ch": 2
          },
          {
            "step": 1564,
            "len": 2,
            "note": 55,
            "vel": 89,
            "ch": 2
          },
          {
            "step": 1564,
            "len": 2,
            "note": 59,
            "vel": 89,
            "ch": 2
          },
          {
            "step": 1566,
            "len": 2,
            "note": 50,
            "vel": 89,
            "ch": 2
          },
          {
            "step": 1566,
            "len": 2,
            "note": 55,
            "vel": 89,
            "ch": 2
          },
          {
            "step": 1566,
            "len": 2,
            "note": 59,
            "vel": 89,
            "ch": 2
          },
          {
            "step": 1568,
            "len": 2,
            "note": 57,
            "vel": 89,
            "ch": 2
          },
          {
            "step": 1568,
            "len": 2,
            "note": 61,
            "vel": 89,
            "ch": 2
          },
          {
            "step": 1568,
            "len": 2,
            "note": 64,
            "vel": 89,
            "ch": 2
          },
          {
            "step": 1568,
            "len": 2,
            "note": 69,
            "vel": 89,
            "ch": 2
          },
          {
            "step": 1570,
            "len": 2,
            "note": 50,
            "vel": 89,
            "ch": 2
          },
          {
            "step": 1570,
            "len": 2,
            "note": 55,
            "vel": 89,
            "ch": 2
          },
          {
            "step": 1570,
            "len": 2,
            "note": 59,
            "vel": 89,
            "ch": 2
          },
          {
            "step": 1572,
            "len": 2,
            "note": 50,
            "vel": 89,
            "ch": 2
          },
          {
            "step": 1572,
            "len": 2,
            "note": 55,
            "vel": 89,
            "ch": 2
          },
          {
            "step": 1572,
            "len": 2,
            "note": 59,
            "vel": 89,
            "ch": 2
          },
          {
            "step": 1574,
            "len": 2,
            "note": 57,
            "vel": 89,
            "ch": 2
          },
          {
            "step": 1574,
            "len": 2,
            "note": 61,
            "vel": 89,
            "ch": 2
          },
          {
            "step": 1574,
            "len": 2,
            "note": 64,
            "vel": 89,
            "ch": 2
          },
          {
            "step": 1574,
            "len": 2,
            "note": 69,
            "vel": 89,
            "ch": 2
          },
          {
            "step": 1576,
            "len": 2,
            "note": 50,
            "vel": 89,
            "ch": 2
          },
          {
            "step": 1576,
            "len": 2,
            "note": 55,
            "vel": 89,
            "ch": 2
          },
          {
            "step": 1576,
            "len": 2,
            "note": 59,
            "vel": 89,
            "ch": 2
          },
          {
            "step": 1578,
            "len": 2,
            "note": 50,
            "vel": 89,
            "ch": 2
          },
          {
            "step": 1578,
            "len": 2,
            "note": 55,
            "vel": 89,
            "ch": 2
          },
          {
            "step": 1578,
            "len": 2,
            "note": 59,
            "vel": 89,
            "ch": 2
          },
          {
            "step": 1580,
            "len": 2,
            "note": 50,
            "vel": 89,
            "ch": 2
          },
          {
            "step": 1580,
            "len": 2,
            "note": 55,
            "vel": 89,
            "ch": 2
          },
          {
            "step": 1580,
            "len": 2,
            "note": 59,
            "vel": 89,
            "ch": 2
          },
          {
            "step": 1582,
            "len": 2,
            "note": 50,
            "vel": 89,
            "ch": 2
          },
          {
            "step": 1582,
            "len": 2,
            "note": 55,
            "vel": 89,
            "ch": 2
          },
          {
            "step": 1582,
            "len": 2,
            "note": 59,
            "vel": 89,
            "ch": 2
          },
          {
            "step": 1584,
            "len": 2,
            "note": 50,
            "vel": 89,
            "ch": 2
          },
          {
            "step": 1584,
            "len": 2,
            "note": 55,
            "vel": 89,
            "ch": 2
          },
          {
            "step": 1584,
            "len": 2,
            "note": 59,
            "vel": 89,
            "ch": 2
          },
          {
            "step": 1586,
            "len": 2,
            "note": 50,
            "vel": 89,
            "ch": 2
          },
          {
            "step": 1586,
            "len": 2,
            "note": 55,
            "vel": 89,
            "ch": 2
          },
          {
            "step": 1586,
            "len": 2,
            "note": 59,
            "vel": 89,
            "ch": 2
          },
          {
            "step": 1588,
            "len": 2,
            "note": 57,
            "vel": 89,
            "ch": 2
          },
          {
            "step": 1588,
            "len": 2,
            "note": 61,
            "vel": 89,
            "ch": 2
          },
          {
            "step": 1588,
            "len": 2,
            "note": 64,
            "vel": 89,
            "ch": 2
          },
          {
            "step": 1588,
            "len": 2,
            "note": 69,
            "vel": 89,
            "ch": 2
          },
          {
            "step": 1590,
            "len": 2,
            "note": 50,
            "vel": 89,
            "ch": 2
          },
          {
            "step": 1590,
            "len": 2,
            "note": 55,
            "vel": 89,
            "ch": 2
          },
          {
            "step": 1590,
            "len": 2,
            "note": 59,
            "vel": 89,
            "ch": 2
          },
          {
            "step": 1592,
            "len": 2,
            "note": 50,
            "vel": 89,
            "ch": 2
          },
          {
            "step": 1592,
            "len": 2,
            "note": 55,
            "vel": 89,
            "ch": 2
          },
          {
            "step": 1592,
            "len": 2,
            "note": 59,
            "vel": 89,
            "ch": 2
          },
          {
            "step": 1594,
            "len": 2,
            "note": 57,
            "vel": 89,
            "ch": 2
          },
          {
            "step": 1594,
            "len": 2,
            "note": 61,
            "vel": 89,
            "ch": 2
          },
          {
            "step": 1594,
            "len": 2,
            "note": 64,
            "vel": 89,
            "ch": 2
          },
          {
            "step": 1594,
            "len": 2,
            "note": 69,
            "vel": 89,
            "ch": 2
          },
          {
            "step": 1596,
            "len": 2,
            "note": 50,
            "vel": 89,
            "ch": 2
          },
          {
            "step": 1596,
            "len": 2,
            "note": 55,
            "vel": 89,
            "ch": 2
          },
          {
            "step": 1596,
            "len": 2,
            "note": 59,
            "vel": 89,
            "ch": 2
          },
          {
            "step": 1598,
            "len": 2,
            "note": 50,
            "vel": 89,
            "ch": 2
          },
          {
            "step": 1598,
            "len": 2,
            "note": 55,
            "vel": 89,
            "ch": 2
          },
          {
            "step": 1598,
            "len": 2,
            "note": 59,
            "vel": 89,
            "ch": 2
          },
          {
            "step": 1600,
            "len": 2,
            "note": 57,
            "vel": 89,
            "ch": 2
          },
          {
            "step": 1600,
            "len": 2,
            "note": 61,
            "vel": 89,
            "ch": 2
          },
          {
            "step": 1600,
            "len": 2,
            "note": 64,
            "vel": 89,
            "ch": 2
          },
          {
            "step": 1600,
            "len": 2,
            "note": 69,
            "vel": 89,
            "ch": 2
          },
          {
            "step": 1602,
            "len": 2,
            "note": 50,
            "vel": 89,
            "ch": 2
          },
          {
            "step": 1602,
            "len": 2,
            "note": 55,
            "vel": 89,
            "ch": 2
          },
          {
            "step": 1602,
            "len": 2,
            "note": 59,
            "vel": 89,
            "ch": 2
          },
          {
            "step": 1604,
            "len": 2,
            "note": 50,
            "vel": 89,
            "ch": 2
          },
          {
            "step": 1604,
            "len": 2,
            "note": 55,
            "vel": 89,
            "ch": 2
          },
          {
            "step": 1604,
            "len": 2,
            "note": 59,
            "vel": 89,
            "ch": 2
          },
          {
            "step": 1606,
            "len": 2,
            "note": 57,
            "vel": 89,
            "ch": 2
          },
          {
            "step": 1606,
            "len": 2,
            "note": 61,
            "vel": 89,
            "ch": 2
          },
          {
            "step": 1606,
            "len": 2,
            "note": 64,
            "vel": 89,
            "ch": 2
          },
          {
            "step": 1606,
            "len": 2,
            "note": 69,
            "vel": 89,
            "ch": 2
          },
          {
            "step": 1608,
            "len": 2,
            "note": 50,
            "vel": 89,
            "ch": 2
          },
          {
            "step": 1608,
            "len": 2,
            "note": 55,
            "vel": 89,
            "ch": 2
          },
          {
            "step": 1608,
            "len": 2,
            "note": 59,
            "vel": 89,
            "ch": 2
          },
          {
            "step": 1610,
            "len": 2,
            "note": 50,
            "vel": 89,
            "ch": 2
          },
          {
            "step": 1610,
            "len": 2,
            "note": 55,
            "vel": 89,
            "ch": 2
          },
          {
            "step": 1610,
            "len": 2,
            "note": 59,
            "vel": 89,
            "ch": 2
          },
          {
            "step": 1612,
            "len": 2,
            "note": 50,
            "vel": 89,
            "ch": 2
          },
          {
            "step": 1612,
            "len": 2,
            "note": 55,
            "vel": 89,
            "ch": 2
          },
          {
            "step": 1612,
            "len": 2,
            "note": 59,
            "vel": 89,
            "ch": 2
          },
          {
            "step": 1614,
            "len": 2,
            "note": 50,
            "vel": 89,
            "ch": 2
          },
          {
            "step": 1614,
            "len": 2,
            "note": 55,
            "vel": 89,
            "ch": 2
          },
          {
            "step": 1614,
            "len": 2,
            "note": 59,
            "vel": 89,
            "ch": 2
          },
          {
            "step": 1616,
            "len": 2,
            "note": 50,
            "vel": 89,
            "ch": 2
          },
          {
            "step": 1616,
            "len": 2,
            "note": 55,
            "vel": 89,
            "ch": 2
          },
          {
            "step": 1616,
            "len": 2,
            "note": 59,
            "vel": 89,
            "ch": 2
          },
          {
            "step": 1618,
            "len": 2,
            "note": 50,
            "vel": 89,
            "ch": 2
          },
          {
            "step": 1618,
            "len": 2,
            "note": 55,
            "vel": 89,
            "ch": 2
          },
          {
            "step": 1618,
            "len": 2,
            "note": 59,
            "vel": 89,
            "ch": 2
          },
          {
            "step": 1620,
            "len": 2,
            "note": 55,
            "vel": 89,
            "ch": 2
          },
          {
            "step": 1620,
            "len": 2,
            "note": 59,
            "vel": 89,
            "ch": 2
          },
          {
            "step": 1620,
            "len": 2,
            "note": 62,
            "vel": 89,
            "ch": 2
          },
          {
            "step": 1620,
            "len": 2,
            "note": 67,
            "vel": 89,
            "ch": 2
          },
          {
            "step": 1622,
            "len": 2,
            "note": 50,
            "vel": 89,
            "ch": 2
          },
          {
            "step": 1622,
            "len": 2,
            "note": 55,
            "vel": 89,
            "ch": 2
          },
          {
            "step": 1622,
            "len": 2,
            "note": 59,
            "vel": 89,
            "ch": 2
          },
          {
            "step": 1624,
            "len": 2,
            "note": 50,
            "vel": 89,
            "ch": 2
          },
          {
            "step": 1624,
            "len": 2,
            "note": 55,
            "vel": 89,
            "ch": 2
          },
          {
            "step": 1624,
            "len": 2,
            "note": 59,
            "vel": 89,
            "ch": 2
          },
          {
            "step": 1626,
            "len": 2,
            "note": 55,
            "vel": 89,
            "ch": 2
          },
          {
            "step": 1626,
            "len": 2,
            "note": 59,
            "vel": 89,
            "ch": 2
          },
          {
            "step": 1626,
            "len": 2,
            "note": 62,
            "vel": 89,
            "ch": 2
          },
          {
            "step": 1626,
            "len": 2,
            "note": 67,
            "vel": 89,
            "ch": 2
          },
          {
            "step": 1628,
            "len": 2,
            "note": 50,
            "vel": 89,
            "ch": 2
          },
          {
            "step": 1628,
            "len": 2,
            "note": 55,
            "vel": 89,
            "ch": 2
          },
          {
            "step": 1628,
            "len": 2,
            "note": 59,
            "vel": 89,
            "ch": 2
          },
          {
            "step": 1630,
            "len": 2,
            "note": 50,
            "vel": 89,
            "ch": 2
          },
          {
            "step": 1630,
            "len": 2,
            "note": 55,
            "vel": 89,
            "ch": 2
          },
          {
            "step": 1630,
            "len": 2,
            "note": 59,
            "vel": 89,
            "ch": 2
          },
          {
            "step": 1632,
            "len": 2,
            "note": 55,
            "vel": 89,
            "ch": 2
          },
          {
            "step": 1632,
            "len": 2,
            "note": 59,
            "vel": 89,
            "ch": 2
          },
          {
            "step": 1632,
            "len": 2,
            "note": 62,
            "vel": 89,
            "ch": 2
          },
          {
            "step": 1632,
            "len": 2,
            "note": 67,
            "vel": 89,
            "ch": 2
          },
          {
            "step": 1634,
            "len": 2,
            "note": 50,
            "vel": 89,
            "ch": 2
          },
          {
            "step": 1634,
            "len": 2,
            "note": 55,
            "vel": 89,
            "ch": 2
          },
          {
            "step": 1634,
            "len": 2,
            "note": 59,
            "vel": 89,
            "ch": 2
          },
          {
            "step": 1636,
            "len": 2,
            "note": 50,
            "vel": 89,
            "ch": 2
          },
          {
            "step": 1636,
            "len": 2,
            "note": 55,
            "vel": 89,
            "ch": 2
          },
          {
            "step": 1636,
            "len": 2,
            "note": 59,
            "vel": 89,
            "ch": 2
          },
          {
            "step": 1638,
            "len": 2,
            "note": 55,
            "vel": 89,
            "ch": 2
          },
          {
            "step": 1638,
            "len": 2,
            "note": 59,
            "vel": 89,
            "ch": 2
          },
          {
            "step": 1638,
            "len": 2,
            "note": 62,
            "vel": 89,
            "ch": 2
          },
          {
            "step": 1638,
            "len": 2,
            "note": 67,
            "vel": 89,
            "ch": 2
          },
          {
            "step": 1640,
            "len": 2,
            "note": 50,
            "vel": 89,
            "ch": 2
          },
          {
            "step": 1640,
            "len": 2,
            "note": 55,
            "vel": 89,
            "ch": 2
          },
          {
            "step": 1640,
            "len": 2,
            "note": 59,
            "vel": 89,
            "ch": 2
          },
          {
            "step": 1642,
            "len": 2,
            "note": 50,
            "vel": 89,
            "ch": 2
          },
          {
            "step": 1642,
            "len": 2,
            "note": 55,
            "vel": 89,
            "ch": 2
          },
          {
            "step": 1642,
            "len": 2,
            "note": 59,
            "vel": 89,
            "ch": 2
          },
          {
            "step": 1644,
            "len": 2,
            "note": 50,
            "vel": 89,
            "ch": 2
          },
          {
            "step": 1644,
            "len": 2,
            "note": 55,
            "vel": 89,
            "ch": 2
          },
          {
            "step": 1644,
            "len": 2,
            "note": 59,
            "vel": 89,
            "ch": 2
          },
          {
            "step": 1646,
            "len": 2,
            "note": 50,
            "vel": 89,
            "ch": 2
          },
          {
            "step": 1646,
            "len": 2,
            "note": 55,
            "vel": 89,
            "ch": 2
          },
          {
            "step": 1646,
            "len": 2,
            "note": 59,
            "vel": 89,
            "ch": 2
          },
          {
            "step": 1648,
            "len": 2,
            "note": 50,
            "vel": 89,
            "ch": 2
          },
          {
            "step": 1648,
            "len": 2,
            "note": 55,
            "vel": 89,
            "ch": 2
          },
          {
            "step": 1648,
            "len": 2,
            "note": 59,
            "vel": 89,
            "ch": 2
          },
          {
            "step": 1650,
            "len": 2,
            "note": 50,
            "vel": 89,
            "ch": 2
          },
          {
            "step": 1650,
            "len": 2,
            "note": 55,
            "vel": 89,
            "ch": 2
          },
          {
            "step": 1650,
            "len": 2,
            "note": 59,
            "vel": 89,
            "ch": 2
          },
          {
            "step": 1652,
            "len": 2,
            "note": 57,
            "vel": 89,
            "ch": 2
          },
          {
            "step": 1652,
            "len": 2,
            "note": 61,
            "vel": 89,
            "ch": 2
          },
          {
            "step": 1652,
            "len": 2,
            "note": 64,
            "vel": 89,
            "ch": 2
          },
          {
            "step": 1652,
            "len": 2,
            "note": 69,
            "vel": 89,
            "ch": 2
          },
          {
            "step": 1654,
            "len": 2,
            "note": 50,
            "vel": 89,
            "ch": 2
          },
          {
            "step": 1654,
            "len": 2,
            "note": 55,
            "vel": 89,
            "ch": 2
          },
          {
            "step": 1654,
            "len": 2,
            "note": 59,
            "vel": 89,
            "ch": 2
          },
          {
            "step": 1656,
            "len": 2,
            "note": 50,
            "vel": 89,
            "ch": 2
          },
          {
            "step": 1656,
            "len": 2,
            "note": 55,
            "vel": 89,
            "ch": 2
          },
          {
            "step": 1656,
            "len": 2,
            "note": 59,
            "vel": 89,
            "ch": 2
          },
          {
            "step": 1658,
            "len": 2,
            "note": 57,
            "vel": 89,
            "ch": 2
          },
          {
            "step": 1658,
            "len": 2,
            "note": 61,
            "vel": 89,
            "ch": 2
          },
          {
            "step": 1658,
            "len": 2,
            "note": 64,
            "vel": 89,
            "ch": 2
          },
          {
            "step": 1658,
            "len": 2,
            "note": 69,
            "vel": 89,
            "ch": 2
          },
          {
            "step": 1660,
            "len": 2,
            "note": 50,
            "vel": 89,
            "ch": 2
          },
          {
            "step": 1660,
            "len": 2,
            "note": 55,
            "vel": 89,
            "ch": 2
          },
          {
            "step": 1660,
            "len": 2,
            "note": 59,
            "vel": 89,
            "ch": 2
          },
          {
            "step": 1662,
            "len": 2,
            "note": 50,
            "vel": 89,
            "ch": 2
          },
          {
            "step": 1662,
            "len": 2,
            "note": 55,
            "vel": 89,
            "ch": 2
          },
          {
            "step": 1662,
            "len": 2,
            "note": 59,
            "vel": 89,
            "ch": 2
          },
          {
            "step": 1664,
            "len": 2,
            "note": 57,
            "vel": 89,
            "ch": 2
          },
          {
            "step": 1664,
            "len": 2,
            "note": 61,
            "vel": 89,
            "ch": 2
          },
          {
            "step": 1664,
            "len": 2,
            "note": 64,
            "vel": 89,
            "ch": 2
          },
          {
            "step": 1664,
            "len": 2,
            "note": 69,
            "vel": 89,
            "ch": 2
          },
          {
            "step": 1666,
            "len": 2,
            "note": 50,
            "vel": 89,
            "ch": 2
          },
          {
            "step": 1666,
            "len": 2,
            "note": 55,
            "vel": 89,
            "ch": 2
          },
          {
            "step": 1666,
            "len": 2,
            "note": 59,
            "vel": 89,
            "ch": 2
          },
          {
            "step": 1668,
            "len": 2,
            "note": 50,
            "vel": 89,
            "ch": 2
          },
          {
            "step": 1668,
            "len": 2,
            "note": 55,
            "vel": 89,
            "ch": 2
          },
          {
            "step": 1668,
            "len": 2,
            "note": 59,
            "vel": 89,
            "ch": 2
          },
          {
            "step": 1670,
            "len": 2,
            "note": 57,
            "vel": 89,
            "ch": 2
          },
          {
            "step": 1670,
            "len": 2,
            "note": 61,
            "vel": 89,
            "ch": 2
          },
          {
            "step": 1670,
            "len": 2,
            "note": 64,
            "vel": 89,
            "ch": 2
          },
          {
            "step": 1670,
            "len": 2,
            "note": 69,
            "vel": 89,
            "ch": 2
          },
          {
            "step": 1672,
            "len": 2,
            "note": 50,
            "vel": 89,
            "ch": 2
          },
          {
            "step": 1672,
            "len": 2,
            "note": 55,
            "vel": 89,
            "ch": 2
          },
          {
            "step": 1672,
            "len": 2,
            "note": 59,
            "vel": 89,
            "ch": 2
          },
          {
            "step": 1674,
            "len": 2,
            "note": 50,
            "vel": 89,
            "ch": 2
          },
          {
            "step": 1674,
            "len": 2,
            "note": 55,
            "vel": 89,
            "ch": 2
          },
          {
            "step": 1674,
            "len": 2,
            "note": 59,
            "vel": 89,
            "ch": 2
          },
          {
            "step": 1676,
            "len": 2,
            "note": 50,
            "vel": 89,
            "ch": 2
          },
          {
            "step": 1676,
            "len": 2,
            "note": 55,
            "vel": 89,
            "ch": 2
          },
          {
            "step": 1676,
            "len": 2,
            "note": 59,
            "vel": 89,
            "ch": 2
          },
          {
            "step": 1678,
            "len": 2,
            "note": 50,
            "vel": 89,
            "ch": 2
          },
          {
            "step": 1678,
            "len": 2,
            "note": 55,
            "vel": 89,
            "ch": 2
          },
          {
            "step": 1678,
            "len": 2,
            "note": 59,
            "vel": 89,
            "ch": 2
          },
          {
            "step": 1680,
            "len": 2,
            "note": 50,
            "vel": 89,
            "ch": 2
          },
          {
            "step": 1680,
            "len": 2,
            "note": 55,
            "vel": 89,
            "ch": 2
          },
          {
            "step": 1680,
            "len": 2,
            "note": 59,
            "vel": 89,
            "ch": 2
          },
          {
            "step": 1682,
            "len": 2,
            "note": 50,
            "vel": 89,
            "ch": 2
          },
          {
            "step": 1682,
            "len": 2,
            "note": 55,
            "vel": 89,
            "ch": 2
          },
          {
            "step": 1682,
            "len": 2,
            "note": 59,
            "vel": 89,
            "ch": 2
          },
          {
            "step": 1684,
            "len": 2,
            "note": 55,
            "vel": 89,
            "ch": 2
          },
          {
            "step": 1684,
            "len": 2,
            "note": 59,
            "vel": 89,
            "ch": 2
          },
          {
            "step": 1684,
            "len": 2,
            "note": 62,
            "vel": 89,
            "ch": 2
          },
          {
            "step": 1684,
            "len": 2,
            "note": 67,
            "vel": 89,
            "ch": 2
          },
          {
            "step": 1686,
            "len": 2,
            "note": 50,
            "vel": 89,
            "ch": 2
          },
          {
            "step": 1686,
            "len": 2,
            "note": 55,
            "vel": 89,
            "ch": 2
          },
          {
            "step": 1686,
            "len": 2,
            "note": 59,
            "vel": 89,
            "ch": 2
          },
          {
            "step": 1688,
            "len": 2,
            "note": 50,
            "vel": 89,
            "ch": 2
          },
          {
            "step": 1688,
            "len": 2,
            "note": 55,
            "vel": 89,
            "ch": 2
          },
          {
            "step": 1688,
            "len": 2,
            "note": 59,
            "vel": 89,
            "ch": 2
          },
          {
            "step": 1690,
            "len": 2,
            "note": 55,
            "vel": 89,
            "ch": 2
          },
          {
            "step": 1690,
            "len": 2,
            "note": 59,
            "vel": 89,
            "ch": 2
          },
          {
            "step": 1690,
            "len": 2,
            "note": 62,
            "vel": 89,
            "ch": 2
          },
          {
            "step": 1690,
            "len": 2,
            "note": 67,
            "vel": 89,
            "ch": 2
          },
          {
            "step": 1692,
            "len": 2,
            "note": 50,
            "vel": 89,
            "ch": 2
          },
          {
            "step": 1692,
            "len": 2,
            "note": 55,
            "vel": 89,
            "ch": 2
          },
          {
            "step": 1692,
            "len": 2,
            "note": 59,
            "vel": 89,
            "ch": 2
          },
          {
            "step": 1694,
            "len": 2,
            "note": 50,
            "vel": 89,
            "ch": 2
          },
          {
            "step": 1694,
            "len": 2,
            "note": 55,
            "vel": 89,
            "ch": 2
          },
          {
            "step": 1694,
            "len": 2,
            "note": 59,
            "vel": 89,
            "ch": 2
          },
          {
            "step": 1696,
            "len": 2,
            "note": 55,
            "vel": 89,
            "ch": 2
          },
          {
            "step": 1696,
            "len": 2,
            "note": 59,
            "vel": 89,
            "ch": 2
          },
          {
            "step": 1696,
            "len": 2,
            "note": 62,
            "vel": 89,
            "ch": 2
          },
          {
            "step": 1696,
            "len": 2,
            "note": 67,
            "vel": 89,
            "ch": 2
          },
          {
            "step": 1698,
            "len": 2,
            "note": 50,
            "vel": 89,
            "ch": 2
          },
          {
            "step": 1698,
            "len": 2,
            "note": 55,
            "vel": 89,
            "ch": 2
          },
          {
            "step": 1698,
            "len": 2,
            "note": 59,
            "vel": 89,
            "ch": 2
          },
          {
            "step": 1700,
            "len": 2,
            "note": 50,
            "vel": 89,
            "ch": 2
          },
          {
            "step": 1700,
            "len": 2,
            "note": 55,
            "vel": 89,
            "ch": 2
          },
          {
            "step": 1700,
            "len": 2,
            "note": 59,
            "vel": 89,
            "ch": 2
          },
          {
            "step": 1702,
            "len": 2,
            "note": 55,
            "vel": 89,
            "ch": 2
          },
          {
            "step": 1702,
            "len": 2,
            "note": 59,
            "vel": 89,
            "ch": 2
          },
          {
            "step": 1702,
            "len": 2,
            "note": 62,
            "vel": 89,
            "ch": 2
          },
          {
            "step": 1702,
            "len": 2,
            "note": 67,
            "vel": 89,
            "ch": 2
          },
          {
            "step": 1704,
            "len": 2,
            "note": 50,
            "vel": 89,
            "ch": 2
          },
          {
            "step": 1704,
            "len": 2,
            "note": 55,
            "vel": 89,
            "ch": 2
          },
          {
            "step": 1704,
            "len": 2,
            "note": 59,
            "vel": 89,
            "ch": 2
          },
          {
            "step": 1706,
            "len": 2,
            "note": 50,
            "vel": 89,
            "ch": 2
          },
          {
            "step": 1706,
            "len": 2,
            "note": 55,
            "vel": 89,
            "ch": 2
          },
          {
            "step": 1706,
            "len": 2,
            "note": 59,
            "vel": 89,
            "ch": 2
          },
          {
            "step": 1708,
            "len": 2,
            "note": 50,
            "vel": 89,
            "ch": 2
          },
          {
            "step": 1708,
            "len": 2,
            "note": 55,
            "vel": 89,
            "ch": 2
          },
          {
            "step": 1708,
            "len": 2,
            "note": 59,
            "vel": 89,
            "ch": 2
          },
          {
            "step": 1710,
            "len": 2,
            "note": 50,
            "vel": 89,
            "ch": 2
          },
          {
            "step": 1710,
            "len": 2,
            "note": 55,
            "vel": 89,
            "ch": 2
          },
          {
            "step": 1710,
            "len": 2,
            "note": 59,
            "vel": 89,
            "ch": 2
          },
          {
            "step": 1712,
            "len": 2,
            "note": 50,
            "vel": 89,
            "ch": 2
          },
          {
            "step": 1712,
            "len": 2,
            "note": 55,
            "vel": 89,
            "ch": 2
          },
          {
            "step": 1712,
            "len": 2,
            "note": 59,
            "vel": 89,
            "ch": 2
          },
          {
            "step": 1714,
            "len": 2,
            "note": 50,
            "vel": 89,
            "ch": 2
          },
          {
            "step": 1714,
            "len": 2,
            "note": 55,
            "vel": 89,
            "ch": 2
          },
          {
            "step": 1714,
            "len": 2,
            "note": 59,
            "vel": 89,
            "ch": 2
          },
          {
            "step": 1716,
            "len": 2,
            "note": 57,
            "vel": 89,
            "ch": 2
          },
          {
            "step": 1716,
            "len": 2,
            "note": 61,
            "vel": 89,
            "ch": 2
          },
          {
            "step": 1716,
            "len": 2,
            "note": 64,
            "vel": 89,
            "ch": 2
          },
          {
            "step": 1716,
            "len": 2,
            "note": 69,
            "vel": 89,
            "ch": 2
          },
          {
            "step": 1718,
            "len": 2,
            "note": 50,
            "vel": 89,
            "ch": 2
          },
          {
            "step": 1718,
            "len": 2,
            "note": 55,
            "vel": 89,
            "ch": 2
          },
          {
            "step": 1718,
            "len": 2,
            "note": 59,
            "vel": 89,
            "ch": 2
          },
          {
            "step": 1720,
            "len": 2,
            "note": 50,
            "vel": 89,
            "ch": 2
          },
          {
            "step": 1720,
            "len": 2,
            "note": 55,
            "vel": 89,
            "ch": 2
          },
          {
            "step": 1720,
            "len": 2,
            "note": 59,
            "vel": 89,
            "ch": 2
          },
          {
            "step": 1722,
            "len": 2,
            "note": 57,
            "vel": 89,
            "ch": 2
          },
          {
            "step": 1722,
            "len": 2,
            "note": 61,
            "vel": 89,
            "ch": 2
          },
          {
            "step": 1722,
            "len": 2,
            "note": 64,
            "vel": 89,
            "ch": 2
          },
          {
            "step": 1722,
            "len": 2,
            "note": 69,
            "vel": 89,
            "ch": 2
          },
          {
            "step": 1724,
            "len": 2,
            "note": 50,
            "vel": 89,
            "ch": 2
          },
          {
            "step": 1724,
            "len": 2,
            "note": 55,
            "vel": 89,
            "ch": 2
          },
          {
            "step": 1724,
            "len": 2,
            "note": 59,
            "vel": 89,
            "ch": 2
          },
          {
            "step": 1726,
            "len": 2,
            "note": 50,
            "vel": 89,
            "ch": 2
          },
          {
            "step": 1726,
            "len": 2,
            "note": 55,
            "vel": 89,
            "ch": 2
          },
          {
            "step": 1726,
            "len": 2,
            "note": 59,
            "vel": 89,
            "ch": 2
          },
          {
            "step": 1728,
            "len": 2,
            "note": 57,
            "vel": 89,
            "ch": 2
          },
          {
            "step": 1728,
            "len": 2,
            "note": 61,
            "vel": 89,
            "ch": 2
          },
          {
            "step": 1728,
            "len": 2,
            "note": 64,
            "vel": 89,
            "ch": 2
          },
          {
            "step": 1728,
            "len": 2,
            "note": 69,
            "vel": 89,
            "ch": 2
          },
          {
            "step": 1730,
            "len": 2,
            "note": 50,
            "vel": 89,
            "ch": 2
          },
          {
            "step": 1730,
            "len": 2,
            "note": 55,
            "vel": 89,
            "ch": 2
          },
          {
            "step": 1730,
            "len": 2,
            "note": 59,
            "vel": 89,
            "ch": 2
          },
          {
            "step": 1732,
            "len": 2,
            "note": 50,
            "vel": 89,
            "ch": 2
          },
          {
            "step": 1732,
            "len": 2,
            "note": 55,
            "vel": 89,
            "ch": 2
          },
          {
            "step": 1732,
            "len": 2,
            "note": 59,
            "vel": 89,
            "ch": 2
          },
          {
            "step": 1734,
            "len": 2,
            "note": 57,
            "vel": 89,
            "ch": 2
          },
          {
            "step": 1734,
            "len": 2,
            "note": 61,
            "vel": 89,
            "ch": 2
          },
          {
            "step": 1734,
            "len": 2,
            "note": 64,
            "vel": 89,
            "ch": 2
          },
          {
            "step": 1734,
            "len": 2,
            "note": 69,
            "vel": 89,
            "ch": 2
          },
          {
            "step": 1736,
            "len": 2,
            "note": 50,
            "vel": 89,
            "ch": 2
          },
          {
            "step": 1736,
            "len": 2,
            "note": 55,
            "vel": 89,
            "ch": 2
          },
          {
            "step": 1736,
            "len": 2,
            "note": 59,
            "vel": 89,
            "ch": 2
          },
          {
            "step": 1738,
            "len": 2,
            "note": 50,
            "vel": 89,
            "ch": 2
          },
          {
            "step": 1738,
            "len": 2,
            "note": 55,
            "vel": 89,
            "ch": 2
          },
          {
            "step": 1738,
            "len": 2,
            "note": 59,
            "vel": 89,
            "ch": 2
          },
          {
            "step": 1740,
            "len": 2,
            "note": 50,
            "vel": 89,
            "ch": 2
          },
          {
            "step": 1740,
            "len": 2,
            "note": 55,
            "vel": 89,
            "ch": 2
          },
          {
            "step": 1740,
            "len": 2,
            "note": 59,
            "vel": 89,
            "ch": 2
          },
          {
            "step": 1742,
            "len": 2,
            "note": 50,
            "vel": 89,
            "ch": 2
          },
          {
            "step": 1742,
            "len": 2,
            "note": 55,
            "vel": 89,
            "ch": 2
          },
          {
            "step": 1742,
            "len": 2,
            "note": 59,
            "vel": 89,
            "ch": 2
          },
          {
            "step": 1744,
            "len": 2,
            "note": 50,
            "vel": 89,
            "ch": 2
          },
          {
            "step": 1744,
            "len": 2,
            "note": 55,
            "vel": 89,
            "ch": 2
          },
          {
            "step": 1744,
            "len": 2,
            "note": 59,
            "vel": 89,
            "ch": 2
          },
          {
            "step": 1746,
            "len": 2,
            "note": 50,
            "vel": 89,
            "ch": 2
          },
          {
            "step": 1746,
            "len": 2,
            "note": 55,
            "vel": 89,
            "ch": 2
          },
          {
            "step": 1746,
            "len": 2,
            "note": 59,
            "vel": 89,
            "ch": 2
          },
          {
            "step": 1748,
            "len": 2,
            "note": 57,
            "vel": 89,
            "ch": 2
          },
          {
            "step": 1748,
            "len": 2,
            "note": 61,
            "vel": 89,
            "ch": 2
          },
          {
            "step": 1748,
            "len": 2,
            "note": 64,
            "vel": 89,
            "ch": 2
          },
          {
            "step": 1748,
            "len": 2,
            "note": 69,
            "vel": 89,
            "ch": 2
          },
          {
            "step": 1750,
            "len": 2,
            "note": 57,
            "vel": 89,
            "ch": 2
          },
          {
            "step": 1750,
            "len": 2,
            "note": 61,
            "vel": 89,
            "ch": 2
          },
          {
            "step": 1750,
            "len": 2,
            "note": 64,
            "vel": 89,
            "ch": 2
          },
          {
            "step": 1750,
            "len": 2,
            "note": 69,
            "vel": 89,
            "ch": 2
          },
          {
            "step": 1752,
            "len": 2,
            "note": 50,
            "vel": 89,
            "ch": 2
          },
          {
            "step": 1752,
            "len": 2,
            "note": 55,
            "vel": 89,
            "ch": 2
          },
          {
            "step": 1752,
            "len": 2,
            "note": 59,
            "vel": 89,
            "ch": 2
          },
          {
            "step": 1754,
            "len": 2,
            "note": 57,
            "vel": 89,
            "ch": 2
          },
          {
            "step": 1754,
            "len": 2,
            "note": 61,
            "vel": 89,
            "ch": 2
          },
          {
            "step": 1754,
            "len": 2,
            "note": 64,
            "vel": 89,
            "ch": 2
          },
          {
            "step": 1754,
            "len": 2,
            "note": 69,
            "vel": 89,
            "ch": 2
          },
          {
            "step": 1756,
            "len": 2,
            "note": 50,
            "vel": 89,
            "ch": 2
          },
          {
            "step": 1756,
            "len": 2,
            "note": 55,
            "vel": 89,
            "ch": 2
          },
          {
            "step": 1756,
            "len": 2,
            "note": 59,
            "vel": 89,
            "ch": 2
          },
          {
            "step": 1758,
            "len": 2,
            "note": 50,
            "vel": 89,
            "ch": 2
          },
          {
            "step": 1758,
            "len": 2,
            "note": 55,
            "vel": 89,
            "ch": 2
          },
          {
            "step": 1758,
            "len": 2,
            "note": 59,
            "vel": 89,
            "ch": 2
          },
          {
            "step": 1760,
            "len": 2,
            "note": 57,
            "vel": 89,
            "ch": 2
          },
          {
            "step": 1760,
            "len": 2,
            "note": 61,
            "vel": 89,
            "ch": 2
          },
          {
            "step": 1760,
            "len": 2,
            "note": 64,
            "vel": 89,
            "ch": 2
          },
          {
            "step": 1760,
            "len": 2,
            "note": 69,
            "vel": 89,
            "ch": 2
          },
          {
            "step": 1762,
            "len": 2,
            "note": 57,
            "vel": 89,
            "ch": 2
          },
          {
            "step": 1762,
            "len": 2,
            "note": 61,
            "vel": 89,
            "ch": 2
          },
          {
            "step": 1762,
            "len": 2,
            "note": 64,
            "vel": 89,
            "ch": 2
          },
          {
            "step": 1762,
            "len": 2,
            "note": 69,
            "vel": 89,
            "ch": 2
          },
          {
            "step": 1764,
            "len": 2,
            "note": 50,
            "vel": 89,
            "ch": 2
          },
          {
            "step": 1764,
            "len": 2,
            "note": 55,
            "vel": 89,
            "ch": 2
          },
          {
            "step": 1764,
            "len": 2,
            "note": 59,
            "vel": 89,
            "ch": 2
          },
          {
            "step": 1766,
            "len": 2,
            "note": 57,
            "vel": 89,
            "ch": 2
          },
          {
            "step": 1766,
            "len": 2,
            "note": 61,
            "vel": 89,
            "ch": 2
          },
          {
            "step": 1766,
            "len": 2,
            "note": 64,
            "vel": 89,
            "ch": 2
          },
          {
            "step": 1766,
            "len": 2,
            "note": 69,
            "vel": 89,
            "ch": 2
          },
          {
            "step": 1768,
            "len": 2,
            "note": 50,
            "vel": 89,
            "ch": 2
          },
          {
            "step": 1768,
            "len": 2,
            "note": 55,
            "vel": 89,
            "ch": 2
          },
          {
            "step": 1768,
            "len": 2,
            "note": 59,
            "vel": 89,
            "ch": 2
          },
          {
            "step": 1770,
            "len": 2,
            "note": 50,
            "vel": 89,
            "ch": 2
          },
          {
            "step": 1770,
            "len": 2,
            "note": 55,
            "vel": 89,
            "ch": 2
          },
          {
            "step": 1770,
            "len": 2,
            "note": 59,
            "vel": 89,
            "ch": 2
          },
          {
            "step": 1772,
            "len": 2,
            "note": 50,
            "vel": 89,
            "ch": 2
          },
          {
            "step": 1772,
            "len": 2,
            "note": 55,
            "vel": 89,
            "ch": 2
          },
          {
            "step": 1772,
            "len": 2,
            "note": 59,
            "vel": 89,
            "ch": 2
          },
          {
            "step": 1774,
            "len": 2,
            "note": 50,
            "vel": 89,
            "ch": 2
          },
          {
            "step": 1774,
            "len": 2,
            "note": 55,
            "vel": 89,
            "ch": 2
          },
          {
            "step": 1774,
            "len": 2,
            "note": 59,
            "vel": 89,
            "ch": 2
          },
          {
            "step": 1776,
            "len": 2,
            "note": 50,
            "vel": 89,
            "ch": 2
          },
          {
            "step": 1776,
            "len": 2,
            "note": 55,
            "vel": 89,
            "ch": 2
          },
          {
            "step": 1776,
            "len": 2,
            "note": 59,
            "vel": 89,
            "ch": 2
          },
          {
            "step": 1778,
            "len": 2,
            "note": 50,
            "vel": 89,
            "ch": 2
          },
          {
            "step": 1778,
            "len": 2,
            "note": 55,
            "vel": 89,
            "ch": 2
          },
          {
            "step": 1778,
            "len": 2,
            "note": 59,
            "vel": 89,
            "ch": 2
          },
          {
            "step": 1780,
            "len": 2,
            "note": 57,
            "vel": 89,
            "ch": 2
          },
          {
            "step": 1780,
            "len": 2,
            "note": 61,
            "vel": 89,
            "ch": 2
          },
          {
            "step": 1780,
            "len": 2,
            "note": 64,
            "vel": 89,
            "ch": 2
          },
          {
            "step": 1780,
            "len": 2,
            "note": 69,
            "vel": 89,
            "ch": 2
          },
          {
            "step": 1782,
            "len": 2,
            "note": 57,
            "vel": 89,
            "ch": 2
          },
          {
            "step": 1782,
            "len": 2,
            "note": 61,
            "vel": 89,
            "ch": 2
          },
          {
            "step": 1782,
            "len": 2,
            "note": 64,
            "vel": 89,
            "ch": 2
          },
          {
            "step": 1782,
            "len": 2,
            "note": 69,
            "vel": 89,
            "ch": 2
          },
          {
            "step": 1784,
            "len": 2,
            "note": 50,
            "vel": 89,
            "ch": 2
          },
          {
            "step": 1784,
            "len": 2,
            "note": 55,
            "vel": 89,
            "ch": 2
          },
          {
            "step": 1784,
            "len": 2,
            "note": 59,
            "vel": 89,
            "ch": 2
          },
          {
            "step": 1786,
            "len": 2,
            "note": 57,
            "vel": 89,
            "ch": 2
          },
          {
            "step": 1786,
            "len": 2,
            "note": 61,
            "vel": 89,
            "ch": 2
          },
          {
            "step": 1786,
            "len": 2,
            "note": 64,
            "vel": 89,
            "ch": 2
          },
          {
            "step": 1786,
            "len": 2,
            "note": 69,
            "vel": 89,
            "ch": 2
          },
          {
            "step": 1788,
            "len": 2,
            "note": 50,
            "vel": 89,
            "ch": 2
          },
          {
            "step": 1788,
            "len": 2,
            "note": 55,
            "vel": 89,
            "ch": 2
          },
          {
            "step": 1788,
            "len": 2,
            "note": 59,
            "vel": 89,
            "ch": 2
          },
          {
            "step": 1790,
            "len": 2,
            "note": 50,
            "vel": 89,
            "ch": 2
          },
          {
            "step": 1790,
            "len": 2,
            "note": 55,
            "vel": 89,
            "ch": 2
          },
          {
            "step": 1790,
            "len": 2,
            "note": 59,
            "vel": 89,
            "ch": 2
          },
          {
            "step": 1792,
            "len": 2,
            "note": 57,
            "vel": 89,
            "ch": 2
          },
          {
            "step": 1792,
            "len": 2,
            "note": 61,
            "vel": 89,
            "ch": 2
          },
          {
            "step": 1792,
            "len": 2,
            "note": 64,
            "vel": 89,
            "ch": 2
          },
          {
            "step": 1792,
            "len": 2,
            "note": 69,
            "vel": 89,
            "ch": 2
          },
          {
            "step": 1794,
            "len": 2,
            "note": 57,
            "vel": 89,
            "ch": 2
          },
          {
            "step": 1794,
            "len": 2,
            "note": 61,
            "vel": 89,
            "ch": 2
          },
          {
            "step": 1794,
            "len": 2,
            "note": 64,
            "vel": 89,
            "ch": 2
          },
          {
            "step": 1794,
            "len": 2,
            "note": 69,
            "vel": 89,
            "ch": 2
          },
          {
            "step": 1796,
            "len": 2,
            "note": 50,
            "vel": 89,
            "ch": 2
          },
          {
            "step": 1796,
            "len": 2,
            "note": 55,
            "vel": 89,
            "ch": 2
          },
          {
            "step": 1796,
            "len": 2,
            "note": 59,
            "vel": 89,
            "ch": 2
          },
          {
            "step": 1798,
            "len": 2,
            "note": 57,
            "vel": 89,
            "ch": 2
          },
          {
            "step": 1798,
            "len": 2,
            "note": 61,
            "vel": 89,
            "ch": 2
          },
          {
            "step": 1798,
            "len": 2,
            "note": 64,
            "vel": 89,
            "ch": 2
          },
          {
            "step": 1798,
            "len": 2,
            "note": 69,
            "vel": 89,
            "ch": 2
          },
          {
            "step": 1800,
            "len": 2,
            "note": 50,
            "vel": 89,
            "ch": 2
          },
          {
            "step": 1800,
            "len": 2,
            "note": 55,
            "vel": 89,
            "ch": 2
          },
          {
            "step": 1800,
            "len": 2,
            "note": 59,
            "vel": 89,
            "ch": 2
          },
          {
            "step": 1802,
            "len": 2,
            "note": 50,
            "vel": 89,
            "ch": 2
          },
          {
            "step": 1802,
            "len": 2,
            "note": 55,
            "vel": 89,
            "ch": 2
          },
          {
            "step": 1802,
            "len": 2,
            "note": 59,
            "vel": 89,
            "ch": 2
          },
          {
            "step": 1804,
            "len": 2,
            "note": 50,
            "vel": 89,
            "ch": 2
          },
          {
            "step": 1804,
            "len": 2,
            "note": 55,
            "vel": 89,
            "ch": 2
          },
          {
            "step": 1804,
            "len": 2,
            "note": 59,
            "vel": 89,
            "ch": 2
          },
          {
            "step": 1806,
            "len": 2,
            "note": 50,
            "vel": 89,
            "ch": 2
          },
          {
            "step": 1806,
            "len": 2,
            "note": 55,
            "vel": 89,
            "ch": 2
          },
          {
            "step": 1806,
            "len": 2,
            "note": 59,
            "vel": 89,
            "ch": 2
          },
          {
            "step": 1808,
            "len": 2,
            "note": 50,
            "vel": 89,
            "ch": 2
          },
          {
            "step": 1808,
            "len": 2,
            "note": 55,
            "vel": 89,
            "ch": 2
          },
          {
            "step": 1808,
            "len": 2,
            "note": 59,
            "vel": 89,
            "ch": 2
          },
          {
            "step": 1810,
            "len": 2,
            "note": 50,
            "vel": 89,
            "ch": 2
          },
          {
            "step": 1810,
            "len": 2,
            "note": 55,
            "vel": 89,
            "ch": 2
          },
          {
            "step": 1810,
            "len": 2,
            "note": 59,
            "vel": 89,
            "ch": 2
          },
          {
            "step": 1812,
            "len": 2,
            "note": 57,
            "vel": 89,
            "ch": 2
          },
          {
            "step": 1812,
            "len": 2,
            "note": 61,
            "vel": 89,
            "ch": 2
          },
          {
            "step": 1812,
            "len": 2,
            "note": 64,
            "vel": 89,
            "ch": 2
          },
          {
            "step": 1812,
            "len": 2,
            "note": 69,
            "vel": 89,
            "ch": 2
          },
          {
            "step": 1814,
            "len": 2,
            "note": 57,
            "vel": 89,
            "ch": 2
          },
          {
            "step": 1814,
            "len": 2,
            "note": 61,
            "vel": 89,
            "ch": 2
          },
          {
            "step": 1814,
            "len": 2,
            "note": 64,
            "vel": 89,
            "ch": 2
          },
          {
            "step": 1814,
            "len": 2,
            "note": 69,
            "vel": 89,
            "ch": 2
          },
          {
            "step": 1816,
            "len": 2,
            "note": 50,
            "vel": 89,
            "ch": 2
          },
          {
            "step": 1816,
            "len": 2,
            "note": 55,
            "vel": 89,
            "ch": 2
          },
          {
            "step": 1816,
            "len": 2,
            "note": 59,
            "vel": 89,
            "ch": 2
          },
          {
            "step": 1818,
            "len": 2,
            "note": 57,
            "vel": 89,
            "ch": 2
          },
          {
            "step": 1818,
            "len": 2,
            "note": 61,
            "vel": 89,
            "ch": 2
          },
          {
            "step": 1818,
            "len": 2,
            "note": 64,
            "vel": 89,
            "ch": 2
          },
          {
            "step": 1818,
            "len": 2,
            "note": 69,
            "vel": 89,
            "ch": 2
          },
          {
            "step": 1820,
            "len": 2,
            "note": 50,
            "vel": 89,
            "ch": 2
          },
          {
            "step": 1820,
            "len": 2,
            "note": 55,
            "vel": 89,
            "ch": 2
          },
          {
            "step": 1820,
            "len": 2,
            "note": 59,
            "vel": 89,
            "ch": 2
          },
          {
            "step": 1822,
            "len": 2,
            "note": 50,
            "vel": 89,
            "ch": 2
          },
          {
            "step": 1822,
            "len": 2,
            "note": 55,
            "vel": 89,
            "ch": 2
          },
          {
            "step": 1822,
            "len": 2,
            "note": 59,
            "vel": 89,
            "ch": 2
          },
          {
            "step": 1824,
            "len": 2,
            "note": 57,
            "vel": 89,
            "ch": 2
          },
          {
            "step": 1824,
            "len": 2,
            "note": 61,
            "vel": 89,
            "ch": 2
          },
          {
            "step": 1824,
            "len": 2,
            "note": 64,
            "vel": 89,
            "ch": 2
          },
          {
            "step": 1824,
            "len": 2,
            "note": 69,
            "vel": 89,
            "ch": 2
          },
          {
            "step": 1826,
            "len": 2,
            "note": 57,
            "vel": 89,
            "ch": 2
          },
          {
            "step": 1826,
            "len": 2,
            "note": 61,
            "vel": 89,
            "ch": 2
          },
          {
            "step": 1826,
            "len": 2,
            "note": 64,
            "vel": 89,
            "ch": 2
          },
          {
            "step": 1826,
            "len": 2,
            "note": 69,
            "vel": 89,
            "ch": 2
          },
          {
            "step": 1828,
            "len": 2,
            "note": 50,
            "vel": 89,
            "ch": 2
          },
          {
            "step": 1828,
            "len": 2,
            "note": 55,
            "vel": 89,
            "ch": 2
          },
          {
            "step": 1828,
            "len": 2,
            "note": 59,
            "vel": 89,
            "ch": 2
          },
          {
            "step": 1830,
            "len": 2,
            "note": 57,
            "vel": 89,
            "ch": 2
          },
          {
            "step": 1830,
            "len": 2,
            "note": 61,
            "vel": 89,
            "ch": 2
          },
          {
            "step": 1830,
            "len": 2,
            "note": 64,
            "vel": 89,
            "ch": 2
          },
          {
            "step": 1830,
            "len": 2,
            "note": 69,
            "vel": 89,
            "ch": 2
          },
          {
            "step": 1832,
            "len": 2,
            "note": 50,
            "vel": 89,
            "ch": 2
          },
          {
            "step": 1832,
            "len": 2,
            "note": 55,
            "vel": 89,
            "ch": 2
          },
          {
            "step": 1832,
            "len": 2,
            "note": 59,
            "vel": 89,
            "ch": 2
          },
          {
            "step": 1834,
            "len": 2,
            "note": 50,
            "vel": 89,
            "ch": 2
          },
          {
            "step": 1834,
            "len": 2,
            "note": 55,
            "vel": 89,
            "ch": 2
          },
          {
            "step": 1834,
            "len": 2,
            "note": 59,
            "vel": 89,
            "ch": 2
          },
          {
            "step": 1836,
            "len": 2,
            "note": 50,
            "vel": 89,
            "ch": 2
          },
          {
            "step": 1836,
            "len": 2,
            "note": 55,
            "vel": 89,
            "ch": 2
          },
          {
            "step": 1836,
            "len": 2,
            "note": 59,
            "vel": 89,
            "ch": 2
          },
          {
            "step": 1838,
            "len": 2,
            "note": 50,
            "vel": 89,
            "ch": 2
          },
          {
            "step": 1838,
            "len": 2,
            "note": 55,
            "vel": 89,
            "ch": 2
          },
          {
            "step": 1838,
            "len": 2,
            "note": 59,
            "vel": 89,
            "ch": 2
          },
          {
            "step": 1840,
            "len": 2,
            "note": 50,
            "vel": 89,
            "ch": 2
          },
          {
            "step": 1840,
            "len": 2,
            "note": 55,
            "vel": 89,
            "ch": 2
          },
          {
            "step": 1840,
            "len": 2,
            "note": 59,
            "vel": 89,
            "ch": 2
          },
          {
            "step": 1842,
            "len": 2,
            "note": 50,
            "vel": 89,
            "ch": 2
          },
          {
            "step": 1842,
            "len": 2,
            "note": 55,
            "vel": 89,
            "ch": 2
          },
          {
            "step": 1842,
            "len": 2,
            "note": 59,
            "vel": 89,
            "ch": 2
          },
          {
            "step": 1844,
            "len": 2,
            "note": 57,
            "vel": 89,
            "ch": 2
          },
          {
            "step": 1844,
            "len": 2,
            "note": 61,
            "vel": 89,
            "ch": 2
          },
          {
            "step": 1844,
            "len": 2,
            "note": 64,
            "vel": 89,
            "ch": 2
          },
          {
            "step": 1844,
            "len": 2,
            "note": 69,
            "vel": 89,
            "ch": 2
          },
          {
            "step": 1846,
            "len": 2,
            "note": 57,
            "vel": 89,
            "ch": 2
          },
          {
            "step": 1846,
            "len": 2,
            "note": 61,
            "vel": 89,
            "ch": 2
          },
          {
            "step": 1846,
            "len": 2,
            "note": 64,
            "vel": 89,
            "ch": 2
          },
          {
            "step": 1846,
            "len": 2,
            "note": 69,
            "vel": 89,
            "ch": 2
          },
          {
            "step": 1848,
            "len": 2,
            "note": 50,
            "vel": 89,
            "ch": 2
          },
          {
            "step": 1848,
            "len": 2,
            "note": 55,
            "vel": 89,
            "ch": 2
          },
          {
            "step": 1848,
            "len": 2,
            "note": 59,
            "vel": 89,
            "ch": 2
          },
          {
            "step": 1850,
            "len": 2,
            "note": 57,
            "vel": 89,
            "ch": 2
          },
          {
            "step": 1850,
            "len": 2,
            "note": 61,
            "vel": 89,
            "ch": 2
          },
          {
            "step": 1850,
            "len": 2,
            "note": 64,
            "vel": 89,
            "ch": 2
          },
          {
            "step": 1850,
            "len": 2,
            "note": 69,
            "vel": 89,
            "ch": 2
          },
          {
            "step": 1852,
            "len": 2,
            "note": 50,
            "vel": 89,
            "ch": 2
          },
          {
            "step": 1852,
            "len": 2,
            "note": 55,
            "vel": 89,
            "ch": 2
          },
          {
            "step": 1852,
            "len": 2,
            "note": 59,
            "vel": 89,
            "ch": 2
          },
          {
            "step": 1854,
            "len": 2,
            "note": 50,
            "vel": 89,
            "ch": 2
          },
          {
            "step": 1854,
            "len": 2,
            "note": 55,
            "vel": 89,
            "ch": 2
          },
          {
            "step": 1854,
            "len": 2,
            "note": 59,
            "vel": 89,
            "ch": 2
          },
          {
            "step": 1856,
            "len": 2,
            "note": 57,
            "vel": 89,
            "ch": 2
          },
          {
            "step": 1856,
            "len": 2,
            "note": 61,
            "vel": 89,
            "ch": 2
          },
          {
            "step": 1856,
            "len": 2,
            "note": 64,
            "vel": 89,
            "ch": 2
          },
          {
            "step": 1856,
            "len": 2,
            "note": 69,
            "vel": 89,
            "ch": 2
          },
          {
            "step": 1858,
            "len": 2,
            "note": 57,
            "vel": 89,
            "ch": 2
          },
          {
            "step": 1858,
            "len": 2,
            "note": 61,
            "vel": 89,
            "ch": 2
          },
          {
            "step": 1858,
            "len": 2,
            "note": 64,
            "vel": 89,
            "ch": 2
          },
          {
            "step": 1858,
            "len": 2,
            "note": 69,
            "vel": 89,
            "ch": 2
          },
          {
            "step": 1860,
            "len": 2,
            "note": 50,
            "vel": 89,
            "ch": 2
          },
          {
            "step": 1860,
            "len": 2,
            "note": 55,
            "vel": 89,
            "ch": 2
          },
          {
            "step": 1860,
            "len": 2,
            "note": 59,
            "vel": 89,
            "ch": 2
          },
          {
            "step": 1862,
            "len": 2,
            "note": 57,
            "vel": 89,
            "ch": 2
          },
          {
            "step": 1862,
            "len": 2,
            "note": 61,
            "vel": 89,
            "ch": 2
          },
          {
            "step": 1862,
            "len": 2,
            "note": 64,
            "vel": 89,
            "ch": 2
          },
          {
            "step": 1862,
            "len": 2,
            "note": 69,
            "vel": 89,
            "ch": 2
          },
          {
            "step": 1864,
            "len": 2,
            "note": 50,
            "vel": 89,
            "ch": 2
          },
          {
            "step": 1864,
            "len": 2,
            "note": 55,
            "vel": 89,
            "ch": 2
          },
          {
            "step": 1864,
            "len": 2,
            "note": 59,
            "vel": 89,
            "ch": 2
          },
          {
            "step": 1866,
            "len": 2,
            "note": 50,
            "vel": 89,
            "ch": 2
          },
          {
            "step": 1866,
            "len": 2,
            "note": 55,
            "vel": 89,
            "ch": 2
          },
          {
            "step": 1866,
            "len": 2,
            "note": 59,
            "vel": 89,
            "ch": 2
          },
          {
            "step": 1868,
            "len": 2,
            "note": 50,
            "vel": 89,
            "ch": 2
          },
          {
            "step": 1868,
            "len": 2,
            "note": 55,
            "vel": 89,
            "ch": 2
          },
          {
            "step": 1868,
            "len": 2,
            "note": 59,
            "vel": 89,
            "ch": 2
          },
          {
            "step": 1870,
            "len": 2,
            "note": 50,
            "vel": 89,
            "ch": 2
          },
          {
            "step": 1870,
            "len": 2,
            "note": 55,
            "vel": 89,
            "ch": 2
          },
          {
            "step": 1870,
            "len": 2,
            "note": 59,
            "vel": 89,
            "ch": 2
          },
          {
            "step": 1872,
            "len": 2,
            "note": 50,
            "vel": 89,
            "ch": 2
          },
          {
            "step": 1872,
            "len": 2,
            "note": 55,
            "vel": 89,
            "ch": 2
          },
          {
            "step": 1872,
            "len": 2,
            "note": 59,
            "vel": 89,
            "ch": 2
          },
          {
            "step": 1874,
            "len": 2,
            "note": 50,
            "vel": 89,
            "ch": 2
          },
          {
            "step": 1874,
            "len": 2,
            "note": 55,
            "vel": 89,
            "ch": 2
          },
          {
            "step": 1874,
            "len": 2,
            "note": 59,
            "vel": 89,
            "ch": 2
          },
          {
            "step": 1876,
            "len": 2,
            "note": 57,
            "vel": 89,
            "ch": 2
          },
          {
            "step": 1876,
            "len": 2,
            "note": 61,
            "vel": 89,
            "ch": 2
          },
          {
            "step": 1876,
            "len": 2,
            "note": 64,
            "vel": 89,
            "ch": 2
          },
          {
            "step": 1876,
            "len": 2,
            "note": 69,
            "vel": 89,
            "ch": 2
          },
          {
            "step": 1878,
            "len": 2,
            "note": 57,
            "vel": 89,
            "ch": 2
          },
          {
            "step": 1878,
            "len": 2,
            "note": 61,
            "vel": 89,
            "ch": 2
          },
          {
            "step": 1878,
            "len": 2,
            "note": 64,
            "vel": 89,
            "ch": 2
          },
          {
            "step": 1878,
            "len": 2,
            "note": 69,
            "vel": 89,
            "ch": 2
          },
          {
            "step": 1880,
            "len": 2,
            "note": 50,
            "vel": 89,
            "ch": 2
          },
          {
            "step": 1880,
            "len": 2,
            "note": 55,
            "vel": 89,
            "ch": 2
          },
          {
            "step": 1880,
            "len": 2,
            "note": 59,
            "vel": 89,
            "ch": 2
          },
          {
            "step": 1882,
            "len": 2,
            "note": 57,
            "vel": 89,
            "ch": 2
          },
          {
            "step": 1882,
            "len": 2,
            "note": 61,
            "vel": 89,
            "ch": 2
          },
          {
            "step": 1882,
            "len": 2,
            "note": 64,
            "vel": 89,
            "ch": 2
          },
          {
            "step": 1882,
            "len": 2,
            "note": 69,
            "vel": 89,
            "ch": 2
          },
          {
            "step": 1884,
            "len": 2,
            "note": 50,
            "vel": 89,
            "ch": 2
          },
          {
            "step": 1884,
            "len": 2,
            "note": 55,
            "vel": 89,
            "ch": 2
          },
          {
            "step": 1884,
            "len": 2,
            "note": 59,
            "vel": 89,
            "ch": 2
          },
          {
            "step": 1886,
            "len": 2,
            "note": 50,
            "vel": 89,
            "ch": 2
          },
          {
            "step": 1886,
            "len": 2,
            "note": 55,
            "vel": 89,
            "ch": 2
          },
          {
            "step": 1886,
            "len": 2,
            "note": 59,
            "vel": 89,
            "ch": 2
          },
          {
            "step": 1888,
            "len": 2,
            "note": 57,
            "vel": 89,
            "ch": 2
          },
          {
            "step": 1888,
            "len": 2,
            "note": 61,
            "vel": 89,
            "ch": 2
          },
          {
            "step": 1888,
            "len": 2,
            "note": 64,
            "vel": 89,
            "ch": 2
          },
          {
            "step": 1888,
            "len": 2,
            "note": 69,
            "vel": 89,
            "ch": 2
          },
          {
            "step": 1890,
            "len": 2,
            "note": 57,
            "vel": 89,
            "ch": 2
          },
          {
            "step": 1890,
            "len": 2,
            "note": 61,
            "vel": 89,
            "ch": 2
          },
          {
            "step": 1890,
            "len": 2,
            "note": 64,
            "vel": 89,
            "ch": 2
          },
          {
            "step": 1890,
            "len": 2,
            "note": 69,
            "vel": 89,
            "ch": 2
          },
          {
            "step": 1892,
            "len": 2,
            "note": 50,
            "vel": 89,
            "ch": 2
          },
          {
            "step": 1892,
            "len": 2,
            "note": 55,
            "vel": 89,
            "ch": 2
          },
          {
            "step": 1892,
            "len": 2,
            "note": 59,
            "vel": 89,
            "ch": 2
          },
          {
            "step": 1894,
            "len": 2,
            "note": 57,
            "vel": 89,
            "ch": 2
          },
          {
            "step": 1894,
            "len": 2,
            "note": 61,
            "vel": 89,
            "ch": 2
          },
          {
            "step": 1894,
            "len": 2,
            "note": 64,
            "vel": 89,
            "ch": 2
          },
          {
            "step": 1894,
            "len": 2,
            "note": 69,
            "vel": 89,
            "ch": 2
          },
          {
            "step": 1896,
            "len": 2,
            "note": 50,
            "vel": 89,
            "ch": 2
          },
          {
            "step": 1896,
            "len": 2,
            "note": 55,
            "vel": 89,
            "ch": 2
          },
          {
            "step": 1896,
            "len": 2,
            "note": 59,
            "vel": 89,
            "ch": 2
          },
          {
            "step": 1898,
            "len": 2,
            "note": 50,
            "vel": 89,
            "ch": 2
          },
          {
            "step": 1898,
            "len": 2,
            "note": 55,
            "vel": 89,
            "ch": 2
          },
          {
            "step": 1898,
            "len": 2,
            "note": 59,
            "vel": 89,
            "ch": 2
          },
          {
            "step": 1900,
            "len": 2,
            "note": 50,
            "vel": 89,
            "ch": 2
          },
          {
            "step": 1900,
            "len": 2,
            "note": 55,
            "vel": 89,
            "ch": 2
          },
          {
            "step": 1900,
            "len": 2,
            "note": 59,
            "vel": 89,
            "ch": 2
          },
          {
            "step": 1902,
            "len": 2,
            "note": 50,
            "vel": 89,
            "ch": 2
          },
          {
            "step": 1902,
            "len": 2,
            "note": 55,
            "vel": 89,
            "ch": 2
          },
          {
            "step": 1902,
            "len": 2,
            "note": 59,
            "vel": 89,
            "ch": 2
          },
          {
            "step": 1904,
            "len": 2,
            "note": 50,
            "vel": 89,
            "ch": 2
          },
          {
            "step": 1904,
            "len": 2,
            "note": 55,
            "vel": 89,
            "ch": 2
          },
          {
            "step": 1904,
            "len": 2,
            "note": 59,
            "vel": 89,
            "ch": 2
          },
          {
            "step": 1906,
            "len": 2,
            "note": 50,
            "vel": 89,
            "ch": 2
          },
          {
            "step": 1906,
            "len": 2,
            "note": 55,
            "vel": 89,
            "ch": 2
          },
          {
            "step": 1906,
            "len": 2,
            "note": 59,
            "vel": 89,
            "ch": 2
          },
          {
            "step": 1908,
            "len": 2,
            "note": 57,
            "vel": 89,
            "ch": 2
          },
          {
            "step": 1908,
            "len": 2,
            "note": 61,
            "vel": 89,
            "ch": 2
          },
          {
            "step": 1908,
            "len": 2,
            "note": 64,
            "vel": 89,
            "ch": 2
          },
          {
            "step": 1908,
            "len": 2,
            "note": 69,
            "vel": 89,
            "ch": 2
          },
          {
            "step": 1910,
            "len": 2,
            "note": 57,
            "vel": 89,
            "ch": 2
          },
          {
            "step": 1910,
            "len": 2,
            "note": 61,
            "vel": 89,
            "ch": 2
          },
          {
            "step": 1910,
            "len": 2,
            "note": 64,
            "vel": 89,
            "ch": 2
          },
          {
            "step": 1910,
            "len": 2,
            "note": 69,
            "vel": 89,
            "ch": 2
          },
          {
            "step": 1912,
            "len": 2,
            "note": 50,
            "vel": 89,
            "ch": 2
          },
          {
            "step": 1912,
            "len": 2,
            "note": 55,
            "vel": 89,
            "ch": 2
          },
          {
            "step": 1912,
            "len": 2,
            "note": 59,
            "vel": 89,
            "ch": 2
          },
          {
            "step": 1914,
            "len": 2,
            "note": 57,
            "vel": 89,
            "ch": 2
          },
          {
            "step": 1914,
            "len": 2,
            "note": 61,
            "vel": 89,
            "ch": 2
          },
          {
            "step": 1914,
            "len": 2,
            "note": 64,
            "vel": 89,
            "ch": 2
          },
          {
            "step": 1914,
            "len": 2,
            "note": 69,
            "vel": 89,
            "ch": 2
          },
          {
            "step": 1916,
            "len": 2,
            "note": 50,
            "vel": 89,
            "ch": 2
          },
          {
            "step": 1916,
            "len": 2,
            "note": 55,
            "vel": 89,
            "ch": 2
          },
          {
            "step": 1916,
            "len": 2,
            "note": 59,
            "vel": 89,
            "ch": 2
          },
          {
            "step": 1918,
            "len": 2,
            "note": 50,
            "vel": 89,
            "ch": 2
          },
          {
            "step": 1918,
            "len": 2,
            "note": 55,
            "vel": 89,
            "ch": 2
          },
          {
            "step": 1918,
            "len": 2,
            "note": 59,
            "vel": 89,
            "ch": 2
          },
          {
            "step": 1920,
            "len": 2,
            "note": 57,
            "vel": 89,
            "ch": 2
          },
          {
            "step": 1920,
            "len": 2,
            "note": 61,
            "vel": 89,
            "ch": 2
          },
          {
            "step": 1920,
            "len": 2,
            "note": 64,
            "vel": 89,
            "ch": 2
          },
          {
            "step": 1920,
            "len": 2,
            "note": 69,
            "vel": 89,
            "ch": 2
          },
          {
            "step": 1922,
            "len": 2,
            "note": 57,
            "vel": 89,
            "ch": 2
          },
          {
            "step": 1922,
            "len": 2,
            "note": 61,
            "vel": 89,
            "ch": 2
          },
          {
            "step": 1922,
            "len": 2,
            "note": 64,
            "vel": 89,
            "ch": 2
          },
          {
            "step": 1922,
            "len": 2,
            "note": 69,
            "vel": 89,
            "ch": 2
          },
          {
            "step": 1924,
            "len": 2,
            "note": 50,
            "vel": 89,
            "ch": 2
          },
          {
            "step": 1924,
            "len": 2,
            "note": 55,
            "vel": 89,
            "ch": 2
          },
          {
            "step": 1924,
            "len": 2,
            "note": 59,
            "vel": 89,
            "ch": 2
          },
          {
            "step": 1926,
            "len": 2,
            "note": 57,
            "vel": 89,
            "ch": 2
          },
          {
            "step": 1926,
            "len": 2,
            "note": 61,
            "vel": 89,
            "ch": 2
          },
          {
            "step": 1926,
            "len": 2,
            "note": 64,
            "vel": 89,
            "ch": 2
          },
          {
            "step": 1926,
            "len": 2,
            "note": 69,
            "vel": 89,
            "ch": 2
          },
          {
            "step": 1928,
            "len": 2,
            "note": 50,
            "vel": 89,
            "ch": 2
          },
          {
            "step": 1928,
            "len": 2,
            "note": 55,
            "vel": 89,
            "ch": 2
          },
          {
            "step": 1928,
            "len": 2,
            "note": 59,
            "vel": 89,
            "ch": 2
          },
          {
            "step": 1930,
            "len": 2,
            "note": 50,
            "vel": 89,
            "ch": 2
          },
          {
            "step": 1930,
            "len": 2,
            "note": 55,
            "vel": 89,
            "ch": 2
          },
          {
            "step": 1930,
            "len": 2,
            "note": 59,
            "vel": 89,
            "ch": 2
          },
          {
            "step": 1932,
            "len": 2,
            "note": 50,
            "vel": 89,
            "ch": 2
          },
          {
            "step": 1932,
            "len": 2,
            "note": 55,
            "vel": 89,
            "ch": 2
          },
          {
            "step": 1932,
            "len": 2,
            "note": 59,
            "vel": 89,
            "ch": 2
          },
          {
            "step": 1934,
            "len": 2,
            "note": 50,
            "vel": 89,
            "ch": 2
          },
          {
            "step": 1934,
            "len": 2,
            "note": 55,
            "vel": 89,
            "ch": 2
          },
          {
            "step": 1934,
            "len": 2,
            "note": 59,
            "vel": 89,
            "ch": 2
          },
          {
            "step": 1936,
            "len": 2,
            "note": 50,
            "vel": 89,
            "ch": 2
          },
          {
            "step": 1936,
            "len": 2,
            "note": 55,
            "vel": 89,
            "ch": 2
          },
          {
            "step": 1936,
            "len": 2,
            "note": 59,
            "vel": 89,
            "ch": 2
          },
          {
            "step": 1938,
            "len": 2,
            "note": 50,
            "vel": 89,
            "ch": 2
          },
          {
            "step": 1938,
            "len": 2,
            "note": 55,
            "vel": 89,
            "ch": 2
          },
          {
            "step": 1938,
            "len": 2,
            "note": 59,
            "vel": 89,
            "ch": 2
          },
          {
            "step": 1940,
            "len": 2,
            "note": 57,
            "vel": 89,
            "ch": 2
          },
          {
            "step": 1940,
            "len": 2,
            "note": 61,
            "vel": 89,
            "ch": 2
          },
          {
            "step": 1940,
            "len": 2,
            "note": 64,
            "vel": 89,
            "ch": 2
          },
          {
            "step": 1940,
            "len": 2,
            "note": 69,
            "vel": 89,
            "ch": 2
          },
          {
            "step": 1942,
            "len": 2,
            "note": 57,
            "vel": 89,
            "ch": 2
          },
          {
            "step": 1942,
            "len": 2,
            "note": 61,
            "vel": 89,
            "ch": 2
          },
          {
            "step": 1942,
            "len": 2,
            "note": 64,
            "vel": 89,
            "ch": 2
          },
          {
            "step": 1942,
            "len": 2,
            "note": 69,
            "vel": 89,
            "ch": 2
          },
          {
            "step": 1944,
            "len": 2,
            "note": 50,
            "vel": 89,
            "ch": 2
          },
          {
            "step": 1944,
            "len": 2,
            "note": 55,
            "vel": 89,
            "ch": 2
          },
          {
            "step": 1944,
            "len": 2,
            "note": 59,
            "vel": 89,
            "ch": 2
          },
          {
            "step": 1946,
            "len": 2,
            "note": 57,
            "vel": 89,
            "ch": 2
          },
          {
            "step": 1946,
            "len": 2,
            "note": 61,
            "vel": 89,
            "ch": 2
          },
          {
            "step": 1946,
            "len": 2,
            "note": 64,
            "vel": 89,
            "ch": 2
          },
          {
            "step": 1946,
            "len": 2,
            "note": 69,
            "vel": 89,
            "ch": 2
          },
          {
            "step": 1948,
            "len": 2,
            "note": 50,
            "vel": 89,
            "ch": 2
          },
          {
            "step": 1948,
            "len": 2,
            "note": 55,
            "vel": 89,
            "ch": 2
          },
          {
            "step": 1948,
            "len": 2,
            "note": 59,
            "vel": 89,
            "ch": 2
          },
          {
            "step": 1950,
            "len": 2,
            "note": 50,
            "vel": 89,
            "ch": 2
          },
          {
            "step": 1950,
            "len": 2,
            "note": 55,
            "vel": 89,
            "ch": 2
          },
          {
            "step": 1950,
            "len": 2,
            "note": 59,
            "vel": 89,
            "ch": 2
          },
          {
            "step": 1952,
            "len": 2,
            "note": 57,
            "vel": 89,
            "ch": 2
          },
          {
            "step": 1952,
            "len": 2,
            "note": 61,
            "vel": 89,
            "ch": 2
          },
          {
            "step": 1952,
            "len": 2,
            "note": 64,
            "vel": 89,
            "ch": 2
          },
          {
            "step": 1952,
            "len": 2,
            "note": 69,
            "vel": 89,
            "ch": 2
          },
          {
            "step": 1954,
            "len": 2,
            "note": 57,
            "vel": 89,
            "ch": 2
          },
          {
            "step": 1954,
            "len": 2,
            "note": 61,
            "vel": 89,
            "ch": 2
          },
          {
            "step": 1954,
            "len": 2,
            "note": 64,
            "vel": 89,
            "ch": 2
          },
          {
            "step": 1954,
            "len": 2,
            "note": 69,
            "vel": 89,
            "ch": 2
          },
          {
            "step": 1956,
            "len": 2,
            "note": 50,
            "vel": 89,
            "ch": 2
          },
          {
            "step": 1956,
            "len": 2,
            "note": 55,
            "vel": 89,
            "ch": 2
          },
          {
            "step": 1956,
            "len": 2,
            "note": 59,
            "vel": 89,
            "ch": 2
          },
          {
            "step": 1958,
            "len": 2,
            "note": 57,
            "vel": 89,
            "ch": 2
          },
          {
            "step": 1958,
            "len": 2,
            "note": 61,
            "vel": 89,
            "ch": 2
          },
          {
            "step": 1958,
            "len": 2,
            "note": 64,
            "vel": 89,
            "ch": 2
          },
          {
            "step": 1958,
            "len": 2,
            "note": 69,
            "vel": 89,
            "ch": 2
          },
          {
            "step": 1960,
            "len": 2,
            "note": 50,
            "vel": 89,
            "ch": 2
          },
          {
            "step": 1960,
            "len": 2,
            "note": 55,
            "vel": 89,
            "ch": 2
          },
          {
            "step": 1960,
            "len": 2,
            "note": 59,
            "vel": 89,
            "ch": 2
          },
          {
            "step": 1962,
            "len": 2,
            "note": 50,
            "vel": 89,
            "ch": 2
          },
          {
            "step": 1962,
            "len": 2,
            "note": 55,
            "vel": 89,
            "ch": 2
          },
          {
            "step": 1962,
            "len": 2,
            "note": 59,
            "vel": 89,
            "ch": 2
          },
          {
            "step": 1964,
            "len": 2,
            "note": 50,
            "vel": 89,
            "ch": 2
          },
          {
            "step": 1964,
            "len": 2,
            "note": 55,
            "vel": 89,
            "ch": 2
          },
          {
            "step": 1964,
            "len": 2,
            "note": 59,
            "vel": 89,
            "ch": 2
          },
          {
            "step": 1966,
            "len": 2,
            "note": 50,
            "vel": 89,
            "ch": 2
          },
          {
            "step": 1966,
            "len": 2,
            "note": 55,
            "vel": 89,
            "ch": 2
          },
          {
            "step": 1966,
            "len": 2,
            "note": 59,
            "vel": 89,
            "ch": 2
          },
          {
            "step": 1968,
            "len": 2,
            "note": 50,
            "vel": 89,
            "ch": 2
          },
          {
            "step": 1968,
            "len": 2,
            "note": 55,
            "vel": 89,
            "ch": 2
          },
          {
            "step": 1968,
            "len": 2,
            "note": 59,
            "vel": 89,
            "ch": 2
          },
          {
            "step": 1970,
            "len": 2,
            "note": 50,
            "vel": 89,
            "ch": 2
          },
          {
            "step": 1970,
            "len": 2,
            "note": 55,
            "vel": 89,
            "ch": 2
          },
          {
            "step": 1970,
            "len": 2,
            "note": 59,
            "vel": 89,
            "ch": 2
          },
          {
            "step": 1972,
            "len": 2,
            "note": 57,
            "vel": 89,
            "ch": 2
          },
          {
            "step": 1972,
            "len": 2,
            "note": 61,
            "vel": 89,
            "ch": 2
          },
          {
            "step": 1972,
            "len": 2,
            "note": 64,
            "vel": 89,
            "ch": 2
          },
          {
            "step": 1972,
            "len": 2,
            "note": 69,
            "vel": 89,
            "ch": 2
          },
          {
            "step": 1974,
            "len": 2,
            "note": 57,
            "vel": 89,
            "ch": 2
          },
          {
            "step": 1974,
            "len": 2,
            "note": 61,
            "vel": 89,
            "ch": 2
          },
          {
            "step": 1974,
            "len": 2,
            "note": 64,
            "vel": 89,
            "ch": 2
          },
          {
            "step": 1974,
            "len": 2,
            "note": 69,
            "vel": 89,
            "ch": 2
          },
          {
            "step": 1976,
            "len": 2,
            "note": 50,
            "vel": 89,
            "ch": 2
          },
          {
            "step": 1976,
            "len": 2,
            "note": 55,
            "vel": 89,
            "ch": 2
          },
          {
            "step": 1976,
            "len": 2,
            "note": 59,
            "vel": 89,
            "ch": 2
          },
          {
            "step": 1978,
            "len": 2,
            "note": 57,
            "vel": 89,
            "ch": 2
          },
          {
            "step": 1978,
            "len": 2,
            "note": 61,
            "vel": 89,
            "ch": 2
          },
          {
            "step": 1978,
            "len": 2,
            "note": 64,
            "vel": 89,
            "ch": 2
          },
          {
            "step": 1978,
            "len": 2,
            "note": 69,
            "vel": 89,
            "ch": 2
          },
          {
            "step": 1980,
            "len": 2,
            "note": 50,
            "vel": 89,
            "ch": 2
          },
          {
            "step": 1980,
            "len": 2,
            "note": 55,
            "vel": 89,
            "ch": 2
          },
          {
            "step": 1980,
            "len": 2,
            "note": 59,
            "vel": 89,
            "ch": 2
          },
          {
            "step": 1982,
            "len": 2,
            "note": 50,
            "vel": 89,
            "ch": 2
          },
          {
            "step": 1982,
            "len": 2,
            "note": 55,
            "vel": 89,
            "ch": 2
          },
          {
            "step": 1982,
            "len": 2,
            "note": 59,
            "vel": 89,
            "ch": 2
          },
          {
            "step": 1984,
            "len": 2,
            "note": 57,
            "vel": 89,
            "ch": 2
          },
          {
            "step": 1984,
            "len": 2,
            "note": 61,
            "vel": 89,
            "ch": 2
          },
          {
            "step": 1984,
            "len": 2,
            "note": 64,
            "vel": 89,
            "ch": 2
          },
          {
            "step": 1984,
            "len": 2,
            "note": 69,
            "vel": 89,
            "ch": 2
          },
          {
            "step": 1986,
            "len": 2,
            "note": 57,
            "vel": 89,
            "ch": 2
          },
          {
            "step": 1986,
            "len": 2,
            "note": 61,
            "vel": 89,
            "ch": 2
          },
          {
            "step": 1986,
            "len": 2,
            "note": 64,
            "vel": 89,
            "ch": 2
          },
          {
            "step": 1986,
            "len": 2,
            "note": 69,
            "vel": 89,
            "ch": 2
          },
          {
            "step": 1988,
            "len": 2,
            "note": 50,
            "vel": 89,
            "ch": 2
          },
          {
            "step": 1988,
            "len": 2,
            "note": 55,
            "vel": 89,
            "ch": 2
          },
          {
            "step": 1988,
            "len": 2,
            "note": 59,
            "vel": 89,
            "ch": 2
          },
          {
            "step": 1990,
            "len": 2,
            "note": 57,
            "vel": 89,
            "ch": 2
          },
          {
            "step": 1990,
            "len": 2,
            "note": 61,
            "vel": 89,
            "ch": 2
          },
          {
            "step": 1990,
            "len": 2,
            "note": 64,
            "vel": 89,
            "ch": 2
          },
          {
            "step": 1990,
            "len": 2,
            "note": 69,
            "vel": 89,
            "ch": 2
          },
          {
            "step": 1992,
            "len": 2,
            "note": 50,
            "vel": 89,
            "ch": 2
          },
          {
            "step": 1992,
            "len": 2,
            "note": 55,
            "vel": 89,
            "ch": 2
          },
          {
            "step": 1992,
            "len": 2,
            "note": 59,
            "vel": 89,
            "ch": 2
          },
          {
            "step": 1994,
            "len": 2,
            "note": 50,
            "vel": 89,
            "ch": 2
          },
          {
            "step": 1994,
            "len": 2,
            "note": 55,
            "vel": 89,
            "ch": 2
          },
          {
            "step": 1994,
            "len": 2,
            "note": 59,
            "vel": 89,
            "ch": 2
          },
          {
            "step": 1996,
            "len": 2,
            "note": 50,
            "vel": 89,
            "ch": 2
          },
          {
            "step": 1996,
            "len": 2,
            "note": 55,
            "vel": 89,
            "ch": 2
          },
          {
            "step": 1996,
            "len": 2,
            "note": 59,
            "vel": 89,
            "ch": 2
          },
          {
            "step": 1998,
            "len": 2,
            "note": 50,
            "vel": 89,
            "ch": 2
          },
          {
            "step": 1998,
            "len": 2,
            "note": 55,
            "vel": 89,
            "ch": 2
          },
          {
            "step": 1998,
            "len": 2,
            "note": 59,
            "vel": 89,
            "ch": 2
          },
          {
            "step": 2000,
            "len": 2,
            "note": 52,
            "vel": 89,
            "ch": 2
          },
          {
            "step": 2002,
            "len": 2,
            "note": 57,
            "vel": 89,
            "ch": 2
          },
          {
            "step": 2004,
            "len": 2,
            "note": 61,
            "vel": 89,
            "ch": 2
          },
          {
            "step": 2006,
            "len": 4,
            "note": 59,
            "vel": 89,
            "ch": 2
          },
          {
            "step": 2010,
            "len": 2,
            "note": 55,
            "vel": 89,
            "ch": 2
          },
          {
            "step": 2012,
            "len": 2,
            "note": 50,
            "vel": 89,
            "ch": 2
          },
          {
            "step": 2014,
            "len": 2,
            "note": 55,
            "vel": 89,
            "ch": 2
          },
          {
            "step": 2016,
            "len": 2,
            "note": 52,
            "vel": 89,
            "ch": 2
          },
          {
            "step": 2018,
            "len": 2,
            "note": 57,
            "vel": 89,
            "ch": 2
          },
          {
            "step": 2020,
            "len": 2,
            "note": 61,
            "vel": 89,
            "ch": 2
          },
          {
            "step": 2022,
            "len": 4,
            "note": 59,
            "vel": 89,
            "ch": 2
          },
          {
            "step": 2026,
            "len": 2,
            "note": 55,
            "vel": 89,
            "ch": 2
          },
          {
            "step": 2028,
            "len": 2,
            "note": 50,
            "vel": 89,
            "ch": 2
          },
          {
            "step": 2030,
            "len": 2,
            "note": 55,
            "vel": 89,
            "ch": 2
          },
          {
            "step": 2032,
            "len": 2,
            "note": 52,
            "vel": 89,
            "ch": 2
          },
          {
            "step": 2034,
            "len": 2,
            "note": 57,
            "vel": 89,
            "ch": 2
          },
          {
            "step": 2036,
            "len": 2,
            "note": 61,
            "vel": 89,
            "ch": 2
          },
          {
            "step": 2038,
            "len": 4,
            "note": 59,
            "vel": 89,
            "ch": 2
          },
          {
            "step": 2042,
            "len": 2,
            "note": 55,
            "vel": 89,
            "ch": 2
          },
          {
            "step": 2044,
            "len": 2,
            "note": 50,
            "vel": 89,
            "ch": 2
          },
          {
            "step": 2046,
            "len": 2,
            "note": 55,
            "vel": 89,
            "ch": 2
          }
        ],
        "drums": [
          {
            "step": 1740,
            "len": 2,
            "note": 67,
            "vel": 89,
            "ch": 6
          },
          {
            "step": 1742,
            "len": 2,
            "note": 69,
            "vel": 89,
            "ch": 6
          },
          {
            "step": 1744,
            "len": 1,
            "note": 57,
            "vel": 89,
            "ch": 6
          },
          {
            "step": 1744,
            "len": 1,
            "note": 64,
            "vel": 89,
            "ch": 6
          },
          {
            "step": 1744,
            "len": 1,
            "note": 72,
            "vel": 89,
            "ch": 6
          },
          {
            "step": 1745,
            "len": 2,
            "note": 73,
            "vel": 89,
            "ch": 6
          },
          {
            "step": 1748,
            "len": 1,
            "note": 57,
            "vel": 89,
            "ch": 6
          },
          {
            "step": 1748,
            "len": 1,
            "note": 64,
            "vel": 89,
            "ch": 6
          },
          {
            "step": 1748,
            "len": 1,
            "note": 72,
            "vel": 89,
            "ch": 6
          },
          {
            "step": 1749,
            "len": 1,
            "note": 73,
            "vel": 89,
            "ch": 6
          },
          {
            "step": 1750,
            "len": 2,
            "note": 69,
            "vel": 89,
            "ch": 6
          },
          {
            "step": 1752,
            "len": 2,
            "note": 64,
            "vel": 89,
            "ch": 6
          },
          {
            "step": 1752,
            "len": 2,
            "note": 71,
            "vel": 89,
            "ch": 6
          },
          {
            "step": 1754,
            "len": 6,
            "note": 69,
            "vel": 89,
            "ch": 6
          },
          {
            "step": 1760,
            "len": 2,
            "note": 73,
            "vel": 89,
            "ch": 6
          },
          {
            "step": 1762,
            "len": 2,
            "note": 64,
            "vel": 89,
            "ch": 6
          },
          {
            "step": 1762,
            "len": 2,
            "note": 71,
            "vel": 89,
            "ch": 6
          },
          {
            "step": 1766,
            "len": 4,
            "note": 57,
            "vel": 89,
            "ch": 6
          },
          {
            "step": 1766,
            "len": 4,
            "note": 69,
            "vel": 89,
            "ch": 6
          },
          {
            "step": 1770,
            "len": 1,
            "note": 69,
            "vel": 89,
            "ch": 6
          },
          {
            "step": 1772,
            "len": 2,
            "note": 64,
            "vel": 89,
            "ch": 6
          },
          {
            "step": 1772,
            "len": 2,
            "note": 67,
            "vel": 89,
            "ch": 6
          },
          {
            "step": 1774,
            "len": 1,
            "note": 64,
            "vel": 89,
            "ch": 6
          },
          {
            "step": 1774,
            "len": 1,
            "note": 67,
            "vel": 89,
            "ch": 6
          },
          {
            "step": 1776,
            "len": 1,
            "note": 64,
            "vel": 89,
            "ch": 6
          },
          {
            "step": 1776,
            "len": 1,
            "note": 69,
            "vel": 89,
            "ch": 6
          },
          {
            "step": 1780,
            "len": 2,
            "note": 67,
            "vel": 89,
            "ch": 6
          },
          {
            "step": 1784,
            "len": 4,
            "note": 64,
            "vel": 89,
            "ch": 6
          },
          {
            "step": 1784,
            "len": 4,
            "note": 69,
            "vel": 89,
            "ch": 6
          },
          {
            "step": 1788,
            "len": 2,
            "note": 67,
            "vel": 89,
            "ch": 6
          },
          {
            "step": 1792,
            "len": 2,
            "note": 64,
            "vel": 89,
            "ch": 6
          },
          {
            "step": 1792,
            "len": 2,
            "note": 73,
            "vel": 89,
            "ch": 6
          },
          {
            "step": 1794,
            "len": 1,
            "note": 69,
            "vel": 89,
            "ch": 6
          },
          {
            "step": 1796,
            "len": 2,
            "note": 71,
            "vel": 89,
            "ch": 6
          },
          {
            "step": 1798,
            "len": 6,
            "note": 57,
            "vel": 89,
            "ch": 6
          },
          {
            "step": 1798,
            "len": 6,
            "note": 64,
            "vel": 89,
            "ch": 6
          },
          {
            "step": 1798,
            "len": 6,
            "note": 69,
            "vel": 89,
            "ch": 6
          },
          {
            "step": 1804,
            "len": 1,
            "note": 57,
            "vel": 89,
            "ch": 6
          },
          {
            "step": 1804,
            "len": 1,
            "note": 64,
            "vel": 89,
            "ch": 6
          },
          {
            "step": 1804,
            "len": 1,
            "note": 67,
            "vel": 89,
            "ch": 6
          },
          {
            "step": 1806,
            "len": 2,
            "note": 69,
            "vel": 89,
            "ch": 6
          },
          {
            "step": 1808,
            "len": 1,
            "note": 57,
            "vel": 89,
            "ch": 6
          },
          {
            "step": 1808,
            "len": 1,
            "note": 64,
            "vel": 89,
            "ch": 6
          },
          {
            "step": 1808,
            "len": 1,
            "note": 72,
            "vel": 89,
            "ch": 6
          },
          {
            "step": 1809,
            "len": 2,
            "note": 73,
            "vel": 89,
            "ch": 6
          },
          {
            "step": 1809,
            "len": 2,
            "note": 76,
            "vel": 89,
            "ch": 6
          },
          {
            "step": 1812,
            "len": 1,
            "note": 57,
            "vel": 89,
            "ch": 6
          },
          {
            "step": 1812,
            "len": 1,
            "note": 64,
            "vel": 89,
            "ch": 6
          },
          {
            "step": 1812,
            "len": 1,
            "note": 72,
            "vel": 89,
            "ch": 6
          },
          {
            "step": 1813,
            "len": 2,
            "note": 73,
            "vel": 89,
            "ch": 6
          },
          {
            "step": 1813,
            "len": 2,
            "note": 76,
            "vel": 89,
            "ch": 6
          },
          {
            "step": 1816,
            "len": 1,
            "note": 71,
            "vel": 89,
            "ch": 6
          },
          {
            "step": 1818,
            "len": 4,
            "note": 69,
            "vel": 89,
            "ch": 6
          },
          {
            "step": 1824,
            "len": 2,
            "note": 57,
            "vel": 89,
            "ch": 6
          },
          {
            "step": 1824,
            "len": 2,
            "note": 73,
            "vel": 89,
            "ch": 6
          },
          {
            "step": 1824,
            "len": 2,
            "note": 76,
            "vel": 89,
            "ch": 6
          },
          {
            "step": 1826,
            "len": 2,
            "note": 64,
            "vel": 89,
            "ch": 6
          },
          {
            "step": 1826,
            "len": 2,
            "note": 71,
            "vel": 89,
            "ch": 6
          },
          {
            "step": 1826,
            "len": 2,
            "note": 74,
            "vel": 89,
            "ch": 6
          },
          {
            "step": 1830,
            "len": 4,
            "note": 69,
            "vel": 89,
            "ch": 6
          },
          {
            "step": 1830,
            "len": 4,
            "note": 73,
            "vel": 89,
            "ch": 6
          },
          {
            "step": 1834,
            "len": 1,
            "note": 69,
            "vel": 89,
            "ch": 6
          },
          {
            "step": 1834,
            "len": 1,
            "note": 73,
            "vel": 89,
            "ch": 6
          },
          {
            "step": 1835,
            "len": 1,
            "note": 64,
            "vel": 89,
            "ch": 6
          },
          {
            "step": 1836,
            "len": 2,
            "note": 57,
            "vel": 89,
            "ch": 6
          },
          {
            "step": 1836,
            "len": 2,
            "note": 67,
            "vel": 89,
            "ch": 6
          },
          {
            "step": 1838,
            "len": 1,
            "note": 57,
            "vel": 89,
            "ch": 6
          },
          {
            "step": 1839,
            "len": 1,
            "note": 69,
            "vel": 89,
            "ch": 6
          },
          {
            "step": 1840,
            "len": 1,
            "note": 57,
            "vel": 89,
            "ch": 6
          },
          {
            "step": 1840,
            "len": 1,
            "note": 72,
            "vel": 89,
            "ch": 6
          },
          {
            "step": 1841,
            "len": 3,
            "note": 73,
            "vel": 89,
            "ch": 6
          },
          {
            "step": 1844,
            "len": 2,
            "note": 66,
            "vel": 89,
            "ch": 6
          },
          {
            "step": 1844,
            "len": 2,
            "note": 71,
            "vel": 89,
            "ch": 6
          },
          {
            "step": 1846,
            "len": 1,
            "note": 69,
            "vel": 89,
            "ch": 6
          },
          {
            "step": 1848,
            "len": 1,
            "note": 66,
            "vel": 89,
            "ch": 6
          },
          {
            "step": 1848,
            "len": 1,
            "note": 71,
            "vel": 89,
            "ch": 6
          },
          {
            "step": 1850,
            "len": 1,
            "note": 69,
            "vel": 89,
            "ch": 6
          },
          {
            "step": 1852,
            "len": 2,
            "note": 66,
            "vel": 89,
            "ch": 6
          },
          {
            "step": 1854,
            "len": 2,
            "note": 64,
            "vel": 89,
            "ch": 6
          },
          {
            "step": 1856,
            "len": 2,
            "note": 57,
            "vel": 89,
            "ch": 6
          },
          {
            "step": 1856,
            "len": 2,
            "note": 66,
            "vel": 89,
            "ch": 6
          },
          {
            "step": 1858,
            "len": 2,
            "note": 69,
            "vel": 89,
            "ch": 6
          },
          {
            "step": 1860,
            "len": 2,
            "note": 71,
            "vel": 89,
            "ch": 6
          },
          {
            "step": 1862,
            "len": 4,
            "note": 57,
            "vel": 89,
            "ch": 6
          },
          {
            "step": 1862,
            "len": 4,
            "note": 69,
            "vel": 89,
            "ch": 6
          },
          {
            "step": 1866,
            "len": 2,
            "note": 64,
            "vel": 89,
            "ch": 6
          },
          {
            "step": 1868,
            "len": 1,
            "note": 57,
            "vel": 89,
            "ch": 6
          },
          {
            "step": 1869,
            "len": 1,
            "note": 67,
            "vel": 89,
            "ch": 6
          },
          {
            "step": 1870,
            "len": 2,
            "note": 69,
            "vel": 89,
            "ch": 6
          },
          {
            "step": 1872,
            "len": 1,
            "note": 57,
            "vel": 89,
            "ch": 6
          },
          {
            "step": 1872,
            "len": 1,
            "note": 64,
            "vel": 89,
            "ch": 6
          },
          {
            "step": 1872,
            "len": 1,
            "note": 72,
            "vel": 89,
            "ch": 6
          },
          {
            "step": 1873,
            "len": 2,
            "note": 73,
            "vel": 89,
            "ch": 6
          },
          {
            "step": 1873,
            "len": 2,
            "note": 76,
            "vel": 89,
            "ch": 6
          },
          {
            "step": 1876,
            "len": 1,
            "note": 57,
            "vel": 89,
            "ch": 6
          },
          {
            "step": 1876,
            "len": 1,
            "note": 64,
            "vel": 89,
            "ch": 6
          },
          {
            "step": 1876,
            "len": 1,
            "note": 72,
            "vel": 89,
            "ch": 6
          },
          {
            "step": 1877,
            "len": 2,
            "note": 73,
            "vel": 89,
            "ch": 6
          },
          {
            "step": 1877,
            "len": 2,
            "note": 76,
            "vel": 89,
            "ch": 6
          },
          {
            "step": 1880,
            "len": 1,
            "note": 71,
            "vel": 89,
            "ch": 6
          },
          {
            "step": 1882,
            "len": 4,
            "note": 69,
            "vel": 89,
            "ch": 6
          },
          {
            "step": 1888,
            "len": 2,
            "note": 57,
            "vel": 89,
            "ch": 6
          },
          {
            "step": 1888,
            "len": 2,
            "note": 73,
            "vel": 89,
            "ch": 6
          },
          {
            "step": 1888,
            "len": 2,
            "note": 76,
            "vel": 89,
            "ch": 6
          },
          {
            "step": 1890,
            "len": 2,
            "note": 64,
            "vel": 89,
            "ch": 6
          },
          {
            "step": 1890,
            "len": 2,
            "note": 71,
            "vel": 89,
            "ch": 6
          },
          {
            "step": 1890,
            "len": 2,
            "note": 74,
            "vel": 89,
            "ch": 6
          },
          {
            "step": 1894,
            "len": 4,
            "note": 69,
            "vel": 89,
            "ch": 6
          },
          {
            "step": 1894,
            "len": 4,
            "note": 73,
            "vel": 89,
            "ch": 6
          },
          {
            "step": 1898,
            "len": 1,
            "note": 67,
            "vel": 89,
            "ch": 6
          },
          {
            "step": 1898,
            "len": 1,
            "note": 69,
            "vel": 89,
            "ch": 6
          },
          {
            "step": 1898,
            "len": 1,
            "note": 73,
            "vel": 89,
            "ch": 6
          },
          {
            "step": 1900,
            "len": 2,
            "note": 64,
            "vel": 89,
            "ch": 6
          },
          {
            "step": 1902,
            "len": 2,
            "note": 69,
            "vel": 89,
            "ch": 6
          },
          {
            "step": 1904,
            "len": 1,
            "note": 57,
            "vel": 89,
            "ch": 6
          },
          {
            "step": 1904,
            "len": 1,
            "note": 64,
            "vel": 89,
            "ch": 6
          },
          {
            "step": 1904,
            "len": 1,
            "note": 72,
            "vel": 89,
            "ch": 6
          },
          {
            "step": 1905,
            "len": 2,
            "note": 73,
            "vel": 89,
            "ch": 6
          },
          {
            "step": 1905,
            "len": 2,
            "note": 76,
            "vel": 89,
            "ch": 6
          },
          {
            "step": 1908,
            "len": 1,
            "note": 57,
            "vel": 89,
            "ch": 6
          },
          {
            "step": 1908,
            "len": 1,
            "note": 64,
            "vel": 89,
            "ch": 6
          },
          {
            "step": 1908,
            "len": 1,
            "note": 72,
            "vel": 89,
            "ch": 6
          },
          {
            "step": 1909,
            "len": 2,
            "note": 73,
            "vel": 89,
            "ch": 6
          },
          {
            "step": 1909,
            "len": 2,
            "note": 76,
            "vel": 89,
            "ch": 6
          },
          {
            "step": 1912,
            "len": 1,
            "note": 71,
            "vel": 89,
            "ch": 6
          },
          {
            "step": 1914,
            "len": 4,
            "note": 69,
            "vel": 89,
            "ch": 6
          },
          {
            "step": 1920,
            "len": 1,
            "note": 57,
            "vel": 89,
            "ch": 6
          },
          {
            "step": 1920,
            "len": 1,
            "note": 64,
            "vel": 89,
            "ch": 6
          },
          {
            "step": 1920,
            "len": 1,
            "note": 73,
            "vel": 89,
            "ch": 6
          },
          {
            "step": 1920,
            "len": 1,
            "note": 76,
            "vel": 89,
            "ch": 6
          },
          {
            "step": 1922,
            "len": 1,
            "note": 64,
            "vel": 89,
            "ch": 6
          },
          {
            "step": 1922,
            "len": 1,
            "note": 73,
            "vel": 89,
            "ch": 6
          },
          {
            "step": 1922,
            "len": 1,
            "note": 76,
            "vel": 89,
            "ch": 6
          },
          {
            "step": 1924,
            "len": 2,
            "note": 71,
            "vel": 89,
            "ch": 6
          },
          {
            "step": 1924,
            "len": 2,
            "note": 74,
            "vel": 89,
            "ch": 6
          },
          {
            "step": 1926,
            "len": 8,
            "note": 64,
            "vel": 89,
            "ch": 6
          },
          {
            "step": 1926,
            "len": 8,
            "note": 69,
            "vel": 89,
            "ch": 6
          },
          {
            "step": 1926,
            "len": 8,
            "note": 73,
            "vel": 89,
            "ch": 6
          },
          {
            "step": 1936,
            "len": 2,
            "note": 61,
            "vel": 89,
            "ch": 6
          },
          {
            "step": 1936,
            "len": 2,
            "note": 69,
            "vel": 89,
            "ch": 6
          },
          {
            "step": 1936,
            "len": 2,
            "note": 73,
            "vel": 89,
            "ch": 6
          },
          {
            "step": 1938,
            "len": 2,
            "note": 62,
            "vel": 89,
            "ch": 6
          },
          {
            "step": 1938,
            "len": 2,
            "note": 71,
            "vel": 89,
            "ch": 6
          },
          {
            "step": 1938,
            "len": 2,
            "note": 74,
            "vel": 89,
            "ch": 6
          },
          {
            "step": 1940,
            "len": 2,
            "note": 64,
            "vel": 89,
            "ch": 6
          },
          {
            "step": 1940,
            "len": 2,
            "note": 73,
            "vel": 89,
            "ch": 6
          },
          {
            "step": 1940,
            "len": 2,
            "note": 76,
            "vel": 89,
            "ch": 6
          },
          {
            "step": 1942,
            "len": 1,
            "note": 66,
            "vel": 89,
            "ch": 6
          },
          {
            "step": 1942,
            "len": 1,
            "note": 73,
            "vel": 89,
            "ch": 6
          },
          {
            "step": 1942,
            "len": 1,
            "note": 78,
            "vel": 89,
            "ch": 6
          },
          {
            "step": 1948,
            "len": 3,
            "note": 64,
            "vel": 89,
            "ch": 6
          },
          {
            "step": 1948,
            "len": 3,
            "note": 73,
            "vel": 89,
            "ch": 6
          },
          {
            "step": 1948,
            "len": 3,
            "note": 76,
            "vel": 89,
            "ch": 6
          },
          {
            "step": 1952,
            "len": 2,
            "note": 61,
            "vel": 89,
            "ch": 6
          },
          {
            "step": 1952,
            "len": 2,
            "note": 69,
            "vel": 89,
            "ch": 6
          },
          {
            "step": 1952,
            "len": 2,
            "note": 73,
            "vel": 89,
            "ch": 6
          },
          {
            "step": 1954,
            "len": 2,
            "note": 62,
            "vel": 89,
            "ch": 6
          },
          {
            "step": 1954,
            "len": 2,
            "note": 71,
            "vel": 89,
            "ch": 6
          },
          {
            "step": 1954,
            "len": 2,
            "note": 74,
            "vel": 89,
            "ch": 6
          },
          {
            "step": 1956,
            "len": 2,
            "note": 64,
            "vel": 89,
            "ch": 6
          },
          {
            "step": 1956,
            "len": 2,
            "note": 73,
            "vel": 89,
            "ch": 6
          },
          {
            "step": 1956,
            "len": 2,
            "note": 76,
            "vel": 89,
            "ch": 6
          },
          {
            "step": 1958,
            "len": 1,
            "note": 66,
            "vel": 89,
            "ch": 6
          },
          {
            "step": 1958,
            "len": 1,
            "note": 73,
            "vel": 89,
            "ch": 6
          },
          {
            "step": 1958,
            "len": 1,
            "note": 78,
            "vel": 89,
            "ch": 6
          },
          {
            "step": 1962,
            "len": 2,
            "note": 76,
            "vel": 89,
            "ch": 6
          },
          {
            "step": 1964,
            "len": 2,
            "note": 73,
            "vel": 89,
            "ch": 6
          },
          {
            "step": 1964,
            "len": 2,
            "note": 78,
            "vel": 89,
            "ch": 6
          },
          {
            "step": 1966,
            "len": 1,
            "note": 76,
            "vel": 89,
            "ch": 6
          },
          {
            "step": 1968,
            "len": 1,
            "note": 67,
            "vel": 89,
            "ch": 6
          },
          {
            "step": 1968,
            "len": 1,
            "note": 78,
            "vel": 89,
            "ch": 6
          },
          {
            "step": 1969,
            "len": 3,
            "note": 76,
            "vel": 89,
            "ch": 6
          },
          {
            "step": 1969,
            "len": 3,
            "note": 79,
            "vel": 89,
            "ch": 6
          },
          {
            "step": 1972,
            "len": 2,
            "note": 66,
            "vel": 89,
            "ch": 6
          },
          {
            "step": 1972,
            "len": 2,
            "note": 78,
            "vel": 89,
            "ch": 6
          },
          {
            "step": 1974,
            "len": 1,
            "note": 64,
            "vel": 89,
            "ch": 6
          },
          {
            "step": 1974,
            "len": 1,
            "note": 76,
            "vel": 89,
            "ch": 6
          },
          {
            "step": 1976,
            "len": 4,
            "note": 66,
            "vel": 89,
            "ch": 6
          },
          {
            "step": 1976,
            "len": 4,
            "note": 73,
            "vel": 89,
            "ch": 6
          },
          {
            "step": 1976,
            "len": 4,
            "note": 78,
            "vel": 89,
            "ch": 6
          },
          {
            "step": 1980,
            "len": 2,
            "note": 64,
            "vel": 89,
            "ch": 6
          },
          {
            "step": 1980,
            "len": 2,
            "note": 76,
            "vel": 89,
            "ch": 6
          },
          {
            "step": 1982,
            "len": 1,
            "note": 62,
            "vel": 89,
            "ch": 6
          },
          {
            "step": 1982,
            "len": 1,
            "note": 74,
            "vel": 89,
            "ch": 6
          },
          {
            "step": 1984,
            "len": 2,
            "note": 64,
            "vel": 89,
            "ch": 6
          },
          {
            "step": 1984,
            "len": 2,
            "note": 76,
            "vel": 89,
            "ch": 6
          },
          {
            "step": 1986,
            "len": 2,
            "note": 62,
            "vel": 89,
            "ch": 6
          },
          {
            "step": 1986,
            "len": 2,
            "note": 74,
            "vel": 89,
            "ch": 6
          },
          {
            "step": 1988,
            "len": 1,
            "note": 61,
            "vel": 89,
            "ch": 6
          },
          {
            "step": 1988,
            "len": 1,
            "note": 73,
            "vel": 89,
            "ch": 6
          },
          {
            "step": 1990,
            "len": 5,
            "note": 62,
            "vel": 89,
            "ch": 6
          },
          {
            "step": 1990,
            "len": 5,
            "note": 71,
            "vel": 89,
            "ch": 6
          },
          {
            "step": 1990,
            "len": 5,
            "note": 74,
            "vel": 89,
            "ch": 6
          },
          {
            "step": 1996,
            "len": 2,
            "note": 61,
            "vel": 89,
            "ch": 6
          },
          {
            "step": 1996,
            "len": 2,
            "note": 69,
            "vel": 89,
            "ch": 6
          },
          {
            "step": 1996,
            "len": 2,
            "note": 73,
            "vel": 89,
            "ch": 6
          }
        ]
      }
    }
  }
}