{
  "name": "Wings Silly Love Songs Derived Starters",
  "version": "v1",
  "source": {
    "midi": "assets/midi/references/wings-silly-love-songs/Wings - Silly Love Songs.mid",
    "track_mapping": {
      "Rhythm": "Linda (electric piano)",
      "Bass": "Paul (electric bass)",
      "Texture": "Percussion (intro-focused)",
      "Drums": "Drums (rock kit)"
    },
    "note": "Pop/disco-derived source used as rhythmic and arrangement vocabulary, not harmonic/style cloning."
  },
  "tracks": {
    "Rhythm": [
      {
        "id": "rhythm_intro_sparse_8bar",
        "section_source": "intro",
        "bars": 8,
        "events": [
          {
            "step": 0,
            "len": 16,
            "note": 48,
            "vel": 102,
            "ch": 4
          },
          {
            "step": 0,
            "len": 16,
            "note": 52,
            "vel": 102,
            "ch": 4
          },
          {
            "step": 0,
            "len": 16,
            "note": 55,
            "vel": 102,
            "ch": 4
          },
          {
            "step": 0,
            "len": 16,
            "note": 60,
            "vel": 102,
            "ch": 4
          },
          {
            "step": 16,
            "len": 16,
            "note": 40,
            "vel": 102,
            "ch": 4
          },
          {
            "step": 16,
            "len": 16,
            "note": 52,
            "vel": 102,
            "ch": 4
          },
          {
            "step": 16,
            "len": 16,
            "note": 55,
            "vel": 102,
            "ch": 4
          },
          {
            "step": 16,
            "len": 16,
            "note": 59,
            "vel": 102,
            "ch": 4
          },
          {
            "step": 16,
            "len": 16,
            "note": 62,
            "vel": 102,
            "ch": 4
          },
          {
            "step": 32,
            "len": 32,
            "note": 41,
            "vel": 102,
            "ch": 4
          },
          {
            "step": 32,
            "len": 32,
            "note": 53,
            "vel": 102,
            "ch": 4
          },
          {
            "step": 32,
            "len": 32,
            "note": 57,
            "vel": 102,
            "ch": 4
          },
          {
            "step": 32,
            "len": 32,
            "note": 60,
            "vel": 102,
            "ch": 4
          },
          {
            "step": 32,
            "len": 16,
            "note": 64,
            "vel": 102,
            "ch": 4
          },
          {
            "step": 64,
            "len": 16,
            "note": 48,
            "vel": 102,
            "ch": 4
          },
          {
            "step": 64,
            "len": 16,
            "note": 52,
            "vel": 102,
            "ch": 4
          },
          {
            "step": 64,
            "len": 16,
            "note": 55,
            "vel": 102,
            "ch": 4
          },
          {
            "step": 64,
            "len": 16,
            "note": 60,
            "vel": 102,
            "ch": 4
          },
          {
            "step": 80,
            "len": 16,
            "note": 40,
            "vel": 102,
            "ch": 4
          },
          {
            "step": 80,
            "len": 16,
            "note": 52,
            "vel": 102,
            "ch": 4
          },
          {
            "step": 80,
            "len": 16,
            "note": 55,
            "vel": 102,
            "ch": 4
          },
          {
            "step": 80,
            "len": 16,
            "note": 59,
            "vel": 102,
            "ch": 4
          },
          {
            "step": 80,
            "len": 16,
            "note": 62,
            "vel": 102,
            "ch": 4
          },
          {
            "step": 96,
            "len": 32,
            "note": 41,
            "vel": 102,
            "ch": 4
          },
          {
            "step": 96,
            "len": 32,
            "note": 53,
            "vel": 102,
            "ch": 4
          },
          {
            "step": 96,
            "len": 32,
            "note": 57,
            "vel": 102,
            "ch": 4
          },
          {
            "step": 96,
            "len": 32,
            "note": 60,
            "vel": 102,
            "ch": 4
          },
          {
            "step": 96,
            "len": 16,
            "note": 64,
            "vel": 102,
            "ch": 4
          }
        ]
      },
      {
        "id": "rhythm_preverse_groove_4bar",
        "section_source": "preverse",
        "bars": 4,
        "events": [
          {
            "step": 0,
            "len": 6,
            "note": 52,
            "vel": 102,
            "ch": 4
          },
          {
            "step": 0,
            "len": 6,
            "note": 55,
            "vel": 102,
            "ch": 4
          },
          {
            "step": 0,
            "len": 6,
            "note": 60,
            "vel": 102,
            "ch": 4
          },
          {
            "step": 6,
            "len": 6,
            "note": 52,
            "vel": 102,
            "ch": 4
          },
          {
            "step": 6,
            "len": 6,
            "note": 55,
            "vel": 102,
            "ch": 4
          },
          {
            "step": 6,
            "len": 6,
            "note": 60,
            "vel": 102,
            "ch": 4
          },
          {
            "step": 12,
            "len": 2,
            "note": 52,
            "vel": 102,
            "ch": 4
          },
          {
            "step": 12,
            "len": 2,
            "note": 55,
            "vel": 102,
            "ch": 4
          },
          {
            "step": 12,
            "len": 2,
            "note": 60,
            "vel": 102,
            "ch": 4
          },
          {
            "step": 14,
            "len": 2,
            "note": 52,
            "vel": 102,
            "ch": 4
          },
          {
            "step": 16,
            "len": 4,
            "note": 52,
            "vel": 102,
            "ch": 4
          },
          {
            "step": 16,
            "len": 4,
            "note": 55,
            "vel": 102,
            "ch": 4
          },
          {
            "step": 16,
            "len": 4,
            "note": 57,
            "vel": 102,
            "ch": 4
          },
          {
            "step": 16,
            "len": 4,
            "note": 62,
            "vel": 102,
            "ch": 4
          },
          {
            "step": 22,
            "len": 2,
            "note": 52,
            "vel": 102,
            "ch": 4
          },
          {
            "step": 22,
            "len": 2,
            "note": 55,
            "vel": 102,
            "ch": 4
          },
          {
            "step": 22,
            "len": 2,
            "note": 59,
            "vel": 102,
            "ch": 4
          },
          {
            "step": 22,
            "len": 2,
            "note": 62,
            "vel": 102,
            "ch": 4
          },
          {
            "step": 24,
            "len": 2,
            "note": 52,
            "vel": 102,
            "ch": 4
          },
          {
            "step": 24,
            "len": 2,
            "note": 55,
            "vel": 102,
            "ch": 4
          },
          {
            "step": 24,
            "len": 2,
            "note": 59,
            "vel": 102,
            "ch": 4
          },
          {
            "step": 24,
            "len": 8,
            "note": 62,
            "vel": 102,
            "ch": 4
          },
          {
            "step": 26,
            "len": 2,
            "note": 52,
            "vel": 89,
            "ch": 4
          },
          {
            "step": 26,
            "len": 2,
            "note": 55,
            "vel": 89,
            "ch": 4
          },
          {
            "step": 26,
            "len": 2,
            "note": 59,
            "vel": 89,
            "ch": 4
          },
          {
            "step": 28,
            "len": 2,
            "note": 52,
            "vel": 89,
            "ch": 4
          },
          {
            "step": 28,
            "len": 2,
            "note": 55,
            "vel": 89,
            "ch": 4
          },
          {
            "step": 28,
            "len": 4,
            "note": 59,
            "vel": 89,
            "ch": 4
          },
          {
            "step": 30,
            "len": 2,
            "note": 55,
            "vel": 89,
            "ch": 4
          },
          {
            "step": 32,
            "len": 16,
            "note": 53,
            "vel": 102,
            "ch": 4
          },
          {
            "step": 32,
            "len": 16,
            "note": 57,
            "vel": 102,
            "ch": 4
          },
          {
            "step": 32,
            "len": 16,
            "note": 60,
            "vel": 102,
            "ch": 4
          },
          {
            "step": 48,
            "len": 2,
            "note": 53,
            "vel": 102,
            "ch": 4
          },
          {
            "step": 48,
            "len": 2,
            "note": 57,
            "vel": 102,
            "ch": 4
          },
          {
            "step": 50,
            "len": 2,
            "note": 53,
            "vel": 102,
            "ch": 4
          },
          {
            "step": 50,
            "len": 2,
            "note": 57,
            "vel": 102,
            "ch": 4
          }
        ]
      },
      {
        "id": "rhythm_verse_drive_a_4bar",
        "section_source": "verse",
        "bars": 4,
        "events": [
          {
            "step": 0,
            "len": 6,
            "note": 52,
            "vel": 102,
            "ch": 4
          },
          {
            "step": 0,
            "len": 6,
            "note": 55,
            "vel": 102,
            "ch": 4
          },
          {
            "step": 0,
            "len": 6,
            "note": 60,
            "vel": 102,
            "ch": 4
          },
          {
            "step": 6,
            "len": 6,
            "note": 52,
            "vel": 102,
            "ch": 4
          },
          {
            "step": 6,
            "len": 6,
            "note": 55,
            "vel": 102,
            "ch": 4
          },
          {
            "step": 6,
            "len": 6,
            "note": 60,
            "vel": 102,
            "ch": 4
          },
          {
            "step": 12,
            "len": 2,
            "note": 52,
            "vel": 102,
            "ch": 4
          },
          {
            "step": 12,
            "len": 2,
            "note": 55,
            "vel": 102,
            "ch": 4
          },
          {
            "step": 12,
            "len": 2,
            "note": 60,
            "vel": 102,
            "ch": 4
          },
          {
            "step": 16,
            "len": 6,
            "note": 52,
            "vel": 102,
            "ch": 4
          },
          {
            "step": 16,
            "len": 6,
            "note": 55,
            "vel": 102,
            "ch": 4
          },
          {
            "step": 16,
            "len": 6,
            "note": 59,
            "vel": 102,
            "ch": 4
          },
          {
            "step": 16,
            "len": 6,
            "note": 62,
            "vel": 102,
            "ch": 4
          },
          {
            "step": 22,
            "len": 6,
            "note": 52,
            "vel": 102,
            "ch": 4
          },
          {
            "step": 22,
            "len": 6,
            "note": 55,
            "vel": 102,
            "ch": 4
          },
          {
            "step": 22,
            "len": 6,
            "note": 59,
            "vel": 102,
            "ch": 4
          },
          {
            "step": 22,
            "len": 6,
            "note": 62,
            "vel": 102,
            "ch": 4
          },
          {
            "step": 28,
            "len": 2,
            "note": 52,
            "vel": 102,
            "ch": 4
          },
          {
            "step": 28,
            "len": 2,
            "note": 55,
            "vel": 102,
            "ch": 4
          },
          {
            "step": 28,
            "len": 2,
            "note": 59,
            "vel": 102,
            "ch": 4
          },
          {
            "step": 28,
            "len": 2,
            "note": 62,
            "vel": 102,
            "ch": 4
          },
          {
            "step": 32,
            "len": 6,
            "note": 53,
            "vel": 102,
            "ch": 4
          },
          {
            "step": 32,
            "len": 6,
            "note": 57,
            "vel": 102,
            "ch": 4
          },
          {
            "step": 32,
            "len": 6,
            "note": 60,
            "vel": 102,
            "ch": 4
          },
          {
            "step": 32,
            "len": 6,
            "note": 64,
            "vel": 102,
            "ch": 4
          },
          {
            "step": 38,
            "len": 8,
            "note": 53,
            "vel": 102,
            "ch": 4
          },
          {
            "step": 38,
            "len": 8,
            "note": 57,
            "vel": 102,
            "ch": 4
          },
          {
            "step": 38,
            "len": 8,
            "note": 60,
            "vel": 102,
            "ch": 4
          },
          {
            "step": 38,
            "len": 8,
            "note": 64,
            "vel": 102,
            "ch": 4
          },
          {
            "step": 47,
            "len": 3,
            "note": 53,
            "vel": 102,
            "ch": 4
          },
          {
            "step": 47,
            "len": 3,
            "note": 57,
            "vel": 102,
            "ch": 4
          },
          {
            "step": 47,
            "len": 5,
            "note": 60,
            "vel": 102,
            "ch": 4
          },
          {
            "step": 48,
            "len": 2,
            "note": 64,
            "vel": 102,
            "ch": 4
          },
          {
            "step": 50,
            "len": 2,
            "note": 57,
            "vel": 102,
            "ch": 4
          },
          {
            "step": 50,
            "len": 2,
            "note": 65,
            "vel": 102,
            "ch": 4
          },
          {
            "step": 52,
            "len": 2,
            "note": 57,
            "vel": 102,
            "ch": 4
          },
          {
            "step": 52,
            "len": 2,
            "note": 60,
            "vel": 102,
            "ch": 4
          },
          {
            "step": 52,
            "len": 12,
            "note": 64,
            "vel": 102,
            "ch": 4
          },
          {
            "step": 54,
            "len": 10,
            "note": 57,
            "vel": 89,
            "ch": 4
          },
          {
            "step": 54,
            "len": 2,
            "note": 60,
            "vel": 89,
            "ch": 4
          },
          {
            "step": 56,
            "len": 2,
            "note": 60,
            "vel": 89,
            "ch": 4
          },
          {
            "step": 58,
            "len": 6,
            "note": 60,
            "vel": 89,
            "ch": 4
          }
        ]
      },
      {
        "id": "rhythm_verse_drive_b_4bar",
        "section_source": "verse",
        "bars": 4,
        "events": [
          {
            "step": 0,
            "len": 6,
            "note": 52,
            "vel": 102,
            "ch": 4
          },
          {
            "step": 0,
            "len": 6,
            "note": 55,
            "vel": 102,
            "ch": 4
          },
          {
            "step": 0,
            "len": 6,
            "note": 60,
            "vel": 102,
            "ch": 4
          },
          {
            "step": 6,
            "len": 6,
            "note": 52,
            "vel": 102,
            "ch": 4
          },
          {
            "step": 6,
            "len": 6,
            "note": 55,
            "vel": 102,
            "ch": 4
          },
          {
            "step": 6,
            "len": 6,
            "note": 60,
            "vel": 102,
            "ch": 4
          },
          {
            "step": 12,
            "len": 2,
            "note": 52,
            "vel": 102,
            "ch": 4
          },
          {
            "step": 12,
            "len": 2,
            "note": 55,
            "vel": 102,
            "ch": 4
          },
          {
            "step": 12,
            "len": 2,
            "note": 60,
            "vel": 102,
            "ch": 4
          },
          {
            "step": 16,
            "len": 6,
            "note": 52,
            "vel": 102,
            "ch": 4
          },
          {
            "step": 16,
            "len": 6,
            "note": 55,
            "vel": 102,
            "ch": 4
          },
          {
            "step": 16,
            "len": 6,
            "note": 59,
            "vel": 102,
            "ch": 4
          },
          {
            "step": 16,
            "len": 6,
            "note": 62,
            "vel": 102,
            "ch": 4
          },
          {
            "step": 22,
            "len": 6,
            "note": 52,
            "vel": 102,
            "ch": 4
          },
          {
            "step": 22,
            "len": 6,
            "note": 55,
            "vel": 102,
            "ch": 4
          },
          {
            "step": 22,
            "len": 6,
            "note": 59,
            "vel": 102,
            "ch": 4
          },
          {
            "step": 22,
            "len": 6,
            "note": 62,
            "vel": 102,
            "ch": 4
          },
          {
            "step": 28,
            "len": 2,
            "note": 52,
            "vel": 102,
            "ch": 4
          },
          {
            "step": 28,
            "len": 2,
            "note": 55,
            "vel": 102,
            "ch": 4
          },
          {
            "step": 28,
            "len": 2,
            "note": 59,
            "vel": 102,
            "ch": 4
          },
          {
            "step": 28,
            "len": 2,
            "note": 62,
            "vel": 102,
            "ch": 4
          },
          {
            "step": 32,
            "len": 6,
            "note": 53,
            "vel": 102,
            "ch": 4
          },
          {
            "step": 32,
            "len": 6,
            "note": 57,
            "vel": 102,
            "ch": 4
          },
          {
            "step": 32,
            "len": 6,
            "note": 60,
            "vel": 102,
            "ch": 4
          },
          {
            "step": 32,
            "len": 6,
            "note": 64,
            "vel": 102,
            "ch": 4
          },
          {
            "step": 38,
            "len": 8,
            "note": 53,
            "vel": 102,
            "ch": 4
          },
          {
            "step": 38,
            "len": 8,
            "note": 57,
            "vel": 102,
            "ch": 4
          },
          {
            "step": 38,
            "len": 8,
            "note": 60,
            "vel": 102,
            "ch": 4
          },
          {
            "step": 38,
            "len": 8,
            "note": 64,
            "vel": 102,
            "ch": 4
          },
          {
            "step": 47,
            "len": 3,
            "note": 53,
            "vel": 102,
            "ch": 4
          },
          {
            "step": 47,
            "len": 3,
            "note": 57,
            "vel": 102,
            "ch": 4
          },
          {
            "step": 47,
            "len": 3,
            "note": 60,
            "vel": 102,
            "ch": 4
          },
          {
            "step": 48,
            "len": 2,
            "note": 64,
            "vel": 102,
            "ch": 4
          },
          {
            "step": 50,
            "len": 2,
            "note": 60,
            "vel": 102,
            "ch": 4
          },
          {
            "step": 50,
            "len": 2,
            "note": 65,
            "vel": 102,
            "ch": 4
          },
          {
            "step": 52,
            "len": 2,
            "note": 60,
            "vel": 102,
            "ch": 4
          },
          {
            "step": 52,
            "len": 6,
            "note": 64,
            "vel": 102,
            "ch": 4
          },
          {
            "step": 54,
            "len": 4,
            "note": 53,
            "vel": 89,
            "ch": 4
          },
          {
            "step": 54,
            "len": 4,
            "note": 57,
            "vel": 89,
            "ch": 4
          },
          {
            "step": 54,
            "len": 2,
            "note": 60,
            "vel": 89,
            "ch": 4
          },
          {
            "step": 56,
            "len": 2,
            "note": 60,
            "vel": 89,
            "ch": 4
          },
          {
            "step": 58,
            "len": 4,
            "note": 53,
            "vel": 89,
            "ch": 4
          },
          {
            "step": 58,
            "len": 4,
            "note": 57,
            "vel": 89,
            "ch": 4
          },
          {
            "step": 58,
            "len": 4,
            "note": 60,
            "vel": 89,
            "ch": 4
          },
          {
            "step": 62,
            "len": 2,
            "note": 53,
            "vel": 114,
            "ch": 4
          }
        ]
      },
      {
        "id": "rhythm_bridge_sparse_8bar",
        "section_source": "bridge",
        "bars": 8,
        "events": [
          {
            "step": 0,
            "len": 6,
            "note": 52,
            "vel": 102,
            "ch": 4
          },
          {
            "step": 0,
            "len": 6,
            "note": 55,
            "vel": 102,
            "ch": 4
          },
          {
            "step": 0,
            "len": 6,
            "note": 59,
            "vel": 102,
            "ch": 4
          },
          {
            "step": 0,
            "len": 6,
            "note": 62,
            "vel": 102,
            "ch": 4
          },
          {
            "step": 6,
            "len": 6,
            "note": 52,
            "vel": 102,
            "ch": 4
          },
          {
            "step": 6,
            "len": 6,
            "note": 55,
            "vel": 102,
            "ch": 4
          },
          {
            "step": 6,
            "len": 6,
            "note": 59,
            "vel": 102,
            "ch": 4
          },
          {
            "step": 12,
            "len": 4,
            "note": 52,
            "vel": 102,
            "ch": 4
          },
          {
            "step": 12,
            "len": 4,
            "note": 55,
            "vel": 102,
            "ch": 4
          },
          {
            "step": 12,
            "len": 4,
            "note": 59,
            "vel": 102,
            "ch": 4
          },
          {
            "step": 16,
            "len": 6,
            "note": 52,
            "vel": 102,
            "ch": 4
          },
          {
            "step": 16,
            "len": 6,
            "note": 55,
            "vel": 102,
            "ch": 4
          },
          {
            "step": 16,
            "len": 6,
            "note": 59,
            "vel": 102,
            "ch": 4
          },
          {
            "step": 16,
            "len": 16,
            "note": 62,
            "vel": 102,
            "ch": 4
          },
          {
            "step": 22,
            "len": 6,
            "note": 52,
            "vel": 89,
            "ch": 4
          },
          {
            "step": 22,
            "len": 6,
            "note": 55,
            "vel": 89,
            "ch": 4
          },
          {
            "step": 22,
            "len": 6,
            "note": 59,
            "vel": 89,
            "ch": 4
          },
          {
            "step": 28,
            "len": 4,
            "note": 52,
            "vel": 89,
            "ch": 4
          },
          {
            "step": 28,
            "len": 4,
            "note": 55,
            "vel": 89,
            "ch": 4
          },
          {
            "step": 28,
            "len": 4,
            "note": 59,
            "vel": 89,
            "ch": 4
          },
          {
            "step": 32,
            "len": 6,
            "note": 53,
            "vel": 102,
            "ch": 4
          },
          {
            "step": 32,
            "len": 6,
            "note": 57,
            "vel": 102,
            "ch": 4
          },
          {
            "step": 32,
            "len": 6,
            "note": 60,
            "vel": 102,
            "ch": 4
          },
          {
            "step": 32,
            "len": 32,
            "note": 64,
            "vel": 102,
            "ch": 4
          },
          {
            "step": 38,
            "len": 6,
            "note": 53,
            "vel": 89,
            "ch": 4
          },
          {
            "step": 38,
            "len": 6,
            "note": 57,
            "vel": 89,
            "ch": 4
          },
          {
            "step": 38,
            "len": 6,
            "note": 60,
            "vel": 89,
            "ch": 4
          },
          {
            "step": 44,
            "len": 4,
            "note": 53,
            "vel": 89,
            "ch": 4
          },
          {
            "step": 44,
            "len": 4,
            "note": 57,
            "vel": 89,
            "ch": 4
          },
          {
            "step": 44,
            "len": 4,
            "note": 60,
            "vel": 89,
            "ch": 4
          },
          {
            "step": 48,
            "len": 6,
            "note": 53,
            "vel": 89,
            "ch": 4
          },
          {
            "step": 48,
            "len": 6,
            "note": 57,
            "vel": 89,
            "ch": 4
          },
          {
            "step": 48,
            "len": 6,
            "note": 60,
            "vel": 89,
            "ch": 4
          },
          {
            "step": 54,
            "len": 6,
            "note": 53,
            "vel": 89,
            "ch": 4
          },
          {
            "step": 54,
            "len": 6,
            "note": 57,
            "vel": 89,
            "ch": 4
          },
          {
            "step": 54,
            "len": 6,
            "note": 60,
            "vel": 89,
            "ch": 4
          },
          {
            "step": 60,
            "len": 4,
            "note": 53,
            "vel": 89,
            "ch": 4
          },
          {
            "step": 60,
            "len": 4,
            "note": 57,
            "vel": 89,
            "ch": 4
          },
          {
            "step": 60,
            "len": 4,
            "note": 60,
            "vel": 89,
            "ch": 4
          },
          {
            "step": 64,
            "len": 16,
            "note": 50,
            "vel": 102,
            "ch": 4
          },
          {
            "step": 64,
            "len": 6,
            "note": 55,
            "vel": 102,
            "ch": 4
          },
          {
            "step": 64,
            "len": 6,
            "note": 59,
            "vel": 102,
            "ch": 4
          },
          {
            "step": 64,
            "len": 6,
            "note": 62,
            "vel": 102,
            "ch": 4
          },
          {
            "step": 70,
            "len": 6,
            "note": 55,
            "vel": 102,
            "ch": 4
          },
          {
            "step": 70,
            "len": 6,
            "note": 59,
            "vel": 102,
            "ch": 4
          },
          {
            "step": 70,
            "len": 6,
            "note": 62,
            "vel": 102,
            "ch": 4
          },
          {
            "step": 76,
            "len": 4,
            "note": 55,
            "vel": 89,
            "ch": 4
          },
          {
            "step": 76,
            "len": 4,
            "note": 59,
            "vel": 89,
            "ch": 4
          },
          {
            "step": 76,
            "len": 20,
            "note": 62,
            "vel": 89,
            "ch": 4
          },
          {
            "step": 80,
            "len": 5,
            "note": 50,
            "vel": 89,
            "ch": 4
          },
          {
            "step": 80,
            "len": 5,
            "note": 55,
            "vel": 89,
            "ch": 4
          },
          {
            "step": 80,
            "len": 5,
            "note": 59,
            "vel": 89,
            "ch": 4
          },
          {
            "step": 85,
            "len": 5,
            "note": 50,
            "vel": 89,
            "ch": 4
          },
          {
            "step": 85,
            "len": 5,
            "note": 55,
            "vel": 89,
            "ch": 4
          },
          {
            "step": 85,
            "len": 5,
            "note": 59,
            "vel": 89,
            "ch": 4
          },
          {
            "step": 91,
            "len": 5,
            "note": 50,
            "vel": 89,
            "ch": 4
          },
          {
            "step": 91,
            "len": 5,
            "note": 55,
            "vel": 89,
            "ch": 4
          },
          {
            "step": 91,
            "len": 5,
            "note": 59,
            "vel": 89,
            "ch": 4
          },
          {
            "step": 112,
            "len": 2,
            "note": 50,
            "vel": 102,
            "ch": 4
          },
          {
            "step": 112,
            "len": 2,
            "note": 55,
            "vel": 102,
            "ch": 4
          },
          {
            "step": 112,
            "len": 2,
            "note": 59,
            "vel": 102,
            "ch": 4
          },
          {
            "step": 116,
            "len": 12,
            "note": 50,
            "vel": 102,
            "ch": 4
          },
          {
            "step": 116,
            "len": 12,
            "note": 55,
            "vel": 102,
            "ch": 4
          },
          {
            "step": 116,
            "len": 12,
            "note": 59,
            "vel": 102,
            "ch": 4
          }
        ]
      },
      {
        "id": "rhythm_chorus_lift_a_4bar",
        "section_source": "chorus",
        "bars": 4,
        "events": [
          {
            "step": 0,
            "len": 16,
            "note": 52,
            "vel": 102,
            "ch": 4
          },
          {
            "step": 0,
            "len": 16,
            "note": 55,
            "vel": 102,
            "ch": 4
          },
          {
            "step": 0,
            "len": 16,
            "note": 60,
            "vel": 102,
            "ch": 4
          },
          {
            "step": 16,
            "len": 16,
            "note": 52,
            "vel": 102,
            "ch": 4
          },
          {
            "step": 16,
            "len": 16,
            "note": 55,
            "vel": 102,
            "ch": 4
          },
          {
            "step": 16,
            "len": 16,
            "note": 62,
            "vel": 102,
            "ch": 4
          },
          {
            "step": 32,
            "len": 16,
            "note": 53,
            "vel": 102,
            "ch": 4
          },
          {
            "step": 32,
            "len": 16,
            "note": 57,
            "vel": 102,
            "ch": 4
          },
          {
            "step": 32,
            "len": 16,
            "note": 60,
            "vel": 102,
            "ch": 4
          },
          {
            "step": 32,
            "len": 16,
            "note": 64,
            "vel": 102,
            "ch": 4
          },
          {
            "step": 48,
            "len": 2,
            "note": 53,
            "vel": 102,
            "ch": 4
          },
          {
            "step": 48,
            "len": 2,
            "note": 57,
            "vel": 102,
            "ch": 4
          },
          {
            "step": 48,
            "len": 2,
            "note": 60,
            "vel": 102,
            "ch": 4
          },
          {
            "step": 48,
            "len": 2,
            "note": 64,
            "vel": 102,
            "ch": 4
          },
          {
            "step": 50,
            "len": 2,
            "note": 65,
            "vel": 102,
            "ch": 4
          },
          {
            "step": 54,
            "len": 4,
            "note": 53,
            "vel": 102,
            "ch": 4
          },
          {
            "step": 54,
            "len": 4,
            "note": 57,
            "vel": 102,
            "ch": 4
          },
          {
            "step": 54,
            "len": 4,
            "note": 60,
            "vel": 102,
            "ch": 4
          },
          {
            "step": 54,
            "len": 4,
            "note": 64,
            "vel": 102,
            "ch": 4
          },
          {
            "step": 58,
            "len": 4,
            "note": 57,
            "vel": 102,
            "ch": 4
          },
          {
            "step": 58,
            "len": 4,
            "note": 60,
            "vel": 102,
            "ch": 4
          }
        ]
      },
      {
        "id": "rhythm_chorus_lift_b_4bar",
        "section_source": "chorus",
        "bars": 4,
        "events": [
          {
            "step": 0,
            "len": 14,
            "note": 52,
            "vel": 102,
            "ch": 4
          },
          {
            "step": 0,
            "len": 14,
            "note": 55,
            "vel": 102,
            "ch": 4
          },
          {
            "step": 0,
            "len": 14,
            "note": 60,
            "vel": 102,
            "ch": 4
          },
          {
            "step": 16,
            "len": 16,
            "note": 52,
            "vel": 102,
            "ch": 4
          },
          {
            "step": 16,
            "len": 16,
            "note": 55,
            "vel": 102,
            "ch": 4
          },
          {
            "step": 16,
            "len": 16,
            "note": 59,
            "vel": 102,
            "ch": 4
          },
          {
            "step": 16,
            "len": 16,
            "note": 62,
            "vel": 102,
            "ch": 4
          },
          {
            "step": 32,
            "len": 16,
            "note": 53,
            "vel": 102,
            "ch": 4
          },
          {
            "step": 32,
            "len": 16,
            "note": 57,
            "vel": 102,
            "ch": 4
          },
          {
            "step": 32,
            "len": 16,
            "note": 60,
            "vel": 102,
            "ch": 4
          },
          {
            "step": 32,
            "len": 16,
            "note": 64,
            "vel": 102,
            "ch": 4
          },
          {
            "step": 48,
            "len": 2,
            "note": 53,
            "vel": 102,
            "ch": 4
          },
          {
            "step": 48,
            "len": 2,
            "note": 57,
            "vel": 102,
            "ch": 4
          },
          {
            "step": 48,
            "len": 2,
            "note": 60,
            "vel": 102,
            "ch": 4
          },
          {
            "step": 48,
            "len": 2,
            "note": 64,
            "vel": 102,
            "ch": 4
          },
          {
            "step": 50,
            "len": 2,
            "note": 53,
            "vel": 102,
            "ch": 4
          },
          {
            "step": 50,
            "len": 2,
            "note": 57,
            "vel": 102,
            "ch": 4
          },
          {
            "step": 50,
            "len": 2,
            "note": 65,
            "vel": 102,
            "ch": 4
          },
          {
            "step": 54,
            "len": 4,
            "note": 53,
            "vel": 102,
            "ch": 4
          },
          {
            "step": 54,
            "len": 4,
            "note": 57,
            "vel": 102,
            "ch": 4
          },
          {
            "step": 54,
            "len": 4,
            "note": 60,
            "vel": 102,
            "ch": 4
          },
          {
            "step": 54,
            "len": 4,
            "note": 64,
            "vel": 102,
            "ch": 4
          },
          {
            "step": 58,
            "len": 2,
            "note": 53,
            "vel": 102,
            "ch": 4
          },
          {
            "step": 58,
            "len": 2,
            "note": 60,
            "vel": 102,
            "ch": 4
          },
          {
            "step": 60,
            "len": 2,
            "note": 57,
            "vel": 102,
            "ch": 4
          }
        ]
      }
    ],
    "Bass": [
      {
        "id": "bass_preverse_groove_4bar",
        "section_source": "preverse",
        "bars": 4,
        "events": [
          {
            "step": 0,
            "len": 2,
            "note": 36,
            "vel": 114,
            "ch": 2
          },
          {
            "step": 2,
            "len": 2,
            "note": 36,
            "vel": 114,
            "ch": 2
          },
          {
            "step": 4,
            "len": 2,
            "note": 33,
            "vel": 114,
            "ch": 2
          },
          {
            "step": 6,
            "len": 2,
            "note": 33,
            "vel": 114,
            "ch": 2
          },
          {
            "step": 8,
            "len": 2,
            "note": 31,
            "vel": 114,
            "ch": 2
          },
          {
            "step": 10,
            "len": 2,
            "note": 31,
            "vel": 114,
            "ch": 2
          },
          {
            "step": 12,
            "len": 2,
            "note": 33,
            "vel": 114,
            "ch": 2
          },
          {
            "step": 14,
            "len": 2,
            "note": 31,
            "vel": 114,
            "ch": 2
          },
          {
            "step": 16,
            "len": 4,
            "note": 28,
            "vel": 114,
            "ch": 2
          },
          {
            "step": 20,
            "len": 2,
            "note": 29,
            "vel": 114,
            "ch": 2
          },
          {
            "step": 22,
            "len": 2,
            "note": 30,
            "vel": 114,
            "ch": 2
          },
          {
            "step": 24,
            "len": 4,
            "note": 31,
            "vel": 114,
            "ch": 2
          },
          {
            "step": 28,
            "len": 2,
            "note": 31,
            "vel": 114,
            "ch": 2
          },
          {
            "step": 30,
            "len": 2,
            "note": 30,
            "vel": 114,
            "ch": 2
          },
          {
            "step": 32,
            "len": 2,
            "note": 29,
            "vel": 114,
            "ch": 2
          },
          {
            "step": 34,
            "len": 4,
            "note": 29,
            "vel": 114,
            "ch": 2
          },
          {
            "step": 38,
            "len": 2,
            "note": 29,
            "vel": 114,
            "ch": 2
          },
          {
            "step": 40,
            "len": 2,
            "note": 29,
            "vel": 114,
            "ch": 2
          },
          {
            "step": 42,
            "len": 6,
            "note": 29,
            "vel": 114,
            "ch": 2
          },
          {
            "step": 48,
            "len": 2,
            "note": 29,
            "vel": 114,
            "ch": 2
          },
          {
            "step": 50,
            "len": 2,
            "note": 29,
            "vel": 114,
            "ch": 2
          },
          {
            "step": 60,
            "len": 4,
            "note": 43,
            "vel": 114,
            "ch": 2
          }
        ]
      },
      {
        "id": "bass_verse_drive_a_4bar",
        "section_source": "verse",
        "bars": 4,
        "events": [
          {
            "step": 0,
            "len": 2,
            "note": 36,
            "vel": 114,
            "ch": 2
          },
          {
            "step": 2,
            "len": 2,
            "note": 36,
            "vel": 114,
            "ch": 2
          },
          {
            "step": 4,
            "len": 2,
            "note": 33,
            "vel": 114,
            "ch": 2
          },
          {
            "step": 6,
            "len": 2,
            "note": 33,
            "vel": 114,
            "ch": 2
          },
          {
            "step": 8,
            "len": 2,
            "note": 31,
            "vel": 114,
            "ch": 2
          },
          {
            "step": 10,
            "len": 2,
            "note": 31,
            "vel": 114,
            "ch": 2
          },
          {
            "step": 12,
            "len": 2,
            "note": 33,
            "vel": 114,
            "ch": 2
          },
          {
            "step": 14,
            "len": 2,
            "note": 31,
            "vel": 114,
            "ch": 2
          },
          {
            "step": 16,
            "len": 4,
            "note": 28,
            "vel": 114,
            "ch": 2
          },
          {
            "step": 20,
            "len": 2,
            "note": 29,
            "vel": 114,
            "ch": 2
          },
          {
            "step": 22,
            "len": 2,
            "note": 30,
            "vel": 114,
            "ch": 2
          },
          {
            "step": 24,
            "len": 4,
            "note": 31,
            "vel": 114,
            "ch": 2
          },
          {
            "step": 28,
            "len": 2,
            "note": 31,
            "vel": 114,
            "ch": 2
          },
          {
            "step": 30,
            "len": 2,
            "note": 30,
            "vel": 114,
            "ch": 2
          },
          {
            "step": 32,
            "len": 4,
            "note": 29,
            "vel": 114,
            "ch": 2
          },
          {
            "step": 36,
            "len": 2,
            "note": 31,
            "vel": 114,
            "ch": 2
          },
          {
            "step": 38,
            "len": 2,
            "note": 32,
            "vel": 114,
            "ch": 2
          },
          {
            "step": 40,
            "len": 2,
            "note": 33,
            "vel": 114,
            "ch": 2
          },
          {
            "step": 42,
            "len": 6,
            "note": 36,
            "vel": 114,
            "ch": 2
          },
          {
            "step": 48,
            "len": 2,
            "note": 33,
            "vel": 114,
            "ch": 2
          },
          {
            "step": 50,
            "len": 2,
            "note": 36,
            "vel": 114,
            "ch": 2
          },
          {
            "step": 56,
            "len": 2,
            "note": 38,
            "vel": 114,
            "ch": 2
          },
          {
            "step": 58,
            "len": 2,
            "note": 36,
            "vel": 114,
            "ch": 2
          }
        ]
      },
      {
        "id": "bass_verse_drive_b_4bar",
        "section_source": "verse",
        "bars": 4,
        "events": [
          {
            "step": 0,
            "len": 2,
            "note": 36,
            "vel": 114,
            "ch": 2
          },
          {
            "step": 2,
            "len": 2,
            "note": 36,
            "vel": 114,
            "ch": 2
          },
          {
            "step": 4,
            "len": 2,
            "note": 33,
            "vel": 114,
            "ch": 2
          },
          {
            "step": 6,
            "len": 2,
            "note": 33,
            "vel": 114,
            "ch": 2
          },
          {
            "step": 8,
            "len": 2,
            "note": 31,
            "vel": 114,
            "ch": 2
          },
          {
            "step": 10,
            "len": 2,
            "note": 31,
            "vel": 114,
            "ch": 2
          },
          {
            "step": 12,
            "len": 2,
            "note": 33,
            "vel": 114,
            "ch": 2
          },
          {
            "step": 14,
            "len": 2,
            "note": 31,
            "vel": 114,
            "ch": 2
          },
          {
            "step": 16,
            "len": 4,
            "note": 28,
            "vel": 114,
            "ch": 2
          },
          {
            "step": 20,
            "len": 2,
            "note": 29,
            "vel": 114,
            "ch": 2
          },
          {
            "step": 22,
            "len": 2,
            "note": 30,
            "vel": 114,
            "ch": 2
          },
          {
            "step": 24,
            "len": 4,
            "note": 31,
            "vel": 114,
            "ch": 2
          },
          {
            "step": 28,
            "len": 2,
            "note": 31,
            "vel": 114,
            "ch": 2
          },
          {
            "step": 30,
            "len": 2,
            "note": 30,
            "vel": 114,
            "ch": 2
          },
          {
            "step": 32,
            "len": 4,
            "note": 29,
            "vel": 114,
            "ch": 2
          },
          {
            "step": 36,
            "len": 2,
            "note": 31,
            "vel": 114,
            "ch": 2
          },
          {
            "step": 38,
            "len": 2,
            "note": 32,
            "vel": 114,
            "ch": 2
          },
          {
            "step": 40,
            "len": 2,
            "note": 33,
            "vel": 114,
            "ch": 2
          },
          {
            "step": 42,
            "len": 6,
            "note": 36,
            "vel": 114,
            "ch": 2
          },
          {
            "step": 48,
            "len": 2,
            "note": 33,
            "vel": 114,
            "ch": 2
          },
          {
            "step": 50,
            "len": 2,
            "note": 36,
            "vel": 114,
            "ch": 2
          },
          {
            "step": 56,
            "len": 2,
            "note": 38,
            "vel": 114,
            "ch": 2
          },
          {
            "step": 58,
            "len": 2,
            "note": 36,
            "vel": 114,
            "ch": 2
          }
        ]
      },
      {
        "id": "bass_bridge_sparse_8bar",
        "section_source": "bridge",
        "bars": 8,
        "events": [
          {
            "step": 0,
            "len": 28,
            "note": 28,
            "vel": 114,
            "ch": 2
          },
          {
            "step": 0,
            "len": 16,
            "note": 35,
            "vel": 114,
            "ch": 2
          },
          {
            "step": 16,
            "len": 6,
            "note": 35,
            "vel": 114,
            "ch": 2
          },
          {
            "step": 22,
            "len": 6,
            "note": 35,
            "vel": 114,
            "ch": 2
          },
          {
            "step": 28,
            "len": 4,
            "note": 28,
            "vel": 114,
            "ch": 2
          },
          {
            "step": 32,
            "len": 30,
            "note": 29,
            "vel": 114,
            "ch": 2
          },
          {
            "step": 62,
            "len": 1,
            "note": 43,
            "vel": 114,
            "ch": 2
          },
          {
            "step": 63,
            "len": 1,
            "note": 45,
            "vel": 114,
            "ch": 2
          },
          {
            "step": 64,
            "len": 16,
            "note": 43,
            "vel": 114,
            "ch": 2
          },
          {
            "step": 98,
            "len": 4,
            "note": 38,
            "vel": 114,
            "ch": 2
          },
          {
            "step": 102,
            "len": 4,
            "note": 40,
            "vel": 114,
            "ch": 2
          },
          {
            "step": 106,
            "len": 4,
            "note": 41,
            "vel": 114,
            "ch": 2
          },
          {
            "step": 110,
            "len": 2,
            "note": 42,
            "vel": 114,
            "ch": 2
          },
          {
            "step": 112,
            "len": 4,
            "note": 43,
            "vel": 114,
            "ch": 2
          },
          {
            "step": 116,
            "len": 12,
            "note": 31,
            "vel": 114,
            "ch": 2
          }
        ]
      },
      {
        "id": "bass_chorus_lift_a_4bar",
        "section_source": "chorus",
        "bars": 4,
        "events": [
          {
            "step": 0,
            "len": 2,
            "note": 36,
            "vel": 114,
            "ch": 2
          },
          {
            "step": 2,
            "len": 2,
            "note": 36,
            "vel": 114,
            "ch": 2
          },
          {
            "step": 4,
            "len": 2,
            "note": 33,
            "vel": 114,
            "ch": 2
          },
          {
            "step": 6,
            "len": 2,
            "note": 33,
            "vel": 114,
            "ch": 2
          },
          {
            "step": 8,
            "len": 2,
            "note": 31,
            "vel": 114,
            "ch": 2
          },
          {
            "step": 10,
            "len": 2,
            "note": 31,
            "vel": 114,
            "ch": 2
          },
          {
            "step": 12,
            "len": 2,
            "note": 33,
            "vel": 114,
            "ch": 2
          },
          {
            "step": 14,
            "len": 2,
            "note": 31,
            "vel": 114,
            "ch": 2
          },
          {
            "step": 16,
            "len": 4,
            "note": 28,
            "vel": 114,
            "ch": 2
          },
          {
            "step": 20,
            "len": 2,
            "note": 29,
            "vel": 114,
            "ch": 2
          },
          {
            "step": 22,
            "len": 2,
            "note": 30,
            "vel": 114,
            "ch": 2
          },
          {
            "step": 24,
            "len": 4,
            "note": 31,
            "vel": 114,
            "ch": 2
          },
          {
            "step": 28,
            "len": 2,
            "note": 31,
            "vel": 114,
            "ch": 2
          },
          {
            "step": 30,
            "len": 2,
            "note": 30,
            "vel": 114,
            "ch": 2
          },
          {
            "step": 32,
            "len": 4,
            "note": 29,
            "vel": 114,
            "ch": 2
          },
          {
            "step": 36,
            "len": 2,
            "note": 31,
            "vel": 114,
            "ch": 2
          },
          {
            "step": 38,
            "len": 2,
            "note": 32,
            "vel": 114,
            "ch": 2
          },
          {
            "step": 40,
            "len": 2,
            "note": 33,
            "vel": 114,
            "ch": 2
          },
          {
            "step": 42,
            "len": 6,
            "note": 36,
            "vel": 114,
            "ch": 2
          },
          {
            "step": 48,
            "len": 2,
            "note": 33,
            "vel": 114,
            "ch": 2
          },
          {
            "step": 50,
            "len": 2,
            "note": 36,
            "vel": 114,
            "ch": 2
          },
          {
            "step": 56,
            "len": 2,
            "note": 38,
            "vel": 114,
            "ch": 2
          },
          {
            "step": 58,
            "len": 2,
            "note": 36,
            "vel": 114,
            "ch": 2
          }
        ]
      },
      {
        "id": "bass_chorus_lift_b_4bar",
        "section_source": "chorus",
        "bars": 4,
        "events": [
          {
            "step": 0,
            "len": 2,
            "note": 36,
            "vel": 114,
            "ch": 2
          },
          {
            "step": 2,
            "len": 2,
            "note": 36,
            "vel": 114,
            "ch": 2
          },
          {
            "step": 4,
            "len": 2,
            "note": 33,
            "vel": 114,
            "ch": 2
          },
          {
            "step": 6,
            "len": 2,
            "note": 33,
            "vel": 114,
            "ch": 2
          },
          {
            "step": 8,
            "len": 2,
            "note": 31,
            "vel": 114,
            "ch": 2
          },
          {
            "step": 10,
            "len": 2,
            "note": 31,
            "vel": 114,
            "ch": 2
          },
          {
            "step": 12,
            "len": 2,
            "note": 33,
            "vel": 114,
            "ch": 2
          },
          {
            "step": 14,
            "len": 2,
            "note": 31,
            "vel": 114,
            "ch": 2
          },
          {
            "step": 16,
            "len": 4,
            "note": 28,
            "vel": 114,
            "ch": 2
          },
          {
            "step": 20,
            "len": 2,
            "note": 29,
            "vel": 114,
            "ch": 2
          },
          {
            "step": 22,
            "len": 2,
            "note": 30,
            "vel": 114,
            "ch": 2
          },
          {
            "step": 24,
            "len": 4,
            "note": 31,
            "vel": 114,
            "ch": 2
          },
          {
            "step": 28,
            "len": 2,
            "note": 31,
            "vel": 114,
            "ch": 2
          },
          {
            "step": 30,
            "len": 2,
            "note": 30,
            "vel": 114,
            "ch": 2
          },
          {
            "step": 32,
            "len": 4,
            "note": 29,
            "vel": 114,
            "ch": 2
          },
          {
            "step": 36,
            "len": 2,
            "note": 31,
            "vel": 114,
            "ch": 2
          },
          {
            "step": 38,
            "len": 2,
            "note": 32,
            "vel": 114,
            "ch": 2
          },
          {
            "step": 40,
            "len": 2,
            "note": 33,
            "vel": 114,
            "ch": 2
          },
          {
            "step": 42,
            "len": 6,
            "note": 36,
            "vel": 114,
            "ch": 2
          },
          {
            "step": 48,
            "len": 2,
            "note": 33,
            "vel": 114,
            "ch": 2
          },
          {
            "step": 50,
            "len": 2,
            "note": 36,
            "vel": 114,
            "ch": 2
          },
          {
            "step": 56,
            "len": 2,
            "note": 38,
            "vel": 114,
            "ch": 2
          },
          {
            "step": 58,
            "len": 2,
            "note": 36,
            "vel": 114,
            "ch": 2
          }
        ]
      }
    ],
    "Texture": [
      {
        "id": "texture_intro_sparse_8bar",
        "section_source": "intro",
        "bars": 8,
        "events": [
          {
            "step": 0,
            "len": 2,
            "note": 68,
            "vel": 114,
            "ch": 9
          },
          {
            "step": 8,
            "len": 1,
            "note": 67,
            "vel": 102,
            "ch": 9
          },
          {
            "step": 8,
            "len": 1,
            "note": 80,
            "vel": 102,
            "ch": 9
          },
          {
            "step": 9,
            "len": 1,
            "note": 67,
            "vel": 64,
            "ch": 9
          },
          {
            "step": 9,
            "len": 1,
            "note": 67,
            "vel": 51,
            "ch": 9
          },
          {
            "step": 9,
            "len": 1,
            "note": 80,
            "vel": 64,
            "ch": 9
          },
          {
            "step": 9,
            "len": 1,
            "note": 80,
            "vel": 51,
            "ch": 9
          },
          {
            "step": 10,
            "len": 2,
            "note": 67,
            "vel": 89,
            "ch": 9
          },
          {
            "step": 10,
            "len": 2,
            "note": 80,
            "vel": 89,
            "ch": 9
          },
          {
            "step": 16,
            "len": 2,
            "note": 68,
            "vel": 114,
            "ch": 9
          },
          {
            "step": 24,
            "len": 1,
            "note": 67,
            "vel": 102,
            "ch": 9
          },
          {
            "step": 24,
            "len": 1,
            "note": 80,
            "vel": 102,
            "ch": 9
          },
          {
            "step": 25,
            "len": 1,
            "note": 67,
            "vel": 64,
            "ch": 9
          },
          {
            "step": 25,
            "len": 1,
            "note": 67,
            "vel": 51,
            "ch": 9
          },
          {
            "step": 25,
            "len": 1,
            "note": 80,
            "vel": 64,
            "ch": 9
          },
          {
            "step": 25,
            "len": 1,
            "note": 80,
            "vel": 51,
            "ch": 9
          },
          {
            "step": 26,
            "len": 2,
            "note": 67,
            "vel": 89,
            "ch": 9
          },
          {
            "step": 26,
            "len": 2,
            "note": 80,
            "vel": 89,
            "ch": 9
          },
          {
            "step": 32,
            "len": 2,
            "note": 68,
            "vel": 114,
            "ch": 9
          },
          {
            "step": 40,
            "len": 1,
            "note": 67,
            "vel": 102,
            "ch": 9
          },
          {
            "step": 40,
            "len": 1,
            "note": 80,
            "vel": 102,
            "ch": 9
          },
          {
            "step": 41,
            "len": 1,
            "note": 67,
            "vel": 64,
            "ch": 9
          },
          {
            "step": 41,
            "len": 1,
            "note": 67,
            "vel": 51,
            "ch": 9
          },
          {
            "step": 41,
            "len": 1,
            "note": 80,
            "vel": 64,
            "ch": 9
          },
          {
            "step": 41,
            "len": 1,
            "note": 80,
            "vel": 51,
            "ch": 9
          },
          {
            "step": 42,
            "len": 2,
            "note": 67,
            "vel": 89,
            "ch": 9
          },
          {
            "step": 42,
            "len": 2,
            "note": 80,
            "vel": 89,
            "ch": 9
          },
          {
            "step": 48,
            "len": 2,
            "note": 68,
            "vel": 114,
            "ch": 9
          },
          {
            "step": 56,
            "len": 1,
            "note": 67,
            "vel": 102,
            "ch": 9
          },
          {
            "step": 56,
            "len": 1,
            "note": 80,
            "vel": 102,
            "ch": 9
          },
          {
            "step": 57,
            "len": 1,
            "note": 67,
            "vel": 64,
            "ch": 9
          },
          {
            "step": 57,
            "len": 1,
            "note": 67,
            "vel": 51,
            "ch": 9
          },
          {
            "step": 57,
            "len": 1,
            "note": 80,
            "vel": 64,
            "ch": 9
          },
          {
            "step": 57,
            "len": 1,
            "note": 80,
            "vel": 51,
            "ch": 9
          },
          {
            "step": 58,
            "len": 2,
            "note": 67,
            "vel": 89,
            "ch": 9
          },
          {
            "step": 58,
            "len": 2,
            "note": 80,
            "vel": 89,
            "ch": 9
          },
          {
            "step": 64,
            "len": 2,
            "note": 68,
            "vel": 114,
            "ch": 9
          },
          {
            "step": 72,
            "len": 1,
            "note": 67,
            "vel": 102,
            "ch": 9
          },
          {
            "step": 72,
            "len": 1,
            "note": 80,
            "vel": 102,
            "ch": 9
          },
          {
            "step": 73,
            "len": 1,
            "note": 67,
            "vel": 64,
            "ch": 9
          },
          {
            "step": 73,
            "len": 1,
            "note": 67,
            "vel": 51,
            "ch": 9
          },
          {
            "step": 73,
            "len": 1,
            "note": 80,
            "vel": 64,
            "ch": 9
          },
          {
            "step": 73,
            "len": 1,
            "note": 80,
            "vel": 51,
            "ch": 9
          },
          {
            "step": 74,
            "len": 2,
            "note": 67,
            "vel": 89,
            "ch": 9
          },
          {
            "step": 74,
            "len": 2,
            "note": 80,
            "vel": 89,
            "ch": 9
          },
          {
            "step": 80,
            "len": 2,
            "note": 68,
            "vel": 114,
            "ch": 9
          },
          {
            "step": 88,
            "len": 1,
            "note": 67,
            "vel": 102,
            "ch": 9
          },
          {
            "step": 88,
            "len": 1,
            "note": 80,
            "vel": 102,
            "ch": 9
          },
          {
            "step": 89,
            "len": 1,
            "note": 67,
            "vel": 64,
            "ch": 9
          },
          {
            "step": 89,
            "len": 1,
            "note": 67,
            "vel": 51,
            "ch": 9
          },
          {
            "step": 89,
            "len": 1,
            "note": 80,
            "vel": 64,
            "ch": 9
          },
          {
            "step": 89,
            "len": 1,
            "note": 80,
            "vel": 51,
            "ch": 9
          },
          {
            "step": 90,
            "len": 2,
            "note": 67,
            "vel": 89,
            "ch": 9
          },
          {
            "step": 90,
            "len": 2,
            "note": 80,
            "vel": 89,
            "ch": 9
          },
          {
            "step": 96,
            "len": 2,
            "note": 68,
            "vel": 114,
            "ch": 9
          },
          {
            "step": 104,
            "len": 1,
            "note": 67,
            "vel": 102,
            "ch": 9
          },
          {
            "step": 104,
            "len": 1,
            "note": 80,
            "vel": 102,
            "ch": 9
          },
          {
            "step": 105,
            "len": 1,
            "note": 67,
            "vel": 64,
            "ch": 9
          },
          {
            "step": 105,
            "len": 1,
            "note": 67,
            "vel": 51,
            "ch": 9
          },
          {
            "step": 105,
            "len": 1,
            "note": 80,
            "vel": 64,
            "ch": 9
          },
          {
            "step": 105,
            "len": 1,
            "note": 80,
            "vel": 51,
            "ch": 9
          },
          {
            "step": 106,
            "len": 2,
            "note": 67,
            "vel": 89,
            "ch": 9
          },
          {
            "step": 106,
            "len": 2,
            "note": 80,
            "vel": 89,
            "ch": 9
          },
          {
            "step": 112,
            "len": 2,
            "note": 68,
            "vel": 114,
            "ch": 9
          },
          {
            "step": 120,
            "len": 1,
            "note": 67,
            "vel": 102,
            "ch": 9
          },
          {
            "step": 120,
            "len": 1,
            "note": 80,
            "vel": 102,
            "ch": 9
          },
          {
            "step": 121,
            "len": 1,
            "note": 67,
            "vel": 64,
            "ch": 9
          },
          {
            "step": 121,
            "len": 1,
            "note": 67,
            "vel": 51,
            "ch": 9
          },
          {
            "step": 121,
            "len": 1,
            "note": 80,
            "vel": 64,
            "ch": 9
          },
          {
            "step": 121,
            "len": 1,
            "note": 80,
            "vel": 51,
            "ch": 9
          },
          {
            "step": 122,
            "len": 2,
            "note": 67,
            "vel": 89,
            "ch": 9
          },
          {
            "step": 122,
            "len": 2,
            "note": 80,
            "vel": 89,
            "ch": 9
          }
        ]
      }
    ],
    "Drums": [
      {
        "id": "drums_intro_sparse_8bar",
        "section_source": "intro",
        "bars": 8,
        "events": [
          {
            "step": 0,
            "len": 2,
            "note": 35,
            "vel": 89,
            "ch": 9
          },
          {
            "step": 0,
            "len": 2,
            "note": 41,
            "vel": 89,
            "ch": 9
          },
          {
            "step": 0,
            "len": 2,
            "note": 42,
            "vel": 89,
            "ch": 9
          },
          {
            "step": 2,
            "len": 1,
            "note": 42,
            "vel": 89,
            "ch": 9
          },
          {
            "step": 3,
            "len": 1,
            "note": 42,
            "vel": 89,
            "ch": 9
          },
          {
            "step": 4,
            "len": 2,
            "note": 42,
            "vel": 89,
            "ch": 9
          },
          {
            "step": 6,
            "len": 1,
            "note": 42,
            "vel": 89,
            "ch": 9
          },
          {
            "step": 7,
            "len": 1,
            "note": 42,
            "vel": 89,
            "ch": 9
          },
          {
            "step": 8,
            "len": 2,
            "note": 35,
            "vel": 89,
            "ch": 9
          },
          {
            "step": 8,
            "len": 2,
            "note": 41,
            "vel": 89,
            "ch": 9
          },
          {
            "step": 8,
            "len": 2,
            "note": 42,
            "vel": 89,
            "ch": 9
          },
          {
            "step": 10,
            "len": 1,
            "note": 42,
            "vel": 89,
            "ch": 9
          },
          {
            "step": 11,
            "len": 1,
            "note": 42,
            "vel": 89,
            "ch": 9
          },
          {
            "step": 12,
            "len": 2,
            "note": 42,
            "vel": 89,
            "ch": 9
          },
          {
            "step": 14,
            "len": 1,
            "note": 42,
            "vel": 89,
            "ch": 9
          },
          {
            "step": 15,
            "len": 1,
            "note": 42,
            "vel": 89,
            "ch": 9
          },
          {
            "step": 16,
            "len": 2,
            "note": 35,
            "vel": 89,
            "ch": 9
          },
          {
            "step": 16,
            "len": 2,
            "note": 41,
            "vel": 89,
            "ch": 9
          },
          {
            "step": 16,
            "len": 2,
            "note": 42,
            "vel": 89,
            "ch": 9
          },
          {
            "step": 18,
            "len": 1,
            "note": 42,
            "vel": 89,
            "ch": 9
          },
          {
            "step": 19,
            "len": 1,
            "note": 42,
            "vel": 89,
            "ch": 9
          },
          {
            "step": 20,
            "len": 2,
            "note": 42,
            "vel": 89,
            "ch": 9
          },
          {
            "step": 22,
            "len": 1,
            "note": 42,
            "vel": 89,
            "ch": 9
          },
          {
            "step": 23,
            "len": 1,
            "note": 42,
            "vel": 89,
            "ch": 9
          },
          {
            "step": 24,
            "len": 2,
            "note": 35,
            "vel": 89,
            "ch": 9
          },
          {
            "step": 24,
            "len": 2,
            "note": 41,
            "vel": 89,
            "ch": 9
          },
          {
            "step": 24,
            "len": 2,
            "note": 42,
            "vel": 89,
            "ch": 9
          },
          {
            "step": 26,
            "len": 1,
            "note": 42,
            "vel": 89,
            "ch": 9
          },
          {
            "step": 27,
            "len": 1,
            "note": 42,
            "vel": 89,
            "ch": 9
          },
          {
            "step": 28,
            "len": 2,
            "note": 42,
            "vel": 89,
            "ch": 9
          },
          {
            "step": 30,
            "len": 1,
            "note": 42,
            "vel": 89,
            "ch": 9
          },
          {
            "step": 31,
            "len": 1,
            "note": 42,
            "vel": 89,
            "ch": 9
          },
          {
            "step": 32,
            "len": 2,
            "note": 35,
            "vel": 89,
            "ch": 9
          },
          {
            "step": 32,
            "len": 2,
            "note": 41,
            "vel": 89,
            "ch": 9
          },
          {
            "step": 32,
            "len": 2,
            "note": 42,
            "vel": 89,
            "ch": 9
          },
          {
            "step": 34,
            "len": 1,
            "note": 42,
            "vel": 89,
            "ch": 9
          },
          {
            "step": 35,
            "len": 1,
            "note": 42,
            "vel": 89,
            "ch": 9
          },
          {
            "step": 36,
            "len": 2,
            "note": 42,
            "vel": 89,
            "ch": 9
          },
          {
            "step": 38,
            "len": 1,
            "note": 42,
            "vel": 89,
            "ch": 9
          },
          {
            "step": 39,
            "len": 1,
            "note": 42,
            "vel": 89,
            "ch": 9
          },
          {
            "step": 40,
            "len": 2,
            "note": 35,
            "vel": 89,
            "ch": 9
          },
          {
            "step": 40,
            "len": 2,
            "note": 41,
            "vel": 89,
            "ch": 9
          },
          {
            "step": 40,
            "len": 2,
            "note": 42,
            "vel": 89,
            "ch": 9
          },
          {
            "step": 42,
            "len": 1,
            "note": 42,
            "vel": 89,
            "ch": 9
          },
          {
            "step": 43,
            "len": 1,
            "note": 42,
            "vel": 89,
            "ch": 9
          },
          {
            "step": 44,
            "len": 2,
            "note": 42,
            "vel": 89,
            "ch": 9
          },
          {
            "step": 46,
            "len": 1,
            "note": 42,
            "vel": 89,
            "ch": 9
          },
          {
            "step": 47,
            "len": 1,
            "note": 42,
            "vel": 89,
            "ch": 9
          },
          {
            "step": 48,
            "len": 2,
            "note": 35,
            "vel": 89,
            "ch": 9
          },
          {
            "step": 48,
            "len": 2,
            "note": 41,
            "vel": 89,
            "ch": 9
          },
          {
            "step": 48,
            "len": 2,
            "note": 42,
            "vel": 89,
            "ch": 9
          },
          {
            "step": 50,
            "len": 1,
            "note": 42,
            "vel": 89,
            "ch": 9
          },
          {
            "step": 51,
            "len": 1,
            "note": 42,
            "vel": 89,
            "ch": 9
          },
          {
            "step": 52,
            "len": 2,
            "note": 42,
            "vel": 89,
            "ch": 9
          },
          {
            "step": 54,
            "len": 1,
            "note": 42,
            "vel": 89,
            "ch": 9
          },
          {
            "step": 55,
            "len": 1,
            "note": 42,
            "vel": 89,
            "ch": 9
          },
          {
            "step": 56,
            "len": 2,
            "note": 35,
            "vel": 89,
            "ch": 9
          },
          {
            "step": 56,
            "len": 2,
            "note": 41,
            "vel": 89,
            "ch": 9
          },
          {
            "step": 56,
            "len": 2,
            "note": 42,
            "vel": 89,
            "ch": 9
          },
          {
            "step": 58,
            "len": 1,
            "note": 42,
            "vel": 89,
            "ch": 9
          },
          {
            "step": 59,
            "len": 1,
            "note": 42,
            "vel": 89,
            "ch": 9
          },
          {
            "step": 60,
            "len": 2,
            "note": 42,
            "vel": 89,
            "ch": 9
          },
          {
            "step": 62,
            "len": 1,
            "note": 42,
            "vel": 89,
            "ch": 9
          },
          {
            "step": 63,
            "len": 1,
            "note": 42,
            "vel": 89,
            "ch": 9
          },
          {
            "step": 64,
            "len": 2,
            "note": 35,
            "vel": 89,
            "ch": 9
          },
          {
            "step": 64,
            "len": 2,
            "note": 41,
            "vel": 89,
            "ch": 9
          },
          {
            "step": 64,
            "len": 2,
            "note": 42,
            "vel": 89,
            "ch": 9
          },
          {
            "step": 66,
            "len": 1,
            "note": 42,
            "vel": 89,
            "ch": 9
          },
          {
            "step": 67,
            "len": 1,
            "note": 42,
            "vel": 89,
            "ch": 9
          },
          {
            "step": 68,
            "len": 2,
            "note": 42,
            "vel": 89,
            "ch": 9
          },
          {
            "step": 70,
            "len": 1,
            "note": 42,
            "vel": 89,
            "ch": 9
          },
          {
            "step": 71,
            "len": 1,
            "note": 42,
            "vel": 89,
            "ch": 9
          },
          {
            "step": 72,
            "len": 2,
            "note": 35,
            "vel": 89,
            "ch": 9
          },
          {
            "step": 72,
            "len": 2,
            "note": 41,
            "vel": 89,
            "ch": 9
          },
          {
            "step": 72,
            "len": 2,
            "note": 42,
            "vel": 89,
            "ch": 9
          },
          {
            "step": 74,
            "len": 1,
            "note": 42,
            "vel": 89,
            "ch": 9
          },
          {
            "step": 75,
            "len": 1,
            "note": 42,
            "vel": 89,
            "ch": 9
          },
          {
            "step": 76,
            "len": 2,
            "note": 42,
            "vel": 89,
            "ch": 9
          },
          {
            "step": 78,
            "len": 1,
            "note": 42,
            "vel": 89,
            "ch": 9
          },
          {
            "step": 79,
            "len": 1,
            "note": 42,
            "vel": 89,
            "ch": 9
          },
          {
            "step": 80,
            "len": 2,
            "note": 35,
            "vel": 89,
            "ch": 9
          },
          {
            "step": 80,
            "len": 2,
            "note": 41,
            "vel": 89,
            "ch": 9
          },
          {
            "step": 80,
            "len": 2,
            "note": 42,
            "vel": 89,
            "ch": 9
          },
          {
            "step": 82,
            "len": 1,
            "note": 42,
            "vel": 89,
            "ch": 9
          },
          {
            "step": 83,
            "len": 1,
            "note": 42,
            "vel": 89,
            "ch": 9
          },
          {
            "step": 84,
            "len": 2,
            "note": 42,
            "vel": 89,
            "ch": 9
          },
          {
            "step": 86,
            "len": 1,
            "note": 42,
            "vel": 89,
            "ch": 9
          },
          {
            "step": 87,
            "len": 1,
            "note": 42,
            "vel": 89,
            "ch": 9
          },
          {
            "step": 88,
            "len": 2,
            "note": 35,
            "vel": 89,
            "ch": 9
          },
          {
            "step": 88,
            "len": 2,
            "note": 41,
            "vel": 89,
            "ch": 9
          },
          {
            "step": 88,
            "len": 2,
            "note": 42,
            "vel": 89,
            "ch": 9
          },
          {
            "step": 90,
            "len": 1,
            "note": 42,
            "vel": 89,
            "ch": 9
          },
          {
            "step": 91,
            "len": 1,
            "note": 42,
            "vel": 89,
            "ch": 9
          },
          {
            "step": 92,
            "len": 2,
            "note": 42,
            "vel": 89,
            "ch": 9
          },
          {
            "step": 94,
            "len": 1,
            "note": 42,
            "vel": 89,
            "ch": 9
          },
          {
            "step": 95,
            "len": 1,
            "note": 42,
            "vel": 89,
            "ch": 9
          },
          {
            "step": 96,
            "len": 2,
            "note": 35,
            "vel": 89,
            "ch": 9
          },
          {
            "step": 96,
            "len": 2,
            "note": 41,
            "vel": 89,
            "ch": 9
          },
          {
            "step": 96,
            "len": 2,
            "note": 42,
            "vel": 89,
            "ch": 9
          },
          {
            "step": 98,
            "len": 1,
            "note": 42,
            "vel": 89,
            "ch": 9
          },
          {
            "step": 99,
            "len": 1,
            "note": 42,
            "vel": 89,
            "ch": 9
          },
          {
            "step": 100,
            "len": 2,
            "note": 42,
            "vel": 89,
            "ch": 9
          },
          {
            "step": 102,
            "len": 1,
            "note": 42,
            "vel": 89,
            "ch": 9
          },
          {
            "step": 103,
            "len": 1,
            "note": 42,
            "vel": 89,
            "ch": 9
          },
          {
            "step": 104,
            "len": 2,
            "note": 35,
            "vel": 89,
            "ch": 9
          },
          {
            "step": 104,
            "len": 2,
            "note": 41,
            "vel": 89,
            "ch": 9
          },
          {
            "step": 104,
            "len": 2,
            "note": 42,
            "vel": 89,
            "ch": 9
          },
          {
            "step": 106,
            "len": 1,
            "note": 42,
            "vel": 89,
            "ch": 9
          },
          {
            "step": 107,
            "len": 1,
            "note": 42,
            "vel": 89,
            "ch": 9
          },
          {
            "step": 108,
            "len": 2,
            "note": 42,
            "vel": 89,
            "ch": 9
          },
          {
            "step": 110,
            "len": 1,
            "note": 42,
            "vel": 89,
            "ch": 9
          },
          {
            "step": 111,
            "len": 1,
            "note": 42,
            "vel": 89,
            "ch": 9
          },
          {
            "step": 112,
            "len": 2,
            "note": 35,
            "vel": 89,
            "ch": 9
          },
          {
            "step": 112,
            "len": 2,
            "note": 41,
            "vel": 89,
            "ch": 9
          },
          {
            "step": 112,
            "len": 2,
            "note": 42,
            "vel": 89,
            "ch": 9
          },
          {
            "step": 114,
            "len": 1,
            "note": 42,
            "vel": 89,
            "ch": 9
          },
          {
            "step": 115,
            "len": 1,
            "note": 42,
            "vel": 89,
            "ch": 9
          },
          {
            "step": 116,
            "len": 2,
            "note": 42,
            "vel": 89,
            "ch": 9
          },
          {
            "step": 118,
            "len": 1,
            "note": 42,
            "vel": 89,
            "ch": 9
          },
          {
            "step": 119,
            "len": 1,
            "note": 42,
            "vel": 89,
            "ch": 9
          },
          {
            "step": 120,
            "len": 2,
            "note": 35,
            "vel": 89,
            "ch": 9
          },
          {
            "step": 120,
            "len": 2,
            "note": 41,
            "vel": 89,
            "ch": 9
          },
          {
            "step": 120,
            "len": 2,
            "note": 42,
            "vel": 89,
            "ch": 9
          },
          {
            "step": 122,
            "len": 1,
            "note": 42,
            "vel": 89,
            "ch": 9
          },
          {
            "step": 123,
            "len": 1,
            "note": 42,
            "vel": 89,
            "ch": 9
          },
          {
            "step": 124,
            "len": 1,
            "note": 42,
            "vel": 89,
            "ch": 9
          },
          {
            "step": 125,
            "len": 1,
            "note": 0,
            "vel": 89,
            "ch": 9
          },
          {
            "step": 125,
            "len": 1,
            "note": 42,
            "vel": 89,
            "ch": 9
          },
          {
            "step": 126,
            "len": 1,
            "note": 0,
            "vel": 89,
            "ch": 9
          },
          {
            "step": 126,
            "len": 1,
            "note": 38,
            "vel": 89,
            "ch": 9
          },
          {
            "step": 126,
            "len": 1,
            "note": 38,
            "vel": 89,
            "ch": 9
          },
          {
            "step": 126,
            "len": 1,
            "note": 42,
            "vel": 89,
            "ch": 9
          },
          {
            "step": 126,
            "len": 1,
            "note": 42,
            "vel": 89,
            "ch": 9
          },
          {
            "step": 127,
            "len": 1,
            "note": 0,
            "vel": 89,
            "ch": 9
          },
          {
            "step": 127,
            "len": 1,
            "note": 42,
            "vel": 89,
            "ch": 9
          }
        ]
      },
      {
        "id": "drums_preverse_groove_4bar",
        "section_source": "preverse",
        "bars": 4,
        "events": [
          {
            "step": 0,
            "len": 2,
            "note": 35,
            "vel": 89,
            "ch": 9
          },
          {
            "step": 0,
            "len": 2,
            "note": 42,
            "vel": 89,
            "ch": 9
          },
          {
            "step": 2,
            "len": 2,
            "note": 42,
            "vel": 89,
            "ch": 9
          },
          {
            "step": 4,
            "len": 2,
            "note": 38,
            "vel": 89,
            "ch": 9
          },
          {
            "step": 4,
            "len": 2,
            "note": 42,
            "vel": 89,
            "ch": 9
          },
          {
            "step": 6,
            "len": 2,
            "note": 35,
            "vel": 89,
            "ch": 9
          },
          {
            "step": 6,
            "len": 2,
            "note": 42,
            "vel": 89,
            "ch": 9
          },
          {
            "step": 8,
            "len": 2,
            "note": 35,
            "vel": 89,
            "ch": 9
          },
          {
            "step": 8,
            "len": 2,
            "note": 42,
            "vel": 89,
            "ch": 9
          },
          {
            "step": 10,
            "len": 2,
            "note": 42,
            "vel": 89,
            "ch": 9
          },
          {
            "step": 12,
            "len": 2,
            "note": 38,
            "vel": 89,
            "ch": 9
          },
          {
            "step": 12,
            "len": 2,
            "note": 42,
            "vel": 89,
            "ch": 9
          },
          {
            "step": 14,
            "len": 2,
            "note": 35,
            "vel": 89,
            "ch": 9
          },
          {
            "step": 14,
            "len": 2,
            "note": 42,
            "vel": 89,
            "ch": 9
          },
          {
            "step": 16,
            "len": 2,
            "note": 35,
            "vel": 89,
            "ch": 9
          },
          {
            "step": 16,
            "len": 2,
            "note": 42,
            "vel": 89,
            "ch": 9
          },
          {
            "step": 18,
            "len": 2,
            "note": 42,
            "vel": 89,
            "ch": 9
          },
          {
            "step": 20,
            "len": 2,
            "note": 38,
            "vel": 89,
            "ch": 9
          },
          {
            "step": 20,
            "len": 2,
            "note": 42,
            "vel": 89,
            "ch": 9
          },
          {
            "step": 22,
            "len": 2,
            "note": 35,
            "vel": 89,
            "ch": 9
          },
          {
            "step": 22,
            "len": 2,
            "note": 42,
            "vel": 89,
            "ch": 9
          },
          {
            "step": 24,
            "len": 2,
            "note": 35,
            "vel": 89,
            "ch": 9
          },
          {
            "step": 24,
            "len": 2,
            "note": 42,
            "vel": 89,
            "ch": 9
          },
          {
            "step": 26,
            "len": 2,
            "note": 42,
            "vel": 89,
            "ch": 9
          },
          {
            "step": 28,
            "len": 2,
            "note": 38,
            "vel": 89,
            "ch": 9
          },
          {
            "step": 28,
            "len": 2,
            "note": 42,
            "vel": 89,
            "ch": 9
          },
          {
            "step": 30,
            "len": 2,
            "note": 35,
            "vel": 89,
            "ch": 9
          },
          {
            "step": 30,
            "len": 2,
            "note": 42,
            "vel": 89,
            "ch": 9
          },
          {
            "step": 32,
            "len": 2,
            "note": 35,
            "vel": 89,
            "ch": 9
          },
          {
            "step": 32,
            "len": 2,
            "note": 42,
            "vel": 89,
            "ch": 9
          },
          {
            "step": 34,
            "len": 2,
            "note": 42,
            "vel": 89,
            "ch": 9
          },
          {
            "step": 36,
            "len": 2,
            "note": 38,
            "vel": 89,
            "ch": 9
          },
          {
            "step": 36,
            "len": 2,
            "note": 42,
            "vel": 89,
            "ch": 9
          },
          {
            "step": 38,
            "len": 2,
            "note": 35,
            "vel": 89,
            "ch": 9
          },
          {
            "step": 38,
            "len": 2,
            "note": 42,
            "vel": 89,
            "ch": 9
          },
          {
            "step": 40,
            "len": 2,
            "note": 35,
            "vel": 89,
            "ch": 9
          },
          {
            "step": 40,
            "len": 2,
            "note": 42,
            "vel": 89,
            "ch": 9
          },
          {
            "step": 42,
            "len": 2,
            "note": 42,
            "vel": 89,
            "ch": 9
          },
          {
            "step": 44,
            "len": 2,
            "note": 38,
            "vel": 89,
            "ch": 9
          },
          {
            "step": 44,
            "len": 2,
            "note": 42,
            "vel": 89,
            "ch": 9
          },
          {
            "step": 46,
            "len": 2,
            "note": 35,
            "vel": 89,
            "ch": 9
          },
          {
            "step": 46,
            "len": 2,
            "note": 42,
            "vel": 89,
            "ch": 9
          },
          {
            "step": 48,
            "len": 2,
            "note": 38,
            "vel": 89,
            "ch": 9
          },
          {
            "step": 48,
            "len": 2,
            "note": 42,
            "vel": 89,
            "ch": 9
          },
          {
            "step": 50,
            "len": 2,
            "note": 38,
            "vel": 89,
            "ch": 9
          },
          {
            "step": 50,
            "len": 2,
            "note": 42,
            "vel": 89,
            "ch": 9
          },
          {
            "step": 52,
            "len": 2,
            "note": 35,
            "vel": 114,
            "ch": 9
          },
          {
            "step": 54,
            "len": 2,
            "note": 35,
            "vel": 114,
            "ch": 9
          },
          {
            "step": 56,
            "len": 2,
            "note": 35,
            "vel": 102,
            "ch": 9
          },
          {
            "step": 56,
            "len": 2,
            "note": 38,
            "vel": 102,
            "ch": 9
          },
          {
            "step": 58,
            "len": 2,
            "note": 35,
            "vel": 102,
            "ch": 9
          },
          {
            "step": 58,
            "len": 2,
            "note": 38,
            "vel": 102,
            "ch": 9
          },
          {
            "step": 60,
            "len": 2,
            "note": 35,
            "vel": 102,
            "ch": 9
          },
          {
            "step": 60,
            "len": 2,
            "note": 38,
            "vel": 102,
            "ch": 9
          },
          {
            "step": 62,
            "len": 2,
            "note": 35,
            "vel": 114,
            "ch": 9
          }
        ]
      },
      {
        "id": "drums_verse_drive_a_4bar",
        "section_source": "verse",
        "bars": 4,
        "events": [
          {
            "step": 0,
            "len": 2,
            "note": 35,
            "vel": 89,
            "ch": 9
          },
          {
            "step": 0,
            "len": 2,
            "note": 42,
            "vel": 89,
            "ch": 9
          },
          {
            "step": 4,
            "len": 2,
            "note": 38,
            "vel": 89,
            "ch": 9
          },
          {
            "step": 4,
            "len": 2,
            "note": 42,
            "vel": 89,
            "ch": 9
          },
          {
            "step": 8,
            "len": 2,
            "note": 35,
            "vel": 89,
            "ch": 9
          },
          {
            "step": 8,
            "len": 2,
            "note": 42,
            "vel": 89,
            "ch": 9
          },
          {
            "step": 12,
            "len": 2,
            "note": 38,
            "vel": 89,
            "ch": 9
          },
          {
            "step": 12,
            "len": 2,
            "note": 42,
            "vel": 89,
            "ch": 9
          },
          {
            "step": 14,
            "len": 2,
            "note": 42,
            "vel": 89,
            "ch": 9
          },
          {
            "step": 16,
            "len": 2,
            "note": 35,
            "vel": 89,
            "ch": 9
          },
          {
            "step": 16,
            "len": 2,
            "note": 42,
            "vel": 89,
            "ch": 9
          },
          {
            "step": 18,
            "len": 2,
            "note": 35,
            "vel": 114,
            "ch": 9
          },
          {
            "step": 20,
            "len": 2,
            "note": 38,
            "vel": 89,
            "ch": 9
          },
          {
            "step": 20,
            "len": 2,
            "note": 42,
            "vel": 89,
            "ch": 9
          },
          {
            "step": 24,
            "len": 2,
            "note": 35,
            "vel": 89,
            "ch": 9
          },
          {
            "step": 24,
            "len": 2,
            "note": 42,
            "vel": 89,
            "ch": 9
          },
          {
            "step": 28,
            "len": 2,
            "note": 38,
            "vel": 89,
            "ch": 9
          },
          {
            "step": 28,
            "len": 2,
            "note": 42,
            "vel": 89,
            "ch": 9
          },
          {
            "step": 30,
            "len": 2,
            "note": 35,
            "vel": 89,
            "ch": 9
          },
          {
            "step": 30,
            "len": 2,
            "note": 42,
            "vel": 89,
            "ch": 9
          },
          {
            "step": 32,
            "len": 2,
            "note": 35,
            "vel": 89,
            "ch": 9
          },
          {
            "step": 32,
            "len": 2,
            "note": 42,
            "vel": 89,
            "ch": 9
          },
          {
            "step": 36,
            "len": 2,
            "note": 38,
            "vel": 89,
            "ch": 9
          },
          {
            "step": 36,
            "len": 2,
            "note": 42,
            "vel": 89,
            "ch": 9
          },
          {
            "step": 38,
            "len": 2,
            "note": 35,
            "vel": 89,
            "ch": 9
          },
          {
            "step": 38,
            "len": 2,
            "note": 42,
            "vel": 89,
            "ch": 9
          },
          {
            "step": 40,
            "len": 2,
            "note": 35,
            "vel": 89,
            "ch": 9
          },
          {
            "step": 40,
            "len": 2,
            "note": 42,
            "vel": 89,
            "ch": 9
          },
          {
            "step": 44,
            "len": 2,
            "note": 38,
            "vel": 89,
            "ch": 9
          },
          {
            "step": 44,
            "len": 2,
            "note": 42,
            "vel": 89,
            "ch": 9
          },
          {
            "step": 46,
            "len": 2,
            "note": 35,
            "vel": 89,
            "ch": 9
          },
          {
            "step": 46,
            "len": 2,
            "note": 42,
            "vel": 89,
            "ch": 9
          },
          {
            "step": 48,
            "len": 2,
            "note": 35,
            "vel": 89,
            "ch": 9
          },
          {
            "step": 48,
            "len": 2,
            "note": 42,
            "vel": 89,
            "ch": 9
          },
          {
            "step": 52,
            "len": 2,
            "note": 38,
            "vel": 89,
            "ch": 9
          },
          {
            "step": 52,
            "len": 2,
            "note": 42,
            "vel": 89,
            "ch": 9
          },
          {
            "step": 54,
            "len": 2,
            "note": 35,
            "vel": 89,
            "ch": 9
          },
          {
            "step": 54,
            "len": 2,
            "note": 42,
            "vel": 89,
            "ch": 9
          },
          {
            "step": 56,
            "len": 2,
            "note": 35,
            "vel": 89,
            "ch": 9
          },
          {
            "step": 56,
            "len": 2,
            "note": 42,
            "vel": 89,
            "ch": 9
          },
          {
            "step": 58,
            "len": 2,
            "note": 46,
            "vel": 89,
            "ch": 9
          },
          {
            "step": 60,
            "len": 2,
            "note": 38,
            "vel": 89,
            "ch": 9
          },
          {
            "step": 60,
            "len": 2,
            "note": 42,
            "vel": 89,
            "ch": 9
          }
        ]
      },
      {
        "id": "drums_verse_drive_b_4bar",
        "section_source": "verse",
        "bars": 4,
        "events": [
          {
            "step": 0,
            "len": 2,
            "note": 35,
            "vel": 89,
            "ch": 9
          },
          {
            "step": 0,
            "len": 2,
            "note": 42,
            "vel": 89,
            "ch": 9
          },
          {
            "step": 4,
            "len": 2,
            "note": 38,
            "vel": 89,
            "ch": 9
          },
          {
            "step": 4,
            "len": 2,
            "note": 42,
            "vel": 89,
            "ch": 9
          },
          {
            "step": 6,
            "len": 2,
            "note": 35,
            "vel": 114,
            "ch": 9
          },
          {
            "step": 8,
            "len": 2,
            "note": 35,
            "vel": 89,
            "ch": 9
          },
          {
            "step": 8,
            "len": 2,
            "note": 42,
            "vel": 89,
            "ch": 9
          },
          {
            "step": 12,
            "len": 2,
            "note": 38,
            "vel": 89,
            "ch": 9
          },
          {
            "step": 12,
            "len": 2,
            "note": 42,
            "vel": 89,
            "ch": 9
          },
          {
            "step": 14,
            "len": 2,
            "note": 42,
            "vel": 89,
            "ch": 9
          },
          {
            "step": 16,
            "len": 2,
            "note": 35,
            "vel": 89,
            "ch": 9
          },
          {
            "step": 16,
            "len": 2,
            "note": 42,
            "vel": 89,
            "ch": 9
          },
          {
            "step": 20,
            "len": 2,
            "note": 38,
            "vel": 89,
            "ch": 9
          },
          {
            "step": 20,
            "len": 2,
            "note": 42,
            "vel": 89,
            "ch": 9
          },
          {
            "step": 22,
            "len": 2,
            "note": 35,
            "vel": 114,
            "ch": 9
          },
          {
            "step": 24,
            "len": 2,
            "note": 35,
            "vel": 89,
            "ch": 9
          },
          {
            "step": 24,
            "len": 2,
            "note": 42,
            "vel": 89,
            "ch": 9
          },
          {
            "step": 28,
            "len": 2,
            "note": 38,
            "vel": 89,
            "ch": 9
          },
          {
            "step": 28,
            "len": 2,
            "note": 42,
            "vel": 89,
            "ch": 9
          },
          {
            "step": 32,
            "len": 2,
            "note": 35,
            "vel": 89,
            "ch": 9
          },
          {
            "step": 32,
            "len": 2,
            "note": 42,
            "vel": 89,
            "ch": 9
          },
          {
            "step": 34,
            "len": 1,
            "note": 42,
            "vel": 89,
            "ch": 9
          },
          {
            "step": 35,
            "len": 1,
            "note": 42,
            "vel": 89,
            "ch": 9
          },
          {
            "step": 36,
            "len": 2,
            "note": 38,
            "vel": 89,
            "ch": 9
          },
          {
            "step": 36,
            "len": 2,
            "note": 42,
            "vel": 89,
            "ch": 9
          },
          {
            "step": 38,
            "len": 2,
            "note": 35,
            "vel": 89,
            "ch": 9
          },
          {
            "step": 38,
            "len": 2,
            "note": 42,
            "vel": 89,
            "ch": 9
          },
          {
            "step": 40,
            "len": 2,
            "note": 35,
            "vel": 89,
            "ch": 9
          },
          {
            "step": 40,
            "len": 2,
            "note": 42,
            "vel": 89,
            "ch": 9
          },
          {
            "step": 42,
            "len": 2,
            "note": 42,
            "vel": 89,
            "ch": 9
          },
          {
            "step": 44,
            "len": 2,
            "note": 38,
            "vel": 89,
            "ch": 9
          },
          {
            "step": 44,
            "len": 2,
            "note": 42,
            "vel": 89,
            "ch": 9
          },
          {
            "step": 46,
            "len": 2,
            "note": 42,
            "vel": 89,
            "ch": 9
          },
          {
            "step": 48,
            "len": 2,
            "note": 35,
            "vel": 64,
            "ch": 9
          },
          {
            "step": 48,
            "len": 2,
            "note": 35,
            "vel": 64,
            "ch": 9
          },
          {
            "step": 48,
            "len": 2,
            "note": 42,
            "vel": 64,
            "ch": 9
          },
          {
            "step": 52,
            "len": 2,
            "note": 38,
            "vel": 89,
            "ch": 9
          },
          {
            "step": 52,
            "len": 2,
            "note": 42,
            "vel": 89,
            "ch": 9
          },
          {
            "step": 54,
            "len": 2,
            "note": 35,
            "vel": 114,
            "ch": 9
          },
          {
            "step": 56,
            "len": 2,
            "note": 35,
            "vel": 89,
            "ch": 9
          },
          {
            "step": 56,
            "len": 2,
            "note": 42,
            "vel": 89,
            "ch": 9
          },
          {
            "step": 58,
            "len": 2,
            "note": 46,
            "vel": 89,
            "ch": 9
          },
          {
            "step": 60,
            "len": 2,
            "note": 38,
            "vel": 89,
            "ch": 9
          },
          {
            "step": 60,
            "len": 2,
            "note": 42,
            "vel": 89,
            "ch": 9
          },
          {
            "step": 63,
            "len": 1,
            "note": 42,
            "vel": 89,
            "ch": 9
          }
        ]
      },
      {
        "id": "drums_bridge_sparse_8bar",
        "section_source": "bridge",
        "bars": 8,
        "events": [
          {
            "step": 0,
            "len": 2,
            "note": 35,
            "vel": 89,
            "ch": 9
          },
          {
            "step": 0,
            "len": 2,
            "note": 42,
            "vel": 89,
            "ch": 9
          },
          {
            "step": 2,
            "len": 2,
            "note": 42,
            "vel": 89,
            "ch": 9
          },
          {
            "step": 4,
            "len": 2,
            "note": 42,
            "vel": 89,
            "ch": 9
          },
          {
            "step": 6,
            "len": 2,
            "note": 35,
            "vel": 89,
            "ch": 9
          },
          {
            "step": 6,
            "len": 2,
            "note": 42,
            "vel": 89,
            "ch": 9
          },
          {
            "step": 8,
            "len": 2,
            "note": 42,
            "vel": 89,
            "ch": 9
          },
          {
            "step": 10,
            "len": 2,
            "note": 42,
            "vel": 89,
            "ch": 9
          },
          {
            "step": 12,
            "len": 2,
            "note": 42,
            "vel": 89,
            "ch": 9
          },
          {
            "step": 12,
            "len": 2,
            "note": 43,
            "vel": 89,
            "ch": 9
          },
          {
            "step": 14,
            "len": 2,
            "note": 42,
            "vel": 89,
            "ch": 9
          },
          {
            "step": 16,
            "len": 2,
            "note": 35,
            "vel": 89,
            "ch": 9
          },
          {
            "step": 16,
            "len": 2,
            "note": 42,
            "vel": 89,
            "ch": 9
          },
          {
            "step": 18,
            "len": 2,
            "note": 42,
            "vel": 89,
            "ch": 9
          },
          {
            "step": 20,
            "len": 2,
            "note": 42,
            "vel": 89,
            "ch": 9
          },
          {
            "step": 22,
            "len": 2,
            "note": 35,
            "vel": 89,
            "ch": 9
          },
          {
            "step": 22,
            "len": 2,
            "note": 42,
            "vel": 89,
            "ch": 9
          },
          {
            "step": 24,
            "len": 2,
            "note": 42,
            "vel": 89,
            "ch": 9
          },
          {
            "step": 26,
            "len": 2,
            "note": 42,
            "vel": 89,
            "ch": 9
          },
          {
            "step": 28,
            "len": 2,
            "note": 42,
            "vel": 89,
            "ch": 9
          },
          {
            "step": 28,
            "len": 2,
            "note": 43,
            "vel": 89,
            "ch": 9
          },
          {
            "step": 30,
            "len": 2,
            "note": 42,
            "vel": 89,
            "ch": 9
          },
          {
            "step": 32,
            "len": 2,
            "note": 35,
            "vel": 89,
            "ch": 9
          },
          {
            "step": 32,
            "len": 2,
            "note": 42,
            "vel": 89,
            "ch": 9
          },
          {
            "step": 34,
            "len": 2,
            "note": 42,
            "vel": 89,
            "ch": 9
          },
          {
            "step": 36,
            "len": 2,
            "note": 42,
            "vel": 89,
            "ch": 9
          },
          {
            "step": 38,
            "len": 2,
            "note": 35,
            "vel": 89,
            "ch": 9
          },
          {
            "step": 38,
            "len": 2,
            "note": 42,
            "vel": 89,
            "ch": 9
          },
          {
            "step": 40,
            "len": 2,
            "note": 42,
            "vel": 89,
            "ch": 9
          },
          {
            "step": 42,
            "len": 2,
            "note": 42,
            "vel": 89,
            "ch": 9
          },
          {
            "step": 44,
            "len": 2,
            "note": 42,
            "vel": 89,
            "ch": 9
          },
          {
            "step": 44,
            "len": 2,
            "note": 43,
            "vel": 89,
            "ch": 9
          },
          {
            "step": 46,
            "len": 2,
            "note": 42,
            "vel": 89,
            "ch": 9
          },
          {
            "step": 48,
            "len": 2,
            "note": 35,
            "vel": 89,
            "ch": 9
          },
          {
            "step": 48,
            "len": 2,
            "note": 42,
            "vel": 89,
            "ch": 9
          },
          {
            "step": 50,
            "len": 2,
            "note": 42,
            "vel": 89,
            "ch": 9
          },
          {
            "step": 52,
            "len": 2,
            "note": 42,
            "vel": 89,
            "ch": 9
          },
          {
            "step": 54,
            "len": 2,
            "note": 35,
            "vel": 89,
            "ch": 9
          },
          {
            "step": 54,
            "len": 2,
            "note": 42,
            "vel": 89,
            "ch": 9
          },
          {
            "step": 56,
            "len": 2,
            "note": 42,
            "vel": 89,
            "ch": 9
          },
          {
            "step": 58,
            "len": 2,
            "note": 42,
            "vel": 89,
            "ch": 9
          },
          {
            "step": 60,
            "len": 2,
            "note": 42,
            "vel": 89,
            "ch": 9
          },
          {
            "step": 60,
            "len": 2,
            "note": 43,
            "vel": 89,
            "ch": 9
          },
          {
            "step": 62,
            "len": 2,
            "note": 42,
            "vel": 89,
            "ch": 9
          },
          {
            "step": 64,
            "len": 2,
            "note": 35,
            "vel": 89,
            "ch": 9
          },
          {
            "step": 64,
            "len": 2,
            "note": 42,
            "vel": 89,
            "ch": 9
          },
          {
            "step": 66,
            "len": 2,
            "note": 42,
            "vel": 89,
            "ch": 9
          },
          {
            "step": 68,
            "len": 2,
            "note": 42,
            "vel": 89,
            "ch": 9
          },
          {
            "step": 70,
            "len": 2,
            "note": 35,
            "vel": 89,
            "ch": 9
          },
          {
            "step": 70,
            "len": 2,
            "note": 42,
            "vel": 89,
            "ch": 9
          },
          {
            "step": 72,
            "len": 2,
            "note": 42,
            "vel": 89,
            "ch": 9
          },
          {
            "step": 74,
            "len": 2,
            "note": 42,
            "vel": 89,
            "ch": 9
          },
          {
            "step": 76,
            "len": 2,
            "note": 42,
            "vel": 89,
            "ch": 9
          },
          {
            "step": 76,
            "len": 2,
            "note": 43,
            "vel": 89,
            "ch": 9
          },
          {
            "step": 78,
            "len": 2,
            "note": 42,
            "vel": 89,
            "ch": 9
          },
          {
            "step": 80,
            "len": 2,
            "note": 35,
            "vel": 89,
            "ch": 9
          },
          {
            "step": 80,
            "len": 2,
            "note": 42,
            "vel": 89,
            "ch": 9
          },
          {
            "step": 82,
            "len": 2,
            "note": 42,
            "vel": 89,
            "ch": 9
          },
          {
            "step": 84,
            "len": 2,
            "note": 42,
            "vel": 89,
            "ch": 9
          },
          {
            "step": 86,
            "len": 2,
            "note": 35,
            "vel": 89,
            "ch": 9
          },
          {
            "step": 86,
            "len": 2,
            "note": 42,
            "vel": 89,
            "ch": 9
          },
          {
            "step": 88,
            "len": 2,
            "note": 42,
            "vel": 89,
            "ch": 9
          },
          {
            "step": 90,
            "len": 2,
            "note": 42,
            "vel": 89,
            "ch": 9
          },
          {
            "step": 90,
            "len": 2,
            "note": 43,
            "vel": 89,
            "ch": 9
          },
          {
            "step": 92,
            "len": 2,
            "note": 35,
            "vel": 89,
            "ch": 9
          },
          {
            "step": 92,
            "len": 2,
            "note": 42,
            "vel": 89,
            "ch": 9
          },
          {
            "step": 94,
            "len": 2,
            "note": 42,
            "vel": 89,
            "ch": 9
          },
          {
            "step": 96,
            "len": 2,
            "note": 35,
            "vel": 89,
            "ch": 9
          },
          {
            "step": 96,
            "len": 2,
            "note": 42,
            "vel": 89,
            "ch": 9
          },
          {
            "step": 98,
            "len": 2,
            "note": 42,
            "vel": 89,
            "ch": 9
          },
          {
            "step": 100,
            "len": 2,
            "note": 38,
            "vel": 89,
            "ch": 9
          },
          {
            "step": 100,
            "len": 2,
            "note": 42,
            "vel": 89,
            "ch": 9
          },
          {
            "step": 102,
            "len": 2,
            "note": 42,
            "vel": 89,
            "ch": 9
          },
          {
            "step": 104,
            "len": 2,
            "note": 35,
            "vel": 89,
            "ch": 9
          },
          {
            "step": 104,
            "len": 2,
            "note": 42,
            "vel": 89,
            "ch": 9
          },
          {
            "step": 106,
            "len": 2,
            "note": 42,
            "vel": 89,
            "ch": 9
          },
          {
            "step": 108,
            "len": 2,
            "note": 38,
            "vel": 89,
            "ch": 9
          },
          {
            "step": 108,
            "len": 2,
            "note": 42,
            "vel": 89,
            "ch": 9
          },
          {
            "step": 110,
            "len": 2,
            "note": 42,
            "vel": 89,
            "ch": 9
          },
          {
            "step": 112,
            "len": 2,
            "note": 35,
            "vel": 89,
            "ch": 9
          },
          {
            "step": 112,
            "len": 2,
            "note": 42,
            "vel": 89,
            "ch": 9
          },
          {
            "step": 114,
            "len": 2,
            "note": 42,
            "vel": 89,
            "ch": 9
          },
          {
            "step": 116,
            "len": 2,
            "note": 38,
            "vel": 89,
            "ch": 9
          },
          {
            "step": 116,
            "len": 2,
            "note": 42,
            "vel": 89,
            "ch": 9
          },
          {
            "step": 118,
            "len": 2,
            "note": 42,
            "vel": 89,
            "ch": 9
          },
          {
            "step": 120,
            "len": 2,
            "note": 35,
            "vel": 114,
            "ch": 9
          },
          {
            "step": 122,
            "len": 2,
            "note": 38,
            "vel": 89,
            "ch": 9
          },
          {
            "step": 124,
            "len": 2,
            "note": 45,
            "vel": 89,
            "ch": 9
          },
          {
            "step": 126,
            "len": 2,
            "note": 41,
            "vel": 89,
            "ch": 9
          }
        ]
      },
      {
        "id": "drums_chorus_lift_a_4bar",
        "section_source": "chorus",
        "bars": 4,
        "events": [
          {
            "step": 0,
            "len": 2,
            "note": 35,
            "vel": 89,
            "ch": 9
          },
          {
            "step": 0,
            "len": 2,
            "note": 42,
            "vel": 89,
            "ch": 9
          },
          {
            "step": 4,
            "len": 2,
            "note": 38,
            "vel": 89,
            "ch": 9
          },
          {
            "step": 4,
            "len": 2,
            "note": 42,
            "vel": 89,
            "ch": 9
          },
          {
            "step": 8,
            "len": 2,
            "note": 35,
            "vel": 89,
            "ch": 9
          },
          {
            "step": 8,
            "len": 2,
            "note": 42,
            "vel": 89,
            "ch": 9
          },
          {
            "step": 12,
            "len": 2,
            "note": 38,
            "vel": 89,
            "ch": 9
          },
          {
            "step": 12,
            "len": 2,
            "note": 42,
            "vel": 89,
            "ch": 9
          },
          {
            "step": 14,
            "len": 2,
            "note": 42,
            "vel": 89,
            "ch": 9
          },
          {
            "step": 16,
            "len": 2,
            "note": 35,
            "vel": 89,
            "ch": 9
          },
          {
            "step": 16,
            "len": 2,
            "note": 42,
            "vel": 89,
            "ch": 9
          },
          {
            "step": 20,
            "len": 2,
            "note": 38,
            "vel": 89,
            "ch": 9
          },
          {
            "step": 20,
            "len": 2,
            "note": 42,
            "vel": 89,
            "ch": 9
          },
          {
            "step": 24,
            "len": 2,
            "note": 35,
            "vel": 89,
            "ch": 9
          },
          {
            "step": 24,
            "len": 2,
            "note": 42,
            "vel": 89,
            "ch": 9
          },
          {
            "step": 28,
            "len": 2,
            "note": 38,
            "vel": 89,
            "ch": 9
          },
          {
            "step": 28,
            "len": 2,
            "note": 42,
            "vel": 89,
            "ch": 9
          },
          {
            "step": 30,
            "len": 2,
            "note": 35,
            "vel": 89,
            "ch": 9
          },
          {
            "step": 30,
            "len": 2,
            "note": 42,
            "vel": 89,
            "ch": 9
          },
          {
            "step": 32,
            "len": 2,
            "note": 35,
            "vel": 89,
            "ch": 9
          },
          {
            "step": 32,
            "len": 2,
            "note": 42,
            "vel": 89,
            "ch": 9
          },
          {
            "step": 36,
            "len": 2,
            "note": 38,
            "vel": 89,
            "ch": 9
          },
          {
            "step": 36,
            "len": 2,
            "note": 42,
            "vel": 89,
            "ch": 9
          },
          {
            "step": 38,
            "len": 2,
            "note": 35,
            "vel": 89,
            "ch": 9
          },
          {
            "step": 38,
            "len": 2,
            "note": 42,
            "vel": 89,
            "ch": 9
          },
          {
            "step": 40,
            "len": 2,
            "note": 35,
            "vel": 89,
            "ch": 9
          },
          {
            "step": 40,
            "len": 2,
            "note": 42,
            "vel": 89,
            "ch": 9
          },
          {
            "step": 44,
            "len": 2,
            "note": 38,
            "vel": 89,
            "ch": 9
          },
          {
            "step": 44,
            "len": 2,
            "note": 42,
            "vel": 89,
            "ch": 9
          },
          {
            "step": 46,
            "len": 2,
            "note": 35,
            "vel": 89,
            "ch": 9
          },
          {
            "step": 46,
            "len": 2,
            "note": 42,
            "vel": 89,
            "ch": 9
          },
          {
            "step": 48,
            "len": 2,
            "note": 35,
            "vel": 89,
            "ch": 9
          },
          {
            "step": 48,
            "len": 2,
            "note": 42,
            "vel": 89,
            "ch": 9
          },
          {
            "step": 52,
            "len": 2,
            "note": 38,
            "vel": 89,
            "ch": 9
          },
          {
            "step": 52,
            "len": 2,
            "note": 42,
            "vel": 89,
            "ch": 9
          },
          {
            "step": 54,
            "len": 2,
            "note": 35,
            "vel": 89,
            "ch": 9
          },
          {
            "step": 54,
            "len": 2,
            "note": 42,
            "vel": 89,
            "ch": 9
          },
          {
            "step": 56,
            "len": 2,
            "note": 35,
            "vel": 89,
            "ch": 9
          },
          {
            "step": 56,
            "len": 2,
            "note": 42,
            "vel": 89,
            "ch": 9
          },
          {
            "step": 58,
            "len": 2,
            "note": 46,
            "vel": 89,
            "ch": 9
          },
          {
            "step": 60,
            "len": 2,
            "note": 38,
            "vel": 89,
            "ch": 9
          },
          {
            "step": 60,
            "len": 2,
            "note": 42,
            "vel": 89,
            "ch": 9
          },
          {
            "step": 62,
            "len": 1,
            "note": 38,
            "vel": 102,
            "ch": 9
          },
          {
            "step": 63,
            "len": 1,
            "note": 38,
            "vel": 102,
            "ch": 9
          }
        ]
      },
      {
        "id": "drums_chorus_lift_b_4bar",
        "section_source": "chorus",
        "bars": 4,
        "events": [
          {
            "step": 0,
            "len": 2,
            "note": 35,
            "vel": 114,
            "ch": 9
          },
          {
            "step": 0,
            "len": 2,
            "note": 57,
            "vel": 114,
            "ch": 9
          },
          {
            "step": 4,
            "len": 2,
            "note": 38,
            "vel": 89,
            "ch": 9
          },
          {
            "step": 4,
            "len": 2,
            "note": 42,
            "vel": 89,
            "ch": 9
          },
          {
            "step": 8,
            "len": 2,
            "note": 35,
            "vel": 89,
            "ch": 9
          },
          {
            "step": 8,
            "len": 2,
            "note": 42,
            "vel": 89,
            "ch": 9
          },
          {
            "step": 12,
            "len": 2,
            "note": 38,
            "vel": 89,
            "ch": 9
          },
          {
            "step": 12,
            "len": 2,
            "note": 42,
            "vel": 89,
            "ch": 9
          },
          {
            "step": 14,
            "len": 2,
            "note": 42,
            "vel": 89,
            "ch": 9
          },
          {
            "step": 16,
            "len": 2,
            "note": 35,
            "vel": 89,
            "ch": 9
          },
          {
            "step": 16,
            "len": 2,
            "note": 42,
            "vel": 89,
            "ch": 9
          },
          {
            "step": 18,
            "len": 2,
            "note": 35,
            "vel": 114,
            "ch": 9
          },
          {
            "step": 20,
            "len": 2,
            "note": 38,
            "vel": 89,
            "ch": 9
          },
          {
            "step": 20,
            "len": 2,
            "note": 42,
            "vel": 89,
            "ch": 9
          },
          {
            "step": 24,
            "len": 2,
            "note": 35,
            "vel": 89,
            "ch": 9
          },
          {
            "step": 24,
            "len": 2,
            "note": 42,
            "vel": 89,
            "ch": 9
          },
          {
            "step": 28,
            "len": 2,
            "note": 38,
            "vel": 89,
            "ch": 9
          },
          {
            "step": 28,
            "len": 2,
            "note": 42,
            "vel": 89,
            "ch": 9
          },
          {
            "step": 30,
            "len": 2,
            "note": 35,
            "vel": 89,
            "ch": 9
          },
          {
            "step": 30,
            "len": 2,
            "note": 42,
            "vel": 89,
            "ch": 9
          },
          {
            "step": 32,
            "len": 2,
            "note": 35,
            "vel": 89,
            "ch": 9
          },
          {
            "step": 32,
            "len": 2,
            "note": 42,
            "vel": 89,
            "ch": 9
          },
          {
            "step": 36,
            "len": 2,
            "note": 38,
            "vel": 89,
            "ch": 9
          },
          {
            "step": 36,
            "len": 2,
            "note": 42,
            "vel": 89,
            "ch": 9
          },
          {
            "step": 38,
            "len": 2,
            "note": 35,
            "vel": 89,
            "ch": 9
          },
          {
            "step": 38,
            "len": 2,
            "note": 42,
            "vel": 89,
            "ch": 9
          },
          {
            "step": 40,
            "len": 2,
            "note": 35,
            "vel": 89,
            "ch": 9
          },
          {
            "step": 40,
            "len": 2,
            "note": 42,
            "vel": 89,
            "ch": 9
          },
          {
            "step": 44,
            "len": 2,
            "note": 38,
            "vel": 89,
            "ch": 9
          },
          {
            "step": 44,
            "len": 2,
            "note": 42,
            "vel": 89,
            "ch": 9
          },
          {
            "step": 46,
            "len": 2,
            "note": 35,
            "vel": 89,
            "ch": 9
          },
          {
            "step": 46,
            "len": 2,
            "note": 42,
            "vel": 89,
            "ch": 9
          },
          {
            "step": 48,
            "len": 2,
            "note": 35,
            "vel": 89,
            "ch": 9
          },
          {
            "step": 48,
            "len": 2,
            "note": 42,
            "vel": 89,
            "ch": 9
          },
          {
            "step": 52,
            "len": 2,
            "note": 38,
            "vel": 89,
            "ch": 9
          },
          {
            "step": 52,
            "len": 2,
            "note": 42,
            "vel": 89,
            "ch": 9
          },
          {
            "step": 54,
            "len": 2,
            "note": 35,
            "vel": 89,
            "ch": 9
          },
          {
            "step": 54,
            "len": 2,
            "note": 42,
            "vel": 89,
            "ch": 9
          },
          {
            "step": 56,
            "len": 2,
            "note": 35,
            "vel": 89,
            "ch": 9
          },
          {
            "step": 56,
            "len": 2,
            "note": 42,
            "vel": 89,
            "ch": 9
          },
          {
            "step": 58,
            "len": 2,
            "note": 46,
            "vel": 89,
            "ch": 9
          },
          {
            "step": 60,
            "len": 2,
            "note": 38,
            "vel": 89,
            "ch": 9
          },
          {
            "step": 60,
            "len": 2,
            "note": 42,
            "vel": 89,
            "ch": 9
          },
          {
            "step": 62,
            "len": 1,
            "note": 38,
            "vel": 102,
            "ch": 9
          },
          {
            "step": 63,
            "len": 1,
            "note": 38,
            "vel": 102,
            "ch": 9
          }
        ]
      }
    ]
  }
}